<svg fill="none" height="16" viewBox="0 0 16 16" width="16" xmlns="http://www.w3.org/2000/svg"><rect fill="#000" height="16" rx="7" width="16"/><g fill="#fff"><path d="m9.19949 6.99074c0-.60436-.48989-1.09426-1.09425-1.09426-.60432 0-1.09425.48989-1.09425 1.09426 0 .42287.24027.78903.59141.97121l-.40555 1.75367h1.81678l-.40551-1.75367c.35109-.18218.59137-.54834.59137-.97121z"/><path d="m12.759 9.5428c-.2356 1.8295-1.802 3.248-3.69463 3.248h-2.1013c-2.05478 0-3.72645-1.6717-3.72645-3.72644v-2.10125c0-2.05477 1.67167-3.72646 3.72645-3.72646h2.1013c1.89263 0 3.45903 1.41858 3.69463 3.24806h1.2449c-.2415-2.51302-2.3643-4.48471-4.93953-4.48471h-2.1013c-2.73665 0-4.96307 2.22647-4.96307 4.96311v2.10125c0 2.73664 2.22643 4.96314 4.96307 4.96314h2.1013c2.57523 0 4.69803-1.9718 4.93953-4.4847z"/></g></svg>