<svg fill="none" height="120" viewBox="0 0 120 120" width="120" xmlns="http://www.w3.org/2000/svg" xmlns:xlink="http://www.w3.org/1999/xlink"><clipPath id="a"><path d="m23 23h74v74h-74z"/></clipPath><circle cx="60" cy="60" r="58.75" stroke="#666670" stroke-width="2.5"/><g clip-path="url(#a)"><path d="m60 97c20.4345 0 37-16.5655 37-37s-16.5655-37-37-37-37 16.5655-37 37 16.5655 37 37 37z" fill="#ff0420"/><g fill="#fff"><path d="m49.2157 69.834c-2.2031 0-4.0081-.5184-5.4152-1.5552-1.3885-1.0552-2.0828-2.5548-2.0828-4.4987 0-.4073.0463-.9073.1388-1.4997.2408-1.3329.5833-2.9344 1.0276-4.8042 1.2589-5.0912 4.5081-7.6368 9.7474-7.6368 1.4256 0 2.703.2406 3.8323.7219 1.1294.4628 2.018 1.1664 2.666 2.1106.6479.9256.972 2.0365.972 3.3324 0 .3888-.0463.8794-.1389 1.4719-.2777 1.6476-.611 3.2491-.9998 4.8042-.6479 2.5364-1.768 4.4341-3.3602 5.693-1.5922 1.2403-3.7211 1.8606-6.3872 1.8606zm.3888-3.999c1.0369 0 1.9161-.3054 2.6382-.9164.7406-.6109 1.2682-1.5458 1.5829-2.8047.4258-1.7403.7499-3.2585.9721-4.5544.074-.3888.111-.7868.111-1.1942 0-1.6847-.8795-2.5271-2.6381-2.5271-1.0369 0-1.9255.3054-2.6661.9164-.722.6111-1.2404 1.546-1.5551 2.8049-.3332 1.2404-.6665 2.7586-.9997 4.5544-.0741.3701-.1111.7589-.1111 1.1662 0 1.7034.8887 2.5549 2.6659 2.5549z"/><path d="m61.3769 69.5564c-.2037 0-.3612-.0649-.4722-.1945-.0926-.1482-.1203-.3147-.0833-.4998l3.8323-18.0508c.037-.2037.1388-.3703.3055-.5.1666-.1295.3425-.1943.5276-.1943h7.387c2.055 0 3.7027.4258 4.943 1.2774 1.2591.8517 1.8885 2.0828 1.8885 3.6935 0 .4628-.0555.9442-.1666 1.444-.4628 2.1291-1.3977 3.7028-2.8048 4.7211-1.3885 1.0182-3.2955 1.5273-5.7208 1.5273h-3.749l-1.2773 6.0818c-.0372.2036-.139.3701-.3055.4998-.1667.1296-.3426.1945-.5276.1945zm9.8307-10.6084c.7774 0 1.4532-.213 2.0272-.6388.5924-.4257.9812-1.0367 1.1663-1.8328.0555-.3148.0834-.5924.0834-.8331 0-.5369-.1573-.9442-.4721-1.2219-.3148-.2963-.8516-.4443-1.6107-.4443h-3.3325l-1.0553 4.9709z"/></g></g></svg>