<svg width="120" height="120" viewBox="0 0 120 120" fill="none" xmlns="http://www.w3.org/2000/svg">
<g clip-path="url(#clip0_212_2160)">
<path d="M88.4823 37.6156L65.7981 24.4984C64.1614 23.5763 62.3402 23.0692 60.4499 23.0692C58.5595 23.0692 56.7383 23.5763 55.1246 24.4984L32.4405 37.6156C30.8268 38.5607 29.4667 39.8978 28.5215 41.5346C27.5763 43.1483 27.0922 44.9925 27.0922 46.8829V73.1632C27.1153 75.0305 27.5994 76.8517 28.5446 78.4654C29.4897 80.0791 30.8268 81.4162 32.4405 82.3383L55.1246 95.4554C56.7383 96.4006 58.5826 96.8847 60.4729 96.8847C62.3633 96.8847 64.1844 96.4006 65.8212 95.4554L88.5053 82.3383C90.119 81.3931 91.4791 80.0561 92.4243 78.4193C93.3695 76.8056 93.8536 74.9614 93.8536 73.071V46.7907C93.8305 44.9234 93.3464 43.1022 92.4013 41.4885C91.433 39.8748 90.096 38.5377 88.4823 37.6156ZM32.4175 46.8598C32.4175 45.9146 32.671 44.9925 33.1321 44.1857C33.5932 43.3788 34.2847 42.6872 35.0916 42.2262L57.7757 29.1321C58.5826 28.671 59.5047 28.4174 60.4499 28.4174C61.395 28.4174 62.3171 28.671 63.124 29.1321L85.8312 42.2262C86.638 42.6872 87.3066 43.3558 87.7676 44.1396C88.2287 44.9464 88.4822 45.8455 88.5053 46.7676V49.4417C88.5053 51.5165 87.6754 53.5221 86.2 54.9745C84.7246 56.4498 82.7421 57.2797 80.6673 57.2797H40.2785C37.443 57.2797 34.6997 58.1788 32.4175 59.8847V46.8598ZM88.4823 73.071C88.4823 74.0162 88.2287 74.9383 87.7676 75.7452C87.3066 76.552 86.615 77.2436 85.8081 77.7047L63.1009 90.7987C62.2941 91.2598 61.372 91.5134 60.4268 91.5134C59.4816 91.5134 58.5595 91.2598 57.7527 90.7987L35.0685 77.7047C34.2617 77.2436 33.5932 76.5751 33.1321 75.7913C32.671 74.9844 32.4175 74.0854 32.3944 73.1632V70.4891C32.3944 68.4143 33.2243 66.4087 34.6997 64.9564C36.1751 63.481 38.1576 62.6511 40.2324 62.6511H80.5981C83.4337 62.6511 86.177 61.752 88.4592 60.0461V73.071H88.4823Z" fill="#5C4B9A"/>
<path d="M48.0473 45.5227H53.2342V53.2685H58.5825V45.5227C58.5825 44.1165 58.0293 42.7564 57.0149 41.7421C56.0236 40.7508 54.6635 40.1745 53.2342 40.1745H48.0473C46.6411 40.1745 45.281 40.7277 44.2666 41.7421C43.2754 42.7333 42.699 44.0935 42.699 45.5227V53.2685H48.0473V45.5227Z" fill="#5C4B9A"/>
<path d="M53.2112 74.4081H48.0243V66.6623H42.676V74.4081C42.676 75.8143 43.2293 77.1744 44.2436 78.1888C45.2349 79.18 46.595 79.7564 48.0243 79.7564H53.2112C54.6175 79.7564 55.9776 79.2031 56.9919 78.1888C57.9832 77.1975 58.5595 75.8374 58.5595 74.4081V66.6623H53.2112V74.4081Z" fill="#5C4B9A"/>
<path d="M69.0717 45.5227H74.2586V53.2685H79.6069V45.5227C79.6069 44.1165 79.0536 42.7564 78.0393 41.7421C77.048 40.7508 75.6879 40.1745 74.2586 40.1745H69.0717C67.6654 40.1745 66.3053 40.7277 65.291 41.7421C64.2997 42.7333 63.7234 44.0935 63.7234 45.5227V53.2685H69.0717V45.5227Z" fill="#5C4B9A"/>
<path d="M74.2816 74.4081H69.0947V66.6623H63.7464V74.4081C63.7464 75.8143 64.2997 77.1744 65.314 78.1888C66.3053 79.18 67.6654 79.7564 69.0947 79.7564H74.2816C75.6878 79.7564 77.048 79.2031 78.0623 78.1888C79.0536 77.1975 79.6299 75.8374 79.6299 74.4081V66.6623H74.2816V74.4081Z" fill="#5C4B9A"/>
</g>
<rect x="1.25" y="1.25" width="117.5" height="117.5" rx="58.75" stroke="#666670" stroke-width="2.5"/>
<defs>
<clipPath id="clip0_212_2160">
<rect width="66.8536" height="74" fill="white" transform="translate(27 23)"/>
</clipPath>
</defs>
</svg>
