<svg fill="none" height="120" viewBox="0 0 120 120" width="120" xmlns="http://www.w3.org/2000/svg" xmlns:xlink="http://www.w3.org/1999/xlink"><clipPath id="a"><path d="m23 23h73.9508v74h-73.9508z"/></clipPath><circle cx="60" cy="60" r="58.75" stroke="#666670" stroke-width="2.5"/><g clip-path="url(#a)"><path d="m82.7806 35.6941h-45.6596v41.5266h45.6596z" fill="#fff"/><path clip-rule="evenodd" d="m96.9262 60c0 20.4076-16.5432 36.9508-36.9508 36.9508-20.4074 0-36.9508-16.5432-36.9508-36.9508 0-20.4074 16.5434-36.9508 36.9508-36.9508 20.4076 0 36.9508 16.5434 36.9508 36.9508zm-47.4216 14.7045h-7.1711c-1.5069 0-2.2512 0-2.7051-.2902-.4902-.3179-.7897-.8444-.826-1.4254-.0273-.5353.3449-1.1891 1.0893-2.4963l17.7063-31.2099c.7535-1.3253 1.1347-1.988 1.6158-2.233.5174-.2633 1.1347-.2633 1.6521 0 .4811.245.8624.9077 1.6158 2.233l3.64 6.3542.0186.0324c.8137 1.4218 1.2264 2.1428 1.4066 2.8995.1996.8261.1996 1.6975 0 2.5235-.1816.7625-.5901 1.4888-1.4161 2.9321l-9.3007 16.441-.0241.0421c-.8191 1.4335-1.2342 2.1601-1.8096 2.7082-.6263.5993-1.3797 1.0347-2.2058 1.2802-.7534.2086-1.5976.2086-3.286.2086zm18.1094 0h10.2754c1.5159 0 2.2786.0001 2.7327-.2991.49-.3178.7985-.8537.8261-1.4342.0261-.5181-.338-1.1465-1.0515-2.3776-.0246-.042-.0492-.0846-.0743-.128l-5.147-8.805-.0585-.0992c-.7233-1.223-1.0884-1.8407-1.5573-2.0794-.5171-.2633-1.1257-.2633-1.6429 0-.472.2451-.8533.8896-1.6067 2.1876l-5.1287 8.8051-.0176.0303c-.7508 1.296-1.126 1.9436-1.0989 2.475.0363.5811.3358 1.1164.826 1.4343.4448.2902 1.2073.2902 2.7232.2902z" fill="#e84142" fill-rule="evenodd"/></g></svg>