<svg width="113" height="112" viewBox="0 0 113 112" fill="none" xmlns="http://www.w3.org/2000/svg">
<g clip-path="url(#clip0_26840_365503)">
<path d="M53.389 23.641C55.0068 22.7863 57.4686 22.7863 59.0865 23.641L75.5955 32.3618C76.5699 32.8765 77.105 33.6435 77.2009 34.4352H77.2167V78.2702C77.1952 79.1339 76.655 79.9919 75.5955 80.5515L59.0865 89.2724C57.4686 90.127 55.0068 90.127 53.389 89.2724L36.88 80.5515C35.8249 79.9942 35.3185 79.1303 35.2935 78.2702C35.2909 78.182 35.2907 78.1093 35.2934 78.0494L35.2935 34.7304C35.291 34.6694 35.291 34.6088 35.2934 34.5484L35.2935 34.4352H35.3008C35.3742 33.6347 35.885 32.8873 36.88 32.3618L53.389 23.641ZM74.6181 58.8904L59.0865 67.0949C57.4686 67.9496 55.0068 67.9496 53.389 67.0949L37.8919 58.9087V78.184L53.389 86.3268C54.3048 86.8162 55.257 87.293 56.1842 87.3138L56.2377 87.3144C57.1631 87.3175 58.0616 86.8475 58.9727 86.4026L74.6181 78.1138V58.8904ZM32.6083 77.3172C32.6083 78.9967 32.8035 80.1006 33.191 80.8783C33.5122 81.5229 33.9941 82.0155 34.874 82.6149L34.9243 82.6489C35.1174 82.7792 35.3301 82.9156 35.589 83.0759L35.8944 83.2629L36.8321 83.8289L35.4872 86.0526L34.4377 85.4187L34.2612 85.3103C33.9578 85.1229 33.7063 84.9621 33.4717 84.8038C30.9638 83.1129 30.0285 81.2693 30.01 77.4341L30.0098 77.3172H32.6083ZM54.9384 47.1414C54.8181 47.1827 54.7054 47.2305 54.6026 47.2848L38.0935 56.0056C38.0762 56.0147 38.0597 56.0238 38.044 56.0327L38.03 56.0408L38.0559 56.0557L38.0935 56.0761L54.6026 64.7969C54.7054 64.8512 54.8181 64.899 54.9384 64.9403V47.1414ZM57.537 47.1414V64.9403C57.6574 64.899 57.7701 64.8512 57.8729 64.7969L74.3819 56.0761C74.3992 56.067 74.4158 56.0579 74.4315 56.0489L74.4455 56.0408L74.4196 56.026L74.3819 56.0056L57.8729 47.2848C57.7701 47.2305 57.6574 47.1827 57.537 47.1414ZM74.6181 37.5447L59.8083 45.3679L74.6181 53.1912V37.5447ZM37.8919 37.563V53.1729L52.6671 45.3679L37.8919 37.563ZM57.8729 25.939C57.0144 25.4855 55.4611 25.4855 54.6026 25.939L38.0935 34.6598C38.0762 34.669 38.0597 34.678 38.044 34.687L38.03 34.6951L38.0559 34.7099L38.0935 34.7304L54.6026 43.4511C55.4611 43.9047 57.0144 43.9047 57.8729 43.4511L74.3819 34.7304C74.3992 34.7212 74.4158 34.7122 74.4315 34.7032L74.4455 34.6951L74.4196 34.6803L74.3819 34.6598L57.8729 25.939ZM77.0575 26.8954L78.1071 27.5293L78.2835 27.6376C78.5869 27.825 78.8385 27.9859 79.0731 28.1441C81.581 29.8351 82.5163 31.6787 82.5347 35.5139L82.535 35.6308H79.9365C79.9365 33.9512 79.7413 32.8474 79.3537 32.0696C79.0326 31.4251 78.5507 30.9325 77.6708 30.3331L77.6205 30.299C77.4274 30.1688 77.2147 30.0324 76.9557 29.8721L76.6503 29.6851L75.7126 29.1191L77.0575 26.8954Z" fill="#1969FF"/>
</g>
<rect x="1.50977" y="1.5" width="109" height="109" rx="54.5" stroke="#656672" stroke-width="3"/>
<defs>
<clipPath id="clip0_26840_365503">
<rect width="52.5252" height="67" fill="white" transform="translate(30.0098 23)"/>
</clipPath>
</defs>
</svg>
