<svg id="my-svg" width="100%" xmlns="http://www.w3.org/2000/svg" xmlns:xlink="http://www.w3.org/1999/xlink" class="flowchart" style="max-width: 673.984px; background-color: transparent;" viewBox="0 16 673.984375 889" role="graphics-document document" aria-roledescription="flowchart-v2"><style>#my-svg{font-family:ui-monospace,SFMono-Regular,Menlo,monospace;font-size:16px;fill:#1F2937;}@keyframes edge-animation-frame{from{stroke-dashoffset:0;}}@keyframes dash{to{stroke-dashoffset:0;}}#my-svg .edge-animation-slow{stroke-dasharray:9,5!important;stroke-dashoffset:900;animation:dash 50s linear infinite;stroke-linecap:round;}#my-svg .edge-animation-fast{stroke-dasharray:9,5!important;stroke-dashoffset:900;animation:dash 20s linear infinite;stroke-linecap:round;}#my-svg .error-icon{fill:#F8FAFC;}#my-svg .error-text{fill:#070503;stroke:#070503;}#my-svg .edge-thickness-normal{stroke-width:1px;}#my-svg .edge-thickness-thick{stroke-width:3.5px;}#my-svg .edge-pattern-solid{stroke-dasharray:0;}#my-svg .edge-thickness-invisible{stroke-width:0;fill:none;}#my-svg .edge-pattern-dashed{stroke-dasharray:3;}#my-svg .edge-pattern-dotted{stroke-dasharray:2;}#my-svg .marker{fill:#94A3B8;stroke:#94A3B8;}#my-svg .marker.cross{stroke:#94A3B8;}#my-svg svg{font-family:ui-monospace,SFMono-Regular,Menlo,monospace;font-size:16px;}#my-svg p{margin:0;}#my-svg .label{font-family:ui-monospace,SFMono-Regular,Menlo,monospace;color:#1F2937;}#my-svg .cluster-label text{fill:#1F2937;}#my-svg .cluster-label span{color:#1F2937;}#my-svg .cluster-label span p{background-color:transparent;}#my-svg .label text,#my-svg span{fill:#1F2937;color:#1F2937;}#my-svg .node rect,#my-svg .node circle,#my-svg .node ellipse,#my-svg .node polygon,#my-svg .node path{fill:#F8FAFC;stroke:#94A3B8;stroke-width:1px;}#my-svg .rough-node .label text,#my-svg .node .label text,#my-svg .image-shape .label,#my-svg .icon-shape .label{text-anchor:middle;}#my-svg .node .katex path{fill:#000;stroke:#000;stroke-width:1px;}#my-svg .rough-node .label,#my-svg .node .label,#my-svg .image-shape .label,#my-svg .icon-shape .label{text-align:center;}#my-svg .node.clickable{cursor:pointer;}#my-svg .root .anchor path{fill:#94A3B8!important;stroke-width:0;stroke:#94A3B8;}#my-svg .arrowheadPath{fill:#0b0b0b;}#my-svg .edgePath .path{stroke:#94A3B8;stroke-width:1px;}#my-svg .flowchart-link{stroke:#94A3B8;fill:none;}#my-svg .edgeLabel{background-color:#FFFFFF;text-align:center;}#my-svg .edgeLabel p{background-color:#FFFFFF;}#my-svg .edgeLabel rect{opacity:0.5;background-color:#FFFFFF;fill:#FFFFFF;}#my-svg .labelBkg{background-color:rgba(255, 255, 255, 0.5);}#my-svg .cluster rect{fill:transparent;stroke:#94A3B8;stroke-width:1px;}#my-svg .cluster text{fill:#1F2937;}#my-svg .cluster span{color:#1F2937;}#my-svg div.mermaidTooltip{position:absolute;text-align:center;max-width:200px;padding:2px;font-family:ui-monospace,SFMono-Regular,Menlo,monospace;font-size:12px;background:#F8FAFC;border:1px solid hsl(210, 0%, 88.0392156863%);border-radius:2px;pointer-events:none;z-index:100;}#my-svg .flowchartTitleText{text-anchor:middle;font-size:18px;fill:#1F2937;}#my-svg rect.text{fill:none;stroke-width:0;}#my-svg .icon-shape,#my-svg .image-shape{background-color:#FFFFFF;text-align:center;}#my-svg .icon-shape p,#my-svg .image-shape p{background-color:#FFFFFF;padding:2px;}#my-svg .icon-shape .label rect,#my-svg .image-shape .label rect{opacity:0.5;background-color:#FFFFFF;fill:#FFFFFF;}#my-svg .label-icon{display:inline-block;height:1em;overflow:visible;vertical-align:-0.125em;}#my-svg .node .label-icon path{fill:currentColor;stroke:revert;stroke-width:revert;}#my-svg .node .neo-node{stroke:#94A3B8;}#my-svg [data-look="neo"].node rect,#my-svg [data-look="neo"].cluster rect,#my-svg [data-look="neo"].node polygon{stroke:url(#my-svg-gradient);filter:drop-shadow( 1px 2px 2px rgba(185,185,185,1));}#my-svg [data-look="neo"].node path{stroke:url(#my-svg-gradient);stroke-width:1px;}#my-svg [data-look="neo"].node .outer-path{filter:drop-shadow( 1px 2px 2px rgba(185,185,185,1));}#my-svg [data-look="neo"].node .neo-line path{stroke:#94A3B8;filter:none;}#my-svg [data-look="neo"].node circle{stroke:url(#my-svg-gradient);filter:drop-shadow( 1px 2px 2px rgba(185,185,185,1));}#my-svg [data-look="neo"].node circle .state-start{fill:#000000;}#my-svg [data-look="neo"].icon-shape .icon{fill:url(#my-svg-gradient);filter:drop-shadow( 1px 2px 2px rgba(185,185,185,1));}#my-svg [data-look="neo"].icon-shape .icon-neo path{stroke:url(#my-svg-gradient);filter:drop-shadow( 1px 2px 2px rgba(185,185,185,1));}#my-svg :root{--mermaid-font-family:"trebuchet ms",verdana,arial,sans-serif;}#my-svg .accent&gt;*{fill:rgb(124, 58, 237)!important;stroke:rgb(124, 58, 237)!important;color:rgb(255, 255, 255)!important;}#my-svg .accent span{fill:rgb(124, 58, 237)!important;stroke:rgb(124, 58, 237)!important;color:rgb(255, 255, 255)!important;}#my-svg .accent tspan{fill:rgb(255, 255, 255)!important;}</style><g><marker id="my-svg_flowchart-v2-pointEnd" class="marker flowchart-v2" viewBox="0 0 10 10" refX="5" refY="5" markerUnits="userSpaceOnUse" markerWidth="8" markerHeight="8" orient="auto"><path d="M 0 0 L 10 5 L 0 10 z" class="arrowMarkerPath" style="stroke-width: 1; stroke-dasharray: 1, 0;"/></marker><marker id="my-svg_flowchart-v2-pointStart" class="marker flowchart-v2" viewBox="0 0 10 10" refX="4.5" refY="5" markerUnits="userSpaceOnUse" markerWidth="8" markerHeight="8" orient="auto"><path d="M 0 5 L 10 10 L 10 0 z" class="arrowMarkerPath" style="stroke-width: 1; stroke-dasharray: 1, 0;"/></marker><marker id="my-svg_flowchart-v2-pointEnd-margin" class="marker flowchart-v2" viewBox="0 0 11.5 14" refX="11.5" refY="7" markerUnits="userSpaceOnUse" markerWidth="10.5" markerHeight="14" orient="auto"><path d="M 0 0 L 11.5 7 L 0 14 z" class="arrowMarkerPath" style="stroke-width: 0; stroke-dasharray: 1, 0;"/></marker><marker id="my-svg_flowchart-v2-pointStart-margin" class="marker flowchart-v2" viewBox="0 0 11.5 14" refX="1" refY="7" markerUnits="userSpaceOnUse" markerWidth="11.5" markerHeight="14" orient="auto"><polygon points="0,7 11.5,14 11.5,0" class="arrowMarkerPath" style="stroke-width: 0; stroke-dasharray: 1, 0;"/></marker><marker id="my-svg_flowchart-v2-circleEnd" class="marker flowchart-v2" viewBox="0 0 10 10" refX="11" refY="5" markerUnits="userSpaceOnUse" markerWidth="11" markerHeight="11" orient="auto"><circle cx="5" cy="5" r="5" class="arrowMarkerPath" style="stroke-width: 1; stroke-dasharray: 1, 0;"/></marker><marker id="my-svg_flowchart-v2-circleStart" class="marker flowchart-v2" viewBox="0 0 10 10" refX="-1" refY="5" markerUnits="userSpaceOnUse" markerWidth="11" markerHeight="11" orient="auto"><circle cx="5" cy="5" r="5" class="arrowMarkerPath" style="stroke-width: 1; stroke-dasharray: 1, 0;"/></marker><marker id="my-svg_flowchart-v2-circleEnd-margin" class="marker flowchart-v2" viewBox="0 0 10 10" refY="5" refX="12.25" markerUnits="userSpaceOnUse" markerWidth="14" markerHeight="14" orient="auto"><circle cx="5" cy="5" r="5" class="arrowMarkerPath" style="stroke-width: 0; stroke-dasharray: 1, 0;"/></marker><marker id="my-svg_flowchart-v2-circleStart-margin" class="marker flowchart-v2" viewBox="0 0 10 10" refX="-2" refY="5" markerUnits="userSpaceOnUse" markerWidth="14" markerHeight="14" orient="auto"><circle cx="5" cy="5" r="5" class="arrowMarkerPath" style="stroke-width: 0; stroke-dasharray: 1, 0;"/></marker><marker id="my-svg_flowchart-v2-crossEnd" class="marker cross flowchart-v2" viewBox="0 0 11 11" refX="12" refY="5.2" markerUnits="userSpaceOnUse" markerWidth="11" markerHeight="11" orient="auto"><path d="M 1,1 l 9,9 M 10,1 l -9,9" class="arrowMarkerPath" style="stroke-width: 2; stroke-dasharray: 1, 0;"/></marker><marker id="my-svg_flowchart-v2-crossStart" class="marker cross flowchart-v2" viewBox="0 0 11 11" refX="-1" refY="5.2" markerUnits="userSpaceOnUse" markerWidth="11" markerHeight="11" orient="auto"><path d="M 1,1 l 9,9 M 10,1 l -9,9" class="arrowMarkerPath" style="stroke-width: 2; stroke-dasharray: 1, 0;"/></marker><marker id="my-svg_flowchart-v2-crossEnd-margin" class="marker cross flowchart-v2" viewBox="0 0 15 15" refX="17.7" refY="7.5" markerUnits="userSpaceOnUse" markerWidth="12" markerHeight="12" orient="auto"><path d="M 1,1 L 14,14 M 1,14 L 14,1" class="arrowMarkerPath" style="stroke-width: 2.5;"/></marker><marker id="my-svg_flowchart-v2-crossStart-margin" class="marker cross flowchart-v2" viewBox="0 0 15 15" refX="-3.5" refY="7.5" markerUnits="userSpaceOnUse" markerWidth="12" markerHeight="12" orient="auto"><path d="M 1,1 L 14,14 M 1,14 L 14,1" class="arrowMarkerPath" style="stroke-width: 2.5; stroke-dasharray: 1, 0;"/></marker><g class="root"><g class="clusters"><g class="cluster" id="my-svg-PE" data-look="classic"><rect style="" x="23.2265625" y="653" width="636.796875" height="244"/><g class="cluster-label" transform="translate(259.7421875, 661)"><foreignObject width="163.765625" height="24"><div xmlns="http://www.w3.org/1999/xhtml" style="display: table-cell; white-space: nowrap; line-height: 1.5;"><span class="nodeLabel"><p>Play agent engine</p></span></div></foreignObject></g></g><g class="cluster" id="my-svg-NS" data-look="classic"><rect style="" x="8" y="71" width="657.984375" height="574"/><g class="cluster-label" transform="translate(264.7421875, 79)"><foreignObject width="144.5" height="24"><div xmlns="http://www.w3.org/1999/xhtml" style="display: table-cell; white-space: nowrap; line-height: 1.5;"><span class="nodeLabel"><p>Noise to signal</p></span></div></foreignObject></g></g></g><g class="edgePaths"><path d="M122.445,63.5L122.362,66.75C122.279,70,122.112,76.5,122.029,83.083C121.945,89.667,121.945,96.333,121.945,104.333C121.945,112.333,121.945,121.667,121.945,126.333L121.945,131" id="my-svg-L_V_P_0" class="edge-thickness-normal edge-pattern-solid edge-thickness-normal edge-pattern-solid flowchart-link" style=";" data-edge="true" data-et="edge" data-id="L_V_P_0" data-points="W3sieCI6MTIyLjQ0NTMxMjUsInkiOjYzLjV9LHsieCI6MTIxLjk0NTMxMjUsInkiOjgzfSx7IngiOjEyMS45NDUzMTI1LCJ5IjoxMDN9LHsieCI6MTIxLjk0NTMxMjUsInkiOjEzNX1d" data-look="classic" marker-end="url(#my-svg_flowchart-v2-pointEnd)"/><path d="M121.945,189L121.945,194.333C121.945,199.667,121.945,210.333,135.51,218.848C149.075,227.362,176.204,233.724,189.769,236.906L203.334,240.087" id="my-svg-L_P_ID_0" class="edge-thickness-normal edge-pattern-solid edge-thickness-normal edge-pattern-solid flowchart-link" style=";" data-edge="true" data-et="edge" data-id="L_P_ID_0" data-points="W3sieCI6MTIxLjk0NTMxMjUsInkiOjE4OX0seyJ4IjoxMjEuOTQ1MzEyNSwieSI6MjIxfSx7IngiOjIwNy4yMjc4OTIyODcyMzQwNiwieSI6MjQxfV0=" data-look="classic" marker-end="url(#my-svg_flowchart-v2-pointEnd)"/><path d="M317.914,189L317.914,194.333C317.914,199.667,317.914,210.333,318.167,218.336C318.419,226.339,318.924,231.679,319.177,234.348L319.429,237.018" id="my-svg-L_PH_ID_0" class="edge-thickness-normal edge-pattern-solid edge-thickness-normal edge-pattern-solid flowchart-link" style=";" data-edge="true" data-et="edge" data-id="L_PH_ID_0" data-points="W3sieCI6MzE3LjkxNDA2MjUsInkiOjE4OX0seyJ4IjozMTcuOTE0MDYyNSwieSI6MjIxfSx7IngiOjMxOS44MDU2ODQ4NDA0MjU1NiwieSI6MjQxfV0=" data-look="classic" marker-end="url(#my-svg_flowchart-v2-pointEnd)"/><path d="M547.594,201L547.594,204.333C547.594,207.667,547.594,214.333,530.96,221.138C514.326,227.942,481.058,234.884,464.425,238.355L447.791,241.826" id="my-svg-L_WH_ID_0" class="edge-thickness-normal edge-pattern-solid edge-thickness-normal edge-pattern-solid flowchart-link" style=";" data-edge="true" data-et="edge" data-id="L_WH_ID_0" data-points="W3sieCI6NTQ3LjU5Mzc1LCJ5IjoyMDF9LHsieCI6NTQ3LjU5Mzc1LCJ5IjoyMjF9LHsieCI6NDQzLjg3NSwieSI6MjQyLjY0MzE0OTQ5NzA1MTd9XQ==" data-look="classic" marker-end="url(#my-svg_flowchart-v2-pointEnd)"/><path d="M322.359,295L322.359,298.333C322.359,301.667,322.359,308.333,322.359,314.333C322.359,320.333,322.359,325.667,322.359,328.333L322.359,331" id="my-svg-L_ID_CO_0" class="edge-thickness-normal edge-pattern-solid edge-thickness-normal edge-pattern-solid flowchart-link" style=";" data-edge="true" data-et="edge" data-id="L_ID_CO_0" data-points="W3sieCI6MzIyLjM1OTM3NSwieSI6Mjk1fSx7IngiOjMyMi4zNTkzNzUsInkiOjMxNX0seyJ4IjozMjIuMzU5Mzc1LCJ5IjozMzV9XQ==" data-look="classic" marker-end="url(#my-svg_flowchart-v2-pointEnd)"/><path d="M322.359,413L322.359,416.333C322.359,419.667,322.359,426.333,322.359,432.333C322.359,438.333,322.359,443.667,322.359,446.333L322.359,449" id="my-svg-L_CO_S_0" class="edge-thickness-normal edge-pattern-solid edge-thickness-normal edge-pattern-solid flowchart-link" style=";" data-edge="true" data-et="edge" data-id="L_CO_S_0" data-points="W3sieCI6MzIyLjM1OTM3NSwieSI6NDEzfSx7IngiOjMyMi4zNTkzNzUsInkiOjQzM30seyJ4IjozMjIuMzU5Mzc1LCJ5Ijo0NTN9XQ==" data-look="classic" marker-end="url(#my-svg_flowchart-v2-pointEnd)"/><path d="M322.359,507L322.359,510.333C322.359,513.667,322.359,520.333,322.359,526.333C322.359,532.333,322.359,537.667,322.359,540.333L322.359,543" id="my-svg-L_S_SC_0" class="edge-thickness-normal edge-pattern-solid edge-thickness-normal edge-pattern-solid flowchart-link" style=";" data-edge="true" data-et="edge" data-id="L_S_SC_0" data-points="W3sieCI6MzIyLjM1OTM3NSwieSI6NTA3fSx7IngiOjMyMi4zNTkzNzUsInkiOjUyN30seyJ4IjozMjIuMzU5Mzc1LCJ5Ijo1NDd9XQ==" data-look="classic" marker-end="url(#my-svg_flowchart-v2-pointEnd)"/><path d="M268.273,745.299L245.43,750.916C222.586,756.533,176.898,767.766,154.055,778.05C131.211,788.333,131.211,797.667,131.211,802.333L131.211,807" id="my-svg-L_PL_O1_0" class="edge-thickness-normal edge-pattern-solid edge-thickness-normal edge-pattern-solid flowchart-link" style=";" data-edge="true" data-et="edge" data-id="L_PL_O1_0" data-points="W3sieCI6MjY4LjI3MzQzNzUsInkiOjc0NS4yOTg3Njk3NzE1Mjl9LHsieCI6MTMxLjIxMDkzNzUsInkiOjc3OX0seyJ4IjoxMzEuMjEwOTM3NSwieSI6ODExfV0=" data-look="classic" marker-end="url(#my-svg_flowchart-v2-pointEnd)"/><path d="M322.359,759L322.359,762.333C322.359,765.667,322.359,772.333,322.359,780.333C322.359,788.333,322.359,797.667,322.359,802.333L322.359,807" id="my-svg-L_PL_O2_0" class="edge-thickness-normal edge-pattern-solid edge-thickness-normal edge-pattern-solid flowchart-link" style=";" data-edge="true" data-et="edge" data-id="L_PL_O2_0" data-points="W3sieCI6MzIyLjM1OTM3NSwieSI6NzU5fSx7IngiOjMyMi4zNTkzNzUsInkiOjc3OX0seyJ4IjozMjIuMzU5Mzc1LCJ5Ijo4MTF9XQ==" data-look="classic" marker-end="url(#my-svg_flowchart-v2-pointEnd)"/><path d="M376.445,744.081L402.5,749.901C428.555,755.721,480.664,767.36,506.719,775.847C532.773,784.333,532.773,789.667,532.773,792.333L532.773,795" id="my-svg-L_PL_O3_0" class="edge-thickness-normal edge-pattern-solid edge-thickness-normal edge-pattern-solid flowchart-link" style=";" data-edge="true" data-et="edge" data-id="L_PL_O3_0" data-points="W3sieCI6Mzc2LjQ0NTMxMjUsInkiOjc0NC4wODExMjcyNDE2NzM4fSx7IngiOjUzMi43NzM0Mzc1LCJ5Ijo3Nzl9LHsieCI6NTMyLjc3MzQzNzUsInkiOjc5OX1d" data-look="classic" marker-end="url(#my-svg_flowchart-v2-pointEnd)"/><path d="M322.359,625L322.359,628.333C322.359,631.667,322.359,638.333,322.359,645C322.359,651.667,322.359,658.333,322.359,665C322.359,671.667,322.359,678.333,322.359,684.333C322.359,690.333,322.359,695.667,322.359,698.333L322.359,701" id="my-svg-L_SC_PL_0" class="edge-thickness-normal edge-pattern-solid edge-thickness-normal edge-pattern-solid flowchart-link" style=";" data-edge="true" data-et="edge" data-id="L_SC_PL_0" data-points="W3sieCI6MzIyLjM1OTM3NSwieSI6NjI1fSx7IngiOjMyMi4zNTkzNzUsInkiOjY0NX0seyJ4IjozMjIuMzU5Mzc1LCJ5Ijo2NjV9LHsieCI6MzIyLjM1OTM3NSwieSI6Njg1fSx7IngiOjMyMi4zNTkzNzUsInkiOjcwNX1d" data-look="classic" marker-end="url(#my-svg_flowchart-v2-pointEnd)"/></g><g class="edgeLabels"><g class="edgeLabel"><g class="label" data-id="L_V_P_0" transform="translate(0, 0)"><foreignObject width="0" height="0"><div xmlns="http://www.w3.org/1999/xhtml" class="labelBkg" style="display: table-cell; white-space: nowrap; line-height: 1.5; max-width: 200px; text-align: center;"><span class="edgeLabel"></span></div></foreignObject></g></g><g class="edgeLabel"><g class="label" data-id="L_P_ID_0" transform="translate(0, 0)"><foreignObject width="0" height="0"><div xmlns="http://www.w3.org/1999/xhtml" class="labelBkg" style="display: table-cell; white-space: nowrap; line-height: 1.5; max-width: 200px; text-align: center;"><span class="edgeLabel"></span></div></foreignObject></g></g><g class="edgeLabel"><g class="label" data-id="L_PH_ID_0" transform="translate(0, 0)"><foreignObject width="0" height="0"><div xmlns="http://www.w3.org/1999/xhtml" class="labelBkg" style="display: table-cell; white-space: nowrap; line-height: 1.5; max-width: 200px; text-align: center;"><span class="edgeLabel"></span></div></foreignObject></g></g><g class="edgeLabel"><g class="label" data-id="L_WH_ID_0" transform="translate(0, 0)"><foreignObject width="0" height="0"><div xmlns="http://www.w3.org/1999/xhtml" class="labelBkg" style="display: table-cell; white-space: nowrap; line-height: 1.5; max-width: 200px; text-align: center;"><span class="edgeLabel"></span></div></foreignObject></g></g><g class="edgeLabel"><g class="label" data-id="L_ID_CO_0" transform="translate(0, 0)"><foreignObject width="0" height="0"><div xmlns="http://www.w3.org/1999/xhtml" class="labelBkg" style="display: table-cell; white-space: nowrap; line-height: 1.5; max-width: 200px; text-align: center;"><span class="edgeLabel"></span></div></foreignObject></g></g><g class="edgeLabel"><g class="label" data-id="L_CO_S_0" transform="translate(0, 0)"><foreignObject width="0" height="0"><div xmlns="http://www.w3.org/1999/xhtml" class="labelBkg" style="display: table-cell; white-space: nowrap; line-height: 1.5; max-width: 200px; text-align: center;"><span class="edgeLabel"></span></div></foreignObject></g></g><g class="edgeLabel"><g class="label" data-id="L_S_SC_0" transform="translate(0, 0)"><foreignObject width="0" height="0"><div xmlns="http://www.w3.org/1999/xhtml" class="labelBkg" style="display: table-cell; white-space: nowrap; line-height: 1.5; max-width: 200px; text-align: center;"><span class="edgeLabel"></span></div></foreignObject></g></g><g class="edgeLabel"><g class="label" data-id="L_PL_O1_0" transform="translate(0, 0)"><foreignObject width="0" height="0"><div xmlns="http://www.w3.org/1999/xhtml" class="labelBkg" style="display: table-cell; white-space: nowrap; line-height: 1.5; max-width: 200px; text-align: center;"><span class="edgeLabel"></span></div></foreignObject></g></g><g class="edgeLabel"><g class="label" data-id="L_PL_O2_0" transform="translate(0, 0)"><foreignObject width="0" height="0"><div xmlns="http://www.w3.org/1999/xhtml" class="labelBkg" style="display: table-cell; white-space: nowrap; line-height: 1.5; max-width: 200px; text-align: center;"><span class="edgeLabel"></span></div></foreignObject></g></g><g class="edgeLabel"><g class="label" data-id="L_PL_O3_0" transform="translate(0, 0)"><foreignObject width="0" height="0"><div xmlns="http://www.w3.org/1999/xhtml" class="labelBkg" style="display: table-cell; white-space: nowrap; line-height: 1.5; max-width: 200px; text-align: center;"><span class="edgeLabel"></span></div></foreignObject></g></g><g class="edgeLabel"><g class="label" data-id="L_SC_PL_0" transform="translate(0, 0)"><foreignObject width="0" height="0"><div xmlns="http://www.w3.org/1999/xhtml" class="labelBkg" style="display: table-cell; white-space: nowrap; line-height: 1.5; max-width: 200px; text-align: center;"><span class="edgeLabel"></span></div></foreignObject></g></g></g><g class="nodes"><g class="node default" id="my-svg-flowchart-V-0" data-look="classic" transform="translate(121.9453125, 43.5)"><g class="basic label-container outer-path"><path d="M-65.125 -19.5 C-20.9438128451241 -19.5, 23.2373743097518 -19.5, 65.125 -19.5 C65.125 -19.5, 65.125 -19.5, 65.125 -19.5 C65.46072510645345 -19.489233949285314, 65.7964502129069 -19.47846789857063, 66.3743692896239 -19.45993515863156 C66.73772522070179 -19.424882648959915, 67.10108115177968 -19.389830139288275, 67.61860465284786 -19.3399052695533 C68.00719421475448 -19.277081122741297, 68.39578377666109 -19.2142569759293, 68.85259325967675 -19.140403561325776 C69.12645967287308 -19.077895339659076, 69.40032608606941 -19.01538711799238, 70.07126438623538 -18.862249829261074 C70.37527657303644 -18.77202060801105, 70.67928875983752 -18.68179138676103, 71.2696102514606 -18.50658706670804 C71.67869271656784 -18.356040938031725, 72.08777518167507 -18.20549480935541, 72.4427065951478 -18.074876768247425 C72.79786510142297 -17.91765863292217, 73.15302360769816 -17.76044049759691, 73.58573291279238 -17.568892924097174 C73.93023939452748 -17.38916411324291, 74.27474587626256 -17.20943530238865, 74.69399226407678 -16.990714730406097 C75.01486112071719 -16.79620214387598, 75.33572997735759 -16.601689557345864, 75.7629305736057 -16.342718045390892 C76.0159160340199 -16.166246339770026, 76.26890149443409 -15.989774634149159, 76.78815534457871 -15.627565626425154 C77.06450685991437 -15.407182646967637, 77.34085837525002 -15.18679966751012, 77.76545370850187 -14.848196188198123 C77.9808777445099 -14.65255377850329, 78.19630178051791 -14.456911368808457, 78.69080973676799 -14.007812326905688 C79.0161209873922 -13.671901752085802, 79.34143223801641 -13.335991177265916, 79.56042094296865 -13.10986736009568 C79.85676935263113 -12.761759655403916, 80.15311776229362 -12.413651950712149, 80.37071390812658 -12.158051136245305 C80.5869929979462 -11.868256859317436, 80.80327208776582 -11.578462582389566, 81.11835896464063 -11.156274872382312 C81.38356326120689 -10.748849855531562, 81.64876755777313 -10.341424838680812, 81.80028387860425 -10.108655082055241 C82.01370306182862 -9.729707711204643, 82.227122245053 -9.350760340354045, 82.4136864742735 -9.019496659696287 C82.57907861147386 -8.676056347974928, 82.7444707486742 -8.332616036253569, 82.95604614880834 -7.893275190886684 C83.0869289317454 -7.569992186585657, 83.21781171468248 -7.24670918228463, 83.42513422997033 -6.734618561215508 C83.52638426006052 -6.429669602585351, 83.62763429015072 -6.124720643955194, 83.81902313421489 -5.548287939305138 C83.88845942686027 -5.283497261568688, 83.95789571950566 -5.018706583832239, 84.13609428754556 -4.339158212148133 C84.20485681037259 -3.986077190395645, 84.27361933319963 -3.632996168643157, 84.37504477658177 -3.1121979531509023 C84.43459723265583 -2.6503208638031057, 84.49414968872989 -2.188443774455309, 84.53489270250937 -1.872449005199798 C84.56556500278177 -1.394703170221914, 84.59623730305418 -0.9169573352440298, 84.61498121591342 -0.6250057626472757 C84.61498121591342 -0.2303675737782369, 84.61498121591342 0.16427061509080187, 84.61498121591342 0.625005762647271 C84.58503922807115 1.0913763920280473, 84.55509724022889 1.5577470214088232, 84.53489270250937 1.8724490051997846 C84.4724834156783 2.3564831097539622, 84.41007412884721 2.84051721430814, 84.37504477658177 3.1121979531508885 C84.29626864260219 3.516696751794232, 84.21749250862261 3.9211955504375755, 84.13609428754556 4.339158212148129 C84.01771764860857 4.790579641174732, 83.89934100967157 5.2420010702013355, 83.81902313421489 5.548287939305125 C83.66746617166888 6.004753363171005, 83.51590920912285 6.461218787036884, 83.42513422997033 6.734618561215495 C83.31438924530372 7.008160814450654, 83.20364426063709 7.281703067685814, 82.95604614880834 7.893275190886679 C82.82493408147488 8.165532204053441, 82.69382201414142 8.437789217220203, 82.4136864742735 9.019496659696284 C82.24011986981687 9.327681741433574, 82.06655326536023 9.635866823170863, 81.80028387860425 10.108655082055236 C81.64288346656286 10.35046438287951, 81.48548305452148 10.592273683703784, 81.11835896464065 11.156274872382301 C80.96370136438526 11.36350196712729, 80.80904376412987 11.570729061872276, 80.37071390812659 12.158051136245302 C80.0659267874409 12.516071431081173, 79.76113966675523 12.874091725917044, 79.56042094296866 13.10986736009567 C79.30716920184165 13.371370575163953, 79.05391746071462 13.632873790232233, 78.69080973676799 14.007812326905684 C78.41159446321241 14.261388250717557, 78.13237918965683 14.51496417452943, 77.7654537085019 14.848196188198111 C77.48946841241116 15.068287117553302, 77.21348311632042 15.288378046908493, 76.78815534457871 15.627565626425152 C76.5612607384069 15.785837481581407, 76.3343661322351 15.944109336737663, 75.7629305736057 16.34271804539089 C75.54624506143504 16.47407407625415, 75.3295595492644 16.60543010711741, 74.69399226407678 16.990714730406093 C74.46499417581114 17.110182886373998, 74.23599608754552 17.229651042341903, 73.58573291279238 17.56889292409717 C73.34162902583391 17.676950473769157, 73.09752513887543 17.785008023441144, 72.4427065951478 18.07487676824742 C72.1534179051426 18.18133768032467, 71.8641292151374 18.28779859240192, 71.26961025146062 18.506587066708033 C70.99738798203934 18.587381207348418, 70.72516571261805 18.668175347988804, 70.07126438623541 18.86224982926107 C69.60145954390481 18.969479718759924, 69.1316547015742 19.076709608258774, 68.85259325967677 19.140403561325773 C68.4725547971194 19.201845232709754, 68.09251633456202 19.263286904093736, 67.61860465284788 19.3399052695533 C67.22994777566434 19.377398531066913, 66.8412908984808 19.414891792580526, 66.3743692896239 19.45993515863156 C66.01333422134178 19.471512850559236, 65.65229915305967 19.483090542486917, 65.125 19.5 C65.125 19.5, 65.125 19.5, 65.125 19.5 C39.021119634617946 19.5, 12.9172392692359 19.5, -65.125 19.5 C-65.45282301975308 19.489487353825318, -65.78064603950618 19.478974707650636, -66.3743692896239 19.45993515863156 C-66.69211127175254 19.42928297175625, -67.00985325388118 19.398630784880943, -67.61860465284786 19.3399052695533 C-68.0264033934998 19.273975531691157, -68.43420213415175 19.20804579382902, -68.85259325967675 19.140403561325773 C-69.3315134660285 19.031093149472404, -69.81043367238024 18.921782737619033, -70.07126438623538 18.862249829261074 C-70.37754697696766 18.771346764041862, -70.68382956769993 18.68044369882265, -71.26961025146059 18.506587066708043 C-71.58720110543952 18.389710696666125, -71.90479195941845 18.27283432662421, -72.4427065951478 18.074876768247425 C-72.79598278160795 17.918491880067243, -73.14925896806811 17.762106991887066, -73.58573291279238 17.568892924097174 C-73.86330569600321 17.42408338088994, -74.14087847921402 17.279273837682705, -74.69399226407678 16.990714730406097 C-75.07522590006735 16.759608659891093, -75.4564595360579 16.52850258937609, -75.76293057360569 16.3427180453909 C-76.15553155148268 16.068856598646324, -76.54813252935968 15.794995151901745, -76.78815534457871 15.627565626425156 C-77.04203838993544 15.425100653864735, -77.29592143529219 15.222635681304315, -77.76545370850187 14.848196188198125 C-78.08952094980593 14.553886893995124, -78.41358819110998 14.259577599792122, -78.69080973676797 14.007812326905697 C-78.87786926971404 13.814658001265606, -79.06492880266012 13.621503675625513, -79.56042094296865 13.109867360095677 C-79.82419435509435 12.800024101080487, -80.08796776722005 12.490180842065296, -80.37071390812658 12.158051136245307 C-80.61662381813726 11.82855425968467, -80.86253372814794 11.499057383124033, -81.11835896464063 11.156274872382316 C-81.29450986389806 10.885659787983393, -81.4706607631555 10.615044703584472, -81.80028387860425 10.108655082055249 C-82.03782224500546 9.686881659142042, -82.27536061140667 9.265108236228834, -82.4136864742735 9.019496659696289 C-82.59014546920102 8.65307578111165, -82.76660446412853 8.286654902527008, -82.95604614880834 7.893275190886686 C-83.12551681759228 7.474679362497872, -83.29498748637621 7.056083534109057, -83.42513422997033 6.73461856121551 C-83.52761349319395 6.425967348239161, -83.6300927564176 6.117316135262812, -83.81902313421489 5.5482879393051325 C-83.93512264197231 5.10555019838113, -84.05122214972972 4.662812457457127, -84.13609428754556 4.339158212148136 C-84.18870885128887 4.068993547418215, -84.24132341503218 3.798828882688293, -84.37504477658177 3.112197953150904 C-84.42591501857638 2.7176584017063155, -84.47678526057096 2.323118850261727, -84.53489270250937 1.872449005199809 C-84.56151642169365 1.4577630886251223, -84.58814014087795 1.0430771720504355, -84.61498121591342 0.6250057626472781 C-84.61498121591342 0.18896952870354555, -84.61498121591342 -0.24706670524018703, -84.61498121591342 -0.6250057626472687 C-84.59535318185544 -0.9307282365640381, -84.57572514779748 -1.2364507104808076, -84.53489270250937 -1.8724490051997822 C-84.48517948103871 -2.2580149339402027, -84.43546625956806 -2.643580862680623, -84.37504477658177 -3.112197953150895 C-84.30021282785498 -3.496444194125041, -84.22538087912818 -3.880690435099186, -84.13609428754556 -4.339158212148126 C-84.04266696100451 -4.695437099908599, -83.94923963446347 -5.051715987669072, -83.81902313421489 -5.548287939305123 C-83.7178579082062 -5.85298148155345, -83.61669268219751 -6.157675023801778, -83.42513422997033 -6.734618561215485 C-83.26206846652045 -7.13739414959875, -83.09900270307057 -7.540169737982016, -82.95604614880834 -7.893275190886676 C-82.7858611833456 -8.24666791304499, -82.61567621788285 -8.6000606352033, -82.4136864742735 -9.019496659696282 C-82.27002649930647 -9.274579492400171, -82.12636652433942 -9.529662325104061, -81.80028387860425 -10.108655082055243 C-81.59298222805411 -10.427126085587727, -81.38568057750396 -10.745597089120212, -81.11835896464063 -11.156274872382308 C-80.8784874826281 -11.477680805537533, -80.63861600061558 -11.799086738692758, -80.37071390812659 -12.158051136245302 C-80.07029298477177 -12.510942647252673, -79.76987206141695 -12.863834158260046, -79.56042094296866 -13.10986736009567 C-79.30942682756134 -13.369039391253846, -79.058432712154 -13.628211422412022, -78.69080973676799 -14.007812326905677 C-78.45949957750982 -14.217882093412504, -78.22818941825166 -14.427951859919332, -77.7654537085019 -14.848196188198107 C-77.55236454527878 -15.018129125327759, -77.33927538205566 -15.18806206245741, -76.78815534457871 -15.627565626425149 C-76.53947245253052 -15.801036046609084, -76.29078956048231 -15.97450646679302, -75.76293057360571 -16.342718045390885 C-75.48000511020683 -16.514229123957865, -75.19707964680794 -16.685740202524844, -74.69399226407678 -16.99071473040609 C-74.33858071947391 -17.17613270557345, -73.98316917487105 -17.36155068074081, -73.5857329127924 -17.56889292409717 C-73.26815867199562 -17.709473619992757, -72.95058443119886 -17.850054315888343, -72.44270659514781 -18.07487676824742 C-71.9796050422408 -18.245302420581023, -71.51650348933381 -18.415728072914625, -71.26961025146062 -18.506587066708033 C-70.99846590916265 -18.587061284236373, -70.72732156686467 -18.667535501764718, -70.07126438623541 -18.862249829261067 C-69.65227439923729 -18.957881559628206, -69.23328441223916 -19.05351328999534, -68.85259325967677 -19.140403561325773 C-68.52469082214195 -19.19341628450502, -68.19678838460713 -19.24642900768427, -67.61860465284788 -19.3399052695533 C-67.31993478629872 -19.36871759237623, -67.02126491974956 -19.397529915199158, -66.3743692896239 -19.45993515863156 C-66.1110708987478 -19.46837862554773, -65.84777250787171 -19.476822092463898, -65.125 -19.5 C-65.125 -19.5, -65.125 -19.5, -65.125 -19.5" stroke="none" stroke-width="0" fill="#F8FAFC" style=""/><path d="M-65.125 -19.5 C-17.670947108225086 -19.5, 29.78310578354983 -19.5, 65.125 -19.5 M-65.125 -19.5 C-31.816317141400496 -19.5, 1.4923657171990072 -19.5, 65.125 -19.5 M65.125 -19.5 C65.125 -19.5, 65.125 -19.5, 65.125 -19.5 M65.125 -19.5 C65.125 -19.5, 65.125 -19.5, 65.125 -19.5 M65.125 -19.5 C65.46959525726979 -19.488949500813337, 65.81419051453958 -19.477899001626675, 66.3743692896239 -19.45993515863156 M65.125 -19.5 C65.58318899902712 -19.485306770611984, 66.04137799805424 -19.47061354122397, 66.3743692896239 -19.45993515863156 M66.3743692896239 -19.45993515863156 C66.63650999810167 -19.434646759755037, 66.89865070657946 -19.40935836087851, 67.61860465284786 -19.3399052695533 M66.3743692896239 -19.45993515863156 C66.64831597050717 -19.433507851795838, 66.92226265139043 -19.407080544960117, 67.61860465284786 -19.3399052695533 M67.61860465284786 -19.3399052695533 C68.02273513286147 -19.27456858762338, 68.42686561287508 -19.20923190569346, 68.85259325967675 -19.140403561325776 M67.61860465284786 -19.3399052695533 C68.05430276656426 -19.26946497741697, 68.49000088028066 -19.199024685280637, 68.85259325967675 -19.140403561325776 M68.85259325967675 -19.140403561325776 C69.15692173785017 -19.07094257211161, 69.46125021602359 -19.00148158289744, 70.07126438623538 -18.862249829261074 M68.85259325967675 -19.140403561325776 C69.33272208221045 -19.03081729071583, 69.81285090474415 -18.92123102010589, 70.07126438623538 -18.862249829261074 M70.07126438623538 -18.862249829261074 C70.43354093613104 -18.754728050880463, 70.79581748602668 -18.64720627249985, 71.2696102514606 -18.50658706670804 M70.07126438623538 -18.862249829261074 C70.4193126183149 -18.758950940922325, 70.76736085039444 -18.655652052583573, 71.2696102514606 -18.50658706670804 M71.2696102514606 -18.50658706670804 C71.61244770282063 -18.380419715452888, 71.95528515418067 -18.254252364197736, 72.4427065951478 -18.074876768247425 M71.2696102514606 -18.50658706670804 C71.71842581817097 -18.341418789353007, 72.16724138488134 -18.176250511997974, 72.4427065951478 -18.074876768247425 M72.4427065951478 -18.074876768247425 C72.88378445300084 -17.879624684685655, 73.32486231085389 -17.684372601123883, 73.58573291279238 -17.568892924097174 M72.4427065951478 -18.074876768247425 C72.85362349982154 -17.892976043965245, 73.26454040449528 -17.711075319683065, 73.58573291279238 -17.568892924097174 M73.58573291279238 -17.568892924097174 C73.8700652955216 -17.420556902150924, 74.15439767825082 -17.272220880204674, 74.69399226407678 -16.990714730406097 M73.58573291279238 -17.568892924097174 C73.9525867018312 -17.377505537336692, 74.31944049087001 -17.18611815057621, 74.69399226407678 -16.990714730406097 M74.69399226407678 -16.990714730406097 C75.00881435145556 -16.79986773093714, 75.32363643883433 -16.60902073146819, 75.7629305736057 -16.342718045390892 M74.69399226407678 -16.990714730406097 C75.09489116155737 -16.747687462809935, 75.49579005903797 -16.504660195213773, 75.7629305736057 -16.342718045390892 M75.7629305736057 -16.342718045390892 C75.97052309939555 -16.197910485935502, 76.17811562518538 -16.05310292648011, 76.78815534457871 -15.627565626425154 M75.7629305736057 -16.342718045390892 C76.01572803528508 -16.1663774795491, 76.26852549696444 -15.990036913707309, 76.78815534457871 -15.627565626425154 M76.78815534457871 -15.627565626425154 C77.08325381175966 -15.392232451748354, 77.37835227894062 -15.156899277071552, 77.76545370850187 -14.848196188198123 M76.78815534457871 -15.627565626425154 C77.15051749602249 -15.338591453510563, 77.51287964746626 -15.049617280595974, 77.76545370850187 -14.848196188198123 M77.76545370850187 -14.848196188198123 C77.98172321848216 -14.651785941411687, 78.19799272846247 -14.45537569462525, 78.69080973676799 -14.007812326905688 M77.76545370850187 -14.848196188198123 C78.00339472217547 -14.632104455153987, 78.24133573584909 -14.416012722109853, 78.69080973676799 -14.007812326905688 M78.69080973676799 -14.007812326905688 C78.95705565132388 -13.732891560930618, 79.22330156587977 -13.45797079495555, 79.56042094296865 -13.10986736009568 M78.69080973676799 -14.007812326905688 C78.95669069695333 -13.733268406281516, 79.22257165713869 -13.458724485657342, 79.56042094296865 -13.10986736009568 M79.56042094296865 -13.10986736009568 C79.7922925417067 -12.837497786350223, 80.02416414044477 -12.565128212604764, 80.37071390812658 -12.158051136245305 M79.56042094296865 -13.10986736009568 C79.87403663102292 -12.741476527668947, 80.18765231907719 -12.373085695242214, 80.37071390812658 -12.158051136245305 M80.37071390812658 -12.158051136245305 C80.55522863475116 -11.910818212205772, 80.73974336137573 -11.663585288166239, 81.11835896464063 -11.156274872382312 M80.37071390812658 -12.158051136245305 C80.59996844431706 -11.850870943267958, 80.82922298050755 -11.543690750290612, 81.11835896464063 -11.156274872382312 M81.11835896464063 -11.156274872382312 C81.29629940073674 -10.882910578841257, 81.47423983683284 -10.609546285300203, 81.80028387860425 -10.108655082055241 M81.11835896464063 -11.156274872382312 C81.29512613652535 -10.8847130277355, 81.47189330841007 -10.61315118308869, 81.80028387860425 -10.108655082055241 M81.80028387860425 -10.108655082055241 C82.00500478300498 -9.745152386052258, 82.20972568740572 -9.381649690049274, 82.4136864742735 -9.019496659696287 M81.80028387860425 -10.108655082055241 C81.92810178360267 -9.881701448764183, 82.05591968860108 -9.654747815473126, 82.4136864742735 -9.019496659696287 M82.4136864742735 -9.019496659696287 C82.5999894497883 -8.632634544794739, 82.78629242530307 -8.24577242989319, 82.95604614880834 -7.893275190886684 M82.4136864742735 -9.019496659696287 C82.60797886800502 -8.61604434692154, 82.80227126173654 -8.212592034146795, 82.95604614880834 -7.893275190886684 M82.95604614880834 -7.893275190886684 C83.13804955715382 -7.443723253476833, 83.3200529654993 -6.99417131606698, 83.42513422997033 -6.734618561215508 M82.95604614880834 -7.893275190886684 C83.12041224679204 -7.487287751064621, 83.28477834477575 -7.081300311242559, 83.42513422997033 -6.734618561215508 M83.42513422997033 -6.734618561215508 C83.57292101977949 -6.289508296937603, 83.72070780958863 -5.844398032659698, 83.81902313421489 -5.548287939305138 M83.42513422997033 -6.734618561215508 C83.52784869803628 -6.425258948728909, 83.63056316610222 -6.11589933624231, 83.81902313421489 -5.548287939305138 M83.81902313421489 -5.548287939305138 C83.92081606290839 -5.160107384862466, 84.02260899160187 -4.771926830419794, 84.13609428754556 -4.339158212148133 M83.81902313421489 -5.548287939305138 C83.91842322439402 -5.169232315180525, 84.01782331457314 -4.790176691055913, 84.13609428754556 -4.339158212148133 M84.13609428754556 -4.339158212148133 C84.18694748553449 -4.078037788302181, 84.23780068352342 -3.816917364456228, 84.37504477658177 -3.1121979531509023 M84.13609428754556 -4.339158212148133 C84.18950333445807 -4.06491404425845, 84.24291238137059 -3.7906698763687663, 84.37504477658177 -3.1121979531509023 M84.37504477658177 -3.1121979531509023 C84.43293074099466 -2.6632458440410987, 84.49081670540757 -2.2142937349312946, 84.53489270250937 -1.872449005199798 M84.37504477658177 -3.1121979531509023 C84.4212125195751 -2.7541300553466406, 84.46738026256844 -2.396062157542379, 84.53489270250937 -1.872449005199798 M84.53489270250937 -1.872449005199798 C84.55384060092291 -1.5773201929406468, 84.57278849933644 -1.2821913806814957, 84.61498121591342 -0.6250057626472757 M84.53489270250937 -1.872449005199798 C84.55466845061589 -1.5644257657441274, 84.57444419872242 -1.2564025262884568, 84.61498121591342 -0.6250057626472757 M84.61498121591342 -0.6250057626472757 C84.61498121591342 -0.16365842727565427, 84.61498121591342 0.29768890809596715, 84.61498121591342 0.625005762647271 M84.61498121591342 -0.6250057626472757 C84.61498121591342 -0.3521078389768521, 84.61498121591342 -0.07920991530642851, 84.61498121591342 0.625005762647271 M84.61498121591342 0.625005762647271 C84.58453716423523 1.0991964415312132, 84.55409311255704 1.5733871204151555, 84.53489270250937 1.8724490051997846 M84.61498121591342 0.625005762647271 C84.59602798426391 0.9202176443615793, 84.57707475261441 1.2154295260758876, 84.53489270250937 1.8724490051997846 M84.53489270250937 1.8724490051997846 C84.48448681533336 2.263387112368602, 84.43408092815736 2.6543252195374185, 84.37504477658177 3.1121979531508885 M84.53489270250937 1.8724490051997846 C84.49629821030419 2.1717802653985805, 84.45770371809903 2.471111525597376, 84.37504477658177 3.1121979531508885 M84.37504477658177 3.1121979531508885 C84.28016342650338 3.599393632622984, 84.185282076425 4.086589312095079, 84.13609428754556 4.339158212148129 M84.37504477658177 3.1121979531508885 C84.29928881665045 3.5011887963704504, 84.22353285671912 3.8901796395900123, 84.13609428754556 4.339158212148129 M84.13609428754556 4.339158212148129 C84.04065322764468 4.703116337967224, 83.94521216774379 5.067074463786319, 83.81902313421489 5.548287939305125 M84.13609428754556 4.339158212148129 C84.03377441158818 4.729348244888358, 83.9314545356308 5.119538277628587, 83.81902313421489 5.548287939305125 M83.81902313421489 5.548287939305125 C83.71105519829294 5.873470159947571, 83.60308726237099 6.198652380590016, 83.42513422997033 6.734618561215495 M83.81902313421489 5.548287939305125 C83.66637352731996 6.0080442338606685, 83.51372392042505 6.467800528416212, 83.42513422997033 6.734618561215495 M83.42513422997033 6.734618561215495 C83.24244443113062 7.185865896416525, 83.05975463229093 7.637113231617555, 82.95604614880834 7.893275190886679 M83.42513422997033 6.734618561215495 C83.30574598541438 7.029509833483368, 83.18635774085843 7.3244011057512415, 82.95604614880834 7.893275190886679 M82.95604614880834 7.893275190886679 C82.80350861573768 8.21002264208827, 82.65097108266701 8.52677009328986, 82.4136864742735 9.019496659696284 M82.95604614880834 7.893275190886679 C82.84725480044519 8.119182753524717, 82.73846345208204 8.345090316162754, 82.4136864742735 9.019496659696284 M82.4136864742735 9.019496659696284 C82.26317085462502 9.28675238374138, 82.11265523497653 9.554008107786476, 81.80028387860425 10.108655082055236 M82.4136864742735 9.019496659696284 C82.22562112480668 9.353425731356284, 82.03755577533985 9.687354803016282, 81.80028387860425 10.108655082055236 M81.80028387860425 10.108655082055236 C81.55194168088222 10.490175386973723, 81.30359948316021 10.87169569189221, 81.11835896464065 11.156274872382301 M81.80028387860425 10.108655082055236 C81.6392295348203 10.356077803254143, 81.47817519103634 10.60350052445305, 81.11835896464065 11.156274872382301 M81.11835896464065 11.156274872382301 C80.87941708119263 11.476435228149256, 80.6404751977446 11.796595583916211, 80.37071390812659 12.158051136245302 M81.11835896464065 11.156274872382301 C80.91239813953254 11.43224361460999, 80.70643731442445 11.708212356837677, 80.37071390812659 12.158051136245302 M80.37071390812659 12.158051136245302 C80.18238131252212 12.379277319470585, 79.99404871691765 12.600503502695869, 79.56042094296866 13.10986736009567 M80.37071390812659 12.158051136245302 C80.08796088803784 12.490188922744169, 79.8052078679491 12.822326709243038, 79.56042094296866 13.10986736009567 M79.56042094296866 13.10986736009567 C79.3406123860629 13.33683774171901, 79.12080382915714 13.563808123342353, 78.69080973676799 14.007812326905684 M79.56042094296866 13.10986736009567 C79.30990189526723 13.368548844843726, 79.0593828475658 13.62723032959178, 78.69080973676799 14.007812326905684 M78.69080973676799 14.007812326905684 C78.466379050425 14.211634338131827, 78.241948364082 14.41545634935797, 77.7654537085019 14.848196188198111 M78.69080973676799 14.007812326905684 C78.39009166998714 14.280916518592013, 78.0893736032063 14.554020710278342, 77.7654537085019 14.848196188198111 M77.7654537085019 14.848196188198111 C77.43187628845928 15.114215303814138, 77.09829886841668 15.380234419430167, 76.78815534457871 15.627565626425152 M77.7654537085019 14.848196188198111 C77.50237218536705 15.057996702004802, 77.2392906622322 15.267797215811491, 76.78815534457871 15.627565626425152 M76.78815534457871 15.627565626425152 C76.57138179844847 15.778777468230036, 76.35460825231824 15.92998931003492, 75.7629305736057 16.34271804539089 M76.78815534457871 15.627565626425152 C76.48622317355759 15.838180438496465, 76.18429100253645 16.04879525056778, 75.7629305736057 16.34271804539089 M75.7629305736057 16.34271804539089 C75.46473585306238 16.523485437370937, 75.16654113251907 16.704252829350985, 74.69399226407678 16.990714730406093 M75.7629305736057 16.34271804539089 C75.54606334497642 16.474184233839257, 75.32919611634713 16.605650422287624, 74.69399226407678 16.990714730406093 M74.69399226407678 16.990714730406093 C74.34626890215269 17.17212178559445, 73.9985455402286 17.3535288407828, 73.58573291279238 17.56889292409717 M74.69399226407678 16.990714730406093 C74.45660150271917 17.11456133855032, 74.21921074136156 17.238407946694544, 73.58573291279238 17.56889292409717 M73.58573291279238 17.56889292409717 C73.16753916212231 17.75401489224196, 72.74934541145224 17.939136860386746, 72.4427065951478 18.07487676824742 M73.58573291279238 17.56889292409717 C73.1320876796678 17.769708211893704, 72.67844244654323 17.97052349969024, 72.4427065951478 18.07487676824742 M72.4427065951478 18.07487676824742 C72.20399564328906 18.162724605151286, 71.96528469143033 18.25057244205515, 71.26961025146062 18.506587066708033 M72.4427065951478 18.07487676824742 C71.99163436094264 18.240875520100946, 71.54056212673748 18.406874271954468, 71.26961025146062 18.506587066708033 M71.26961025146062 18.506587066708033 C71.01718221086851 18.581506384133945, 70.76475417027642 18.656425701559858, 70.07126438623541 18.86224982926107 M71.26961025146062 18.506587066708033 C70.9878957721364 18.590198445421983, 70.70618129281219 18.673809824135933, 70.07126438623541 18.86224982926107 M70.07126438623541 18.86224982926107 C69.75882454182153 18.933562184888014, 69.44638469740764 19.004874540514958, 68.85259325967677 19.140403561325773 M70.07126438623541 18.86224982926107 C69.69210104139658 18.948791388448473, 69.31293769655775 19.03533294763588, 68.85259325967677 19.140403561325773 M68.85259325967677 19.140403561325773 C68.4575286958698 19.204274536230635, 68.06246413206281 19.268145511135497, 67.61860465284788 19.3399052695533 M68.85259325967677 19.140403561325773 C68.50410652969806 19.196744193273776, 68.15561979971936 19.25308482522178, 67.61860465284788 19.3399052695533 M67.61860465284788 19.3399052695533 C67.35487783072305 19.365346678905773, 67.09115100859823 19.390788088258248, 66.3743692896239 19.45993515863156 M67.61860465284788 19.3399052695533 C67.2868877457425 19.371905600633806, 66.95517083863713 19.403905931714313, 66.3743692896239 19.45993515863156 M66.3743692896239 19.45993515863156 C65.90373066113841 19.47502762340457, 65.43309203265291 19.490120088177584, 65.125 19.5 M66.3743692896239 19.45993515863156 C65.9385581224433 19.473910774508063, 65.50274695526271 19.48788639038457, 65.125 19.5 M65.125 19.5 C65.125 19.5, 65.125 19.5, 65.125 19.5 M65.125 19.5 C65.125 19.5, 65.125 19.5, 65.125 19.5 M65.125 19.5 C16.134757760591206 19.5, -32.85548447881759 19.5, -65.125 19.5 M65.125 19.5 C31.914802441965044 19.5, -1.295395116069912 19.5, -65.125 19.5 M-65.125 19.5 C-65.47868906564439 19.488657880078787, -65.83237813128878 19.477315760157573, -66.3743692896239 19.45993515863156 M-65.125 19.5 C-65.48722248472522 19.48838422993816, -65.84944496945045 19.476768459876315, -66.3743692896239 19.45993515863156 M-66.3743692896239 19.45993515863156 C-66.81716226151546 19.41721945316964, -67.25995523340703 19.374503747707724, -67.61860465284786 19.3399052695533 M-66.3743692896239 19.45993515863156 C-66.81178220103558 19.417738461133666, -67.24919511244725 19.375541763635773, -67.61860465284786 19.3399052695533 M-67.61860465284786 19.3399052695533 C-68.06091097778007 19.26839661307504, -68.50321730271226 19.19688795659678, -68.85259325967675 19.140403561325773 M-67.61860465284786 19.3399052695533 C-67.95231933343248 19.285952867992375, -68.2860340140171 19.232000466431455, -68.85259325967675 19.140403561325773 M-68.85259325967675 19.140403561325773 C-69.30700548234573 19.036686936818455, -69.7614177050147 18.93297031231114, -70.07126438623538 18.862249829261074 M-68.85259325967675 19.140403561325773 C-69.20827605558358 19.059221284207197, -69.56395885149041 18.97803900708862, -70.07126438623538 18.862249829261074 M-70.07126438623538 18.862249829261074 C-70.32989136091982 18.785490700735426, -70.58851833560425 18.708731572209782, -71.26961025146059 18.506587066708043 M-70.07126438623538 18.862249829261074 C-70.47485767400009 18.74246545995691, -70.87845096176478 18.622681090652748, -71.26961025146059 18.506587066708043 M-71.26961025146059 18.506587066708043 C-71.61574467239565 18.379206400172432, -71.9618790933307 18.25182573363682, -72.4427065951478 18.074876768247425 M-71.26961025146059 18.506587066708043 C-71.51492808852433 18.41630783497536, -71.76024592558808 18.326028603242673, -72.4427065951478 18.074876768247425 M-72.4427065951478 18.074876768247425 C-72.68122564533674 17.969291460145012, -72.91974469552568 17.863706152042603, -73.58573291279238 17.568892924097174 M-72.4427065951478 18.074876768247425 C-72.83319761233057 17.902017978445073, -73.22368862951335 17.72915918864272, -73.58573291279238 17.568892924097174 M-73.58573291279238 17.568892924097174 C-73.98860035191134 17.358717239157727, -74.3914677910303 17.148541554218276, -74.69399226407678 16.990714730406097 M-73.58573291279238 17.568892924097174 C-73.89753423618131 17.40622637340345, -74.20933555957023 17.243559822709727, -74.69399226407678 16.990714730406097 M-74.69399226407678 16.990714730406097 C-75.07725454255456 16.758378884893723, -75.46051682103231 16.52604303938135, -75.76293057360569 16.3427180453909 M-74.69399226407678 16.990714730406097 C-74.97801037185106 16.818541284397664, -75.26202847962534 16.646367838389228, -75.76293057360569 16.3427180453909 M-75.76293057360569 16.3427180453909 C-76.06149100748938 16.13445521118651, -76.36005144137309 15.92619237698212, -76.78815534457871 15.627565626425156 M-75.76293057360569 16.3427180453909 C-75.98147702397941 16.19026950233355, -76.20002347435313 16.0378209592762, -76.78815534457871 15.627565626425156 M-76.78815534457871 15.627565626425156 C-76.99693807675244 15.461066953458444, -77.20572080892617 15.294568280491731, -77.76545370850187 14.848196188198125 M-76.78815534457871 15.627565626425156 C-77.0478047435935 15.42050214027155, -77.3074541426083 15.213438654117944, -77.76545370850187 14.848196188198125 M-77.76545370850187 14.848196188198125 C-77.9678270404736 14.66440608260635, -78.17020037244532 14.480615977014576, -78.69080973676797 14.007812326905697 M-77.76545370850187 14.848196188198125 C-78.0850699863832 14.557929141209598, -78.40468626426454 14.267662094221073, -78.69080973676797 14.007812326905697 M-78.69080973676797 14.007812326905697 C-79.02902503319041 13.658577265357286, -79.36724032961284 13.309342203808875, -79.56042094296865 13.109867360095677 M-78.69080973676797 14.007812326905697 C-78.92867735828656 13.762194478392832, -79.16654497980515 13.516576629879966, -79.56042094296865 13.109867360095677 M-79.56042094296865 13.109867360095677 C-79.82400810608767 12.800242879761605, -80.08759526920669 12.49061839942753, -80.37071390812658 12.158051136245307 M-79.56042094296865 13.109867360095677 C-79.81795948085517 12.807347939136235, -80.07549801874167 12.504828518176794, -80.37071390812658 12.158051136245307 M-80.37071390812658 12.158051136245307 C-80.53563241343623 11.93707536351528, -80.70055091874589 11.716099590785255, -81.11835896464063 11.156274872382316 M-80.37071390812658 12.158051136245307 C-80.54802892908997 11.920465161885092, -80.72534395005336 11.682879187524877, -81.11835896464063 11.156274872382316 M-81.11835896464063 11.156274872382316 C-81.35918819529239 10.786296502397906, -81.60001742594413 10.416318132413497, -81.80028387860425 10.108655082055249 M-81.11835896464063 11.156274872382316 C-81.32725727487366 10.835350970813762, -81.53615558510668 10.514427069245208, -81.80028387860425 10.108655082055249 M-81.80028387860425 10.108655082055249 C-81.9841455275379 9.782190106362723, -82.16800717647156 9.455725130670196, -82.4136864742735 9.019496659696289 M-81.80028387860425 10.108655082055249 C-81.996809813425 9.759703384372166, -82.19333574824576 9.410751686689082, -82.4136864742735 9.019496659696289 M-82.4136864742735 9.019496659696289 C-82.62832454298999 8.573796117487559, -82.84296261170645 8.128095575278827, -82.95604614880834 7.893275190886686 M-82.4136864742735 9.019496659696289 C-82.59483689255322 8.64333394014043, -82.77598731083293 8.267171220584569, -82.95604614880834 7.893275190886686 M-82.95604614880834 7.893275190886686 C-83.09524901093673 7.549441430125331, -83.23445187306511 7.205607669363976, -83.42513422997033 6.73461856121551 M-82.95604614880834 7.893275190886686 C-83.08833292331614 7.566524300261602, -83.22061969782396 7.239773409636517, -83.42513422997033 6.73461856121551 M-83.42513422997033 6.73461856121551 C-83.53301612728953 6.409695475136166, -83.64089802460872 6.084772389056822, -83.81902313421489 5.5482879393051325 M-83.42513422997033 6.73461856121551 C-83.50678184356335 6.488708957853927, -83.58842945715637 6.242799354492344, -83.81902313421489 5.5482879393051325 M-83.81902313421489 5.5482879393051325 C-83.93975776220005 5.087874476078958, -84.0604923901852 4.627461012852782, -84.13609428754556 4.339158212148136 M-83.81902313421489 5.5482879393051325 C-83.8857269554962 5.293917359140487, -83.9524307767775 5.039546778975842, -84.13609428754556 4.339158212148136 M-84.13609428754556 4.339158212148136 C-84.19178167901929 4.053215226464941, -84.247469070493 3.767272240781745, -84.37504477658177 3.112197953150904 M-84.13609428754556 4.339158212148136 C-84.19390836324783 4.042295152426183, -84.25172243895011 3.745432092704231, -84.37504477658177 3.112197953150904 M-84.37504477658177 3.112197953150904 C-84.40760534788926 2.8596645919021406, -84.44016591919674 2.6071312306533767, -84.53489270250937 1.872449005199809 M-84.37504477658177 3.112197953150904 C-84.42124758377554 2.7538581043323087, -84.4674503909693 2.3955182555137133, -84.53489270250937 1.872449005199809 M-84.53489270250937 1.872449005199809 C-84.55984568732882 1.4837861249501338, -84.58479867214825 1.0951232447004586, -84.61498121591342 0.6250057626472781 M-84.53489270250937 1.872449005199809 C-84.5643733189281 1.413264608152744, -84.59385393534684 0.9540802111056792, -84.61498121591342 0.6250057626472781 M-84.61498121591342 0.6250057626472781 C-84.61498121591342 0.23244785017076813, -84.61498121591342 -0.16011006230574187, -84.61498121591342 -0.6250057626472687 M-84.61498121591342 0.6250057626472781 C-84.61498121591342 0.23933797020866926, -84.61498121591342 -0.14632982222993962, -84.61498121591342 -0.6250057626472687 M-84.61498121591342 -0.6250057626472687 C-84.59564359077437 -0.9262048832379604, -84.57630596563533 -1.227404003828652, -84.53489270250937 -1.8724490051997822 M-84.61498121591342 -0.6250057626472687 C-84.58384207366944 -1.1100230381602447, -84.55270293142549 -1.5950403136732205, -84.53489270250937 -1.8724490051997822 M-84.53489270250937 -1.8724490051997822 C-84.49226342408427 -2.203073270561633, -84.44963414565918 -2.5336975359234835, -84.37504477658177 -3.112197953150895 M-84.53489270250937 -1.8724490051997822 C-84.47924168580603 -2.3040673012146287, -84.4235906691027 -2.7356855972294754, -84.37504477658177 -3.112197953150895 M-84.37504477658177 -3.112197953150895 C-84.31047893068761 -3.4437299258210543, -84.24591308479346 -3.7752618984912134, -84.13609428754556 -4.339158212148126 M-84.37504477658177 -3.112197953150895 C-84.29170345604983 -3.5401380198881176, -84.20836213551787 -3.9680780866253396, -84.13609428754556 -4.339158212148126 M-84.13609428754556 -4.339158212148126 C-84.05612097267507 -4.644131122403217, -83.97614765780459 -4.949104032658308, -83.81902313421489 -5.548287939305123 M-84.13609428754556 -4.339158212148126 C-84.05822904753542 -4.636092119315305, -83.98036380752526 -4.933026026482485, -83.81902313421489 -5.548287939305123 M-83.81902313421489 -5.548287939305123 C-83.66549955719074 -6.010676492641675, -83.51197598016658 -6.473065045978227, -83.42513422997033 -6.734618561215485 M-83.81902313421489 -5.548287939305123 C-83.72616999007433 -5.827946815317055, -83.63331684593376 -6.1076056913289865, -83.42513422997033 -6.734618561215485 M-83.42513422997033 -6.734618561215485 C-83.24593388651483 -7.177246874153487, -83.06673354305936 -7.619875187091488, -82.95604614880834 -7.893275190886676 M-83.42513422997033 -6.734618561215485 C-83.24652989390577 -7.1757747243748655, -83.06792555784122 -7.616930887534245, -82.95604614880834 -7.893275190886676 M-82.95604614880834 -7.893275190886676 C-82.7396753207966 -8.342573844847161, -82.52330449278483 -8.791872498807647, -82.4136864742735 -9.019496659696282 M-82.95604614880834 -7.893275190886676 C-82.80757981090642 -8.201568718210764, -82.6591134730045 -8.509862245534851, -82.4136864742735 -9.019496659696282 M-82.4136864742735 -9.019496659696282 C-82.29022978814949 -9.23870650725453, -82.16677310202549 -9.457916354812777, -81.80028387860425 -10.108655082055243 M-82.4136864742735 -9.019496659696282 C-82.21285180444687 -9.376098952689025, -82.01201713462024 -9.732701245681767, -81.80028387860425 -10.108655082055243 M-81.80028387860425 -10.108655082055243 C-81.55741120394921 -10.481772730770244, -81.31453852929418 -10.854890379485244, -81.11835896464063 -11.156274872382308 M-81.80028387860425 -10.108655082055243 C-81.57848088644936 -10.449404040448071, -81.35667789429446 -10.790152998840899, -81.11835896464063 -11.156274872382308 M-81.11835896464063 -11.156274872382308 C-80.91566882577074 -11.42786119301645, -80.71297868690084 -11.699447513650595, -80.37071390812659 -12.158051136245302 M-81.11835896464063 -11.156274872382308 C-80.95504098314798 -11.375106089008266, -80.79172300165534 -11.593937305634224, -80.37071390812659 -12.158051136245302 M-80.37071390812659 -12.158051136245302 C-80.04897108604679 -12.535988562745446, -79.72722826396699 -12.91392598924559, -79.56042094296866 -13.10986736009567 M-80.37071390812659 -12.158051136245302 C-80.16931485618764 -12.394625922583499, -79.96791580424868 -12.631200708921696, -79.56042094296866 -13.10986736009567 M-79.56042094296866 -13.10986736009567 C-79.32628027599655 -13.351636822050631, -79.09213960902444 -13.593406284005592, -78.69080973676799 -14.007812326905677 M-79.56042094296866 -13.10986736009567 C-79.35752504982399 -13.319374027830168, -79.15462915667932 -13.528880695564666, -78.69080973676799 -14.007812326905677 M-78.69080973676799 -14.007812326905677 C-78.3367073359884 -14.32939875825759, -77.98260493520881 -14.650985189609502, -77.7654537085019 -14.848196188198107 M-78.69080973676799 -14.007812326905677 C-78.48942378909999 -14.190705716197575, -78.28803784143197 -14.373599105489474, -77.7654537085019 -14.848196188198107 M-77.7654537085019 -14.848196188198107 C-77.42917043009865 -15.116373153850823, -77.09288715169541 -15.384550119503539, -76.78815534457871 -15.627565626425149 M-77.7654537085019 -14.848196188198107 C-77.4666465786016 -15.086486922701916, -77.16783944870132 -15.324777657205724, -76.78815534457871 -15.627565626425149 M-76.78815534457871 -15.627565626425149 C-76.57358434631253 -15.77724106618683, -76.35901334804635 -15.926916505948514, -75.76293057360571 -16.342718045390885 M-76.78815534457871 -15.627565626425149 C-76.48602625846013 -15.838317797944132, -76.18389717234155 -16.049069969463115, -75.76293057360571 -16.342718045390885 M-75.76293057360571 -16.342718045390885 C-75.37007560474946 -16.580869036183596, -74.97722063589322 -16.819020026976307, -74.69399226407678 -16.99071473040609 M-75.76293057360571 -16.342718045390885 C-75.43080739140348 -16.544053070214346, -75.09868420920122 -16.745388095037807, -74.69399226407678 -16.99071473040609 M-74.69399226407678 -16.99071473040609 C-74.36311177889223 -17.163334867587807, -74.03223129370768 -17.335955004769524, -73.5857329127924 -17.56889292409717 M-74.69399226407678 -16.99071473040609 C-74.39398784201678 -17.14722684523279, -74.09398341995679 -17.30373896005949, -73.5857329127924 -17.56889292409717 M-73.5857329127924 -17.56889292409717 C-73.29987493902289 -17.695433769409423, -73.01401696525338 -17.82197461472168, -72.44270659514781 -18.07487676824742 M-73.5857329127924 -17.56889292409717 C-73.32246926263386 -17.68543193258364, -73.05920561247534 -17.801970941070106, -72.44270659514781 -18.07487676824742 M-72.44270659514781 -18.07487676824742 C-72.17590647936925 -18.17306167712717, -71.90910636359068 -18.271246586006914, -71.26961025146062 -18.506587066708033 M-72.44270659514781 -18.07487676824742 C-72.08981601821542 -18.204743762643275, -71.73692544128302 -18.334610757039133, -71.26961025146062 -18.506587066708033 M-71.26961025146062 -18.506587066708033 C-70.98026540748742 -18.592463097597197, -70.69092056351423 -18.678339128486364, -70.07126438623541 -18.862249829261067 M-71.26961025146062 -18.506587066708033 C-70.83332201660542 -18.636075124689377, -70.39703378175024 -18.76556318267072, -70.07126438623541 -18.862249829261067 M-70.07126438623541 -18.862249829261067 C-69.62519519360418 -18.964062211605626, -69.17912600097297 -19.065874593950188, -68.85259325967677 -19.140403561325773 M-70.07126438623541 -18.862249829261067 C-69.68055885139178 -18.95142581799724, -69.28985331654813 -19.040601806733417, -68.85259325967677 -19.140403561325773 M-68.85259325967677 -19.140403561325773 C-68.3971635067954 -19.21403391186115, -67.94173375391404 -19.287664262396525, -67.61860465284788 -19.3399052695533 M-68.85259325967677 -19.140403561325773 C-68.37523884906778 -19.217578520494293, -67.89788443845879 -19.29475347966281, -67.61860465284788 -19.3399052695533 M-67.61860465284788 -19.3399052695533 C-67.33210310319211 -19.367543729480065, -67.04560155353634 -19.39518218940683, -66.3743692896239 -19.45993515863156 M-67.61860465284788 -19.3399052695533 C-67.25562264969358 -19.374921706847864, -66.89264064653928 -19.409938144142433, -66.3743692896239 -19.45993515863156 M-66.3743692896239 -19.45993515863156 C-65.91993410873172 -19.47450801037835, -65.46549892783955 -19.489080862125142, -65.125 -19.5 M-66.3743692896239 -19.45993515863156 C-65.94904798127266 -19.473574385152677, -65.52372667292143 -19.4872136116738, -65.125 -19.5 M-65.125 -19.5 C-65.125 -19.5, -65.125 -19.5, -65.125 -19.5 M-65.125 -19.5 C-65.125 -19.5, -65.125 -19.5, -65.125 -19.5" stroke="#94A3B8" stroke-width="1.3" fill="none" stroke-dasharray="0 0" style=""/></g><g class="label" style="" transform="translate(-72.25, -12)"><rect/><foreignObject width="144.5" height="24"><div xmlns="http://www.w3.org/1999/xhtml" style="display: table-cell; white-space: nowrap; line-height: 1.5; max-width: 200px; text-align: center;"><span class="nodeLabel"><p>Website visitor</p></span></div></foreignObject></g></g><g class="node default" id="my-svg-flowchart-P-1" data-look="classic" transform="translate(121.9453125, 162)"><rect class="basic label-container" style="" x="-54.0859375" y="-27" width="108.171875" height="54"/><g class="label" style="" transform="translate(-24.0859375, -12)"><rect/><foreignObject width="48.171875" height="24"><div xmlns="http://www.w3.org/1999/xhtml" style="display: table-cell; white-space: nowrap; line-height: 1.5; max-width: 200px; text-align: center;"><span class="nodeLabel"><p>Pixel</p></span></div></foreignObject></g></g><g class="node default" id="my-svg-flowchart-ID-3" data-look="classic" transform="translate(322.359375, 268)"><rect class="basic label-container" style="" x="-121.515625" y="-27" width="243.03125" height="54"/><g class="label" style="" transform="translate(-91.515625, -12)"><rect/><foreignObject width="183.03125" height="24"><div xmlns="http://www.w3.org/1999/xhtml" style="display: table-cell; white-space: nowrap; line-height: 1.5; max-width: 200px; text-align: center;"><span class="nodeLabel"><p>Identity resolution</p></span></div></foreignObject></g></g><g class="node default" id="my-svg-flowchart-PH-4" data-look="classic" transform="translate(317.9140625, 162)"><rect class="basic label-container" style="" x="-111.8828125" y="-27" width="223.765625" height="54"/><g class="label" style="" transform="translate(-81.8828125, -12)"><rect/><foreignObject width="163.765625" height="24"><div xmlns="http://www.w3.org/1999/xhtml" style="display: table-cell; white-space: nowrap; line-height: 1.5; max-width: 200px; text-align: center;"><span class="nodeLabel"><p>Product analytics</p></span></div></foreignObject></g></g><g class="node default" id="my-svg-flowchart-WH-6" data-look="classic" transform="translate(547.59375, 162)"><rect class="basic label-container" style="" x="-87.796875" y="-39" width="175.59375" height="78"/><g class="label" style="" transform="translate(-57.796875, -24)"><rect/><foreignObject width="115.59375" height="48"><div xmlns="http://www.w3.org/1999/xhtml" style="display: table-cell; white-space: nowrap; line-height: 1.5; max-width: 200px; text-align: center;"><span class="nodeLabel"><p>Your systems<br />webhook</p></span></div></foreignObject></g></g><g class="node default" id="my-svg-flowchart-CO-9" data-look="classic" transform="translate(322.359375, 374)"><rect class="basic label-container" style="" x="-107.0625" y="-39" width="214.125" height="78"/><g class="label" style="" transform="translate(-77.0625, -24)"><rect/><foreignObject width="154.125" height="48"><div xmlns="http://www.w3.org/1999/xhtml" style="display: table-cell; white-space: nowrap; line-height: 1.5; max-width: 200px; text-align: center;"><span class="nodeLabel"><p>Company + person<br />(when known)</p></span></div></foreignObject></g></g><g class="node default" id="my-svg-flowchart-S-11" data-look="classic" transform="translate(322.359375, 480)"><rect class="basic label-container" style="" x="-63.71875" y="-27" width="127.4375" height="54"/><g class="label" style="" transform="translate(-33.71875, -12)"><rect/><foreignObject width="67.4375" height="24"><div xmlns="http://www.w3.org/1999/xhtml" style="display: table-cell; white-space: nowrap; line-height: 1.5; max-width: 200px; text-align: center;"><span class="nodeLabel"><p>Signals</p></span></div></foreignObject></g></g><g class="node default" id="my-svg-flowchart-SC-13" data-look="classic" transform="translate(322.359375, 586)"><rect class="basic label-container" style="" x="-137.515625" y="-39" width="275.03125" height="78"/><g class="label" style="" transform="translate(-107.515625, -24)"><rect/><foreignObject width="215.03125" height="48"><div xmlns="http://www.w3.org/1999/xhtml" style="display: table; white-space: break-spaces; line-height: 1.5; max-width: 200px; text-align: center; width: 200px;"><span class="nodeLabel"><p>Score<br />Fit ⬩ Intent ⬩ Timing</p></span></div></foreignObject></g></g><g class="node default accent" id="my-svg-flowchart-PL-14" data-look="classic" transform="translate(322.359375, 732)"><rect class="basic label-container" style="fill:#7C3AED !important;stroke:#7C3AED !important" x="-54.0859375" y="-27" width="108.171875" height="54"/><g class="label" style="color:#FFFFFF !important" transform="translate(-24.0859375, -12)"><rect/><foreignObject width="48.171875" height="24"><div style="color: rgb(255, 255, 255) !important; display: table-cell; white-space: nowrap; line-height: 1.5; max-width: 200px; text-align: center;" xmlns="http://www.w3.org/1999/xhtml"><span style="color:#FFFFFF !important" class="nodeLabel"><p>Plays</p></span></div></foreignObject></g></g><g class="node default" id="my-svg-flowchart-O1-15" data-look="classic" transform="translate(131.2109375, 838)"><rect class="basic label-container" style="" x="-82.984375" y="-27" width="165.96875" height="54"/><g class="label" style="" transform="translate(-52.984375, -12)"><rect/><foreignObject width="105.96875" height="24"><div xmlns="http://www.w3.org/1999/xhtml" style="display: table-cell; white-space: nowrap; line-height: 1.5; max-width: 200px; text-align: center;"><span class="nodeLabel"><p>Slack alert</p></span></div></foreignObject></g></g><g class="node default" id="my-svg-flowchart-O2-17" data-look="classic" transform="translate(322.359375, 838)"><rect class="basic label-container" style="" x="-78.1640625" y="-27" width="156.328125" height="54"/><g class="label" style="" transform="translate(-48.1640625, -12)"><rect/><foreignObject width="96.328125" height="24"><div xmlns="http://www.w3.org/1999/xhtml" style="display: table-cell; white-space: nowrap; line-height: 1.5; max-width: 200px; text-align: center;"><span class="nodeLabel"><p>CRM update</p></span></div></foreignObject></g></g><g class="node default" id="my-svg-flowchart-O3-19" data-look="classic" transform="translate(532.7734375, 838)"><rect class="basic label-container" style="" x="-102.25" y="-39" width="204.5" height="78"/><g class="label" style="" transform="translate(-72.25, -24)"><rect/><foreignObject width="144.5" height="48"><div xmlns="http://www.w3.org/1999/xhtml" style="display: table-cell; white-space: nowrap; line-height: 1.5; max-width: 200px; text-align: center;"><span class="nodeLabel"><p>On-page<br />personalization</p></span></div></foreignObject></g></g></g></g></g><defs><filter id="my-svg-drop-shadow" height="130%" width="130%"><feDropShadow dx="4" dy="4" stdDeviation="0" flood-opacity="0.06" flood-color="#000000"/></filter></defs><defs><filter id="my-svg-drop-shadow-small" height="150%" width="150%"><feDropShadow dx="2" dy="2" stdDeviation="0" flood-opacity="0.06" flood-color="#000000"/></filter></defs><linearGradient id="my-svg-gradient" gradientUnits="objectBoundingBox" x1="0%" y1="0%" x2="100%" y2="0%"><stop offset="0%" stop-color="#94A3B8" stop-opacity="1"/><stop offset="100%" stop-color="hsl(210, 0%, 88.0392156863%)" stop-opacity="1"/></linearGradient></svg>