<svg id="my-svg" width="100%" xmlns="http://www.w3.org/2000/svg" xmlns:xlink="http://www.w3.org/1999/xlink" class="flowchart" style="max-width: 693.051px; background-color: transparent;" viewBox="0 16 693.05078125 1001" role="graphics-document document" aria-roledescription="flowchart-v2"><style>#my-svg{font-family:ui-monospace,SFMono-Regular,Menlo,monospace;font-size:16px;fill:#E2E8F0;}@keyframes edge-animation-frame{from{stroke-dashoffset:0;}}@keyframes dash{to{stroke-dashoffset:0;}}#my-svg .edge-animation-slow{stroke-dasharray:9,5!important;stroke-dashoffset:900;animation:dash 50s linear infinite;stroke-linecap:round;}#my-svg .edge-animation-fast{stroke-dasharray:9,5!important;stroke-dashoffset:900;animation:dash 20s linear infinite;stroke-linecap:round;}#my-svg .error-icon{fill:#161D27;}#my-svg .error-text{fill:#e9e2d8;stroke:#e9e2d8;}#my-svg .edge-thickness-normal{stroke-width:1px;}#my-svg .edge-thickness-thick{stroke-width:3.5px;}#my-svg .edge-pattern-solid{stroke-dasharray:0;}#my-svg .edge-thickness-invisible{stroke-width:0;fill:none;}#my-svg .edge-pattern-dashed{stroke-dasharray:3;}#my-svg .edge-pattern-dotted{stroke-dasharray:2;}#my-svg .marker{fill:#7B8794;stroke:#7B8794;}#my-svg .marker.cross{stroke:#7B8794;}#my-svg svg{font-family:ui-monospace,SFMono-Regular,Menlo,monospace;font-size:16px;}#my-svg p{margin:0;}#my-svg .label{font-family:ui-monospace,SFMono-Regular,Menlo,monospace;color:#E2E8F0;}#my-svg .cluster-label text{fill:#94A3B8;}#my-svg .cluster-label span{color:#94A3B8;}#my-svg .cluster-label span p{background-color:transparent;}#my-svg .label text,#my-svg span{fill:#E2E8F0;color:#E2E8F0;}#my-svg .node rect,#my-svg .node circle,#my-svg .node ellipse,#my-svg .node polygon,#my-svg .node path{fill:#161D27;stroke:#2A3548;stroke-width:1px;}#my-svg .rough-node .label text,#my-svg .node .label text,#my-svg .image-shape .label,#my-svg .icon-shape .label{text-anchor:middle;}#my-svg .node .katex path{fill:#000;stroke:#000;stroke-width:1px;}#my-svg .rough-node .label,#my-svg .node .label,#my-svg .image-shape .label,#my-svg .icon-shape .label{text-align:center;}#my-svg .node.clickable{cursor:pointer;}#my-svg .root .anchor path{fill:#7B8794!important;stroke-width:0;stroke:#7B8794;}#my-svg .arrowheadPath{fill:#0b0b0b;}#my-svg .edgePath .path{stroke:#7B8794;stroke-width:1px;}#my-svg .flowchart-link{stroke:#7B8794;fill:none;}#my-svg .edgeLabel{background-color:#0D1320;text-align:center;}#my-svg .edgeLabel p{background-color:#0D1320;}#my-svg .edgeLabel rect{opacity:0.5;background-color:#0D1320;fill:#0D1320;}#my-svg .labelBkg{background-color:rgba(13, 19, 32, 0.5);}#my-svg .cluster rect{fill:transparent;stroke:#2A3548;stroke-width:1px;}#my-svg .cluster text{fill:#94A3B8;}#my-svg .cluster span{color:#94A3B8;}#my-svg div.mermaidTooltip{position:absolute;text-align:center;max-width:200px;padding:2px;font-family:ui-monospace,SFMono-Regular,Menlo,monospace;font-size:12px;background:#161D27;border:1px solid hsl(215.2941176471, 0%, 1.9607843137%);border-radius:2px;pointer-events:none;z-index:100;}#my-svg .flowchartTitleText{text-anchor:middle;font-size:18px;fill:#E2E8F0;}#my-svg rect.text{fill:none;stroke-width:0;}#my-svg .icon-shape,#my-svg .image-shape{background-color:#0D1320;text-align:center;}#my-svg .icon-shape p,#my-svg .image-shape p{background-color:#0D1320;padding:2px;}#my-svg .icon-shape .label rect,#my-svg .image-shape .label rect{opacity:0.5;background-color:#0D1320;fill:#0D1320;}#my-svg .label-icon{display:inline-block;height:1em;overflow:visible;vertical-align:-0.125em;}#my-svg .node .label-icon path{fill:currentColor;stroke:revert;stroke-width:revert;}#my-svg .node .neo-node{stroke:#2A3548;}#my-svg [data-look="neo"].node rect,#my-svg [data-look="neo"].cluster rect,#my-svg [data-look="neo"].node polygon{stroke:url(#my-svg-gradient);filter:drop-shadow( 1px 2px 2px rgba(185,185,185,1));}#my-svg [data-look="neo"].node path{stroke:url(#my-svg-gradient);stroke-width:1px;}#my-svg [data-look="neo"].node .outer-path{filter:drop-shadow( 1px 2px 2px rgba(185,185,185,1));}#my-svg [data-look="neo"].node .neo-line path{stroke:#2A3548;filter:none;}#my-svg [data-look="neo"].node circle{stroke:url(#my-svg-gradient);filter:drop-shadow( 1px 2px 2px rgba(185,185,185,1));}#my-svg [data-look="neo"].node circle .state-start{fill:#000000;}#my-svg [data-look="neo"].icon-shape .icon{fill:url(#my-svg-gradient);filter:drop-shadow( 1px 2px 2px rgba(185,185,185,1));}#my-svg [data-look="neo"].icon-shape .icon-neo path{stroke:url(#my-svg-gradient);filter:drop-shadow( 1px 2px 2px rgba(185,185,185,1));}#my-svg :root{--mermaid-font-family:"trebuchet ms",verdana,arial,sans-serif;}#my-svg .accent&gt;*{fill:rgb(124, 58, 237)!important;stroke:rgb(124, 58, 237)!important;color:rgb(255, 255, 255)!important;}#my-svg .accent span{fill:rgb(124, 58, 237)!important;stroke:rgb(124, 58, 237)!important;color:rgb(255, 255, 255)!important;}#my-svg .accent tspan{fill:rgb(255, 255, 255)!important;}</style><g><marker id="my-svg_flowchart-v2-pointEnd" class="marker flowchart-v2" viewBox="0 0 10 10" refX="5" refY="5" markerUnits="userSpaceOnUse" markerWidth="8" markerHeight="8" orient="auto"><path d="M 0 0 L 10 5 L 0 10 z" class="arrowMarkerPath" style="stroke-width: 1; stroke-dasharray: 1, 0;"/></marker><marker id="my-svg_flowchart-v2-pointStart" class="marker flowchart-v2" viewBox="0 0 10 10" refX="4.5" refY="5" markerUnits="userSpaceOnUse" markerWidth="8" markerHeight="8" orient="auto"><path d="M 0 5 L 10 10 L 10 0 z" class="arrowMarkerPath" style="stroke-width: 1; stroke-dasharray: 1, 0;"/></marker><marker id="my-svg_flowchart-v2-pointEnd-margin" class="marker flowchart-v2" viewBox="0 0 11.5 14" refX="11.5" refY="7" markerUnits="userSpaceOnUse" markerWidth="10.5" markerHeight="14" orient="auto"><path d="M 0 0 L 11.5 7 L 0 14 z" class="arrowMarkerPath" style="stroke-width: 0; stroke-dasharray: 1, 0;"/></marker><marker id="my-svg_flowchart-v2-pointStart-margin" class="marker flowchart-v2" viewBox="0 0 11.5 14" refX="1" refY="7" markerUnits="userSpaceOnUse" markerWidth="11.5" markerHeight="14" orient="auto"><polygon points="0,7 11.5,14 11.5,0" class="arrowMarkerPath" style="stroke-width: 0; stroke-dasharray: 1, 0;"/></marker><marker id="my-svg_flowchart-v2-circleEnd" class="marker flowchart-v2" viewBox="0 0 10 10" refX="11" refY="5" markerUnits="userSpaceOnUse" markerWidth="11" markerHeight="11" orient="auto"><circle cx="5" cy="5" r="5" class="arrowMarkerPath" style="stroke-width: 1; stroke-dasharray: 1, 0;"/></marker><marker id="my-svg_flowchart-v2-circleStart" class="marker flowchart-v2" viewBox="0 0 10 10" refX="-1" refY="5" markerUnits="userSpaceOnUse" markerWidth="11" markerHeight="11" orient="auto"><circle cx="5" cy="5" r="5" class="arrowMarkerPath" style="stroke-width: 1; stroke-dasharray: 1, 0;"/></marker><marker id="my-svg_flowchart-v2-circleEnd-margin" class="marker flowchart-v2" viewBox="0 0 10 10" refY="5" refX="12.25" markerUnits="userSpaceOnUse" markerWidth="14" markerHeight="14" orient="auto"><circle cx="5" cy="5" r="5" class="arrowMarkerPath" style="stroke-width: 0; stroke-dasharray: 1, 0;"/></marker><marker id="my-svg_flowchart-v2-circleStart-margin" class="marker flowchart-v2" viewBox="0 0 10 10" refX="-2" refY="5" markerUnits="userSpaceOnUse" markerWidth="14" markerHeight="14" orient="auto"><circle cx="5" cy="5" r="5" class="arrowMarkerPath" style="stroke-width: 0; stroke-dasharray: 1, 0;"/></marker><marker id="my-svg_flowchart-v2-crossEnd" class="marker cross flowchart-v2" viewBox="0 0 11 11" refX="12" refY="5.2" markerUnits="userSpaceOnUse" markerWidth="11" markerHeight="11" orient="auto"><path d="M 1,1 l 9,9 M 10,1 l -9,9" class="arrowMarkerPath" style="stroke-width: 2; stroke-dasharray: 1, 0;"/></marker><marker id="my-svg_flowchart-v2-crossStart" class="marker cross flowchart-v2" viewBox="0 0 11 11" refX="-1" refY="5.2" markerUnits="userSpaceOnUse" markerWidth="11" markerHeight="11" orient="auto"><path d="M 1,1 l 9,9 M 10,1 l -9,9" class="arrowMarkerPath" style="stroke-width: 2; stroke-dasharray: 1, 0;"/></marker><marker id="my-svg_flowchart-v2-crossEnd-margin" class="marker cross flowchart-v2" viewBox="0 0 15 15" refX="17.7" refY="7.5" markerUnits="userSpaceOnUse" markerWidth="12" markerHeight="12" orient="auto"><path d="M 1,1 L 14,14 M 1,14 L 14,1" class="arrowMarkerPath" style="stroke-width: 2.5;"/></marker><marker id="my-svg_flowchart-v2-crossStart-margin" class="marker cross flowchart-v2" viewBox="0 0 15 15" refX="-3.5" refY="7.5" markerUnits="userSpaceOnUse" markerWidth="12" markerHeight="12" orient="auto"><path d="M 1,1 L 14,14 M 1,14 L 14,1" class="arrowMarkerPath" style="stroke-width: 2.5; stroke-dasharray: 1, 0;"/></marker><g class="root"><g class="clusters"><g class="cluster" id="my-svg-PE" data-look="classic"><rect style="" x="30.08203125" y="765" width="636.796875" height="244"/><g class="cluster-label" transform="translate(266.59765625, 773)"><foreignObject width="163.765625" height="24"><div xmlns="http://www.w3.org/1999/xhtml" style="display: table-cell; white-space: nowrap; line-height: 1.5;"><span class="nodeLabel"><p>Play agent engine</p></span></div></foreignObject></g></g><g class="cluster" id="my-svg-NS" data-look="classic"><rect style="" x="8" y="71" width="677.05078125" height="598"/><g class="cluster-label" transform="translate(274.275390625, 79)"><foreignObject width="144.5" height="24"><div xmlns="http://www.w3.org/1999/xhtml" style="display: table-cell; white-space: nowrap; line-height: 1.5;"><span class="nodeLabel"><p>Noise to signal</p></span></div></foreignObject></g></g></g><g class="edgePaths"><path d="M147.105,63.5L147.022,66.75C146.939,70,146.772,76.5,146.689,83.083C146.605,89.667,146.605,96.333,146.605,104.333C146.605,112.333,146.605,121.667,146.605,126.333L146.605,131" id="my-svg-L_V_P_0" class="edge-thickness-normal edge-pattern-solid edge-thickness-normal edge-pattern-solid flowchart-link" style=";" data-edge="true" data-et="edge" data-id="L_V_P_0" data-points="W3sieCI6MTQ3LjEwNTQ2ODc1LCJ5Ijo2My41fSx7IngiOjE0Ni42MDU0Njg3NSwieSI6ODN9LHsieCI6MTQ2LjYwNTQ2ODc1LCJ5IjoxMDN9LHsieCI6MTQ2LjYwNTQ2ODc1LCJ5IjoxMzV9XQ==" data-look="classic" marker-end="url(#my-svg_flowchart-v2-pointEnd)"/><path d="M146.605,189L146.605,196.333C146.605,203.667,146.605,218.333,162.998,230.801C179.39,243.268,212.174,253.536,228.566,258.67L244.958,263.804" id="my-svg-L_P_ID_0" class="edge-thickness-normal edge-pattern-solid edge-thickness-normal edge-pattern-solid flowchart-link" style=";" data-edge="true" data-et="edge" data-id="L_P_ID_0" data-points="W3sieCI6MTQ2LjYwNTQ2ODc1LCJ5IjoxODl9LHsieCI6MTQ2LjYwNTQ2ODc1LCJ5IjoyMzN9LHsieCI6MjQ4Ljc3NDk2MDI3NTQyMzcyLCJ5IjoyNjV9XQ==" data-look="classic" marker-end="url(#my-svg_flowchart-v2-pointEnd)"/><path d="M342.574,189L342.574,196.333C342.574,203.667,342.574,218.333,341.973,230.339C341.372,242.344,340.169,251.688,339.568,256.361L338.966,261.033" id="my-svg-L_PH_ID_0" class="edge-thickness-normal edge-pattern-solid edge-thickness-normal edge-pattern-solid flowchart-link" style=";" data-edge="true" data-et="edge" data-id="L_PH_ID_0" data-points="W3sieCI6MzQyLjU3NDIxODc1LCJ5IjoxODl9LHsieCI6MzQyLjU3NDIxODc1LCJ5IjoyMzN9LHsieCI6MzM4LjQ1NTU3NDY4MjIwMzQsInkiOjI2NX1d" data-look="classic" marker-end="url(#my-svg_flowchart-v2-pointEnd)"/><path d="M572.254,201L572.254,206.333C572.254,211.667,572.254,222.333,551.452,232.839C530.651,243.345,489.048,253.69,468.247,258.862L447.445,264.035" id="my-svg-L_WH_ID_0" class="edge-thickness-normal edge-pattern-solid edge-thickness-normal edge-pattern-solid flowchart-link" style=";" data-edge="true" data-et="edge" data-id="L_WH_ID_0" data-points="W3sieCI6NTcyLjI1MzkwNjI1LCJ5IjoyMDF9LHsieCI6NTcyLjI1MzkwNjI1LCJ5IjoyMzN9LHsieCI6NDQzLjU2MzIyODI4Mzg5ODMsInkiOjI2NX1d" data-look="classic" marker-end="url(#my-svg_flowchart-v2-pointEnd)"/><path d="M334.98,319L334.98,322.333C334.98,325.667,334.98,332.333,334.98,338.333C334.98,344.333,334.98,349.667,334.98,352.333L334.98,355" id="my-svg-L_ID_CO_0" class="edge-thickness-normal edge-pattern-solid edge-thickness-normal edge-pattern-solid flowchart-link" style=";" data-edge="true" data-et="edge" data-id="L_ID_CO_0" data-points="W3sieCI6MzM0Ljk4MDQ2ODc1LCJ5IjozMTl9LHsieCI6MzM0Ljk4MDQ2ODc1LCJ5IjozMzl9LHsieCI6MzM0Ljk4MDQ2ODc1LCJ5IjozNTl9XQ==" data-look="classic" marker-end="url(#my-svg_flowchart-v2-pointEnd)"/><path d="M334.98,437L334.98,440.333C334.98,443.667,334.98,450.333,334.98,456.333C334.98,462.333,334.98,467.667,334.98,470.333L334.98,473" id="my-svg-L_CO_S_0" class="edge-thickness-normal edge-pattern-solid edge-thickness-normal edge-pattern-solid flowchart-link" style=";" data-edge="true" data-et="edge" data-id="L_CO_S_0" data-points="W3sieCI6MzM0Ljk4MDQ2ODc1LCJ5Ijo0Mzd9LHsieCI6MzM0Ljk4MDQ2ODc1LCJ5Ijo0NTd9LHsieCI6MzM0Ljk4MDQ2ODc1LCJ5Ijo0Nzd9XQ==" data-look="classic" marker-end="url(#my-svg_flowchart-v2-pointEnd)"/><path d="M334.98,531L334.98,534.333C334.98,537.667,334.98,544.333,334.98,550.333C334.98,556.333,334.98,561.667,334.98,564.333L334.98,567" id="my-svg-L_S_SC_0" class="edge-thickness-normal edge-pattern-solid edge-thickness-normal edge-pattern-solid flowchart-link" style=";" data-edge="true" data-et="edge" data-id="L_S_SC_0" data-points="W3sieCI6MzM0Ljk4MDQ2ODc1LCJ5Ijo1MzF9LHsieCI6MzM0Ljk4MDQ2ODc1LCJ5Ijo1NTF9LHsieCI6MzM0Ljk4MDQ2ODc1LCJ5Ijo1NzF9XQ==" data-look="classic" marker-end="url(#my-svg_flowchart-v2-pointEnd)"/><path d="M280.895,856.909L257.09,862.591C233.285,868.273,185.676,879.636,161.871,889.985C138.066,900.333,138.066,909.667,138.066,914.333L138.066,919" id="my-svg-L_PL_O1_0" class="edge-thickness-normal edge-pattern-solid edge-thickness-normal edge-pattern-solid flowchart-link" style=";" data-edge="true" data-et="edge" data-id="L_PL_O1_0" data-points="W3sieCI6MjgwLjg5NDUzMTI1LCJ5Ijo4NTYuOTA5MzgzMDU4OTE2OX0seyJ4IjoxMzguMDY2NDA2MjUsInkiOjg5MX0seyJ4IjoxMzguMDY2NDA2MjUsInkiOjkyM31d" data-look="classic" marker-end="url(#my-svg_flowchart-v2-pointEnd)"/><path d="M331.668,871L331.259,874.333C330.85,877.667,330.033,884.333,329.624,892.333C329.215,900.333,329.215,909.667,329.215,914.333L329.215,919" id="my-svg-L_PL_O2_0" class="edge-thickness-normal edge-pattern-solid edge-thickness-normal edge-pattern-solid flowchart-link" style=";" data-edge="true" data-et="edge" data-id="L_PL_O2_0" data-points="W3sieCI6MzMxLjY2ODMwMTE5NjgwODUsInkiOjg3MX0seyJ4IjozMjkuMjE0ODQzNzUsInkiOjg5MX0seyJ4IjozMjkuMjE0ODQzNzUsInkiOjkyM31d" data-look="classic" marker-end="url(#my-svg_flowchart-v2-pointEnd)"/><path d="M389.066,856.421L414.16,862.185C439.254,867.948,489.441,879.474,514.535,887.904C539.629,896.333,539.629,901.667,539.629,904.333L539.629,907" id="my-svg-L_PL_O3_0" class="edge-thickness-normal edge-pattern-solid edge-thickness-normal edge-pattern-solid flowchart-link" style=";" data-edge="true" data-et="edge" data-id="L_PL_O3_0" data-points="W3sieCI6Mzg5LjA2NjQwNjI1LCJ5Ijo4NTYuNDIxNDkyNjUxMjY5M30seyJ4Ijo1MzkuNjI4OTA2MjUsInkiOjg5MX0seyJ4Ijo1MzkuNjI4OTA2MjUsInkiOjkxMX1d" data-look="classic" marker-end="url(#my-svg_flowchart-v2-pointEnd)"/><path d="M334.98,649L334.98,652.333C334.98,655.667,334.98,662.333,334.98,669C334.98,675.667,334.98,682.333,334.98,693C334.98,703.667,334.98,718.333,334.98,733C334.98,747.667,334.98,762.333,334.98,773C334.98,783.667,334.98,790.333,334.98,796.333C334.98,802.333,334.98,807.667,334.98,810.333L334.98,813" id="my-svg-L_SC_PL_0" class="edge-thickness-normal edge-pattern-solid edge-thickness-normal edge-pattern-solid flowchart-link" style=";" data-edge="true" data-et="edge" data-id="L_SC_PL_0" data-points="W3sieCI6MzM0Ljk4MDQ2ODc1LCJ5Ijo2NDl9LHsieCI6MzM0Ljk4MDQ2ODc1LCJ5Ijo2Njl9LHsieCI6MzM0Ljk4MDQ2ODc1LCJ5Ijo2ODl9LHsieCI6MzM0Ljk4MDQ2ODc1LCJ5Ijo3MzN9LHsieCI6MzM0Ljk4MDQ2ODc1LCJ5Ijo3Nzd9LHsieCI6MzM0Ljk4MDQ2ODc1LCJ5Ijo3OTd9LHsieCI6MzM0Ljk4MDQ2ODc1LCJ5Ijo4MTd9XQ==" data-look="classic" marker-end="url(#my-svg_flowchart-v2-pointEnd)"/></g><g class="edgeLabels"><g class="edgeLabel"><g class="label" data-id="L_V_P_0" transform="translate(0, 0)"><foreignObject width="0" height="0"><div xmlns="http://www.w3.org/1999/xhtml" class="labelBkg" style="display: table-cell; white-space: nowrap; line-height: 1.5; max-width: 200px; text-align: center;"><span class="edgeLabel"></span></div></foreignObject></g></g><g class="edgeLabel" transform="translate(146.60546875, 233)"><g class="label" data-id="L_P_ID_0" transform="translate(-94.6953125, -12)"><foreignObject width="189.390625" height="24"><div xmlns="http://www.w3.org/1999/xhtml" class="labelBkg" style="display: table-cell; white-space: nowrap; line-height: 1.5; max-width: 200px; text-align: center;"><span class="edgeLabel"><p>page views ⬩ clicks</p></span></div></foreignObject></g></g><g class="edgeLabel" transform="translate(342.57421875, 233)"><g class="label" data-id="L_PH_ID_0" transform="translate(-67.4296875, -12)"><foreignObject width="134.859375" height="24"><div xmlns="http://www.w3.org/1999/xhtml" class="labelBkg" style="display: table-cell; white-space: nowrap; line-height: 1.5; max-width: 200px; text-align: center;"><span class="edgeLabel"><p>product events</p></span></div></foreignObject></g></g><g class="edgeLabel" transform="translate(572.25390625, 233)"><g class="label" data-id="L_WH_ID_0" transform="translate(-52.984375, -12)"><foreignObject width="105.96875" height="24"><div xmlns="http://www.w3.org/1999/xhtml" class="labelBkg" style="display: table-cell; white-space: nowrap; line-height: 1.5; max-width: 200px; text-align: center;"><span class="edgeLabel"><p>your events</p></span></div></foreignObject></g></g><g class="edgeLabel"><g class="label" data-id="L_ID_CO_0" transform="translate(0, 0)"><foreignObject width="0" height="0"><div xmlns="http://www.w3.org/1999/xhtml" class="labelBkg" style="display: table-cell; white-space: nowrap; line-height: 1.5; max-width: 200px; text-align: center;"><span class="edgeLabel"></span></div></foreignObject></g></g><g class="edgeLabel"><g class="label" data-id="L_CO_S_0" transform="translate(0, 0)"><foreignObject width="0" height="0"><div xmlns="http://www.w3.org/1999/xhtml" class="labelBkg" style="display: table-cell; white-space: nowrap; line-height: 1.5; max-width: 200px; text-align: center;"><span class="edgeLabel"></span></div></foreignObject></g></g><g class="edgeLabel"><g class="label" data-id="L_S_SC_0" transform="translate(0, 0)"><foreignObject width="0" height="0"><div xmlns="http://www.w3.org/1999/xhtml" class="labelBkg" style="display: table-cell; white-space: nowrap; line-height: 1.5; max-width: 200px; text-align: center;"><span class="edgeLabel"></span></div></foreignObject></g></g><g class="edgeLabel"><g class="label" data-id="L_PL_O1_0" transform="translate(0, 0)"><foreignObject width="0" height="0"><div xmlns="http://www.w3.org/1999/xhtml" class="labelBkg" style="display: table-cell; white-space: nowrap; line-height: 1.5; max-width: 200px; text-align: center;"><span class="edgeLabel"></span></div></foreignObject></g></g><g class="edgeLabel"><g class="label" data-id="L_PL_O2_0" transform="translate(0, 0)"><foreignObject width="0" height="0"><div xmlns="http://www.w3.org/1999/xhtml" class="labelBkg" style="display: table-cell; white-space: nowrap; line-height: 1.5; max-width: 200px; text-align: center;"><span class="edgeLabel"></span></div></foreignObject></g></g><g class="edgeLabel"><g class="label" data-id="L_PL_O3_0" transform="translate(0, 0)"><foreignObject width="0" height="0"><div xmlns="http://www.w3.org/1999/xhtml" class="labelBkg" style="display: table-cell; white-space: nowrap; line-height: 1.5; max-width: 200px; text-align: center;"><span class="edgeLabel"></span></div></foreignObject></g></g><g class="edgeLabel" transform="translate(334.98046875, 733)"><g class="label" data-id="L_SC_PL_0" transform="translate(-100, -24)"><foreignObject width="200" height="48"><div xmlns="http://www.w3.org/1999/xhtml" class="labelBkg" style="display: table; white-space: break-spaces; line-height: 1.5; max-width: 200px; text-align: center; width: 200px;"><span class="edgeLabel"><p>a scored signal triggers a Play</p></span></div></foreignObject></g></g></g><g class="nodes"><g class="node default" id="my-svg-flowchart-V-0" data-look="classic" transform="translate(146.60546875, 43.5)"><g class="basic label-container outer-path"><path d="M-65.125 -19.5 C-32.20691379316947 -19.5, 0.7111724136610604 -19.5, 65.125 -19.5 C65.125 -19.5, 65.125 -19.5, 65.125 -19.5 C65.57123106931509 -19.48569023814315, 66.01746213863017 -19.471380476286303, 66.3743692896239 -19.45993515863156 C66.77546860591933 -19.421241589981044, 67.17656792221474 -19.38254802133053, 67.61860465284786 -19.3399052695533 C67.97757691874078 -19.28186941747523, 68.33654918463371 -19.22383356539716, 68.85259325967675 -19.140403561325776 C69.17935459169874 -19.065822419608725, 69.50611592372073 -18.99124127789167, 70.07126438623538 -18.862249829261074 C70.45626381994195 -18.747984018240235, 70.8412632536485 -18.633718207219395, 71.2696102514606 -18.50658706670804 C71.61959769836632 -18.377788450998242, 71.96958514527203 -18.248989835288445, 72.4427065951478 -18.074876768247425 C72.85693570659672 -17.891509828279, 73.27116481804563 -17.708142888310572, 73.58573291279238 -17.568892924097174 C74.00617218531539 -17.349550024926124, 74.4266114578384 -17.130207125755078, 74.69399226407678 -16.990714730406097 C75.09363324703125 -16.748450017988002, 75.4932742299857 -16.506185305569904, 75.7629305736057 -16.342718045390892 C76.03536000812213 -16.15268306515238, 76.30778944263855 -15.962648084913866, 76.78815534457871 -15.627565626425154 C77.02512706847854 -15.438586982697453, 77.26209879237837 -15.249608338969752, 77.76545370850187 -14.848196188198123 C78.03721016173269 -14.601394167655634, 78.3089666149635 -14.354592147113145, 78.69080973676799 -14.007812326905688 C78.90323228515457 -13.788468605480972, 79.11565483354116 -13.569124884056256, 79.56042094296865 -13.10986736009568 C79.76741597357658 -12.866719218792701, 79.9744110041845 -12.623571077489721, 80.37071390812658 -12.158051136245305 C80.63594655655496 -11.802663550542624, 80.90117920498335 -11.447275964839942, 81.11835896464063 -11.156274872382312 C81.28009781932812 -10.907800558618655, 81.44183667401562 -10.659326244854997, 81.80028387860425 -10.108655082055241 C82.03162502467558 -9.697885451374356, 82.26296617074689 -9.28711582069347, 82.4136864742735 -9.019496659696287 C82.57770788778832 -8.678902685036734, 82.74172930130314 -8.33830871037718, 82.95604614880834 -7.893275190886684 C83.07254375814122 -7.605523843506407, 83.1890413674741 -7.317772496126129, 83.42513422997033 -6.734618561215508 C83.5064602305879 -6.489677604893907, 83.58778623120547 -6.244736648572306, 83.81902313421489 -5.548287939305138 C83.8843554986838 -5.299147318359312, 83.9496878631527 -5.050006697413486, 84.13609428754556 -4.339158212148133 C84.18422380504566 -4.092023311962218, 84.23235332254578 -3.8448884117763034, 84.37504477658177 -3.1121979531509023 C84.40876440330895 -2.8506751869484126, 84.44248403003611 -2.589152420745923, 84.53489270250937 -1.872449005199798 C84.56266647236515 -1.4398501211123724, 84.59044024222095 -1.0072512370249467, 84.61498121591342 -0.6250057626472757 C84.61498121591342 -0.35530316672640694, 84.61498121591342 -0.08560057080553818, 84.61498121591342 0.625005762647271 C84.5848932740534 1.0936497436665793, 84.55480533219338 1.5622937246858877, 84.53489270250937 1.8724490051997846 C84.50052491397444 2.1389987863891418, 84.46615712543952 2.4055485675784984, 84.37504477658177 3.1121979531508885 C84.2847957215073 3.5756077768138135, 84.19454666643281 4.039017600476738, 84.13609428754556 4.339158212148129 C84.02617663418201 4.758321863035651, 83.91625898081847 5.177485513923174, 83.81902313421489 5.548287939305125 C83.73655677314788 5.796663479608658, 83.65409041208088 6.04503901991219, 83.42513422997033 6.734618561215495 C83.32867275579504 6.972880267384177, 83.23221128161975 7.21114197355286, 82.95604614880834 7.893275190886679 C82.82536687228907 8.164633504667545, 82.69468759576979 8.43599181844841, 82.4136864742735 9.019496659696284 C82.18215350298235 9.430606895479386, 81.9506205316912 9.841717131262486, 81.80028387860425 10.108655082055236 C81.53829766181549 10.51113626419235, 81.27631144502674 10.913617446329464, 81.11835896464065 11.156274872382301 C80.92388381016679 11.416853862326233, 80.72940865569292 11.677432852270165, 80.37071390812659 12.158051136245302 C80.17456464861759 12.388459217673624, 79.97841538910859 12.618867299101948, 79.56042094296866 13.10986736009567 C79.3267186916587 13.351184121884874, 79.09301644034873 13.592500883674075, 78.69080973676799 14.007812326905684 C78.35911885247936 14.309045211956743, 78.02742796819071 14.610278097007804, 77.7654537085019 14.848196188198111 C77.3950036545254 15.143620248154411, 77.02455360054891 15.43904430811071, 76.78815534457871 15.627565626425152 C76.45046183234106 15.8631260020456, 76.11276832010341 16.09868637766605, 75.7629305736057 16.34271804539089 C75.44561273074329 16.53507798650071, 75.12829488788088 16.727437927610534, 74.69399226407678 16.990714730406093 C74.38006509071576 17.154490335668587, 74.06613791735474 17.318265940931084, 73.58573291279238 17.56889292409717 C73.15491000848962 17.759605443924617, 72.72408710418686 17.95031796375206, 72.4427065951478 18.07487676824742 C72.02987205614467 18.226803694801216, 71.61703751714155 18.37873062135501, 71.26961025146062 18.506587066708033 C70.97727831627238 18.593349650590262, 70.68494638108413 18.680112234472496, 70.07126438623541 18.86224982926107 C69.61198047118451 18.9670783857638, 69.1526965561336 19.071906942266526, 68.85259325967677 19.140403561325773 C68.56843181969958 19.186344579236405, 68.28427037972239 19.23228559714704, 67.61860465284788 19.3399052695533 C67.25326175703164 19.375149459323573, 66.8879188612154 19.41039364909385, 66.3743692896239 19.45993515863156 C66.04803124897239 19.47040018441679, 65.72169320832089 19.480865210202023, 65.125 19.5 C65.125 19.5, 65.125 19.5, 65.125 19.5 C17.981676387478572 19.5, -29.161647225042856 19.5, -65.125 19.5 C-65.62031326129103 19.484116267779175, -66.11562652258205 19.468232535558347, -66.3743692896239 19.45993515863156 C-66.6826333581268 19.430197294684866, -66.9908974266297 19.400459430738177, -67.61860465284786 19.3399052695533 C-68.09501650153331 19.2628826964869, -68.57142835021877 19.1858601234205, -68.85259325967675 19.140403561325773 C-69.32937605573508 19.03158099942397, -69.80615885179341 18.922758437522166, -70.07126438623538 18.862249829261074 C-70.5181322116934 18.729621804322218, -70.96500003715143 18.59699377938336, -71.26961025146059 18.506587066708043 C-71.53714012133304 18.408133601575976, -71.80466999120549 18.30968013644391, -72.4427065951478 18.074876768247425 C-72.68810982637946 17.966244037409375, -72.93351305761114 17.85761130657132, -73.58573291279238 17.568892924097174 C-73.92084660672224 17.39406432462453, -74.2559603006521 17.219235725151886, -74.69399226407678 16.990714730406097 C-75.01717295504989 16.794800696317647, -75.340353646023 16.598886662229194, -75.76293057360569 16.3427180453909 C-76.12410066872961 16.09078142183388, -76.48527076385353 15.838844798276863, -76.78815534457871 15.627565626425156 C-76.98424479675458 15.471189506474365, -77.18033424893046 15.314813386523575, -77.76545370850187 14.848196188198125 C-78.09504414628142 14.548870873091849, -78.42463458406098 14.249545557985574, -78.69080973676797 14.007812326905697 C-78.90603010505562 13.785579626727843, -79.12125047334328 13.563346926549988, -79.56042094296865 13.109867360095677 C-79.75145889954496 12.88546330593347, -79.94249685612127 12.661059251771261, -80.37071390812658 12.158051136245307 C-80.54097235540769 11.929920327752244, -80.71123080268882 11.701789519259183, -81.11835896464063 11.156274872382316 C-81.33005760189991 10.831048916508355, -81.54175623915918 10.505822960634395, -81.80028387860425 10.108655082055249 C-81.97736231235655 9.794234391792244, -82.15444074610885 9.479813701529238, -82.4136864742735 9.019496659696289 C-82.52791263238984 8.78230359831947, -82.64213879050617 8.545110536942651, -82.95604614880834 7.893275190886686 C-83.10096223332378 7.535329660371657, -83.24587831783923 7.177384129856628, -83.42513422997033 6.73461856121551 C-83.52551218052652 6.432296167194765, -83.62589013108273 6.1299737731740205, -83.81902313421489 5.5482879393051325 C-83.91807782314693 5.1705494798335, -84.01713251207897 4.792811020361867, -84.13609428754556 4.339158212148136 C-84.21800484861758 3.9185647928465395, -84.29991540968959 3.497971373544943, -84.37504477658177 3.112197953150904 C-84.41833242552262 2.776467496078796, -84.46162007446348 2.4407370390066885, -84.53489270250937 1.872449005199809 C-84.56616635979066 1.3853365494019354, -84.59744001707195 0.8982240936040619, -84.61498121591342 0.6250057626472781 C-84.61498121591342 0.13464690155958053, -84.61498121591342 -0.35571195952811707, -84.61498121591342 -0.6250057626472687 C-84.58426335335314 -1.103461267035894, -84.55354549079287 -1.5819167714245197, -84.53489270250937 -1.8724490051997822 C-84.50133419370474 -2.132722172611344, -84.46777568490012 -2.3929953400229063, -84.37504477658177 -3.112197953150895 C-84.31608572653991 -3.4149402141162284, -84.25712667649805 -3.717682475081561, -84.13609428754556 -4.339158212148126 C-84.06897229833567 -4.595123447859628, -84.00185030912576 -4.851088683571128, -83.81902313421489 -5.548287939305123 C-83.66981043295772 -5.997692821676331, -83.52059773170053 -6.44709770404754, -83.42513422997033 -6.734618561215485 C-83.2688446045484 -7.120656957661978, -83.11255497912649 -7.50669535410847, -82.95604614880834 -7.893275190886676 C-82.82658309585426 -8.162107990411407, -82.69712004290018 -8.43094078993614, -82.4136864742735 -9.019496659696282 C-82.23117961229934 -9.343556073955174, -82.04867275032518 -9.667615488214064, -81.80028387860425 -10.108655082055243 C-81.6284957711013 -10.37256774674566, -81.45670766359835 -10.636480411436073, -81.11835896464063 -11.156274872382308 C-80.88430126715635 -11.469890863916369, -80.65024356967204 -11.78350685545043, -80.37071390812659 -12.158051136245302 C-80.10346314402567 -12.471979090757518, -79.83621237992475 -12.785907045269735, -79.56042094296866 -13.10986736009567 C-79.30158358890495 -13.377138179108428, -79.04274623484125 -13.644408998121188, -78.69080973676799 -14.007812326905677 C-78.48125786252743 -14.198121794652192, -78.27170598828687 -14.388431262398706, -77.7654537085019 -14.848196188198107 C-77.50173894454953 -15.058501694705516, -77.23802418059718 -15.268807201212926, -76.78815534457871 -15.627565626425149 C-76.54484610416706 -15.797287619849062, -76.3015368637554 -15.967009613272973, -75.76293057360571 -16.342718045390885 C-75.4580182512884 -16.52755768704335, -75.15310592897106 -16.712397328695808, -74.69399226407678 -16.99071473040609 C-74.35541684562655 -17.167349309343678, -74.0168414271763 -17.34398388828126, -73.5857329127924 -17.56889292409717 C-73.28099125371766 -17.703793016729424, -72.97624959464294 -17.838693109361678, -72.44270659514781 -18.07487676824742 C-72.07374032794928 -18.210659765263266, -71.70477406075074 -18.34644276227911, -71.26961025146062 -18.506587066708033 C-70.90436004938346 -18.6149914094471, -70.53910984730629 -18.723395752186168, -70.07126438623541 -18.862249829261067 C-69.62135424381958 -18.964938883329424, -69.17144410140374 -19.067627937397784, -68.85259325967677 -19.140403561325773 C-68.44055816534595 -19.2070181999973, -68.02852307101512 -19.273632838668828, -67.61860465284788 -19.3399052695533 C-67.18859723279378 -19.381387568206332, -66.75858981273969 -19.422869866859365, -66.3743692896239 -19.45993515863156 C-65.8869073444319 -19.47556711442675, -65.39944539923991 -19.49119907022194, -65.125 -19.5 C-65.125 -19.5, -65.125 -19.5, -65.125 -19.5" stroke="none" stroke-width="0" fill="#161D27" style=""/><path d="M-65.125 -19.5 C-38.94940719420969 -19.5, -12.773814388419382 -19.5, 65.125 -19.5 M-65.125 -19.5 C-38.26141583779663 -19.5, -11.397831675593274 -19.5, 65.125 -19.5 M65.125 -19.5 C65.125 -19.5, 65.125 -19.5, 65.125 -19.5 M65.125 -19.5 C65.125 -19.5, 65.125 -19.5, 65.125 -19.5 M65.125 -19.5 C65.61927973495861 -19.484149410957016, 66.11355946991723 -19.468298821914033, 66.3743692896239 -19.45993515863156 M65.125 -19.5 C65.40058350437931 -19.491162573405305, 65.67616700875861 -19.482325146810613, 66.3743692896239 -19.45993515863156 M66.3743692896239 -19.45993515863156 C66.6245305858142 -19.435802399251056, 66.8746918820045 -19.411669639870556, 67.61860465284786 -19.3399052695533 M66.3743692896239 -19.45993515863156 C66.75548835031643 -19.423169061209283, 67.13660741100897 -19.386402963787003, 67.61860465284786 -19.3399052695533 M67.61860465284786 -19.3399052695533 C67.9465615910598 -19.286883735127233, 68.27451852927176 -19.233862200701164, 68.85259325967675 -19.140403561325776 M67.61860465284786 -19.3399052695533 C68.10759777680389 -19.2608486534704, 68.59659090075992 -19.181792037387506, 68.85259325967675 -19.140403561325776 M68.85259325967675 -19.140403561325776 C69.30278108596208 -19.03765112772626, 69.75296891224743 -18.934898694126748, 70.07126438623538 -18.862249829261074 M68.85259325967675 -19.140403561325776 C69.20113818140163 -19.060850457410247, 69.54968310312653 -18.981297353494714, 70.07126438623538 -18.862249829261074 M70.07126438623538 -18.862249829261074 C70.46247025914793 -18.746141979662163, 70.85367613206049 -18.630034130063247, 71.2696102514606 -18.50658706670804 M70.07126438623538 -18.862249829261074 C70.3513763074343 -18.779114081386716, 70.6314882286332 -18.69597833351236, 71.2696102514606 -18.50658706670804 M71.2696102514606 -18.50658706670804 C71.66107674766013 -18.36252377742999, 72.05254324385967 -18.21846048815194, 72.4427065951478 -18.074876768247425 M71.2696102514606 -18.50658706670804 C71.68009379448107 -18.355525328408234, 72.09057733750153 -18.20446359010843, 72.4427065951478 -18.074876768247425 M72.4427065951478 -18.074876768247425 C72.89571515602867 -17.874343316366964, 73.34872371690955 -17.673809864486508, 73.58573291279238 -17.568892924097174 M72.4427065951478 -18.074876768247425 C72.73890517980873 -17.94375844123686, 73.03510376446967 -17.812640114226298, 73.58573291279238 -17.568892924097174 M73.58573291279238 -17.568892924097174 C73.89799868295175 -17.405984071820804, 74.21026445311112 -17.24307521954443, 74.69399226407678 -16.990714730406097 M73.58573291279238 -17.568892924097174 C73.91174208816335 -17.398814146124984, 74.2377512635343 -17.228735368152794, 74.69399226407678 -16.990714730406097 M74.69399226407678 -16.990714730406097 C74.9771486898821 -16.81906364107105, 75.26030511568743 -16.647412551736, 75.7629305736057 -16.342718045390892 M74.69399226407678 -16.990714730406097 C75.07463786757886 -16.759965128641277, 75.45528347108095 -16.529215526876452, 75.7629305736057 -16.342718045390892 M75.7629305736057 -16.342718045390892 C76.02925631521293 -16.156940737101223, 76.29558205682018 -15.97116342881155, 76.78815534457871 -15.627565626425154 M75.7629305736057 -16.342718045390892 C76.08748426225705 -16.116323441890447, 76.41203795090841 -15.889928838390002, 76.78815534457871 -15.627565626425154 M76.78815534457871 -15.627565626425154 C77.04145469087291 -15.425566138334219, 77.29475403716711 -15.223566650243281, 77.76545370850187 -14.848196188198123 M76.78815534457871 -15.627565626425154 C77.06946997276626 -15.403224696542242, 77.35078460095379 -15.17888376665933, 77.76545370850187 -14.848196188198123 M77.76545370850187 -14.848196188198123 C78.05059185907352 -14.589241264191001, 78.33573000964516 -14.330286340183878, 78.69080973676799 -14.007812326905688 M77.76545370850187 -14.848196188198123 C78.04518959588997 -14.594147456678252, 78.32492548327807 -14.34009872515838, 78.69080973676799 -14.007812326905688 M78.69080973676799 -14.007812326905688 C78.9354608402941 -13.755189976285822, 79.18011194382021 -13.502567625665957, 79.56042094296865 -13.10986736009568 M78.69080973676799 -14.007812326905688 C79.01309379042941 -13.675027581487377, 79.33537784409083 -13.342242836069065, 79.56042094296865 -13.10986736009568 M79.56042094296865 -13.10986736009568 C79.87905853559373 -12.735577512805607, 80.19769612821882 -12.361287665515533, 80.37071390812658 -12.158051136245305 M79.56042094296865 -13.10986736009568 C79.84009009290347 -12.781352062956795, 80.11975924283828 -12.45283676581791, 80.37071390812658 -12.158051136245305 M80.37071390812658 -12.158051136245305 C80.546309759369 -11.922768692691598, 80.72190561061142 -11.687486249137892, 81.11835896464063 -11.156274872382312 M80.37071390812658 -12.158051136245305 C80.57438931900575 -11.88514464087887, 80.7780647298849 -11.612238145512434, 81.11835896464063 -11.156274872382312 M81.11835896464063 -11.156274872382312 C81.36851389928229 -10.77196971676726, 81.61866883392393 -10.387664561152206, 81.80028387860425 -10.108655082055241 M81.11835896464063 -11.156274872382312 C81.26264892013283 -10.93460675346812, 81.40693887562503 -10.71293863455393, 81.80028387860425 -10.108655082055241 M81.80028387860425 -10.108655082055241 C81.94620928093592 -9.849549753666055, 82.0921346832676 -9.590444425276868, 82.4136864742735 -9.019496659696287 M81.80028387860425 -10.108655082055241 C82.02015713529275 -9.718247850223293, 82.24003039198124 -9.327840618391344, 82.4136864742735 -9.019496659696287 M82.4136864742735 -9.019496659696287 C82.56652699627242 -8.702120045502275, 82.71936751827131 -8.384743431308264, 82.95604614880834 -7.893275190886684 M82.4136864742735 -9.019496659696287 C82.53732604960587 -8.762756436055517, 82.66096562493823 -8.506016212414746, 82.95604614880834 -7.893275190886684 M82.95604614880834 -7.893275190886684 C83.07086800639384 -7.609662982720929, 83.18568986397932 -7.326050774555173, 83.42513422997033 -6.734618561215508 M82.95604614880834 -7.893275190886684 C83.13837008498399 -7.442931543539319, 83.32069402115965 -6.992587896191954, 83.42513422997033 -6.734618561215508 M83.42513422997033 -6.734618561215508 C83.5629294422856 -6.3196013364075, 83.70072465460086 -5.904584111599491, 83.81902313421489 -5.548287939305138 M83.42513422997033 -6.734618561215508 C83.5489380663664 -6.361741131453086, 83.67274190276248 -5.988863701690665, 83.81902313421489 -5.548287939305138 M83.81902313421489 -5.548287939305138 C83.94467644137029 -5.069117420633744, 84.07032974852571 -4.589946901962351, 84.13609428754556 -4.339158212148133 M83.81902313421489 -5.548287939305138 C83.9310029687537 -5.121260297841329, 84.04298280329252 -4.694232656377519, 84.13609428754556 -4.339158212148133 M84.13609428754556 -4.339158212148133 C84.20248721081953 -3.9982445832855964, 84.26888013409351 -3.65733095442306, 84.37504477658177 -3.1121979531509023 M84.13609428754556 -4.339158212148133 C84.2059979567835 -3.9802176447569773, 84.27590162602147 -3.6212770773658214, 84.37504477658177 -3.1121979531509023 M84.37504477658177 -3.1121979531509023 C84.43116040451427 -2.6769762241905637, 84.48727603244677 -2.241754495230225, 84.53489270250937 -1.872449005199798 M84.37504477658177 -3.1121979531509023 C84.43685922963738 -2.6327772618961056, 84.49867368269297 -2.1533565706413094, 84.53489270250937 -1.872449005199798 M84.53489270250937 -1.872449005199798 C84.56636377451319 -1.3822616557481557, 84.59783484651702 -0.8920743062965135, 84.61498121591342 -0.6250057626472757 M84.53489270250937 -1.872449005199798 C84.55248159612938 -1.5984877895687033, 84.5700704897494 -1.3245265739376086, 84.61498121591342 -0.6250057626472757 M84.61498121591342 -0.6250057626472757 C84.61498121591342 -0.17395587350895192, 84.61498121591342 0.27709401562937186, 84.61498121591342 0.625005762647271 M84.61498121591342 -0.6250057626472757 C84.61498121591342 -0.19414821039375169, 84.61498121591342 0.23670934185977233, 84.61498121591342 0.625005762647271 M84.61498121591342 0.625005762647271 C84.59003567598025 1.0135526827838939, 84.56509013604706 1.4020996029205166, 84.53489270250937 1.8724490051997846 M84.61498121591342 0.625005762647271 C84.58649660673925 1.0686765428975962, 84.55801199756509 1.512347323147921, 84.53489270250937 1.8724490051997846 M84.53489270250937 1.8724490051997846 C84.48255789696846 2.2783474222988094, 84.43022309142754 2.6842458393978346, 84.37504477658177 3.1121979531508885 M84.53489270250937 1.8724490051997846 C84.48387080851225 2.2681647396287903, 84.43284891451515 2.663880474057796, 84.37504477658177 3.1121979531508885 M84.37504477658177 3.1121979531508885 C84.29469824086708 3.524760432799492, 84.2143517051524 3.937322912448095, 84.13609428754556 4.339158212148129 M84.37504477658177 3.1121979531508885 C84.29495318116074 3.523451368273229, 84.2148615857397 3.934704783395569, 84.13609428754556 4.339158212148129 M84.13609428754556 4.339158212148129 C84.05221290440498 4.659034280484586, 83.9683315212644 4.978910348821044, 83.81902313421489 5.548287939305125 M84.13609428754556 4.339158212148129 C84.0680145658679 4.598775696843095, 83.99993484419022 4.858393181538061, 83.81902313421489 5.548287939305125 M83.81902313421489 5.548287939305125 C83.72295006299906 5.837644722642062, 83.62687699178322 6.127001505978998, 83.42513422997033 6.734618561215495 M83.81902313421489 5.548287939305125 C83.66229333207721 6.020333131841028, 83.50556352993954 6.492378324376931, 83.42513422997033 6.734618561215495 M83.42513422997033 6.734618561215495 C83.2721144349393 7.11258041337861, 83.11909463990827 7.490542265541725, 82.95604614880834 7.893275190886679 M83.42513422997033 6.734618561215495 C83.32659317104401 6.978016881925248, 83.22805211211771 7.221415202635001, 82.95604614880834 7.893275190886679 M82.95604614880834 7.893275190886679 C82.75579145710023 8.309108342982576, 82.55553676539212 8.724941495078474, 82.4136864742735 9.019496659696284 M82.95604614880834 7.893275190886679 C82.84225453946647 8.129565902435468, 82.7284629301246 8.365856613984256, 82.4136864742735 9.019496659696284 M82.4136864742735 9.019496659696284 C82.28089607540745 9.255279459368932, 82.14810567654139 9.491062259041579, 81.80028387860425 10.108655082055236 M82.4136864742735 9.019496659696284 C82.22786032679268 9.349449801486362, 82.04203417931186 9.67940294327644, 81.80028387860425 10.108655082055236 M81.80028387860425 10.108655082055236 C81.60624956670486 10.406743890640907, 81.41221525480547 10.704832699226577, 81.11835896464065 11.156274872382301 M81.80028387860425 10.108655082055236 C81.53459169567965 10.51682962336825, 81.26889951275506 10.925004164681265, 81.11835896464065 11.156274872382301 M81.11835896464065 11.156274872382301 C80.96407487807173 11.36300149281522, 80.8097907915028 11.56972811324814, 80.37071390812659 12.158051136245302 M81.11835896464065 11.156274872382301 C80.8371072944167 11.533126487928126, 80.55585562419276 11.90997810347395, 80.37071390812659 12.158051136245302 M80.37071390812659 12.158051136245302 C80.15073221050719 12.416454155582242, 79.93075051288778 12.674857174919184, 79.56042094296866 13.10986736009567 M80.37071390812659 12.158051136245302 C80.20394886945971 12.353942839862942, 80.03718383079281 12.549834543480582, 79.56042094296866 13.10986736009567 M79.56042094296866 13.10986736009567 C79.2506005993106 13.429782301645886, 78.94078025565254 13.749697243196104, 78.69080973676799 14.007812326905684 M79.56042094296866 13.10986736009567 C79.34490184934047 13.332408518713427, 79.1293827557123 13.554949677331184, 78.69080973676799 14.007812326905684 M78.69080973676799 14.007812326905684 C78.45032821038161 14.226211286377271, 78.20984668399525 14.444610245848857, 77.7654537085019 14.848196188198111 M78.69080973676799 14.007812326905684 C78.4267534795595 14.247621233156728, 78.162697222351 14.48743013940777, 77.7654537085019 14.848196188198111 M77.7654537085019 14.848196188198111 C77.54099316902685 15.027197495283643, 77.31653262955182 15.206198802369173, 76.78815534457871 15.627565626425152 M77.7654537085019 14.848196188198111 C77.42023886018633 15.123495843176844, 77.07502401187077 15.398795498155575, 76.78815534457871 15.627565626425152 M76.78815534457871 15.627565626425152 C76.45132443878882 15.862524285129274, 76.11449353299894 16.097482943833395, 75.7629305736057 16.34271804539089 M76.78815534457871 15.627565626425152 C76.47327435919237 15.847212970852498, 76.15839337380604 16.066860315279843, 75.7629305736057 16.34271804539089 M75.7629305736057 16.34271804539089 C75.42927567112356 16.544981608049408, 75.09562076864144 16.747245170707927, 74.69399226407678 16.990714730406093 M75.7629305736057 16.34271804539089 C75.46342101911324 16.52428249743773, 75.16391146462078 16.705846949484574, 74.69399226407678 16.990714730406093 M74.69399226407678 16.990714730406093 C74.28230319581843 17.20549265361704, 73.87061412756007 17.42027057682799, 73.58573291279238 17.56889292409717 M74.69399226407678 16.990714730406093 C74.33801776550027 17.17642639830091, 73.98204326692375 17.362138066195726, 73.58573291279238 17.56889292409717 M73.58573291279238 17.56889292409717 C73.21689873910864 17.732164871709934, 72.8480645654249 17.895436819322697, 72.4427065951478 18.07487676824742 M73.58573291279238 17.56889292409717 C73.24449558257587 17.71994856773827, 72.90325825235935 17.871004211379372, 72.4427065951478 18.07487676824742 M72.4427065951478 18.07487676824742 C72.03394030289289 18.225306542391415, 71.62517401063796 18.37573631653541, 71.26961025146062 18.506587066708033 M72.4427065951478 18.07487676824742 C72.05188417960983 18.2187030298882, 71.66106176407186 18.36252929152898, 71.26961025146062 18.506587066708033 M71.26961025146062 18.506587066708033 C70.80972450422895 18.643078742496844, 70.3498387569973 18.779570418285655, 70.07126438623541 18.86224982926107 M71.26961025146062 18.506587066708033 C70.99611772381758 18.587758213320914, 70.72262519617455 18.668929359933795, 70.07126438623541 18.86224982926107 M70.07126438623541 18.86224982926107 C69.70243867709807 18.94643189055899, 69.33361296796072 19.030613951856907, 68.85259325967677 19.140403561325773 M70.07126438623541 18.86224982926107 C69.7957272114324 18.925139391361753, 69.5201900366294 18.98802895346244, 68.85259325967677 19.140403561325773 M68.85259325967677 19.140403561325773 C68.49227609549183 19.19865684612985, 68.13195893130691 19.256910130933928, 67.61860465284788 19.3399052695533 M68.85259325967677 19.140403561325773 C68.43303277302981 19.208234847066684, 68.01347228638284 19.2760661328076, 67.61860465284788 19.3399052695533 M67.61860465284788 19.3399052695533 C67.15914663851284 19.38422863161709, 66.6996886241778 19.428551993680887, 66.3743692896239 19.45993515863156 M67.61860465284788 19.3399052695533 C67.2025988423253 19.380036849774225, 66.78659303180271 19.42016842999515, 66.3743692896239 19.45993515863156 M66.3743692896239 19.45993515863156 C66.10551181706393 19.468556894477235, 65.83665434450394 19.477178630322907, 65.125 19.5 M66.3743692896239 19.45993515863156 C66.03174984308194 19.470922297413864, 65.68913039653998 19.48190943619617, 65.125 19.5 M65.125 19.5 C65.125 19.5, 65.125 19.5, 65.125 19.5 M65.125 19.5 C65.125 19.5, 65.125 19.5, 65.125 19.5 M65.125 19.5 C36.517476094057315 19.5, 7.90995218811463 19.5, -65.125 19.5 M65.125 19.5 C23.31515623101528 19.5, -18.49468753796944 19.5, -65.125 19.5 M-65.125 19.5 C-65.45172453788629 19.48952258000072, -65.77844907577258 19.47904516000144, -66.3743692896239 19.45993515863156 M-65.125 19.5 C-65.56907832007865 19.48575927262109, -66.01315664015728 19.471518545242184, -66.3743692896239 19.45993515863156 M-66.3743692896239 19.45993515863156 C-66.72257597439797 19.426344078531212, -67.07078265917204 19.392752998430865, -67.61860465284786 19.3399052695533 M-66.3743692896239 19.45993515863156 C-66.79574250354948 19.419285791459593, -67.21711571747505 19.378636424287624, -67.61860465284786 19.3399052695533 M-67.61860465284786 19.3399052695533 C-67.93101641384848 19.28939695882411, -68.24342817484911 19.238888648094917, -68.85259325967675 19.140403561325773 M-67.61860465284786 19.3399052695533 C-67.8835435905632 19.29707199673563, -68.14848252827855 19.25423872391796, -68.85259325967675 19.140403561325773 M-68.85259325967675 19.140403561325773 C-69.24257662551453 19.051392402952594, -69.6325599913523 18.96238124457942, -70.07126438623538 18.862249829261074 M-68.85259325967675 19.140403561325773 C-69.2606217539492 19.04727372014285, -69.66865024822162 18.95414387895993, -70.07126438623538 18.862249829261074 M-70.07126438623538 18.862249829261074 C-70.5140144230842 18.730843942366715, -70.95676445993303 18.59943805547235, -71.26961025146059 18.506587066708043 M-70.07126438623538 18.862249829261074 C-70.33132395265372 18.785065515028634, -70.59138351907205 18.70788120079619, -71.26961025146059 18.506587066708043 M-71.26961025146059 18.506587066708043 C-71.69592984306428 18.349697516142786, -72.12224943466795 18.192807965577526, -72.4427065951478 18.074876768247425 M-71.26961025146059 18.506587066708043 C-71.559078050152 18.400060240978608, -71.8485458488434 18.293533415249172, -72.4427065951478 18.074876768247425 M-72.4427065951478 18.074876768247425 C-72.84876575969992 17.895126421417345, -73.25482492425203 17.71537607458727, -73.58573291279238 17.568892924097174 M-72.4427065951478 18.074876768247425 C-72.80440340294024 17.9147643207923, -73.16610021073268 17.754651873337174, -73.58573291279238 17.568892924097174 M-73.58573291279238 17.568892924097174 C-73.84127497957596 17.435576791538686, -74.09681704635953 17.302260658980202, -74.69399226407678 16.990714730406097 M-73.58573291279238 17.568892924097174 C-73.87435519501456 17.41831886433326, -74.16297747723675 17.26774480456934, -74.69399226407678 16.990714730406097 M-74.69399226407678 16.990714730406097 C-74.92699680205027 16.849466010199915, -75.16000134002375 16.70821728999373, -75.76293057360569 16.3427180453909 M-74.69399226407678 16.990714730406097 C-74.93777583767188 16.842931695461456, -75.18155941126696 16.695148660516814, -75.76293057360569 16.3427180453909 M-75.76293057360569 16.3427180453909 C-76.10984791166452 16.100723528170583, -76.45676524972335 15.858729010950267, -76.78815534457871 15.627565626425156 M-75.76293057360569 16.3427180453909 C-76.06340471784915 16.133120289682726, -76.3638788620926 15.923522533974554, -76.78815534457871 15.627565626425156 M-76.78815534457871 15.627565626425156 C-77.06625258903664 15.405790474448438, -77.34434983349456 15.184015322471717, -77.76545370850187 14.848196188198125 M-76.78815534457871 15.627565626425156 C-77.07731493182152 15.396968550458794, -77.36647451906433 15.166371474492431, -77.76545370850187 14.848196188198125 M-77.76545370850187 14.848196188198125 C-77.98481836317232 14.648975012897132, -78.20418301784277 14.44975383759614, -78.69080973676797 14.007812326905697 M-77.76545370850187 14.848196188198125 C-78.08278070312035 14.560008207697814, -78.40010769773882 14.271820227197503, -78.69080973676797 14.007812326905697 M-78.69080973676797 14.007812326905697 C-78.93970418953772 13.750808369806325, -79.18859864230747 13.493804412706956, -79.56042094296865 13.109867360095677 M-78.69080973676797 14.007812326905697 C-78.91089854911918 13.780552558525535, -79.13098736147037 13.553292790145374, -79.56042094296865 13.109867360095677 M-79.56042094296865 13.109867360095677 C-79.73270856303553 12.907488518121822, -79.9049961831024 12.705109676147966, -80.37071390812658 12.158051136245307 M-79.56042094296865 13.109867360095677 C-79.83642049264989 12.785662584220805, -80.11242004233115 12.461457808345934, -80.37071390812658 12.158051136245307 M-80.37071390812658 12.158051136245307 C-80.6674704112839 11.76042445708809, -80.96422691444123 11.362797777930874, -81.11835896464063 11.156274872382316 M-80.37071390812658 12.158051136245307 C-80.54092555562562 11.929983035196669, -80.71113720312468 11.701914934148032, -81.11835896464063 11.156274872382316 M-81.11835896464063 11.156274872382316 C-81.28948156152417 10.893384610717934, -81.4606041584077 10.630494349053553, -81.80028387860425 10.108655082055249 M-81.11835896464063 11.156274872382316 C-81.37730959552357 10.758457165365511, -81.63626022640649 10.360639458348706, -81.80028387860425 10.108655082055249 M-81.80028387860425 10.108655082055249 C-82.03304754013377 9.69535963113304, -82.26581120166327 9.282064180210833, -82.4136864742735 9.019496659696289 M-81.80028387860425 10.108655082055249 C-81.9914336354378 9.769249332785506, -82.18258339227135 9.429843583515765, -82.4136864742735 9.019496659696289 M-82.4136864742735 9.019496659696289 C-82.61551725379064 8.600390727542077, -82.81734803330778 8.181284795387864, -82.95604614880834 7.893275190886686 M-82.4136864742735 9.019496659696289 C-82.62991147213364 8.57050082516589, -82.8461364699938 8.121504990635493, -82.95604614880834 7.893275190886686 M-82.95604614880834 7.893275190886686 C-83.06163187252703 7.632476411940416, -83.16721759624573 7.371677632994144, -83.42513422997033 6.73461856121551 M-82.95604614880834 7.893275190886686 C-83.09815452253231 7.542264760309975, -83.24026289625628 7.1912543297332645, -83.42513422997033 6.73461856121551 M-83.42513422997033 6.73461856121551 C-83.55539810466765 6.342284525357062, -83.68566197936497 5.949950489498615, -83.81902313421489 5.5482879393051325 M-83.42513422997033 6.73461856121551 C-83.54748095227941 6.36612972692348, -83.66982767458852 5.997640892631449, -83.81902313421489 5.5482879393051325 M-83.81902313421489 5.5482879393051325 C-83.9167236274386 5.175713614981522, -84.0144241206623 4.803139290657912, -84.13609428754556 4.339158212148136 M-83.81902313421489 5.5482879393051325 C-83.93511065882598 5.105595895311599, -84.05119818343708 4.662903851318065, -84.13609428754556 4.339158212148136 M-84.13609428754556 4.339158212148136 C-84.21247122553497 3.9469787778441026, -84.28884816352436 3.5547993435400698, -84.37504477658177 3.112197953150904 M-84.13609428754556 4.339158212148136 C-84.18581214810055 4.083867506071764, -84.23553000865556 3.8285767999953917, -84.37504477658177 3.112197953150904 M-84.37504477658177 3.112197953150904 C-84.41473611775193 2.8043597489770127, -84.45442745892208 2.4965215448031213, -84.53489270250937 1.872449005199809 M-84.37504477658177 3.112197953150904 C-84.43406556452814 2.6544443768117145, -84.49308635247452 2.1966908004725254, -84.53489270250937 1.872449005199809 M-84.53489270250937 1.872449005199809 C-84.55815940320748 1.5100513612837996, -84.58142610390561 1.1476537173677903, -84.61498121591342 0.6250057626472781 M-84.53489270250937 1.872449005199809 C-84.55293442684165 1.5914345857069288, -84.57097615117391 1.3104201662140487, -84.61498121591342 0.6250057626472781 M-84.61498121591342 0.6250057626472781 C-84.61498121591342 0.2856454069915264, -84.61498121591342 -0.053714948664225326, -84.61498121591342 -0.6250057626472687 M-84.61498121591342 0.6250057626472781 C-84.61498121591342 0.2502236776315157, -84.61498121591342 -0.12455840738424673, -84.61498121591342 -0.6250057626472687 M-84.61498121591342 -0.6250057626472687 C-84.5961170205398 -0.9188308324959797, -84.57725282516616 -1.2126559023446908, -84.53489270250937 -1.8724490051997822 M-84.61498121591342 -0.6250057626472687 C-84.58652371783813 -1.0682542656487917, -84.55806621976285 -1.5115027686503146, -84.53489270250937 -1.8724490051997822 M-84.53489270250937 -1.8724490051997822 C-84.49811460418697 -2.15769267313132, -84.46133650586457 -2.4429363410628575, -84.37504477658177 -3.112197953150895 M-84.53489270250937 -1.8724490051997822 C-84.49863452172458 -2.1536602953788893, -84.46237634093981 -2.434871585557996, -84.37504477658177 -3.112197953150895 M-84.37504477658177 -3.112197953150895 C-84.3180327085874 -3.404942872797161, -84.26102064059303 -3.6976877924434266, -84.13609428754556 -4.339158212148126 M-84.37504477658177 -3.112197953150895 C-84.32445151121344 -3.37198367792689, -84.2738582458451 -3.6317694027028846, -84.13609428754556 -4.339158212148126 M-84.13609428754556 -4.339158212148126 C-84.01851485289141 -4.787539555733712, -83.90093541823727 -5.235920899319298, -83.81902313421489 -5.548287939305123 M-84.13609428754556 -4.339158212148126 C-84.01937772023706 -4.7842490685757015, -83.90266115292856 -5.229339925003277, -83.81902313421489 -5.548287939305123 M-83.81902313421489 -5.548287939305123 C-83.71944779467968 -5.848192996809358, -83.61987245514446 -6.148098054313593, -83.42513422997033 -6.734618561215485 M-83.81902313421489 -5.548287939305123 C-83.70604263291297 -5.888567208228188, -83.59306213161105 -6.2288464771512535, -83.42513422997033 -6.734618561215485 M-83.42513422997033 -6.734618561215485 C-83.30303984504384 -7.036194052518245, -83.18094546011736 -7.337769543821005, -82.95604614880834 -7.893275190886676 M-83.42513422997033 -6.734618561215485 C-83.25650492566592 -7.151136203073185, -83.0878756213615 -7.567653844930885, -82.95604614880834 -7.893275190886676 M-82.95604614880834 -7.893275190886676 C-82.79048153557899 -8.237073652772656, -82.62491692234963 -8.580872114658636, -82.4136864742735 -9.019496659696282 M-82.95604614880834 -7.893275190886676 C-82.8049937226286 -8.206938785853083, -82.65394129644885 -8.52060238081949, -82.4136864742735 -9.019496659696282 M-82.4136864742735 -9.019496659696282 C-82.19454571234678 -9.408603272905559, -81.97540495042007 -9.797709886114836, -81.80028387860425 -10.108655082055243 M-82.4136864742735 -9.019496659696282 C-82.17260027426568 -9.447569620435146, -81.93151407425785 -9.875642581174011, -81.80028387860425 -10.108655082055243 M-81.80028387860425 -10.108655082055243 C-81.6619248239366 -10.321211744633052, -81.52356576926897 -10.53376840721086, -81.11835896464063 -11.156274872382308 M-81.80028387860425 -10.108655082055243 C-81.54171238533543 -10.505890331884066, -81.28314089206661 -10.903125581712889, -81.11835896464063 -11.156274872382308 M-81.11835896464063 -11.156274872382308 C-80.89405293671167 -11.456824515107602, -80.6697469087827 -11.757374157832896, -80.37071390812659 -12.158051136245302 M-81.11835896464063 -11.156274872382308 C-80.84898125672133 -11.517216460180132, -80.57960354880204 -11.878158047977955, -80.37071390812659 -12.158051136245302 M-80.37071390812659 -12.158051136245302 C-80.0803706082314 -12.499104897303964, -79.79002730833622 -12.840158658362625, -79.56042094296866 -13.10986736009567 M-80.37071390812659 -12.158051136245302 C-80.15488625465466 -12.411574578954825, -79.93905860118271 -12.66509802166435, -79.56042094296866 -13.10986736009567 M-79.56042094296866 -13.10986736009567 C-79.30593993360378 -13.372639895544339, -79.0514589242389 -13.635412430993009, -78.69080973676799 -14.007812326905677 M-79.56042094296866 -13.10986736009567 C-79.30478595067702 -13.373831477659985, -79.04915095838537 -13.6377955952243, -78.69080973676799 -14.007812326905677 M-78.69080973676799 -14.007812326905677 C-78.4122254894747 -14.260815169362179, -78.13364124218141 -14.51381801181868, -77.7654537085019 -14.848196188198107 M-78.69080973676799 -14.007812326905677 C-78.36625236456703 -14.302566745021098, -78.04169499236606 -14.59732116313652, -77.7654537085019 -14.848196188198107 M-77.7654537085019 -14.848196188198107 C-77.45729373292824 -15.093945568236746, -77.14913375735459 -15.339694948275385, -76.78815534457871 -15.627565626425149 M-77.7654537085019 -14.848196188198107 C-77.37846836348496 -15.156806702736587, -76.99148301846802 -15.465417217275068, -76.78815534457871 -15.627565626425149 M-76.78815534457871 -15.627565626425149 C-76.57746777476208 -15.774532154611332, -76.36678020494544 -15.921498682797518, -75.76293057360571 -16.342718045390885 M-76.78815534457871 -15.627565626425149 C-76.50480803203665 -15.825216445747024, -76.22146071949459 -16.0228672650689, -75.76293057360571 -16.342718045390885 M-75.76293057360571 -16.342718045390885 C-75.46414812879108 -16.523841719278053, -75.16536568397646 -16.704965393165217, -74.69399226407678 -16.99071473040609 M-75.76293057360571 -16.342718045390885 C-75.37970526474626 -16.575031479703377, -74.99647995588681 -16.807344914015868, -74.69399226407678 -16.99071473040609 M-74.69399226407678 -16.99071473040609 C-74.36056892437527 -17.164661473160532, -74.02714558467376 -17.33860821591497, -73.5857329127924 -17.56889292409717 M-74.69399226407678 -16.99071473040609 C-74.28334753586036 -17.2049478220861, -73.87270280764393 -17.41918091376611, -73.5857329127924 -17.56889292409717 M-73.5857329127924 -17.56889292409717 C-73.15584741503518 -17.75919048185408, -72.72596191727797 -17.949488039610987, -72.44270659514781 -18.07487676824742 M-73.5857329127924 -17.56889292409717 C-73.19865901997127 -17.740239054310013, -72.81158512715015 -17.911585184522853, -72.44270659514781 -18.07487676824742 M-72.44270659514781 -18.07487676824742 C-72.15446876314559 -18.180950954865548, -71.86623093114336 -18.287025141483678, -71.26961025146062 -18.506587066708033 M-72.44270659514781 -18.07487676824742 C-72.04678260875065 -18.22058045512279, -71.65085862235347 -18.366284141998158, -71.26961025146062 -18.506587066708033 M-71.26961025146062 -18.506587066708033 C-70.96229983826053 -18.597795184240542, -70.65498942506045 -18.68900330177305, -70.07126438623541 -18.862249829261067 M-71.26961025146062 -18.506587066708033 C-70.89602773928219 -18.61746439534797, -70.52244522710374 -18.728341723987906, -70.07126438623541 -18.862249829261067 M-70.07126438623541 -18.862249829261067 C-69.64453613811474 -18.959647767232553, -69.21780788999406 -19.05704570520404, -68.85259325967677 -19.140403561325773 M-70.07126438623541 -18.862249829261067 C-69.80723270733976 -18.922513337001273, -69.54320102844413 -18.98277684474148, -68.85259325967677 -19.140403561325773 M-68.85259325967677 -19.140403561325773 C-68.39566337664736 -19.214276441269803, -67.93873349361795 -19.288149321213833, -67.61860465284788 -19.3399052695533 M-68.85259325967677 -19.140403561325773 C-68.54547978835213 -19.190055285669, -68.2383663170275 -19.239707010012225, -67.61860465284788 -19.3399052695533 M-67.61860465284788 -19.3399052695533 C-67.19341312095648 -19.38092298526723, -66.76822158906509 -19.42194070098116, -66.3743692896239 -19.45993515863156 M-67.61860465284788 -19.3399052695533 C-67.17512668317022 -19.38268705592781, -66.73164871349256 -19.425468842302323, -66.3743692896239 -19.45993515863156 M-66.3743692896239 -19.45993515863156 C-65.95506242942115 -19.47338151350697, -65.5357555692184 -19.48682786838238, -65.125 -19.5 M-66.3743692896239 -19.45993515863156 C-66.05342597259336 -19.470227186130458, -65.7324826555628 -19.480519213629357, -65.125 -19.5 M-65.125 -19.5 C-65.125 -19.5, -65.125 -19.5, -65.125 -19.5 M-65.125 -19.5 C-65.125 -19.5, -65.125 -19.5, -65.125 -19.5" stroke="#2A3548" stroke-width="1.3" fill="none" stroke-dasharray="0 0" style=""/></g><g class="label" style="" transform="translate(-72.25, -12)"><rect/><foreignObject width="144.5" height="24"><div xmlns="http://www.w3.org/1999/xhtml" style="display: table-cell; white-space: nowrap; line-height: 1.5; max-width: 200px; text-align: center;"><span class="nodeLabel"><p>Website visitor</p></span></div></foreignObject></g></g><g class="node default" id="my-svg-flowchart-P-1" data-look="classic" transform="translate(146.60546875, 162)"><rect class="basic label-container" style="" x="-54.0859375" y="-27" width="108.171875" height="54"/><g class="label" style="" transform="translate(-24.0859375, -12)"><rect/><foreignObject width="48.171875" height="24"><div xmlns="http://www.w3.org/1999/xhtml" style="display: table-cell; white-space: nowrap; line-height: 1.5; max-width: 200px; text-align: center;"><span class="nodeLabel"><p>Pixel</p></span></div></foreignObject></g></g><g class="node default" id="my-svg-flowchart-ID-3" data-look="classic" transform="translate(334.98046875, 292)"><rect class="basic label-container" style="" x="-121.515625" y="-27" width="243.03125" height="54"/><g class="label" style="" transform="translate(-91.515625, -12)"><rect/><foreignObject width="183.03125" height="24"><div xmlns="http://www.w3.org/1999/xhtml" style="display: table-cell; white-space: nowrap; line-height: 1.5; max-width: 200px; text-align: center;"><span class="nodeLabel"><p>Identity resolution</p></span></div></foreignObject></g></g><g class="node default" id="my-svg-flowchart-PH-4" data-look="classic" transform="translate(342.57421875, 162)"><rect class="basic label-container" style="" x="-111.8828125" y="-27" width="223.765625" height="54"/><g class="label" style="" transform="translate(-81.8828125, -12)"><rect/><foreignObject width="163.765625" height="24"><div xmlns="http://www.w3.org/1999/xhtml" style="display: table-cell; white-space: nowrap; line-height: 1.5; max-width: 200px; text-align: center;"><span class="nodeLabel"><p>Product analytics</p></span></div></foreignObject></g></g><g class="node default" id="my-svg-flowchart-WH-6" data-look="classic" transform="translate(572.25390625, 162)"><rect class="basic label-container" style="" x="-87.796875" y="-39" width="175.59375" height="78"/><g class="label" style="" transform="translate(-57.796875, -24)"><rect/><foreignObject width="115.59375" height="48"><div xmlns="http://www.w3.org/1999/xhtml" style="display: table-cell; white-space: nowrap; line-height: 1.5; max-width: 200px; text-align: center;"><span class="nodeLabel"><p>Your systems<br />webhook</p></span></div></foreignObject></g></g><g class="node default" id="my-svg-flowchart-CO-9" data-look="classic" transform="translate(334.98046875, 398)"><rect class="basic label-container" style="" x="-107.0625" y="-39" width="214.125" height="78"/><g class="label" style="" transform="translate(-77.0625, -24)"><rect/><foreignObject width="154.125" height="48"><div xmlns="http://www.w3.org/1999/xhtml" style="display: table-cell; white-space: nowrap; line-height: 1.5; max-width: 200px; text-align: center;"><span class="nodeLabel"><p>Company + person<br />(when known)</p></span></div></foreignObject></g></g><g class="node default" id="my-svg-flowchart-S-11" data-look="classic" transform="translate(334.98046875, 504)"><rect class="basic label-container" style="" x="-63.71875" y="-27" width="127.4375" height="54"/><g class="label" style="" transform="translate(-33.71875, -12)"><rect/><foreignObject width="67.4375" height="24"><div xmlns="http://www.w3.org/1999/xhtml" style="display: table-cell; white-space: nowrap; line-height: 1.5; max-width: 200px; text-align: center;"><span class="nodeLabel"><p>Signals</p></span></div></foreignObject></g></g><g class="node default" id="my-svg-flowchart-SC-13" data-look="classic" transform="translate(334.98046875, 610)"><rect class="basic label-container" style="" x="-137.515625" y="-39" width="275.03125" height="78"/><g class="label" style="" transform="translate(-107.515625, -24)"><rect/><foreignObject width="215.03125" height="48"><div xmlns="http://www.w3.org/1999/xhtml" style="display: table; white-space: break-spaces; line-height: 1.5; max-width: 200px; text-align: center; width: 200px;"><span class="nodeLabel"><p>Score<br />Fit ⬩ Intent ⬩ Timing</p></span></div></foreignObject></g></g><g class="node default accent" id="my-svg-flowchart-PL-14" data-look="classic" transform="translate(334.98046875, 844)"><rect class="basic label-container" style="fill:#7C3AED !important;stroke:#7C3AED !important" x="-54.0859375" y="-27" width="108.171875" height="54"/><g class="label" style="color:#FFFFFF !important" transform="translate(-24.0859375, -12)"><rect/><foreignObject width="48.171875" height="24"><div style="color: rgb(255, 255, 255) !important; display: table-cell; white-space: nowrap; line-height: 1.5; max-width: 200px; text-align: center;" xmlns="http://www.w3.org/1999/xhtml"><span style="color:#FFFFFF !important" class="nodeLabel"><p>Plays</p></span></div></foreignObject></g></g><g class="node default" id="my-svg-flowchart-O1-15" data-look="classic" transform="translate(138.06640625, 950)"><rect class="basic label-container" style="" x="-82.984375" y="-27" width="165.96875" height="54"/><g class="label" style="" transform="translate(-52.984375, -12)"><rect/><foreignObject width="105.96875" height="24"><div xmlns="http://www.w3.org/1999/xhtml" style="display: table-cell; white-space: nowrap; line-height: 1.5; max-width: 200px; text-align: center;"><span class="nodeLabel"><p>Slack alert</p></span></div></foreignObject></g></g><g class="node default" id="my-svg-flowchart-O2-17" data-look="classic" transform="translate(329.21484375, 950)"><rect class="basic label-container" style="" x="-78.1640625" y="-27" width="156.328125" height="54"/><g class="label" style="" transform="translate(-48.1640625, -12)"><rect/><foreignObject width="96.328125" height="24"><div xmlns="http://www.w3.org/1999/xhtml" style="display: table-cell; white-space: nowrap; line-height: 1.5; max-width: 200px; text-align: center;"><span class="nodeLabel"><p>CRM update</p></span></div></foreignObject></g></g><g class="node default" id="my-svg-flowchart-O3-19" data-look="classic" transform="translate(539.62890625, 950)"><rect class="basic label-container" style="" x="-102.25" y="-39" width="204.5" height="78"/><g class="label" style="" transform="translate(-72.25, -24)"><rect/><foreignObject width="144.5" height="48"><div xmlns="http://www.w3.org/1999/xhtml" style="display: table-cell; white-space: nowrap; line-height: 1.5; max-width: 200px; text-align: center;"><span class="nodeLabel"><p>On-page<br />personalization</p></span></div></foreignObject></g></g></g></g></g><defs><filter id="my-svg-drop-shadow" height="130%" width="130%"><feDropShadow dx="4" dy="4" stdDeviation="0" flood-opacity="0.06" flood-color="#000000"/></filter></defs><defs><filter id="my-svg-drop-shadow-small" height="150%" width="150%"><feDropShadow dx="2" dy="2" stdDeviation="0" flood-opacity="0.06" flood-color="#000000"/></filter></defs><linearGradient id="my-svg-gradient" gradientUnits="objectBoundingBox" x1="0%" y1="0%" x2="100%" y2="0%"><stop offset="0%" stop-color="#2A3548" stop-opacity="1"/><stop offset="100%" stop-color="hsl(215.2941176471, 0%, 1.9607843137%)" stop-opacity="1"/></linearGradient></svg>