<svg id="my-svg" width="100%" xmlns="http://www.w3.org/2000/svg" xmlns:xlink="http://www.w3.org/1999/xlink" class="flowchart" style="max-width: 616.47px; background-color: transparent;" viewBox="0 0 616.470458984375 833" role="graphics-document document" aria-roledescription="flowchart-v2"><style>#my-svg{font-family:ui-monospace,SFMono-Regular,Menlo,monospace;font-size:16px;fill:#E2E8F0;}@keyframes edge-animation-frame{from{stroke-dashoffset:0;}}@keyframes dash{to{stroke-dashoffset:0;}}#my-svg .edge-animation-slow{stroke-dasharray:9,5!important;stroke-dashoffset:900;animation:dash 50s linear infinite;stroke-linecap:round;}#my-svg .edge-animation-fast{stroke-dasharray:9,5!important;stroke-dashoffset:900;animation:dash 20s linear infinite;stroke-linecap:round;}#my-svg .error-icon{fill:#161D27;}#my-svg .error-text{fill:#e9e2d8;stroke:#e9e2d8;}#my-svg .edge-thickness-normal{stroke-width:1px;}#my-svg .edge-thickness-thick{stroke-width:3.5px;}#my-svg .edge-pattern-solid{stroke-dasharray:0;}#my-svg .edge-thickness-invisible{stroke-width:0;fill:none;}#my-svg .edge-pattern-dashed{stroke-dasharray:3;}#my-svg .edge-pattern-dotted{stroke-dasharray:2;}#my-svg .marker{fill:#7B8794;stroke:#7B8794;}#my-svg .marker.cross{stroke:#7B8794;}#my-svg svg{font-family:ui-monospace,SFMono-Regular,Menlo,monospace;font-size:16px;}#my-svg p{margin:0;}#my-svg .label{font-family:ui-monospace,SFMono-Regular,Menlo,monospace;color:#E2E8F0;}#my-svg .cluster-label text{fill:#e9e2d8;}#my-svg .cluster-label span{color:#e9e2d8;}#my-svg .cluster-label span p{background-color:transparent;}#my-svg .label text,#my-svg span{fill:#E2E8F0;color:#E2E8F0;}#my-svg .node rect,#my-svg .node circle,#my-svg .node ellipse,#my-svg .node polygon,#my-svg .node path{fill:#161D27;stroke:#2A3548;stroke-width:1px;}#my-svg .rough-node .label text,#my-svg .node .label text,#my-svg .image-shape .label,#my-svg .icon-shape .label{text-anchor:middle;}#my-svg .node .katex path{fill:#000;stroke:#000;stroke-width:1px;}#my-svg .rough-node .label,#my-svg .node .label,#my-svg .image-shape .label,#my-svg .icon-shape .label{text-align:center;}#my-svg .node.clickable{cursor:pointer;}#my-svg .root .anchor path{fill:#7B8794!important;stroke-width:0;stroke:#7B8794;}#my-svg .arrowheadPath{fill:#0b0b0b;}#my-svg .edgePath .path{stroke:#7B8794;stroke-width:1px;}#my-svg .flowchart-link{stroke:#7B8794;fill:none;}#my-svg .edgeLabel{background-color:#0D1320;text-align:center;}#my-svg .edgeLabel p{background-color:#0D1320;}#my-svg .edgeLabel rect{opacity:0.5;background-color:#0D1320;fill:#0D1320;}#my-svg .labelBkg{background-color:rgba(13, 19, 32, 0.5);}#my-svg .cluster rect{fill:transparent;stroke:hsl(215.2941176471, 0%, 1.9607843137%);stroke-width:1px;}#my-svg .cluster text{fill:#e9e2d8;}#my-svg .cluster span{color:#e9e2d8;}#my-svg div.mermaidTooltip{position:absolute;text-align:center;max-width:200px;padding:2px;font-family:ui-monospace,SFMono-Regular,Menlo,monospace;font-size:12px;background:#161D27;border:1px solid hsl(215.2941176471, 0%, 1.9607843137%);border-radius:2px;pointer-events:none;z-index:100;}#my-svg .flowchartTitleText{text-anchor:middle;font-size:18px;fill:#E2E8F0;}#my-svg rect.text{fill:none;stroke-width:0;}#my-svg .icon-shape,#my-svg .image-shape{background-color:#0D1320;text-align:center;}#my-svg .icon-shape p,#my-svg .image-shape p{background-color:#0D1320;padding:2px;}#my-svg .icon-shape .label rect,#my-svg .image-shape .label rect{opacity:0.5;background-color:#0D1320;fill:#0D1320;}#my-svg .label-icon{display:inline-block;height:1em;overflow:visible;vertical-align:-0.125em;}#my-svg .node .label-icon path{fill:currentColor;stroke:revert;stroke-width:revert;}#my-svg .node .neo-node{stroke:#2A3548;}#my-svg [data-look="neo"].node rect,#my-svg [data-look="neo"].cluster rect,#my-svg [data-look="neo"].node polygon{stroke:url(#my-svg-gradient);filter:drop-shadow( 1px 2px 2px rgba(185,185,185,1));}#my-svg [data-look="neo"].node path{stroke:url(#my-svg-gradient);stroke-width:1px;}#my-svg [data-look="neo"].node .outer-path{filter:drop-shadow( 1px 2px 2px rgba(185,185,185,1));}#my-svg [data-look="neo"].node .neo-line path{stroke:#2A3548;filter:none;}#my-svg [data-look="neo"].node circle{stroke:url(#my-svg-gradient);filter:drop-shadow( 1px 2px 2px rgba(185,185,185,1));}#my-svg [data-look="neo"].node circle .state-start{fill:#000000;}#my-svg [data-look="neo"].icon-shape .icon{fill:url(#my-svg-gradient);filter:drop-shadow( 1px 2px 2px rgba(185,185,185,1));}#my-svg [data-look="neo"].icon-shape .icon-neo path{stroke:url(#my-svg-gradient);filter:drop-shadow( 1px 2px 2px rgba(185,185,185,1));}#my-svg :root{--mermaid-font-family:"trebuchet ms",verdana,arial,sans-serif;}#my-svg .accent&gt;*{fill:rgb(124, 58, 237)!important;stroke:rgb(124, 58, 237)!important;color:rgb(255, 255, 255)!important;}#my-svg .accent span{fill:rgb(124, 58, 237)!important;stroke:rgb(124, 58, 237)!important;color:rgb(255, 255, 255)!important;}#my-svg .accent tspan{fill:rgb(255, 255, 255)!important;}</style><g><marker id="my-svg_flowchart-v2-pointEnd" class="marker flowchart-v2" viewBox="0 0 10 10" refX="5" refY="5" markerUnits="userSpaceOnUse" markerWidth="8" markerHeight="8" orient="auto"><path d="M 0 0 L 10 5 L 0 10 z" class="arrowMarkerPath" style="stroke-width: 1; stroke-dasharray: 1, 0;"/></marker><marker id="my-svg_flowchart-v2-pointStart" class="marker flowchart-v2" viewBox="0 0 10 10" refX="4.5" refY="5" markerUnits="userSpaceOnUse" markerWidth="8" markerHeight="8" orient="auto"><path d="M 0 5 L 10 10 L 10 0 z" class="arrowMarkerPath" style="stroke-width: 1; stroke-dasharray: 1, 0;"/></marker><marker id="my-svg_flowchart-v2-pointEnd-margin" class="marker flowchart-v2" viewBox="0 0 11.5 14" refX="11.5" refY="7" markerUnits="userSpaceOnUse" markerWidth="10.5" markerHeight="14" orient="auto"><path d="M 0 0 L 11.5 7 L 0 14 z" class="arrowMarkerPath" style="stroke-width: 0; stroke-dasharray: 1, 0;"/></marker><marker id="my-svg_flowchart-v2-pointStart-margin" class="marker flowchart-v2" viewBox="0 0 11.5 14" refX="1" refY="7" markerUnits="userSpaceOnUse" markerWidth="11.5" markerHeight="14" orient="auto"><polygon points="0,7 11.5,14 11.5,0" class="arrowMarkerPath" style="stroke-width: 0; stroke-dasharray: 1, 0;"/></marker><marker id="my-svg_flowchart-v2-circleEnd" class="marker flowchart-v2" viewBox="0 0 10 10" refX="11" refY="5" markerUnits="userSpaceOnUse" markerWidth="11" markerHeight="11" orient="auto"><circle cx="5" cy="5" r="5" class="arrowMarkerPath" style="stroke-width: 1; stroke-dasharray: 1, 0;"/></marker><marker id="my-svg_flowchart-v2-circleStart" class="marker flowchart-v2" viewBox="0 0 10 10" refX="-1" refY="5" markerUnits="userSpaceOnUse" markerWidth="11" markerHeight="11" orient="auto"><circle cx="5" cy="5" r="5" class="arrowMarkerPath" style="stroke-width: 1; stroke-dasharray: 1, 0;"/></marker><marker id="my-svg_flowchart-v2-circleEnd-margin" class="marker flowchart-v2" viewBox="0 0 10 10" refY="5" refX="12.25" markerUnits="userSpaceOnUse" markerWidth="14" markerHeight="14" orient="auto"><circle cx="5" cy="5" r="5" class="arrowMarkerPath" style="stroke-width: 0; stroke-dasharray: 1, 0;"/></marker><marker id="my-svg_flowchart-v2-circleStart-margin" class="marker flowchart-v2" viewBox="0 0 10 10" refX="-2" refY="5" markerUnits="userSpaceOnUse" markerWidth="14" markerHeight="14" orient="auto"><circle cx="5" cy="5" r="5" class="arrowMarkerPath" style="stroke-width: 0; stroke-dasharray: 1, 0;"/></marker><marker id="my-svg_flowchart-v2-crossEnd" class="marker cross flowchart-v2" viewBox="0 0 11 11" refX="12" refY="5.2" markerUnits="userSpaceOnUse" markerWidth="11" markerHeight="11" orient="auto"><path d="M 1,1 l 9,9 M 10,1 l -9,9" class="arrowMarkerPath" style="stroke-width: 2; stroke-dasharray: 1, 0;"/></marker><marker id="my-svg_flowchart-v2-crossStart" class="marker cross flowchart-v2" viewBox="0 0 11 11" refX="-1" refY="5.2" markerUnits="userSpaceOnUse" markerWidth="11" markerHeight="11" orient="auto"><path d="M 1,1 l 9,9 M 10,1 l -9,9" class="arrowMarkerPath" style="stroke-width: 2; stroke-dasharray: 1, 0;"/></marker><marker id="my-svg_flowchart-v2-crossEnd-margin" class="marker cross flowchart-v2" viewBox="0 0 15 15" refX="17.7" refY="7.5" markerUnits="userSpaceOnUse" markerWidth="12" markerHeight="12" orient="auto"><path d="M 1,1 L 14,14 M 1,14 L 14,1" class="arrowMarkerPath" style="stroke-width: 2.5;"/></marker><marker id="my-svg_flowchart-v2-crossStart-margin" class="marker cross flowchart-v2" viewBox="0 0 15 15" refX="-3.5" refY="7.5" markerUnits="userSpaceOnUse" markerWidth="12" markerHeight="12" orient="auto"><path d="M 1,1 L 14,14 M 1,14 L 14,1" class="arrowMarkerPath" style="stroke-width: 2.5; stroke-dasharray: 1, 0;"/></marker><g class="root"><g class="clusters"/><g class="edgePaths"><path d="M93.115,47.5L93.032,50.75C92.948,54,92.782,60.5,92.698,68.417C92.615,76.333,92.615,85.667,92.615,90.333L92.615,95" id="my-svg-L_V_P_0" class="edge-thickness-normal edge-pattern-solid edge-thickness-normal edge-pattern-solid flowchart-link" style=";" data-edge="true" data-et="edge" data-id="L_V_P_0" data-points="W3sieCI6OTMuMTE0OTgyNjA0OTgwNDcsInkiOjQ3LjV9LHsieCI6OTIuNjE0OTgyNjA0OTgwNDcsInkiOjY3fSx7IngiOjkyLjYxNDk4MjYwNDk4MDQ3LCJ5Ijo5OX1d" data-look="classic" marker-end="url(#my-svg_flowchart-v2-pointEnd)"/><path d="M92.615,153L92.615,158.333C92.615,163.667,92.615,174.333,105.865,182.845C119.115,191.356,145.616,197.711,158.866,200.889L172.116,204.067" id="my-svg-L_P_ID_0" class="edge-thickness-normal edge-pattern-solid edge-thickness-normal edge-pattern-solid flowchart-link" style=";" data-edge="true" data-et="edge" data-id="L_P_ID_0" data-points="W3sieCI6OTIuNjE0OTgyNjA0OTgwNDcsInkiOjE1M30seyJ4Ijo5Mi42MTQ5ODI2MDQ5ODA0NywieSI6MTg1fSx7IngiOjE3Ni4wMDU5NDAwNTE3ODg5NywieSI6MjA1fV0=" data-look="classic" marker-end="url(#my-svg_flowchart-v2-pointEnd)"/><path d="M288.584,153L288.584,158.333C288.584,163.667,288.584,174.333,288.584,182.333C288.584,190.333,288.584,195.667,288.584,198.333L288.584,201" id="my-svg-L_PH_ID_0" class="edge-thickness-normal edge-pattern-solid edge-thickness-normal edge-pattern-solid flowchart-link" style=";" data-edge="true" data-et="edge" data-id="L_PH_ID_0" data-points="W3sieCI6Mjg4LjU4MzczMjYwNDk4MDQ3LCJ5IjoxNTN9LHsieCI6Mjg4LjU4MzczMjYwNDk4MDQ3LCJ5IjoxODV9LHsieCI6Mjg4LjU4MzczMjYwNDk4MDQ3LCJ5IjoyMDV9XQ==" data-look="classic" marker-end="url(#my-svg_flowchart-v2-pointEnd)"/><path d="M518.263,165L518.263,168.333C518.263,171.667,518.263,178.333,500.889,185.222C483.515,192.111,448.767,199.221,431.392,202.777L414.018,206.332" id="my-svg-L_WH_ID_0" class="edge-thickness-normal edge-pattern-solid edge-thickness-normal edge-pattern-solid flowchart-link" style=";" data-edge="true" data-et="edge" data-id="L_WH_ID_0" data-points="W3sieCI6NTE4LjI2MzQyMDEwNDk4MDUsInkiOjE2NX0seyJ4Ijo1MTguMjYzNDIwMTA0OTgwNSwieSI6MTg1fSx7IngiOjQxMC4wOTkzNTc2MDQ5ODA0NywieSI6MjA3LjEzMzkxNjExOTU5NTl9XQ==" data-look="classic" marker-end="url(#my-svg_flowchart-v2-pointEnd)"/><path d="M288.584,259L288.584,262.333C288.584,265.667,288.584,272.333,288.584,278.333C288.584,284.333,288.584,289.667,288.584,292.333L288.584,295" id="my-svg-L_ID_CO_0" class="edge-thickness-normal edge-pattern-solid edge-thickness-normal edge-pattern-solid flowchart-link" style=";" data-edge="true" data-et="edge" data-id="L_ID_CO_0" data-points="W3sieCI6Mjg4LjU4MzczMjYwNDk4MDQ3LCJ5IjoyNTl9LHsieCI6Mjg4LjU4MzczMjYwNDk4MDQ3LCJ5IjoyNzl9LHsieCI6Mjg4LjU4MzczMjYwNDk4MDQ3LCJ5IjoyOTl9XQ==" data-look="classic" marker-end="url(#my-svg_flowchart-v2-pointEnd)"/><path d="M288.584,377L288.584,380.333C288.584,383.667,288.584,390.333,288.584,396.333C288.584,402.333,288.584,407.667,288.584,410.333L288.584,413" id="my-svg-L_CO_S_0" class="edge-thickness-normal edge-pattern-solid edge-thickness-normal edge-pattern-solid flowchart-link" style=";" data-edge="true" data-et="edge" data-id="L_CO_S_0" data-points="W3sieCI6Mjg4LjU4MzczMjYwNDk4MDQ3LCJ5IjozNzd9LHsieCI6Mjg4LjU4MzczMjYwNDk4MDQ3LCJ5IjozOTd9LHsieCI6Mjg4LjU4MzczMjYwNDk4MDQ3LCJ5Ijo0MTd9XQ==" data-look="classic" marker-end="url(#my-svg_flowchart-v2-pointEnd)"/><path d="M288.584,471L288.584,474.333C288.584,477.667,288.584,484.333,288.584,490.333C288.584,496.333,288.584,501.667,288.584,504.333L288.584,507" id="my-svg-L_S_SC_0" class="edge-thickness-normal edge-pattern-solid edge-thickness-normal edge-pattern-solid flowchart-link" style=";" data-edge="true" data-et="edge" data-id="L_S_SC_0" data-points="W3sieCI6Mjg4LjU4MzczMjYwNDk4MDQ3LCJ5Ijo0NzF9LHsieCI6Mjg4LjU4MzczMjYwNDk4MDQ3LCJ5Ijo0OTF9LHsieCI6Mjg4LjU4MzczMjYwNDk4MDQ3LCJ5Ijo1MTF9XQ==" data-look="classic" marker-end="url(#my-svg_flowchart-v2-pointEnd)"/><path d="M288.584,613L288.584,616.333C288.584,619.667,288.584,626.333,288.584,632.333C288.584,638.333,288.584,643.667,288.584,646.333L288.584,649" id="my-svg-L_SC_PL_0" class="edge-thickness-normal edge-pattern-solid edge-thickness-normal edge-pattern-solid flowchart-link" style=";" data-edge="true" data-et="edge" data-id="L_SC_PL_0" data-points="W3sieCI6Mjg4LjU4MzczMjYwNDk4MDQ3LCJ5Ijo2MTN9LHsieCI6Mjg4LjU4MzczMjYwNDk4MDQ3LCJ5Ijo2MzN9LHsieCI6Mjg4LjU4MzczMjYwNDk4MDQ3LCJ5Ijo2NTN9XQ==" data-look="classic" marker-end="url(#my-svg_flowchart-v2-pointEnd)"/><path d="M234.498,693.821L212.858,699.351C191.218,704.881,147.938,715.94,126.298,726.137C104.658,736.333,104.658,745.667,104.658,750.333L104.658,755" id="my-svg-L_PL_O1_0" class="edge-thickness-normal edge-pattern-solid edge-thickness-normal edge-pattern-solid flowchart-link" style=";" data-edge="true" data-et="edge" data-id="L_PL_O1_0" data-points="W3sieCI6MjM0LjQ5Nzc5NTEwNDk4MDQ3LCJ5Ijo2OTMuODIxMDA0NTY2MjF9LHsieCI6MTA0LjY1Nzk1MTM1NDk4MDQ3LCJ5Ijo3Mjd9LHsieCI6MTA0LjY1Nzk1MTM1NDk4MDQ3LCJ5Ijo3NTl9XQ==" data-look="classic" marker-end="url(#my-svg_flowchart-v2-pointEnd)"/><path d="M292.733,707L293.245,710.333C293.757,713.667,294.782,720.333,295.294,728.333C295.806,736.333,295.806,745.667,295.806,750.333L295.806,755" id="my-svg-L_PL_O2_0" class="edge-thickness-normal edge-pattern-solid edge-thickness-normal edge-pattern-solid flowchart-link" style=";" data-edge="true" data-et="edge" data-id="L_PL_O2_0" data-points="W3sieCI6MjkyLjczMjkxODExMDI5OTY0LCJ5Ijo3MDd9LHsieCI6Mjk1LjgwNjM4ODg1NDk4MDQ3LCJ5Ijo3Mjd9LHsieCI6Mjk1LjgwNjM4ODg1NDk4MDQ3LCJ5Ijo3NTl9XQ==" data-look="classic" marker-end="url(#my-svg_flowchart-v2-pointEnd)"/><path d="M342.67,691.68L369.928,697.567C397.187,703.453,451.704,715.227,478.962,723.78C506.22,732.333,506.22,737.667,506.22,740.333L506.22,743" id="my-svg-L_PL_O3_0" class="edge-thickness-normal edge-pattern-solid edge-thickness-normal edge-pattern-solid flowchart-link" style=";" data-edge="true" data-et="edge" data-id="L_PL_O3_0" data-points="W3sieCI6MzQyLjY2OTY3MDEwNDk4MDQ3LCJ5Ijo2OTEuNjgwMTkzODQzNjY4N30seyJ4Ijo1MDYuMjIwNDUxMzU0OTgwNDcsInkiOjcyN30seyJ4Ijo1MDYuMjIwNDUxMzU0OTgwNDcsInkiOjc0N31d" data-look="classic" marker-end="url(#my-svg_flowchart-v2-pointEnd)"/></g><g class="edgeLabels"><g class="edgeLabel"><g class="label" data-id="L_V_P_0" transform="translate(0, 0)"><foreignObject width="0" height="0"><div xmlns="http://www.w3.org/1999/xhtml" class="labelBkg" style="display: table-cell; white-space: nowrap; line-height: 1.5; max-width: 200px; text-align: center;"><span class="edgeLabel"></span></div></foreignObject></g></g><g class="edgeLabel"><g class="label" data-id="L_P_ID_0" transform="translate(0, 0)"><foreignObject width="0" height="0"><div xmlns="http://www.w3.org/1999/xhtml" class="labelBkg" style="display: table-cell; white-space: nowrap; line-height: 1.5; max-width: 200px; text-align: center;"><span class="edgeLabel"></span></div></foreignObject></g></g><g class="edgeLabel"><g class="label" data-id="L_PH_ID_0" transform="translate(0, 0)"><foreignObject width="0" height="0"><div xmlns="http://www.w3.org/1999/xhtml" class="labelBkg" style="display: table-cell; white-space: nowrap; line-height: 1.5; max-width: 200px; text-align: center;"><span class="edgeLabel"></span></div></foreignObject></g></g><g class="edgeLabel"><g class="label" data-id="L_WH_ID_0" transform="translate(0, 0)"><foreignObject width="0" height="0"><div xmlns="http://www.w3.org/1999/xhtml" class="labelBkg" style="display: table-cell; white-space: nowrap; line-height: 1.5; max-width: 200px; text-align: center;"><span class="edgeLabel"></span></div></foreignObject></g></g><g class="edgeLabel"><g class="label" data-id="L_ID_CO_0" transform="translate(0, 0)"><foreignObject width="0" height="0"><div xmlns="http://www.w3.org/1999/xhtml" class="labelBkg" style="display: table-cell; white-space: nowrap; line-height: 1.5; max-width: 200px; text-align: center;"><span class="edgeLabel"></span></div></foreignObject></g></g><g class="edgeLabel"><g class="label" data-id="L_CO_S_0" transform="translate(0, 0)"><foreignObject width="0" height="0"><div xmlns="http://www.w3.org/1999/xhtml" class="labelBkg" style="display: table-cell; white-space: nowrap; line-height: 1.5; max-width: 200px; text-align: center;"><span class="edgeLabel"></span></div></foreignObject></g></g><g class="edgeLabel"><g class="label" data-id="L_S_SC_0" transform="translate(0, 0)"><foreignObject width="0" height="0"><div xmlns="http://www.w3.org/1999/xhtml" class="labelBkg" style="display: table-cell; white-space: nowrap; line-height: 1.5; max-width: 200px; text-align: center;"><span class="edgeLabel"></span></div></foreignObject></g></g><g class="edgeLabel"><g class="label" data-id="L_SC_PL_0" transform="translate(0, 0)"><foreignObject width="0" height="0"><div xmlns="http://www.w3.org/1999/xhtml" class="labelBkg" style="display: table-cell; white-space: nowrap; line-height: 1.5; max-width: 200px; text-align: center;"><span class="edgeLabel"></span></div></foreignObject></g></g><g class="edgeLabel"><g class="label" data-id="L_PL_O1_0" transform="translate(0, 0)"><foreignObject width="0" height="0"><div xmlns="http://www.w3.org/1999/xhtml" class="labelBkg" style="display: table-cell; white-space: nowrap; line-height: 1.5; max-width: 200px; text-align: center;"><span class="edgeLabel"></span></div></foreignObject></g></g><g class="edgeLabel"><g class="label" data-id="L_PL_O2_0" transform="translate(0, 0)"><foreignObject width="0" height="0"><div xmlns="http://www.w3.org/1999/xhtml" class="labelBkg" style="display: table-cell; white-space: nowrap; line-height: 1.5; max-width: 200px; text-align: center;"><span class="edgeLabel"></span></div></foreignObject></g></g><g class="edgeLabel"><g class="label" data-id="L_PL_O3_0" transform="translate(0, 0)"><foreignObject width="0" height="0"><div xmlns="http://www.w3.org/1999/xhtml" class="labelBkg" style="display: table-cell; white-space: nowrap; line-height: 1.5; max-width: 200px; text-align: center;"><span class="edgeLabel"></span></div></foreignObject></g></g></g><g class="nodes"><g class="node default" id="my-svg-flowchart-V-0" data-look="classic" transform="translate(92.61498260498047, 27.5)"><g class="basic label-container outer-path"><path d="M-65.125 -19.5 C-29.44620473112864 -19.5, 6.232590537742723 -19.5, 65.125 -19.5 C65.125 -19.5, 65.125 -19.5, 65.125 -19.5 C65.5802842275072 -19.485399920980832, 66.0355684550144 -19.470799841961668, 66.3743692896239 -19.45993515863156 C66.72564711950723 -19.426047808856115, 67.07692494939057 -19.392160459080667, 67.61860465284786 -19.3399052695533 C67.9008591657628 -19.294272548821652, 68.18311367867771 -19.248639828090006, 68.85259325967675 -19.140403561325776 C69.23231592026534 -19.05373434196837, 69.6120385808539 -18.967065122610958, 70.07126438623538 -18.862249829261074 C70.45534754386756 -18.74825596416948, 70.83943070149974 -18.634262099077887, 71.2696102514606 -18.50658706670804 C71.55361646727539 -18.40207015396352, 71.83762268309016 -18.297553241219003, 72.4427065951478 -18.074876768247425 C72.87256004311675 -17.884593397981053, 73.3024134910857 -17.694310027714682, 73.58573291279238 -17.568892924097174 C74.00083450587934 -17.35233468886897, 74.41593609896628 -17.135776453640766, 74.69399226407678 -16.990714730406097 C75.05952835390492 -16.769124604623777, 75.42506444373306 -16.547534478841452, 75.7629305736057 -16.342718045390892 C76.17124675293722 -16.05789435441174, 76.57956293226876 -15.773070663432586, 76.78815534457871 -15.627565626425154 C77.0515438752883 -15.417520282247418, 77.3149324059979 -15.207474938069682, 77.76545370850187 -14.848196188198123 C77.98791217751003 -14.646165292573466, 78.21037064651819 -14.444134396948808, 78.69080973676799 -14.007812326905688 C78.9078006841944 -13.783751358399822, 79.1247916316208 -13.559690389893957, 79.56042094296865 -13.10986736009568 C79.81039492985698 -12.816233691173835, 80.06036891674533 -12.522600022251988, 80.37071390812658 -12.158051136245305 C80.65897610584025 -11.771806052535435, 80.94723830355393 -11.385560968825565, 81.11835896464063 -11.156274872382312 C81.28870868608116 -10.894571954944512, 81.45905840752168 -10.632869037506714, 81.80028387860425 -10.108655082055241 C82.01462455882763 -9.7280714999712, 82.22896523905104 -9.347487917887161, 82.4136864742735 -9.019496659696287 C82.612629693665 -8.606386807926858, 82.8115729130565 -8.193276956157431, 82.95604614880834 -7.893275190886684 C83.06574099211167 -7.6223268071219366, 83.175435835415 -7.351378423357188, 83.42513422997033 -6.734618561215508 C83.5573026019732 -6.336548482913172, 83.68947097397609 -5.938478404610836, 83.81902313421489 -5.548287939305138 C83.91493001804062 -5.182553424971229, 84.01083690186636 -4.81681891063732, 84.13609428754556 -4.339158212148133 C84.19448642063314 -4.039326949925123, 84.25287855372072 -3.7394956877021137, 84.37504477658177 -3.1121979531509023 C84.40952894724848 -2.844745535129647, 84.44401311791519 -2.577293117108391, 84.53489270250937 -1.872449005199798 C84.56364297800847 -1.4246402574964403, 84.5923932535076 -0.9768315097930828, 84.61498121591342 -0.6250057626472757 C84.61498121591342 -0.3334643439996813, 84.61498121591342 -0.04192292535208686, 84.61498121591342 0.625005762647271 C84.58744963171569 1.0538324096216627, 84.55991804751795 1.482659056596054, 84.53489270250937 1.8724490051997846 C84.47961256656009 2.3011908233247946, 84.42433243061082 2.7299326414498046, 84.37504477658177 3.1121979531508885 C84.30041732177104 3.4953941610858505, 84.22578986696031 3.878590369020812, 84.13609428754556 4.339158212148129 C84.04270064747574 4.6953086387940255, 83.9493070074059 5.051459065439922, 83.81902313421489 5.548287939305125 C83.66221148332228 6.020579647250037, 83.50539983242967 6.492871355194948, 83.42513422997033 6.734618561215495 C83.31121201628774 7.016008631547645, 83.19728980260516 7.297398701879795, 82.95604614880834 7.893275190886679 C82.75938736437051 8.301641364595753, 82.56272857993267 8.710007538304826, 82.4136864742735 9.019496659696284 C82.18628642051476 9.423268481897304, 81.95888636675602 9.827040304098325, 81.80028387860425 10.108655082055236 C81.59817133508206 10.419154223722446, 81.39605879155988 10.729653365389655, 81.11835896464065 11.156274872382301 C80.9328426972503 11.40484976980573, 80.74732642985994 11.653424667229162, 80.37071390812659 12.158051136245302 C80.06975472600051 12.511574916633187, 79.76879554387443 12.86509869702107, 79.56042094296866 13.10986736009567 C79.27131033128548 13.408397803081215, 78.98219971960229 13.70692824606676, 78.69080973676799 14.007812326905684 C78.36900830011318 14.300063877276141, 78.04720686345838 14.592315427646597, 77.7654537085019 14.848196188198111 C77.46105239254493 15.090948137214571, 77.15665107658798 15.33370008623103, 76.78815534457871 15.627565626425152 C76.3874346278361 15.907091051504558, 75.98671391109347 16.186616476583964, 75.7629305736057 16.34271804539089 C75.38370581599435 16.57260632202693, 75.004481058383 16.802494598662975, 74.69399226407678 16.990714730406093 C74.26149520362243 17.216348169817536, 73.82899814316809 17.44198160922898, 73.58573291279238 17.56889292409717 C73.13743781521757 17.76733986559196, 72.68914271764274 17.965786807086747, 72.4427065951478 18.07487676824742 C72.03231862961661 18.225903333147663, 71.62193066408544 18.37692989804791, 71.26961025146062 18.506587066708033 C70.86245937256997 18.627427310384203, 70.45530849367931 18.748267554060376, 70.07126438623541 18.86224982926107 C69.66713457282216 18.954489821979152, 69.26300475940891 19.046729814697237, 68.85259325967677 19.140403561325773 C68.37099284559474 19.218264981407565, 67.88939243151272 19.296126401489353, 67.61860465284788 19.3399052695533 C67.2782982220258 19.372734221656344, 66.93799179120371 19.405563173759386, 66.3743692896239 19.45993515863156 C65.963708105972 19.473104263487773, 65.5530469223201 19.486273368343983, 65.125 19.5 C65.125 19.5, 65.125 19.5, 65.125 19.5 C24.13792978690487 19.5, -16.84914042619026 19.5, -65.125 19.5 C-65.43230969886957 19.490145176099293, -65.73961939773915 19.48029035219859, -66.3743692896239 19.45993515863156 C-66.74978123428127 19.42371961982938, -67.12519317893864 19.387504081027206, -67.61860465284786 19.3399052695533 C-67.96053898122896 19.284623979080962, -68.30247330961006 19.229342688608625, -68.85259325967675 19.140403561325773 C-69.12417345856288 19.078417153156433, -69.395753657449 19.016430744987098, -70.07126438623538 18.862249829261074 C-70.31966295783445 18.78852643708118, -70.56806152943352 18.714803044901288, -71.26961025146059 18.506587066708043 C-71.52346236024391 18.41316714409261, -71.77731446902725 18.319747221477176, -72.4427065951478 18.074876768247425 C-72.69140708076229 17.964784440703674, -72.94010756637678 17.854692113159924, -73.58573291279238 17.568892924097174 C-73.93658916479023 17.38585144216405, -74.28744541678809 17.202809960230926, -74.69399226407678 16.990714730406097 C-75.04487468345913 16.778007745762544, -75.39575710284147 16.56530076111899, -75.76293057360569 16.3427180453909 C-76.14406747770406 16.07685344024254, -76.52520438180242 15.810988835094179, -76.78815534457871 15.627565626425156 C-77.0625690145274 15.408728027095524, -77.33698268447607 15.189890427765892, -77.76545370850187 14.848196188198125 C-78.07944896948328 14.56303400003415, -78.39344423046471 14.277871811870176, -78.69080973676797 14.007812326905697 C-78.89766386180256 13.794218459767983, -79.10451798683714 13.58062459263027, -79.56042094296865 13.109867360095677 C-79.87378222974233 12.741775361888969, -80.18714351651602 12.37368336368226, -80.37071390812658 12.158051136245307 C-80.55145330254535 11.915876813421715, -80.73219269696412 11.67370249059812, -81.11835896464063 11.156274872382316 C-81.38202390971922 10.751214712790375, -81.6456888547978 10.346154553198435, -81.80028387860425 10.108655082055249 C-82.02179422817635 9.715341026034826, -82.24330457774845 9.322026970014402, -82.4136864742735 9.019496659696289 C-82.5511137602437 8.734125959906317, -82.68854104621389 8.448755260116343, -82.95604614880834 7.893275190886686 C-83.14151107928116 7.435173226898326, -83.32697600975398 6.977071262909965, -83.42513422997033 6.73461856121551 C-83.57163576285973 6.293379286002024, -83.71813729574913 5.852140010788537, -83.81902313421489 5.5482879393051325 C-83.93471977351756 5.107086510403365, -84.05041641282024 4.665885081501598, -84.13609428754556 4.339158212148136 C-84.20001265443922 4.010950907300807, -84.26393102133288 3.6827436024534785, -84.37504477658177 3.112197953150904 C-84.42924651510077 2.6918199725414635, -84.48344825361977 2.2714419919320235, -84.53489270250937 1.872449005199809 C-84.56243217098022 1.4434995543075724, -84.58997163945105 1.0145501034153357, -84.61498121591342 0.6250057626472781 C-84.61498121591342 0.27199589970422405, -84.61498121591342 -0.08101396323883003, -84.61498121591342 -0.6250057626472687 C-84.58883096117268 -1.0323170883399848, -84.56268070643193 -1.439628414032701, -84.53489270250937 -1.8724490051997822 C-84.50028553713247 -2.1408553459051802, -84.46567837175559 -2.409261686610578, -84.37504477658177 -3.112197953150895 C-84.29832497112874 -3.5061379394156327, -84.2216051656757 -3.90007792568037, -84.13609428754556 -4.339158212148126 C-84.02362388795565 -4.768056590763991, -83.91115348836574 -5.196954969379856, -83.81902313421489 -5.548287939305123 C-83.67522253118452 -5.981392444117947, -83.53142192815415 -6.414496948930771, -83.42513422997033 -6.734618561215485 C-83.2901988595215 -7.0679115350220245, -83.15526348907265 -7.401204508828565, -82.95604614880834 -7.893275190886676 C-82.7584385884297 -8.303611518137384, -82.56083102805107 -8.71394784538809, -82.4136864742735 -9.019496659696282 C-82.19364614232065 -9.410200550578315, -81.97360581036779 -9.800904441460348, -81.80028387860425 -10.108655082055243 C-81.60432605271873 -10.409698924659413, -81.40836822683323 -10.71074276726358, -81.11835896464063 -11.156274872382308 C-80.89842805812452 -11.450962250996133, -80.67849715160841 -11.745649629609957, -80.37071390812659 -12.158051136245302 C-80.06911271857739 -12.512329055083647, -79.76751152902818 -12.866606973921991, -79.56042094296866 -13.10986736009567 C-79.33821663722806 -13.339311549085622, -79.11601233148745 -13.568755738075575, -78.69080973676799 -14.007812326905677 C-78.42021867018033 -14.253555974133294, -78.14962760359268 -14.499299621360912, -77.7654537085019 -14.848196188198107 C-77.41424802027834 -15.128273378580518, -77.06304233205479 -15.408350568962929, -76.78815534457871 -15.627565626425149 C-76.41183898146234 -15.890067630862331, -76.03552261834596 -16.152569635299514, -75.76293057360571 -16.342718045390885 C-75.34101091332552 -16.59848822292788, -74.91909125304532 -16.854258400464875, -74.69399226407678 -16.99071473040609 C-74.3081011691293 -17.192033867465152, -73.9222100741818 -17.393353004524215, -73.5857329127924 -17.56889292409717 C-73.35336997129004 -17.671753105498503, -73.12100702978769 -17.77461328689984, -72.44270659514781 -18.07487676824742 C-72.19965105945417 -18.164323452163423, -71.95659552376054 -18.25377013607942, -71.26961025146062 -18.506587066708033 C-70.9847555224476 -18.591130455046113, -70.69990079343458 -18.67567384338419, -70.07126438623541 -18.862249829261067 C-69.6871804785246 -18.949914474814328, -69.30309657081379 -19.037579120367592, -68.85259325967677 -19.140403561325773 C-68.36348208710483 -19.21947926259341, -67.87437091453288 -19.29855496386105, -67.61860465284788 -19.3399052695533 C-67.2385558349815 -19.376568121937293, -66.85850701711513 -19.413230974321287, -66.3743692896239 -19.45993515863156 C-66.03992597767311 -19.470660104691405, -65.70548266572231 -19.48138505075125, -65.125 -19.5 C-65.125 -19.5, -65.125 -19.5, -65.125 -19.5" stroke="none" stroke-width="0" fill="#161D27" style=""/><path d="M-65.125 -19.5 C-17.52999423275633 -19.5, 30.06501153448734 -19.5, 65.125 -19.5 M-65.125 -19.5 C-14.917880117695724 -19.5, 35.28923976460855 -19.5, 65.125 -19.5 M65.125 -19.5 C65.125 -19.5, 65.125 -19.5, 65.125 -19.5 M65.125 -19.5 C65.125 -19.5, 65.125 -19.5, 65.125 -19.5 M65.125 -19.5 C65.42313590672246 -19.490439361757748, 65.72127181344494 -19.4808787235155, 66.3743692896239 -19.45993515863156 M65.125 -19.5 C65.4831260040097 -19.488515596101387, 65.84125200801942 -19.477031192202777, 66.3743692896239 -19.45993515863156 M66.3743692896239 -19.45993515863156 C66.783952401315 -19.42042316844248, 67.19353551300613 -19.3809111782534, 67.61860465284786 -19.3399052695533 M66.3743692896239 -19.45993515863156 C66.75985393756926 -19.42274791825739, 67.14533858551462 -19.385560677883216, 67.61860465284786 -19.3399052695533 M67.61860465284786 -19.3399052695533 C67.99310701802263 -19.27935863146106, 68.3676093831974 -19.218811993368824, 68.85259325967675 -19.140403561325776 M67.61860465284786 -19.3399052695533 C68.00912298234789 -19.27676929455461, 68.39964131184792 -19.213633319555925, 68.85259325967675 -19.140403561325776 M68.85259325967675 -19.140403561325776 C69.17019274894943 -19.06791355042964, 69.48779223822213 -18.995423539533505, 70.07126438623538 -18.862249829261074 M68.85259325967675 -19.140403561325776 C69.2375192012857 -19.052546727030048, 69.62244514289466 -18.96468989273432, 70.07126438623538 -18.862249829261074 M70.07126438623538 -18.862249829261074 C70.53424636650547 -18.724839207758922, 70.99722834677554 -18.58742858625677, 71.2696102514606 -18.50658706670804 M70.07126438623538 -18.862249829261074 C70.51637958024347 -18.73014197613681, 70.96149477425153 -18.598034123012546, 71.2696102514606 -18.50658706670804 M71.2696102514606 -18.50658706670804 C71.65123979080276 -18.366143868485338, 72.03286933014492 -18.225700670262633, 72.4427065951478 -18.074876768247425 M71.2696102514606 -18.50658706670804 C71.50746594349413 -18.41905397332579, 71.74532163552763 -18.331520879943543, 72.4427065951478 -18.074876768247425 M72.4427065951478 -18.074876768247425 C72.88370481492561 -17.879659938099184, 73.3247030347034 -17.684443107950944, 73.58573291279238 -17.568892924097174 M72.4427065951478 -18.074876768247425 C72.81091139899786 -17.911883423990435, 73.17911620284792 -17.748890079733446, 73.58573291279238 -17.568892924097174 M73.58573291279238 -17.568892924097174 C74.0023211973729 -17.351559082869052, 74.4189094819534 -17.13422524164093, 74.69399226407678 -16.990714730406097 M73.58573291279238 -17.568892924097174 C74.00752158032617 -17.348846046413332, 74.42931024785996 -17.12879916872949, 74.69399226407678 -16.990714730406097 M74.69399226407678 -16.990714730406097 C75.0293591190758 -16.78741337207129, 75.36472597407483 -16.58411201373648, 75.7629305736057 -16.342718045390892 M74.69399226407678 -16.990714730406097 C74.98678828361636 -16.8132200627008, 75.27958430315594 -16.635725394995504, 75.7629305736057 -16.342718045390892 M75.7629305736057 -16.342718045390892 C76.03959141238394 -16.149731420713874, 76.31625225116218 -15.956744796036856, 76.78815534457871 -15.627565626425154 M75.7629305736057 -16.342718045390892 C76.01404912623389 -16.167548613824405, 76.26516767886208 -15.992379182257919, 76.78815534457871 -15.627565626425154 M76.78815534457871 -15.627565626425154 C77.03048053834917 -15.43431773293744, 77.27280573211962 -15.241069839449727, 77.76545370850187 -14.848196188198123 M76.78815534457871 -15.627565626425154 C77.03240754208082 -15.432780998741173, 77.27665973958293 -15.23799637105719, 77.76545370850187 -14.848196188198123 M77.76545370850187 -14.848196188198123 C78.10987862439335 -14.535398592569383, 78.45430354028483 -14.222600996940642, 78.69080973676799 -14.007812326905688 M77.76545370850187 -14.848196188198123 C78.05292251458096 -14.587124624524904, 78.34039132066006 -14.326053060851685, 78.69080973676799 -14.007812326905688 M78.69080973676799 -14.007812326905688 C78.96366270706393 -13.726069233429648, 79.23651567735988 -13.44432613995361, 79.56042094296865 -13.10986736009568 M78.69080973676799 -14.007812326905688 C78.92310194113357 -13.767951554353564, 79.15539414549914 -13.52809078180144, 79.56042094296865 -13.10986736009568 M79.56042094296865 -13.10986736009568 C79.72600794090935 -12.915359450147433, 79.89159493885005 -12.720851540199185, 80.37071390812658 -12.158051136245305 M79.56042094296865 -13.10986736009568 C79.85763252912702 -12.760745719175723, 80.15484411528537 -12.411624078255766, 80.37071390812658 -12.158051136245305 M80.37071390812658 -12.158051136245305 C80.57630657498855 -11.88257569252752, 80.78189924185052 -11.607100248809736, 81.11835896464063 -11.156274872382312 M80.37071390812658 -12.158051136245305 C80.57499153557761 -11.884337725535632, 80.77926916302864 -11.610624314825957, 81.11835896464063 -11.156274872382312 M81.11835896464063 -11.156274872382312 C81.38671822170211 -10.74400298898538, 81.65507747876359 -10.33173110558845, 81.80028387860425 -10.108655082055241 M81.11835896464063 -11.156274872382312 C81.30889673791093 -10.863557686083023, 81.49943451118122 -10.570840499783735, 81.80028387860425 -10.108655082055241 M81.80028387860425 -10.108655082055241 C81.98584673895795 -9.779169433220083, 82.17140959931166 -9.449683784384925, 82.4136864742735 -9.019496659696287 M81.80028387860425 -10.108655082055241 C81.99687266480382 -9.759591785384679, 82.1934614510034 -9.410528488714116, 82.4136864742735 -9.019496659696287 M82.4136864742735 -9.019496659696287 C82.59959773519216 -8.633447948534949, 82.78550899611082 -8.24739923737361, 82.95604614880834 -7.893275190886684 M82.4136864742735 -9.019496659696287 C82.58732082386167 -8.65894121759654, 82.76095517344983 -8.298385775496795, 82.95604614880834 -7.893275190886684 M82.95604614880834 -7.893275190886684 C83.06717708891044 -7.61877962026393, 83.17830802901254 -7.344284049641176, 83.42513422997033 -6.734618561215508 M82.95604614880834 -7.893275190886684 C83.06107628595672 -7.6338487215106445, 83.16610642310509 -7.374422252134604, 83.42513422997033 -6.734618561215508 M83.42513422997033 -6.734618561215508 C83.55689115515308 -6.337787695180213, 83.68864808033585 -5.940956829144918, 83.81902313421489 -5.548287939305138 M83.42513422997033 -6.734618561215508 C83.55049721952766 -6.357045210548733, 83.67586020908497 -5.979471859881958, 83.81902313421489 -5.548287939305138 M83.81902313421489 -5.548287939305138 C83.93940370062649 -5.089224666310204, 84.05978426703808 -4.630161393315269, 84.13609428754556 -4.339158212148133 M83.81902313421489 -5.548287939305138 C83.94043172741449 -5.085304354617895, 84.0618403206141 -4.622320769930652, 84.13609428754556 -4.339158212148133 M84.13609428754556 -4.339158212148133 C84.22420514564905 -3.88672757802315, 84.31231600375254 -3.4342969438981665, 84.37504477658177 -3.1121979531509023 M84.13609428754556 -4.339158212148133 C84.21426319394811 -3.937777398775231, 84.29243210035067 -3.5363965854023296, 84.37504477658177 -3.1121979531509023 M84.37504477658177 -3.1121979531509023 C84.41396555700085 -2.8103360659980203, 84.45288633741991 -2.5084741788451383, 84.53489270250937 -1.872449005199798 M84.37504477658177 -3.1121979531509023 C84.42130086168576 -2.7534448913815153, 84.46755694678976 -2.3946918296121282, 84.53489270250937 -1.872449005199798 M84.53489270250937 -1.872449005199798 C84.55738219328697 -1.5221570331483538, 84.57987168406459 -1.1718650610969097, 84.61498121591342 -0.6250057626472757 M84.53489270250937 -1.872449005199798 C84.5629477133297 -1.4354695660758487, 84.59100272415004 -0.9984901269518993, 84.61498121591342 -0.6250057626472757 M84.61498121591342 -0.6250057626472757 C84.61498121591342 -0.14609032982302506, 84.61498121591342 0.3328251030012256, 84.61498121591342 0.625005762647271 M84.61498121591342 -0.6250057626472757 C84.61498121591342 -0.15074355954252172, 84.61498121591342 0.32351864356223226, 84.61498121591342 0.625005762647271 M84.61498121591342 0.625005762647271 C84.59469030976058 0.9410530045022485, 84.57439940360776 1.2571002463572258, 84.53489270250937 1.8724490051997846 M84.61498121591342 0.625005762647271 C84.58312252180913 1.1212306391966091, 84.55126382770483 1.6174555157459474, 84.53489270250937 1.8724490051997846 M84.53489270250937 1.8724490051997846 C84.49615045576381 2.1729262204364104, 84.45740820901824 2.4734034356730357, 84.37504477658177 3.1121979531508885 M84.53489270250937 1.8724490051997846 C84.48543794554261 2.256010334287506, 84.43598318857588 2.639571663375227, 84.37504477658177 3.1121979531508885 M84.37504477658177 3.1121979531508885 C84.28303543466339 3.5846464777205145, 84.191026092745 4.05709500229014, 84.13609428754556 4.339158212148129 M84.37504477658177 3.1121979531508885 C84.28415880818355 3.5788781921195487, 84.19327283978532 4.0455584310882085, 84.13609428754556 4.339158212148129 M84.13609428754556 4.339158212148129 C84.00977578806781 4.820865397440789, 83.88345728859005 5.30257258273345, 83.81902313421489 5.548287939305125 M84.13609428754556 4.339158212148129 C84.06256815909927 4.61954520633947, 83.98904203065298 4.899932200530812, 83.81902313421489 5.548287939305125 M83.81902313421489 5.548287939305125 C83.68474427404753 5.952714471698252, 83.55046541388018 6.357141004091379, 83.42513422997033 6.734618561215495 M83.81902313421489 5.548287939305125 C83.72195083161618 5.840654248361372, 83.62487852901748 6.13302055741762, 83.42513422997033 6.734618561215495 M83.42513422997033 6.734618561215495 C83.29724279891589 7.050512868532567, 83.16935136786145 7.3664071758496386, 82.95604614880834 7.893275190886679 M83.42513422997033 6.734618561215495 C83.32189168530242 6.989629642604045, 83.2186491406345 7.244640723992597, 82.95604614880834 7.893275190886679 M82.95604614880834 7.893275190886679 C82.7783985674739 8.262164194576972, 82.60075098613946 8.631053198267265, 82.4136864742735 9.019496659696284 M82.95604614880834 7.893275190886679 C82.82778800518298 8.159605970409388, 82.69952986155762 8.425936749932095, 82.4136864742735 9.019496659696284 M82.4136864742735 9.019496659696284 C82.28524688190791 9.247554161860439, 82.15680728954231 9.475611664024592, 81.80028387860425 10.108655082055236 M82.4136864742735 9.019496659696284 C82.2629651815911 9.287117577039757, 82.1122438889087 9.554738494383228, 81.80028387860425 10.108655082055236 M81.80028387860425 10.108655082055236 C81.62127886125535 10.38365485828069, 81.44227384390643 10.65865463450614, 81.11835896464065 11.156274872382301 M81.80028387860425 10.108655082055236 C81.59321601238238 10.426766930079616, 81.38614814616051 10.744878778103995, 81.11835896464065 11.156274872382301 M81.11835896464065 11.156274872382301 C80.94670903362292 11.386270142315636, 80.77505910260521 11.616265412248971, 80.37071390812659 12.158051136245302 M81.11835896464065 11.156274872382301 C80.87100926860126 11.487700931054208, 80.62365957256186 11.819126989726115, 80.37071390812659 12.158051136245302 M80.37071390812659 12.158051136245302 C80.11330740259905 12.460415464483038, 79.8559008970715 12.762779792720774, 79.56042094296866 13.10986736009567 M80.37071390812659 12.158051136245302 C80.09067240666968 12.487003818669425, 79.81063090521278 12.815956501093549, 79.56042094296866 13.10986736009567 M79.56042094296866 13.10986736009567 C79.36686556257983 13.3097291815394, 79.173310182191 13.509591002983129, 78.69080973676799 14.007812326905684 M79.56042094296866 13.10986736009567 C79.2802649398742 13.39915143452632, 79.00010893677974 13.68843550895697, 78.69080973676799 14.007812326905684 M78.69080973676799 14.007812326905684 C78.40969535092925 14.263112974245356, 78.12858096509052 14.518413621585028, 77.7654537085019 14.848196188198111 M78.69080973676799 14.007812326905684 C78.44103023073518 14.234655465481099, 78.19125072470239 14.461498604056516, 77.7654537085019 14.848196188198111 M77.7654537085019 14.848196188198111 C77.53173016819089 15.034584491951517, 77.29800662787989 15.22097279570492, 76.78815534457871 15.627565626425152 M77.7654537085019 14.848196188198111 C77.45682099560871 15.094322563669007, 77.14818828271552 15.3404489391399, 76.78815534457871 15.627565626425152 M76.78815534457871 15.627565626425152 C76.46553918488439 15.852608693599446, 76.14292302519007 16.07765176077374, 75.7629305736057 16.34271804539089 M76.78815534457871 15.627565626425152 C76.4796470538792 15.84276765490847, 76.1711387631797 16.05796968339179, 75.7629305736057 16.34271804539089 M75.7629305736057 16.34271804539089 C75.38687571035628 16.570684713436364, 75.01082084710686 16.79865138148184, 74.69399226407678 16.990714730406093 M75.7629305736057 16.34271804539089 C75.39231781815593 16.567385675706838, 75.02170506270616 16.79205330602279, 74.69399226407678 16.990714730406093 M74.69399226407678 16.990714730406093 C74.2687202221933 17.212578882256967, 73.8434481803098 17.434443034107836, 73.58573291279238 17.56889292409717 M74.69399226407678 16.990714730406093 C74.34898429297637 17.170705167941026, 74.00397632187595 17.35069560547596, 73.58573291279238 17.56889292409717 M73.58573291279238 17.56889292409717 C73.16027965979573 17.757228458576446, 72.73482640679909 17.945563993055725, 72.4427065951478 18.07487676824742 M73.58573291279238 17.56889292409717 C73.34070994162317 17.677357325085584, 73.09568697045397 17.785821726073994, 72.4427065951478 18.07487676824742 M72.4427065951478 18.07487676824742 C72.15733772094113 18.17989515187643, 71.87196884673446 18.28491353550544, 71.26961025146062 18.506587066708033 M72.4427065951478 18.07487676824742 C72.03540246320823 18.224768453879303, 71.62809833126867 18.374660139511185, 71.26961025146062 18.506587066708033 M71.26961025146062 18.506587066708033 C70.8792868583887 18.62243300092248, 70.48896346531677 18.73827893513693, 70.07126438623541 18.86224982926107 M71.26961025146062 18.506587066708033 C70.81016567982613 18.64294780389538, 70.35072110819164 18.77930854108273, 70.07126438623541 18.86224982926107 M70.07126438623541 18.86224982926107 C69.79337358127596 18.92567659208609, 69.5154827763165 18.989103354911112, 68.85259325967677 19.140403561325773 M70.07126438623541 18.86224982926107 C69.62951078458967 18.963077206125057, 69.18775718294393 19.063904582989043, 68.85259325967677 19.140403561325773 M68.85259325967677 19.140403561325773 C68.56765640695858 19.186469941954954, 68.28271955424037 19.23253632258414, 67.61860465284788 19.3399052695533 M68.85259325967677 19.140403561325773 C68.60449525580401 19.180514122563164, 68.35639725193126 19.220624683800555, 67.61860465284788 19.3399052695533 M67.61860465284788 19.3399052695533 C67.23267775405901 19.37713517333446, 66.84675085527013 19.41436507711562, 66.3743692896239 19.45993515863156 M67.61860465284788 19.3399052695533 C67.23247059562402 19.377155157659537, 66.84633653840015 19.414405045765776, 66.3743692896239 19.45993515863156 M66.3743692896239 19.45993515863156 C65.94791008060277 19.473610875412373, 65.52145087158164 19.487286592193186, 65.125 19.5 M66.3743692896239 19.45993515863156 C66.03858063452113 19.47070324722774, 65.70279197941834 19.481471335823915, 65.125 19.5 M65.125 19.5 C65.125 19.5, 65.125 19.5, 65.125 19.5 M65.125 19.5 C65.125 19.5, 65.125 19.5, 65.125 19.5 M65.125 19.5 C27.2101802233478 19.5, -10.704639553304403 19.5, -65.125 19.5 M65.125 19.5 C15.298128641722059 19.5, -34.52874271655588 19.5, -65.125 19.5 M-65.125 19.5 C-65.48293027012039 19.488521872906247, -65.84086054024078 19.47704374581249, -66.3743692896239 19.45993515863156 M-65.125 19.5 C-65.60684037373385 19.484548317059748, -66.08868074746769 19.469096634119495, -66.3743692896239 19.45993515863156 M-66.3743692896239 19.45993515863156 C-66.83436014884711 19.415560393662243, -67.29435100807031 19.371185628692928, -67.61860465284786 19.3399052695533 M-66.3743692896239 19.45993515863156 C-66.85469900136552 19.41359832902084, -67.33502871310714 19.367261499410123, -67.61860465284786 19.3399052695533 M-67.61860465284786 19.3399052695533 C-67.87928275120736 19.297760856199382, -68.13996084956685 19.255616442845465, -68.85259325967675 19.140403561325773 M-67.61860465284786 19.3399052695533 C-67.92988470158404 19.289579925286464, -68.24116475032024 19.23925458101963, -68.85259325967675 19.140403561325773 M-68.85259325967675 19.140403561325773 C-69.14122860921609 19.074524426315097, -69.42986395875543 19.008645291304425, -70.07126438623538 18.862249829261074 M-68.85259325967675 19.140403561325773 C-69.33651708382322 19.029951106362414, -69.82044090796968 18.91949865139906, -70.07126438623538 18.862249829261074 M-70.07126438623538 18.862249829261074 C-70.38521935035038 18.76906964389498, -70.69917431446537 18.67588945852889, -71.26961025146059 18.506587066708043 M-70.07126438623538 18.862249829261074 C-70.40675786365003 18.762677126205606, -70.74225134106469 18.663104423150138, -71.26961025146059 18.506587066708043 M-71.26961025146059 18.506587066708043 C-71.58131865477642 18.391875492886925, -71.89302705809224 18.277163919065806, -72.4427065951478 18.074876768247425 M-71.26961025146059 18.506587066708043 C-71.53282901901697 18.40972012707968, -71.79604778657335 18.312853187451317, -72.4427065951478 18.074876768247425 M-72.4427065951478 18.074876768247425 C-72.75140786079817 17.938223875241693, -73.06010912644854 17.801570982235962, -73.58573291279238 17.568892924097174 M-72.4427065951478 18.074876768247425 C-72.82663627723639 17.904922486856176, -73.21056595932498 17.734968205464927, -73.58573291279238 17.568892924097174 M-73.58573291279238 17.568892924097174 C-73.9079823143041 17.400775617739097, -74.23023171581585 17.23265831138102, -74.69399226407678 16.990714730406097 M-73.58573291279238 17.568892924097174 C-73.8624186821988 17.42454613542354, -74.13910445160522 17.280199346749907, -74.69399226407678 16.990714730406097 M-74.69399226407678 16.990714730406097 C-74.99741029417831 16.806780937476283, -75.30082832427985 16.62284714454647, -75.76293057360569 16.3427180453909 M-74.69399226407678 16.990714730406097 C-74.95938396893618 16.829832719305557, -75.22477567379558 16.668950708205017, -75.76293057360569 16.3427180453909 M-75.76293057360569 16.3427180453909 C-76.15841743800902 16.06684352913356, -76.55390430241236 15.790969012876221, -76.78815534457871 15.627565626425156 M-75.76293057360569 16.3427180453909 C-76.15562013730286 16.06879480501298, -76.54830970100004 15.794871564635065, -76.78815534457871 15.627565626425156 M-76.78815534457871 15.627565626425156 C-77.0501169973789 15.41865817940936, -77.31207865017907 15.209750732393562, -77.76545370850187 14.848196188198125 M-76.78815534457871 15.627565626425156 C-77.06050795001492 15.410371671196986, -77.33286055545113 15.193177715968815, -77.76545370850187 14.848196188198125 M-77.76545370850187 14.848196188198125 C-78.10262016556266 14.541990532831113, -78.43978662262346 14.2357848774641, -78.69080973676797 14.007812326905697 M-77.76545370850187 14.848196188198125 C-78.014617055519 14.621912628938077, -78.26378040253611 14.395629069678028, -78.69080973676797 14.007812326905697 M-78.69080973676797 14.007812326905697 C-78.88445749868875 13.80785511394557, -79.07810526060952 13.607897900985442, -79.56042094296865 13.109867360095677 M-78.69080973676797 14.007812326905697 C-79.01479135668924 13.673274704951305, -79.33877297661051 13.338737082996914, -79.56042094296865 13.109867360095677 M-79.56042094296865 13.109867360095677 C-79.73982378316259 12.899130575693071, -79.91922662335654 12.688393791290466, -80.37071390812658 12.158051136245307 M-79.56042094296865 13.109867360095677 C-79.86723631845149 12.749464561764102, -80.17405169393432 12.389061763432528, -80.37071390812658 12.158051136245307 M-80.37071390812658 12.158051136245307 C-80.55069153498798 11.916897512550147, -80.73066916184936 11.675743888854988, -81.11835896464063 11.156274872382316 M-80.37071390812658 12.158051136245307 C-80.62248943727315 11.820694864411465, -80.87426496641973 11.483338592577624, -81.11835896464063 11.156274872382316 M-81.11835896464063 11.156274872382316 C-81.3353230499384 10.822959774350455, -81.55228713523617 10.489644676318596, -81.80028387860425 10.108655082055249 M-81.11835896464063 11.156274872382316 C-81.2570177147748 10.943257797088428, -81.39567646490896 10.730240721794539, -81.80028387860425 10.108655082055249 M-81.80028387860425 10.108655082055249 C-82.01227561034369 9.732242295861283, -82.22426734208314 9.355829509667318, -82.4136864742735 9.019496659696289 M-81.80028387860425 10.108655082055249 C-81.95405832456811 9.83561298189527, -82.10783277053196 9.562570881735294, -82.4136864742735 9.019496659696289 M-82.4136864742735 9.019496659696289 C-82.55970685653158 8.716282211601735, -82.70572723878965 8.41306776350718, -82.95604614880834 7.893275190886686 M-82.4136864742735 9.019496659696289 C-82.58973384876066 8.653930519763335, -82.7657812232478 8.28836437983038, -82.95604614880834 7.893275190886686 M-82.95604614880834 7.893275190886686 C-83.07575070546353 7.597602621618189, -83.19545526211874 7.301930052349692, -83.42513422997033 6.73461856121551 M-82.95604614880834 7.893275190886686 C-83.10655224745321 7.521522217396414, -83.25705834609806 7.1497692439061415, -83.42513422997033 6.73461856121551 M-83.42513422997033 6.73461856121551 C-83.57012850096882 6.297918918667864, -83.71512277196732 5.861219276120217, -83.81902313421489 5.5482879393051325 M-83.42513422997033 6.73461856121551 C-83.52696094582039 6.427932716959018, -83.62878766167047 6.121246872702525, -83.81902313421489 5.5482879393051325 M-83.81902313421489 5.5482879393051325 C-83.88467345277262 5.297934821616459, -83.95032377133035 5.0475817039277855, -84.13609428754556 4.339158212148136 M-83.81902313421489 5.5482879393051325 C-83.9077268973256 5.210022046109827, -83.99643066043633 4.8717561529145215, -84.13609428754556 4.339158212148136 M-84.13609428754556 4.339158212148136 C-84.2147043572459 3.9355121184809985, -84.29331442694624 3.531866024813861, -84.37504477658177 3.112197953150904 M-84.13609428754556 4.339158212148136 C-84.21326288624024 3.94291376744002, -84.29043148493494 3.546669322731904, -84.37504477658177 3.112197953150904 M-84.37504477658177 3.112197953150904 C-84.4257910012549 2.718620255561701, -84.47653722592801 2.3250425579724987, -84.53489270250937 1.872449005199809 M-84.37504477658177 3.112197953150904 C-84.43362563167162 2.6578564091724073, -84.49220648676145 2.20351486519391, -84.53489270250937 1.872449005199809 M-84.53489270250937 1.872449005199809 C-84.55498178115934 1.5595453896140647, -84.57507085980932 1.2466417740283204, -84.61498121591342 0.6250057626472781 M-84.53489270250937 1.872449005199809 C-84.55129318902813 1.616998189435581, -84.5676936755469 1.3615473736713528, -84.61498121591342 0.6250057626472781 M-84.61498121591342 0.6250057626472781 C-84.61498121591342 0.3073515045081313, -84.61498121591342 -0.010302753631015515, -84.61498121591342 -0.6250057626472687 M-84.61498121591342 0.6250057626472781 C-84.61498121591342 0.28671125290447985, -84.61498121591342 -0.051583256838318436, -84.61498121591342 -0.6250057626472687 M-84.61498121591342 -0.6250057626472687 C-84.58757103552522 -1.0519414472929913, -84.560160855137 -1.478877131938714, -84.53489270250937 -1.8724490051997822 M-84.61498121591342 -0.6250057626472687 C-84.59781933995465 -0.8923158335219881, -84.58065746399589 -1.1596259043967074, -84.53489270250937 -1.8724490051997822 M-84.53489270250937 -1.8724490051997822 C-84.4946902214512 -2.1842515094091133, -84.45448774039302 -2.496054013618444, -84.37504477658177 -3.112197953150895 M-84.53489270250937 -1.8724490051997822 C-84.48118004119613 -2.2890337995806056, -84.42746737988288 -2.705618593961429, -84.37504477658177 -3.112197953150895 M-84.37504477658177 -3.112197953150895 C-84.29911551464444 -3.5020786655438867, -84.22318625270712 -3.891959377936878, -84.13609428754556 -4.339158212148126 M-84.37504477658177 -3.112197953150895 C-84.3047860566919 -3.4729616305997015, -84.23452733680202 -3.833725308048508, -84.13609428754556 -4.339158212148126 M-84.13609428754556 -4.339158212148126 C-84.04212668516068 -4.697497405858171, -83.9481590827758 -5.055836599568217, -83.81902313421489 -5.548287939305123 M-84.13609428754556 -4.339158212148126 C-84.04851613810493 -4.6731316525753135, -83.9609379886643 -5.007105093002501, -83.81902313421489 -5.548287939305123 M-83.81902313421489 -5.548287939305123 C-83.66896029586812 -6.000253299139234, -83.51889745752135 -6.4522186589733455, -83.42513422997033 -6.734618561215485 M-83.81902313421489 -5.548287939305123 C-83.73092990863657 -5.81361069899761, -83.64283668305825 -6.078933458690096, -83.42513422997033 -6.734618561215485 M-83.42513422997033 -6.734618561215485 C-83.25924186283767 -7.144375915343893, -83.093349495705 -7.5541332694723025, -82.95604614880834 -7.893275190886676 M-83.42513422997033 -6.734618561215485 C-83.24877903459985 -7.170219303376322, -83.07242383922937 -7.6058200455371585, -82.95604614880834 -7.893275190886676 M-82.95604614880834 -7.893275190886676 C-82.74199828363652 -8.337750162806586, -82.52795041846471 -8.782225134726495, -82.4136864742735 -9.019496659696282 M-82.95604614880834 -7.893275190886676 C-82.80918825242834 -8.198228754975357, -82.66233035604833 -8.503182319064038, -82.4136864742735 -9.019496659696282 M-82.4136864742735 -9.019496659696282 C-82.25900818787483 -9.294143620072056, -82.10432990147615 -9.568790580447832, -81.80028387860425 -10.108655082055243 M-82.4136864742735 -9.019496659696282 C-82.23385720355297 -9.338801739548847, -82.05402793283243 -9.658106819401413, -81.80028387860425 -10.108655082055243 M-81.80028387860425 -10.108655082055243 C-81.59000921045455 -10.431693438987654, -81.37973454230485 -10.754731795920064, -81.11835896464063 -11.156274872382308 M-81.80028387860425 -10.108655082055243 C-81.57695488043714 -10.45174839547282, -81.35362588227005 -10.794841708890397, -81.11835896464063 -11.156274872382308 M-81.11835896464063 -11.156274872382308 C-80.89417445959354 -11.456661685516847, -80.66998995454645 -11.757048498651386, -80.37071390812659 -12.158051136245302 M-81.11835896464063 -11.156274872382308 C-80.87208549770995 -11.48625888209504, -80.62581203077927 -11.816242891807773, -80.37071390812659 -12.158051136245302 M-80.37071390812659 -12.158051136245302 C-80.18195188826857 -12.379781745633728, -79.99318986841057 -12.601512355022155, -79.56042094296866 -13.10986736009567 M-80.37071390812659 -12.158051136245302 C-80.04806516720829 -12.53705270656139, -79.72541642628998 -12.916054276877476, -79.56042094296866 -13.10986736009567 M-79.56042094296866 -13.10986736009567 C-79.32904228476586 -13.348784821231181, -79.09766362656308 -13.58770228236669, -78.69080973676799 -14.007812326905677 M-79.56042094296866 -13.10986736009567 C-79.30869353527477 -13.369796575744138, -79.05696612758088 -13.629725791392605, -78.69080973676799 -14.007812326905677 M-78.69080973676799 -14.007812326905677 C-78.43563244776631 -14.239557589155915, -78.18045515876463 -14.471302851406154, -77.7654537085019 -14.848196188198107 M-78.69080973676799 -14.007812326905677 C-78.36572971121866 -14.303041404963434, -78.04064968566934 -14.59827048302119, -77.7654537085019 -14.848196188198107 M-77.7654537085019 -14.848196188198107 C-77.38635734116242 -15.150515452973321, -77.00726097382295 -15.452834717748535, -76.78815534457871 -15.627565626425149 M-77.7654537085019 -14.848196188198107 C-77.54506166350818 -15.023952979201969, -77.32466961851446 -15.19970977020583, -76.78815534457871 -15.627565626425149 M-76.78815534457871 -15.627565626425149 C-76.40846625125172 -15.892420301454115, -76.02877715792475 -16.15727497648308, -75.76293057360571 -16.342718045390885 M-76.78815534457871 -15.627565626425149 C-76.47487060640273 -15.846099497898981, -76.16158586822675 -16.064633369372814, -75.76293057360571 -16.342718045390885 M-75.76293057360571 -16.342718045390885 C-75.35623710592657 -16.589258015494085, -74.94954363824742 -16.835797985597285, -74.69399226407678 -16.99071473040609 M-75.76293057360571 -16.342718045390885 C-75.50396107611826 -16.499706876641476, -75.24499157863079 -16.656695707892066, -74.69399226407678 -16.99071473040609 M-74.69399226407678 -16.99071473040609 C-74.35056523096574 -17.169880393604608, -74.00713819785472 -17.349046056803125, -73.5857329127924 -17.56889292409717 M-74.69399226407678 -16.99071473040609 C-74.31425887249614 -17.188821397562865, -73.93452548091551 -17.38692806471964, -73.5857329127924 -17.56889292409717 M-73.5857329127924 -17.56889292409717 C-73.21594719422731 -17.732586092402332, -72.84616147566223 -17.896279260707495, -72.44270659514781 -18.07487676824742 M-73.5857329127924 -17.56889292409717 C-73.16547259808846 -17.754929698837305, -72.74521228338452 -17.940966473577443, -72.44270659514781 -18.07487676824742 M-72.44270659514781 -18.07487676824742 C-72.0683980773602 -18.21262576286327, -71.6940895595726 -18.350374757479116, -71.26961025146062 -18.506587066708033 M-72.44270659514781 -18.07487676824742 C-72.05129425609715 -18.21892012719406, -71.65988191704649 -18.3629634861407, -71.26961025146062 -18.506587066708033 M-71.26961025146062 -18.506587066708033 C-71.01229855403068 -18.582955827848576, -70.75498685660075 -18.65932458898912, -70.07126438623541 -18.862249829261067 M-71.26961025146062 -18.506587066708033 C-70.85483849780209 -18.62968914601252, -70.44006674414356 -18.75279122531701, -70.07126438623541 -18.862249829261067 M-70.07126438623541 -18.862249829261067 C-69.65868315337343 -18.95641880331766, -69.24610192051144 -19.05058777737425, -68.85259325967677 -19.140403561325773 M-70.07126438623541 -18.862249829261067 C-69.6753134931531 -18.952623036786058, -69.27936260007078 -19.04299624431105, -68.85259325967677 -19.140403561325773 M-68.85259325967677 -19.140403561325773 C-68.40305652537077 -19.213081174318926, -67.95351979106478 -19.285758787312076, -67.61860465284788 -19.3399052695533 M-68.85259325967677 -19.140403561325773 C-68.43796409066502 -19.207437589874363, -68.02333492165327 -19.274471618422954, -67.61860465284788 -19.3399052695533 M-67.61860465284788 -19.3399052695533 C-67.30944082331828 -19.369729932364113, -67.00027699378869 -19.39955459517493, -66.3743692896239 -19.45993515863156 M-67.61860465284788 -19.3399052695533 C-67.26256016673057 -19.374252452922892, -66.90651568061327 -19.408599636292486, -66.3743692896239 -19.45993515863156 M-66.3743692896239 -19.45993515863156 C-65.96752724545166 -19.472981791118162, -65.56068520127943 -19.48602842360477, -65.125 -19.5 M-66.3743692896239 -19.45993515863156 C-66.11808211063946 -19.468153789628857, -65.86179493165501 -19.47637242062616, -65.125 -19.5 M-65.125 -19.5 C-65.125 -19.5, -65.125 -19.5, -65.125 -19.5 M-65.125 -19.5 C-65.125 -19.5, -65.125 -19.5, -65.125 -19.5" stroke="#2A3548" stroke-width="1.3" fill="none" stroke-dasharray="0 0" style=""/></g><g class="label" style="" transform="translate(-72.25, -12)"><rect/><foreignObject width="144.5" height="24"><div xmlns="http://www.w3.org/1999/xhtml" style="display: table-cell; white-space: nowrap; line-height: 1.5; max-width: 200px; text-align: center;"><span class="nodeLabel"><p>Website visitor</p></span></div></foreignObject></g></g><g class="node default" id="my-svg-flowchart-P-1" data-look="classic" transform="translate(92.61498260498047, 126)"><rect class="basic label-container" style="" x="-54.0859375" y="-27" width="108.171875" height="54"/><g class="label" style="" transform="translate(-24.0859375, -12)"><rect/><foreignObject width="48.171875" height="24"><div xmlns="http://www.w3.org/1999/xhtml" style="display: table-cell; white-space: nowrap; line-height: 1.5; max-width: 200px; text-align: center;"><span class="nodeLabel"><p>Pixel</p></span></div></foreignObject></g></g><g class="node default" id="my-svg-flowchart-ID-3" data-look="classic" transform="translate(288.58373260498047, 232)"><rect class="basic label-container" style="" x="-121.515625" y="-27" width="243.03125" height="54"/><g class="label" style="" transform="translate(-91.515625, -12)"><rect/><foreignObject width="183.03125" height="24"><div xmlns="http://www.w3.org/1999/xhtml" style="display: table-cell; white-space: nowrap; line-height: 1.5; max-width: 200px; text-align: center;"><span class="nodeLabel"><p>Identity resolution</p></span></div></foreignObject></g></g><g class="node default" id="my-svg-flowchart-PH-4" data-look="classic" transform="translate(288.58373260498047, 126)"><rect class="basic label-container" style="" x="-111.8828125" y="-27" width="223.765625" height="54"/><g class="label" style="" transform="translate(-81.8828125, -12)"><rect/><foreignObject width="163.765625" height="24"><div xmlns="http://www.w3.org/1999/xhtml" style="display: table-cell; white-space: nowrap; line-height: 1.5; max-width: 200px; text-align: center;"><span class="nodeLabel"><p>Product analytics</p></span></div></foreignObject></g></g><g class="node default" id="my-svg-flowchart-WH-6" data-look="classic" transform="translate(518.2634201049805, 126)"><rect class="basic label-container" style="" x="-87.796875" y="-39" width="175.59375" height="78"/><g class="label" style="" transform="translate(-57.796875, -24)"><rect/><foreignObject width="115.59375" height="48"><div xmlns="http://www.w3.org/1999/xhtml" style="display: table-cell; white-space: nowrap; line-height: 1.5; max-width: 200px; text-align: center;"><span class="nodeLabel"><p>Your systems<br />webhook</p></span></div></foreignObject></g></g><g class="node default" id="my-svg-flowchart-CO-9" data-look="classic" transform="translate(288.58373260498047, 338)"><rect class="basic label-container" style="" x="-107.0625" y="-39" width="214.125" height="78"/><g class="label" style="" transform="translate(-77.0625, -24)"><rect/><foreignObject width="154.125" height="48"><div xmlns="http://www.w3.org/1999/xhtml" style="display: table-cell; white-space: nowrap; line-height: 1.5; max-width: 200px; text-align: center;"><span class="nodeLabel"><p>Company + person<br />(when known)</p></span></div></foreignObject></g></g><g class="node default" id="my-svg-flowchart-S-11" data-look="classic" transform="translate(288.58373260498047, 444)"><rect class="basic label-container" style="" x="-63.71875" y="-27" width="127.4375" height="54"/><g class="label" style="" transform="translate(-33.71875, -12)"><rect/><foreignObject width="67.4375" height="24"><div xmlns="http://www.w3.org/1999/xhtml" style="display: table-cell; white-space: nowrap; line-height: 1.5; max-width: 200px; text-align: center;"><span class="nodeLabel"><p>Signals</p></span></div></foreignObject></g></g><g class="node default" id="my-svg-flowchart-SC-13" data-look="classic" transform="translate(288.58373260498047, 562)"><rect class="basic label-container" style="" x="-130" y="-51" width="260" height="102"/><g class="label" style="" transform="translate(-100, -36)"><rect/><foreignObject width="200" height="72"><div xmlns="http://www.w3.org/1999/xhtml" style="display: table; white-space: break-spaces; line-height: 1.5; max-width: 200px; text-align: center; width: 200px;"><span class="nodeLabel"><p>Score<br />Fit ⬩ Intent ⬩ Timing</p></span></div></foreignObject></g></g><g class="node default accent" id="my-svg-flowchart-PL-15" data-look="classic" transform="translate(288.58373260498047, 680)"><rect class="basic label-container" style="fill:#7C3AED !important;stroke:#7C3AED !important" x="-54.0859375" y="-27" width="108.171875" height="54"/><g class="label" style="color:#FFFFFF !important" transform="translate(-24.0859375, -12)"><rect/><foreignObject width="48.171875" height="24"><div style="color: rgb(255, 255, 255) !important; display: table-cell; white-space: nowrap; line-height: 1.5; max-width: 200px; text-align: center;" xmlns="http://www.w3.org/1999/xhtml"><span style="color:#FFFFFF !important" class="nodeLabel"><p>Plays</p></span></div></foreignObject></g></g><g class="node default" id="my-svg-flowchart-O1-17" data-look="classic" transform="translate(104.65795135498047, 786)"><rect class="basic label-container" style="" x="-82.984375" y="-27" width="165.96875" height="54"/><g class="label" style="" transform="translate(-52.984375, -12)"><rect/><foreignObject width="105.96875" height="24"><div xmlns="http://www.w3.org/1999/xhtml" style="display: table-cell; white-space: nowrap; line-height: 1.5; max-width: 200px; text-align: center;"><span class="nodeLabel"><p>Slack alert</p></span></div></foreignObject></g></g><g class="node default" id="my-svg-flowchart-O2-19" data-look="classic" transform="translate(295.80638885498047, 786)"><rect class="basic label-container" style="" x="-78.1640625" y="-27" width="156.328125" height="54"/><g class="label" style="" transform="translate(-48.1640625, -12)"><rect/><foreignObject width="96.328125" height="24"><div xmlns="http://www.w3.org/1999/xhtml" style="display: table-cell; white-space: nowrap; line-height: 1.5; max-width: 200px; text-align: center;"><span class="nodeLabel"><p>CRM update</p></span></div></foreignObject></g></g><g class="node default" id="my-svg-flowchart-O3-21" data-look="classic" transform="translate(506.22045135498047, 786)"><rect class="basic label-container" style="" x="-102.25" y="-39" width="204.5" height="78"/><g class="label" style="" transform="translate(-72.25, -24)"><rect/><foreignObject width="144.5" height="48"><div xmlns="http://www.w3.org/1999/xhtml" style="display: table-cell; white-space: nowrap; line-height: 1.5; max-width: 200px; text-align: center;"><span class="nodeLabel"><p>On-page<br />personalization</p></span></div></foreignObject></g></g></g></g></g><defs><filter id="my-svg-drop-shadow" height="130%" width="130%"><feDropShadow dx="4" dy="4" stdDeviation="0" flood-opacity="0.06" flood-color="#000000"/></filter></defs><defs><filter id="my-svg-drop-shadow-small" height="150%" width="150%"><feDropShadow dx="2" dy="2" stdDeviation="0" flood-opacity="0.06" flood-color="#000000"/></filter></defs><linearGradient id="my-svg-gradient" gradientUnits="objectBoundingBox" x1="0%" y1="0%" x2="100%" y2="0%"><stop offset="0%" stop-color="#2A3548" stop-opacity="1"/><stop offset="100%" stop-color="hsl(215.2941176471, 0%, 1.9607843137%)" stop-opacity="1"/></linearGradient></svg>