<svg id="my-svg" width="100%" xmlns="http://www.w3.org/2000/svg" xmlns:xlink="http://www.w3.org/1999/xlink" class="flowchart" style="max-width: 1003.48px; background-color: transparent;" viewBox="0 16 1003.484375 1001" role="graphics-document document" aria-roledescription="flowchart-v2"><style>#my-svg{font-family:ui-monospace,SFMono-Regular,Menlo,monospace;font-size:16px;fill:#E2E8F0;}@keyframes edge-animation-frame{from{stroke-dashoffset:0;}}@keyframes dash{to{stroke-dashoffset:0;}}#my-svg .edge-animation-slow{stroke-dasharray:9,5!important;stroke-dashoffset:900;animation:dash 50s linear infinite;stroke-linecap:round;}#my-svg .edge-animation-fast{stroke-dasharray:9,5!important;stroke-dashoffset:900;animation:dash 20s linear infinite;stroke-linecap:round;}#my-svg .error-icon{fill:#161D27;}#my-svg .error-text{fill:#e9e2d8;stroke:#e9e2d8;}#my-svg .edge-thickness-normal{stroke-width:1px;}#my-svg .edge-thickness-thick{stroke-width:3.5px;}#my-svg .edge-pattern-solid{stroke-dasharray:0;}#my-svg .edge-thickness-invisible{stroke-width:0;fill:none;}#my-svg .edge-pattern-dashed{stroke-dasharray:3;}#my-svg .edge-pattern-dotted{stroke-dasharray:2;}#my-svg .marker{fill:#7B8794;stroke:#7B8794;}#my-svg .marker.cross{stroke:#7B8794;}#my-svg svg{font-family:ui-monospace,SFMono-Regular,Menlo,monospace;font-size:16px;}#my-svg p{margin:0;}#my-svg .label{font-family:ui-monospace,SFMono-Regular,Menlo,monospace;color:#E2E8F0;}#my-svg .cluster-label text{fill:#94A3B8;}#my-svg .cluster-label span{color:#94A3B8;}#my-svg .cluster-label span p{background-color:transparent;}#my-svg .label text,#my-svg span{fill:#E2E8F0;color:#E2E8F0;}#my-svg .node rect,#my-svg .node circle,#my-svg .node ellipse,#my-svg .node polygon,#my-svg .node path{fill:#161D27;stroke:#2A3548;stroke-width:1px;}#my-svg .rough-node .label text,#my-svg .node .label text,#my-svg .image-shape .label,#my-svg .icon-shape .label{text-anchor:middle;}#my-svg .node .katex path{fill:#000;stroke:#000;stroke-width:1px;}#my-svg .rough-node .label,#my-svg .node .label,#my-svg .image-shape .label,#my-svg .icon-shape .label{text-align:center;}#my-svg .node.clickable{cursor:pointer;}#my-svg .root .anchor path{fill:#7B8794!important;stroke-width:0;stroke:#7B8794;}#my-svg .arrowheadPath{fill:#0b0b0b;}#my-svg .edgePath .path{stroke:#7B8794;stroke-width:1px;}#my-svg .flowchart-link{stroke:#7B8794;fill:none;}#my-svg .edgeLabel{background-color:#0D1320;text-align:center;}#my-svg .edgeLabel p{background-color:#0D1320;}#my-svg .edgeLabel rect{opacity:0.5;background-color:#0D1320;fill:#0D1320;}#my-svg .labelBkg{background-color:rgba(13, 19, 32, 0.5);}#my-svg .cluster rect{fill:transparent;stroke:#2A3548;stroke-width:1px;}#my-svg .cluster text{fill:#94A3B8;}#my-svg .cluster span{color:#94A3B8;}#my-svg div.mermaidTooltip{position:absolute;text-align:center;max-width:200px;padding:2px;font-family:ui-monospace,SFMono-Regular,Menlo,monospace;font-size:12px;background:#161D27;border:1px solid hsl(215.2941176471, 0%, 1.9607843137%);border-radius:2px;pointer-events:none;z-index:100;}#my-svg .flowchartTitleText{text-anchor:middle;font-size:18px;fill:#E2E8F0;}#my-svg rect.text{fill:none;stroke-width:0;}#my-svg .icon-shape,#my-svg .image-shape{background-color:#0D1320;text-align:center;}#my-svg .icon-shape p,#my-svg .image-shape p{background-color:#0D1320;padding:2px;}#my-svg .icon-shape .label rect,#my-svg .image-shape .label rect{opacity:0.5;background-color:#0D1320;fill:#0D1320;}#my-svg .label-icon{display:inline-block;height:1em;overflow:visible;vertical-align:-0.125em;}#my-svg .node .label-icon path{fill:currentColor;stroke:revert;stroke-width:revert;}#my-svg .node .neo-node{stroke:#2A3548;}#my-svg [data-look="neo"].node rect,#my-svg [data-look="neo"].cluster rect,#my-svg [data-look="neo"].node polygon{stroke:url(#my-svg-gradient);filter:drop-shadow( 1px 2px 2px rgba(185,185,185,1));}#my-svg [data-look="neo"].node path{stroke:url(#my-svg-gradient);stroke-width:1px;}#my-svg [data-look="neo"].node .outer-path{filter:drop-shadow( 1px 2px 2px rgba(185,185,185,1));}#my-svg [data-look="neo"].node .neo-line path{stroke:#2A3548;filter:none;}#my-svg [data-look="neo"].node circle{stroke:url(#my-svg-gradient);filter:drop-shadow( 1px 2px 2px rgba(185,185,185,1));}#my-svg [data-look="neo"].node circle .state-start{fill:#000000;}#my-svg [data-look="neo"].icon-shape .icon{fill:url(#my-svg-gradient);filter:drop-shadow( 1px 2px 2px rgba(185,185,185,1));}#my-svg [data-look="neo"].icon-shape .icon-neo path{stroke:url(#my-svg-gradient);filter:drop-shadow( 1px 2px 2px rgba(185,185,185,1));}#my-svg :root{--mermaid-font-family:"trebuchet ms",verdana,arial,sans-serif;}#my-svg .accent&gt;*{fill:rgb(124, 58, 237)!important;stroke:rgb(124, 58, 237)!important;color:rgb(255, 255, 255)!important;}#my-svg .accent span{fill:rgb(124, 58, 237)!important;stroke:rgb(124, 58, 237)!important;color:rgb(255, 255, 255)!important;}#my-svg .accent tspan{fill:rgb(255, 255, 255)!important;}</style><g><marker id="my-svg_flowchart-v2-pointEnd" class="marker flowchart-v2" viewBox="0 0 10 10" refX="5" refY="5" markerUnits="userSpaceOnUse" markerWidth="8" markerHeight="8" orient="auto"><path d="M 0 0 L 10 5 L 0 10 z" class="arrowMarkerPath" style="stroke-width: 1; stroke-dasharray: 1, 0;"/></marker><marker id="my-svg_flowchart-v2-pointStart" class="marker flowchart-v2" viewBox="0 0 10 10" refX="4.5" refY="5" markerUnits="userSpaceOnUse" markerWidth="8" markerHeight="8" orient="auto"><path d="M 0 5 L 10 10 L 10 0 z" class="arrowMarkerPath" style="stroke-width: 1; stroke-dasharray: 1, 0;"/></marker><marker id="my-svg_flowchart-v2-pointEnd-margin" class="marker flowchart-v2" viewBox="0 0 11.5 14" refX="11.5" refY="7" markerUnits="userSpaceOnUse" markerWidth="10.5" markerHeight="14" orient="auto"><path d="M 0 0 L 11.5 7 L 0 14 z" class="arrowMarkerPath" style="stroke-width: 0; stroke-dasharray: 1, 0;"/></marker><marker id="my-svg_flowchart-v2-pointStart-margin" class="marker flowchart-v2" viewBox="0 0 11.5 14" refX="1" refY="7" markerUnits="userSpaceOnUse" markerWidth="11.5" markerHeight="14" orient="auto"><polygon points="0,7 11.5,14 11.5,0" class="arrowMarkerPath" style="stroke-width: 0; stroke-dasharray: 1, 0;"/></marker><marker id="my-svg_flowchart-v2-circleEnd" class="marker flowchart-v2" viewBox="0 0 10 10" refX="11" refY="5" markerUnits="userSpaceOnUse" markerWidth="11" markerHeight="11" orient="auto"><circle cx="5" cy="5" r="5" class="arrowMarkerPath" style="stroke-width: 1; stroke-dasharray: 1, 0;"/></marker><marker id="my-svg_flowchart-v2-circleStart" class="marker flowchart-v2" viewBox="0 0 10 10" refX="-1" refY="5" markerUnits="userSpaceOnUse" markerWidth="11" markerHeight="11" orient="auto"><circle cx="5" cy="5" r="5" class="arrowMarkerPath" style="stroke-width: 1; stroke-dasharray: 1, 0;"/></marker><marker id="my-svg_flowchart-v2-circleEnd-margin" class="marker flowchart-v2" viewBox="0 0 10 10" refY="5" refX="12.25" markerUnits="userSpaceOnUse" markerWidth="14" markerHeight="14" orient="auto"><circle cx="5" cy="5" r="5" class="arrowMarkerPath" style="stroke-width: 0; stroke-dasharray: 1, 0;"/></marker><marker id="my-svg_flowchart-v2-circleStart-margin" class="marker flowchart-v2" viewBox="0 0 10 10" refX="-2" refY="5" markerUnits="userSpaceOnUse" markerWidth="14" markerHeight="14" orient="auto"><circle cx="5" cy="5" r="5" class="arrowMarkerPath" style="stroke-width: 0; stroke-dasharray: 1, 0;"/></marker><marker id="my-svg_flowchart-v2-crossEnd" class="marker cross flowchart-v2" viewBox="0 0 11 11" refX="12" refY="5.2" markerUnits="userSpaceOnUse" markerWidth="11" markerHeight="11" orient="auto"><path d="M 1,1 l 9,9 M 10,1 l -9,9" class="arrowMarkerPath" style="stroke-width: 2; stroke-dasharray: 1, 0;"/></marker><marker id="my-svg_flowchart-v2-crossStart" class="marker cross flowchart-v2" viewBox="0 0 11 11" refX="-1" refY="5.2" markerUnits="userSpaceOnUse" markerWidth="11" markerHeight="11" orient="auto"><path d="M 1,1 l 9,9 M 10,1 l -9,9" class="arrowMarkerPath" style="stroke-width: 2; stroke-dasharray: 1, 0;"/></marker><marker id="my-svg_flowchart-v2-crossEnd-margin" class="marker cross flowchart-v2" viewBox="0 0 15 15" refX="17.7" refY="7.5" markerUnits="userSpaceOnUse" markerWidth="12" markerHeight="12" orient="auto"><path d="M 1,1 L 14,14 M 1,14 L 14,1" class="arrowMarkerPath" style="stroke-width: 2.5;"/></marker><marker id="my-svg_flowchart-v2-crossStart-margin" class="marker cross flowchart-v2" viewBox="0 0 15 15" refX="-3.5" refY="7.5" markerUnits="userSpaceOnUse" markerWidth="12" markerHeight="12" orient="auto"><path d="M 1,1 L 14,14 M 1,14 L 14,1" class="arrowMarkerPath" style="stroke-width: 2.5; stroke-dasharray: 1, 0;"/></marker><g class="root"><g class="clusters"><g class="cluster" id="my-svg-PE" data-look="classic"><rect style="" x="8" y="765" width="987.484375" height="244"/><g class="cluster-label" transform="translate(419.859375, 773)"><foreignObject width="163.765625" height="24"><div xmlns="http://www.w3.org/1999/xhtml" style="display: table-cell; white-space: nowrap; line-height: 1.5;"><span class="nodeLabel"><p>Play agent engine</p></span></div></foreignObject></g></g><g class="cluster" id="my-svg-NS" data-look="classic"><rect style="" x="167.4609375" y="71" width="695.7109375" height="598"/><g class="cluster-label" transform="translate(443.06640625, 79)"><foreignObject width="144.5" height="24"><div xmlns="http://www.w3.org/1999/xhtml" style="display: table-cell; white-space: nowrap; line-height: 1.5;"><span class="nodeLabel"><p>Noise to signal</p></span></div></foreignObject></g></g></g><g class="edgePaths"><path d="M300.367,63.5L300.284,66.75C300.201,70,300.034,76.5,299.951,83.083C299.867,89.667,299.867,96.333,299.867,104.333C299.867,112.333,299.867,121.667,299.867,126.333L299.867,131" id="my-svg-L_V_P_0" class="edge-thickness-normal edge-pattern-solid edge-thickness-normal edge-pattern-solid flowchart-link" style=";" data-edge="true" data-et="edge" data-id="L_V_P_0" data-points="W3sieCI6MzAwLjM2NzE4NzUsInkiOjYzLjV9LHsieCI6Mjk5Ljg2NzE4NzUsInkiOjgzfSx7IngiOjI5OS44NjcxODc1LCJ5IjoxMDN9LHsieCI6Mjk5Ljg2NzE4NzUsInkiOjEzNX1d" data-look="classic" marker-end="url(#my-svg_flowchart-v2-pointEnd)"/><path d="M299.867,189L299.867,196.333C299.867,203.667,299.867,218.333,319.022,230.827C338.177,243.32,376.487,253.64,395.642,258.8L414.797,263.96" id="my-svg-L_P_ID_0" class="edge-thickness-normal edge-pattern-solid edge-thickness-normal edge-pattern-solid flowchart-link" style=";" data-edge="true" data-et="edge" data-id="L_P_ID_0" data-points="W3sieCI6Mjk5Ljg2NzE4NzUsInkiOjE4OX0seyJ4IjoyOTkuODY3MTg3NSwieSI6MjMzfSx7IngiOjQxOC42NTk1NjAzODEzNTU5NiwieSI6MjY1fV0=" data-look="classic" marker-end="url(#my-svg_flowchart-v2-pointEnd)"/><path d="M495.836,189L495.836,196.333C495.836,203.667,495.836,218.333,497.677,230.379C499.519,242.425,503.202,251.85,505.043,256.562L506.884,261.274" id="my-svg-L_PH_ID_0" class="edge-thickness-normal edge-pattern-solid edge-thickness-normal edge-pattern-solid flowchart-link" style=";" data-edge="true" data-et="edge" data-id="L_PH_ID_0" data-points="W3sieCI6NDk1LjgzNTkzNzUsInkiOjE4OX0seyJ4Ijo0OTUuODM1OTM3NSwieSI6MjMzfSx7IngiOjUwOC4zNDAxNzQ3ODgxMzU2LCJ5IjoyNjV9XQ==" data-look="classic" marker-end="url(#my-svg_flowchart-v2-pointEnd)"/><path d="M725.516,201L725.516,206.333C725.516,211.667,725.516,222.333,707.479,232.817C689.442,243.301,653.368,253.601,635.331,258.751L617.294,263.902" id="my-svg-L_WH_ID_0" class="edge-thickness-normal edge-pattern-solid edge-thickness-normal edge-pattern-solid flowchart-link" style=";" data-edge="true" data-et="edge" data-id="L_WH_ID_0" data-points="W3sieCI6NzI1LjUxNTYyNSwieSI6MjAxfSx7IngiOjcyNS41MTU2MjUsInkiOjIzM30seyJ4Ijo2MTMuNDQ3ODI4Mzg5ODMwNSwieSI6MjY1fV0=" data-look="classic" marker-end="url(#my-svg_flowchart-v2-pointEnd)"/><path d="M518.891,319L518.891,322.333C518.891,325.667,518.891,332.333,518.891,338.333C518.891,344.333,518.891,349.667,518.891,352.333L518.891,355" id="my-svg-L_ID_CO_0" class="edge-thickness-normal edge-pattern-solid edge-thickness-normal edge-pattern-solid flowchart-link" style=";" data-edge="true" data-et="edge" data-id="L_ID_CO_0" data-points="W3sieCI6NTE4Ljg5MDYyNSwieSI6MzE5fSx7IngiOjUxOC44OTA2MjUsInkiOjMzOX0seyJ4Ijo1MTguODkwNjI1LCJ5IjozNTl9XQ==" data-look="classic" marker-end="url(#my-svg_flowchart-v2-pointEnd)"/><path d="M518.891,437L518.891,440.333C518.891,443.667,518.891,450.333,518.891,456.333C518.891,462.333,518.891,467.667,518.891,470.333L518.891,473" id="my-svg-L_CO_S_0" class="edge-thickness-normal edge-pattern-solid edge-thickness-normal edge-pattern-solid flowchart-link" style=";" data-edge="true" data-et="edge" data-id="L_CO_S_0" data-points="W3sieCI6NTE4Ljg5MDYyNSwieSI6NDM3fSx7IngiOjUxOC44OTA2MjUsInkiOjQ1N30seyJ4Ijo1MTguODkwNjI1LCJ5Ijo0Nzd9XQ==" data-look="classic" marker-end="url(#my-svg_flowchart-v2-pointEnd)"/><path d="M518.891,531L518.891,534.333C518.891,537.667,518.891,544.333,518.891,550.333C518.891,556.333,518.891,561.667,518.891,564.333L518.891,567" id="my-svg-L_S_SC_0" class="edge-thickness-normal edge-pattern-solid edge-thickness-normal edge-pattern-solid flowchart-link" style=";" data-edge="true" data-et="edge" data-id="L_S_SC_0" data-points="W3sieCI6NTE4Ljg5MDYyNSwieSI6NTMxfSx7IngiOjUxOC44OTA2MjUsInkiOjU1MX0seyJ4Ijo1MTguODkwNjI1LCJ5Ijo1NzF9XQ==" data-look="classic" marker-end="url(#my-svg_flowchart-v2-pointEnd)"/><path d="M464.805,851.504L417.362,858.087C369.919,864.67,275.034,877.835,227.591,887.084C180.148,896.333,180.148,901.667,180.148,904.333L180.148,907" id="my-svg-L_PL_O1_0" class="edge-thickness-normal edge-pattern-solid edge-thickness-normal edge-pattern-solid flowchart-link" style=";" data-edge="true" data-et="edge" data-id="L_PL_O1_0" data-points="W3sieCI6NDY0LjgwNDY4NzUsInkiOjg1MS41MDQzNDc0MjQ5ODY3fSx7IngiOjE4MC4xNDg0Mzc1LCJ5Ijo4OTF9LHsieCI6MTgwLjE0ODQzNzUsInkiOjkxMX1d" data-look="classic" marker-end="url(#my-svg_flowchart-v2-pointEnd)"/><path d="M518.891,871L518.891,874.333C518.891,877.667,518.891,884.333,518.891,890.333C518.891,896.333,518.891,901.667,518.891,904.333L518.891,907" id="my-svg-L_PL_O2_0" class="edge-thickness-normal edge-pattern-solid edge-thickness-normal edge-pattern-solid flowchart-link" style=";" data-edge="true" data-et="edge" data-id="L_PL_O2_0" data-points="W3sieCI6NTE4Ljg5MDYyNSwieSI6ODcxfSx7IngiOjUxOC44OTA2MjUsInkiOjg5MX0seyJ4Ijo1MTguODkwNjI1LCJ5Ijo5MTF9XQ==" data-look="classic" marker-end="url(#my-svg_flowchart-v2-pointEnd)"/><path d="M572.977,851.905L617.561,858.42C662.146,864.936,751.315,877.968,795.9,887.151C840.484,896.333,840.484,901.667,840.484,904.333L840.484,907" id="my-svg-L_PL_O3_0" class="edge-thickness-normal edge-pattern-solid edge-thickness-normal edge-pattern-solid flowchart-link" style=";" data-edge="true" data-et="edge" data-id="L_PL_O3_0" data-points="W3sieCI6NTcyLjk3NjU2MjUsInkiOjg1MS45MDQ1MDM5MzU0Nzc2fSx7IngiOjg0MC40ODQzNzUsInkiOjg5MX0seyJ4Ijo4NDAuNDg0Mzc1LCJ5Ijo5MTF9XQ==" data-look="classic" marker-end="url(#my-svg_flowchart-v2-pointEnd)"/><path d="M518.891,649L518.891,652.333C518.891,655.667,518.891,662.333,518.891,669C518.891,675.667,518.891,682.333,518.891,693C518.891,703.667,518.891,718.333,518.891,733C518.891,747.667,518.891,762.333,518.891,773C518.891,783.667,518.891,790.333,518.891,796.333C518.891,802.333,518.891,807.667,518.891,810.333L518.891,813" id="my-svg-L_SC_PL_0" class="edge-thickness-normal edge-pattern-solid edge-thickness-normal edge-pattern-solid flowchart-link" style=";" data-edge="true" data-et="edge" data-id="L_SC_PL_0" data-points="W3sieCI6NTE4Ljg5MDYyNSwieSI6NjQ5fSx7IngiOjUxOC44OTA2MjUsInkiOjY2OX0seyJ4Ijo1MTguODkwNjI1LCJ5Ijo2ODl9LHsieCI6NTE4Ljg5MDYyNSwieSI6NzMzfSx7IngiOjUxOC44OTA2MjUsInkiOjc3N30seyJ4Ijo1MTguODkwNjI1LCJ5Ijo3OTd9LHsieCI6NTE4Ljg5MDYyNSwieSI6ODE3fV0=" data-look="classic" marker-end="url(#my-svg_flowchart-v2-pointEnd)"/></g><g class="edgeLabels"><g class="edgeLabel"><g class="label" data-id="L_V_P_0" transform="translate(0, 0)"><foreignObject width="0" height="0"><div xmlns="http://www.w3.org/1999/xhtml" class="labelBkg" style="display: table-cell; white-space: nowrap; line-height: 1.5; max-width: 200px; text-align: center;"><span class="edgeLabel"></span></div></foreignObject></g></g><g class="edgeLabel" transform="translate(299.8671875, 233)"><g class="label" data-id="L_P_ID_0" transform="translate(-94.6953125, -12)"><foreignObject width="189.390625" height="24"><div xmlns="http://www.w3.org/1999/xhtml" class="labelBkg" style="display: table-cell; white-space: nowrap; line-height: 1.5; max-width: 200px; text-align: center;"><span class="edgeLabel"><p>page views ⬩ clicks</p></span></div></foreignObject></g></g><g class="edgeLabel" transform="translate(495.8359375, 233)"><g class="label" data-id="L_PH_ID_0" transform="translate(-67.4296875, -12)"><foreignObject width="134.859375" height="24"><div xmlns="http://www.w3.org/1999/xhtml" class="labelBkg" style="display: table-cell; white-space: nowrap; line-height: 1.5; max-width: 200px; text-align: center;"><span class="edgeLabel"><p>product events</p></span></div></foreignObject></g></g><g class="edgeLabel" transform="translate(725.515625, 233)"><g class="label" data-id="L_WH_ID_0" transform="translate(-52.984375, -12)"><foreignObject width="105.96875" height="24"><div xmlns="http://www.w3.org/1999/xhtml" class="labelBkg" style="display: table-cell; white-space: nowrap; line-height: 1.5; max-width: 200px; text-align: center;"><span class="edgeLabel"><p>your events</p></span></div></foreignObject></g></g><g class="edgeLabel"><g class="label" data-id="L_ID_CO_0" transform="translate(0, 0)"><foreignObject width="0" height="0"><div xmlns="http://www.w3.org/1999/xhtml" class="labelBkg" style="display: table-cell; white-space: nowrap; line-height: 1.5; max-width: 200px; text-align: center;"><span class="edgeLabel"></span></div></foreignObject></g></g><g class="edgeLabel"><g class="label" data-id="L_CO_S_0" transform="translate(0, 0)"><foreignObject width="0" height="0"><div xmlns="http://www.w3.org/1999/xhtml" class="labelBkg" style="display: table-cell; white-space: nowrap; line-height: 1.5; max-width: 200px; text-align: center;"><span class="edgeLabel"></span></div></foreignObject></g></g><g class="edgeLabel"><g class="label" data-id="L_S_SC_0" transform="translate(0, 0)"><foreignObject width="0" height="0"><div xmlns="http://www.w3.org/1999/xhtml" class="labelBkg" style="display: table-cell; white-space: nowrap; line-height: 1.5; max-width: 200px; text-align: center;"><span class="edgeLabel"></span></div></foreignObject></g></g><g class="edgeLabel"><g class="label" data-id="L_PL_O1_0" transform="translate(0, 0)"><foreignObject width="0" height="0"><div xmlns="http://www.w3.org/1999/xhtml" class="labelBkg" style="display: table-cell; white-space: nowrap; line-height: 1.5; max-width: 200px; text-align: center;"><span class="edgeLabel"></span></div></foreignObject></g></g><g class="edgeLabel"><g class="label" data-id="L_PL_O2_0" transform="translate(0, 0)"><foreignObject width="0" height="0"><div xmlns="http://www.w3.org/1999/xhtml" class="labelBkg" style="display: table-cell; white-space: nowrap; line-height: 1.5; max-width: 200px; text-align: center;"><span class="edgeLabel"></span></div></foreignObject></g></g><g class="edgeLabel"><g class="label" data-id="L_PL_O3_0" transform="translate(0, 0)"><foreignObject width="0" height="0"><div xmlns="http://www.w3.org/1999/xhtml" class="labelBkg" style="display: table-cell; white-space: nowrap; line-height: 1.5; max-width: 200px; text-align: center;"><span class="edgeLabel"></span></div></foreignObject></g></g><g class="edgeLabel" transform="translate(518.890625, 733)"><g class="label" data-id="L_SC_PL_0" transform="translate(-100, -24)"><foreignObject width="200" height="48"><div xmlns="http://www.w3.org/1999/xhtml" class="labelBkg" style="display: table; white-space: break-spaces; line-height: 1.5; max-width: 200px; text-align: center; width: 200px;"><span class="edgeLabel"><p>scored signals trigger Plays</p></span></div></foreignObject></g></g></g><g class="nodes"><g class="node default" id="my-svg-flowchart-V-0" data-look="classic" transform="translate(299.8671875, 43.5)"><g class="basic label-container outer-path"><path d="M-65.125 -19.5 C-37.90094459836728 -19.5, -10.676889196734564 -19.5, 65.125 -19.5 C65.125 -19.5, 65.125 -19.5, 65.125 -19.5 C65.58494842749893 -19.485250349165412, 66.04489685499784 -19.470500698330827, 66.3743692896239 -19.45993515863156 C66.72216472629991 -19.426383751140634, 67.06996016297592 -19.392832343649708, 67.61860465284786 -19.3399052695533 C67.96304197337417 -19.28421931472192, 68.30747929390047 -19.22853335989054, 68.85259325967675 -19.140403561325776 C69.19812072692552 -19.061539171703686, 69.5436481941743 -18.9826747820816, 70.07126438623538 -18.862249829261074 C70.31245833606053 -18.79066473100585, 70.55365228588566 -18.71907963275063, 71.2696102514606 -18.50658706670804 C71.51900463522713 -18.414807628105546, 71.76839901899366 -18.323028189503052, 72.4427065951478 -18.074876768247425 C72.8672195664979 -17.88695746856061, 73.291732537848 -17.699038168873795, 73.58573291279238 -17.568892924097174 C73.9057667413137 -17.401931480749056, 74.22580056983502 -17.234970037400934, 74.69399226407678 -16.990714730406097 C75.09047163349291 -16.75036660669464, 75.48695100290905 -16.51001848298318, 75.7629305736057 -16.342718045390892 C76.11617528662869 -16.096309825303226, 76.46941999965166 -15.84990160521556, 76.78815534457871 -15.627565626425154 C77.1110026500765 -15.370103491618273, 77.4338499555743 -15.112641356811393, 77.76545370850187 -14.848196188198123 C78.03168610857908 -14.6064109665713, 78.2979185086563 -14.364625744944478, 78.69080973676799 -14.007812326905688 C79.00756721400293 -13.680734225388079, 79.32432469123786 -13.35365612387047, 79.56042094296865 -13.10986736009568 C79.75073944346937 -12.886308419978066, 79.9410579439701 -12.66274947986045, 80.37071390812658 -12.158051136245305 C80.57712688093835 -11.881476557286192, 80.78353985375014 -11.604901978327076, 81.11835896464063 -11.156274872382312 C81.33205689286378 -10.827977468703054, 81.54575482108692 -10.499680065023794, 81.80028387860425 -10.108655082055241 C81.95463486455589 -9.834589276765948, 82.10898585050752 -9.560523471476655, 82.4136864742735 -9.019496659696287 C82.60768790570319 -8.616648536366894, 82.80168933713286 -8.2138004130375, 82.95604614880834 -7.893275190886684 C83.10956563268505 -7.514079097613908, 83.26308511656175 -7.134883004341132, 83.42513422997033 -6.734618561215508 C83.55237823483422 -6.351379892144431, 83.67962223969812 -5.968141223073355, 83.81902313421489 -5.548287939305138 C83.88528910530586 -5.295587071681703, 83.95155507639684 -5.0428862040582665, 84.13609428754556 -4.339158212148133 C84.18684943427783 -4.078541260782011, 84.23760458101009 -3.8179243094158877, 84.37504477658177 -3.1121979531509023 C84.41819850753494 -2.7775061375461667, 84.46135223848812 -2.442814321941431, 84.53489270250937 -1.872449005199798 C84.563753410036 -1.422920189528652, 84.59261411756263 -0.9733913738575063, 84.61498121591342 -0.6250057626472757 C84.61498121591342 -0.13649344035201344, 84.61498121591342 0.3520188819432488, 84.61498121591342 0.625005762647271 C84.5898361832116 1.0166599436830814, 84.56469115050979 1.408314124718892, 84.53489270250937 1.8724490051997846 C84.483840385886 2.268400691510429, 84.43278806926263 2.664352377821074, 84.37504477658177 3.1121979531508885 C84.29161989082601 3.5405671096508744, 84.20819500507025 3.9689362661508603, 84.13609428754556 4.339158212148129 C84.01561110083387 4.79861282082327, 83.89512791412217 5.2580674294984115, 83.81902313421489 5.548287939305125 C83.73969990854914 5.787196856570673, 83.6603766828834 6.026105773836219, 83.42513422997033 6.734618561215495 C83.2953427044003 7.055206138721908, 83.16555117883027 7.375793716228321, 82.95604614880834 7.893275190886679 C82.77950451692966 8.259867666868557, 82.60296288505099 8.626460142850433, 82.4136864742735 9.019496659696284 C82.2565337551556 9.298537225928511, 82.09938103603771 9.577577792160739, 81.80028387860425 10.108655082055236 C81.65805540826737 10.327156206184588, 81.5158269379305 10.54565733031394, 81.11835896464065 11.156274872382301 C80.94749653891691 11.38521495696491, 80.77663411319317 11.614155041547521, 80.37071390812659 12.158051136245302 C80.1478528036531 12.419836470715946, 79.92499169917961 12.681621805186591, 79.56042094296866 13.10986736009567 C79.27152901308898 13.408171996164993, 78.98263708320928 13.706476632234315, 78.69080973676799 14.007812326905684 C78.40106893388277 14.270947257964494, 78.11132813099755 14.534082189023302, 77.7654537085019 14.848196188198111 C77.47304394697974 15.081385191661477, 77.18063418545759 15.314574195124841, 76.78815534457871 15.627565626425152 C76.38167201554774 15.911110800377456, 75.97518868651674 16.19465597432976, 75.7629305736057 16.34271804539089 C75.48142459327008 16.513368624983112, 75.19991861293445 16.684019204575335, 74.69399226407678 16.990714730406093 C74.35527116782481 17.16742530935953, 74.01655007157285 17.344135888312962, 73.58573291279238 17.56889292409717 C73.22836624144888 17.727088548595287, 72.87099957010537 17.8852841730934, 72.4427065951478 18.07487676824742 C72.12018210738212 18.193568761128876, 71.79765761961643 18.312260754010328, 71.26961025146062 18.506587066708033 C71.02792985284684 18.578316540410306, 70.78624945423304 18.650046014112576, 70.07126438623541 18.86224982926107 C69.75509951663308 18.934412397579216, 69.43893464703075 19.006574965897357, 68.85259325967677 19.140403561325773 C68.3690608104026 19.218577337874272, 67.88552836112845 19.29675111442277, 67.61860465284788 19.3399052695533 C67.175803233485 19.382621789932614, 66.73300181412213 19.42533831031193, 66.3743692896239 19.45993515863156 C65.88504034765134 19.475626985379613, 65.39571140567878 19.491318812127666, 65.125 19.5 C65.125 19.5, 65.125 19.5, 65.125 19.5 C22.83985653431575 19.5, -19.4452869313685 19.5, -65.125 19.5 C-65.40540149986215 19.49100806966783, -65.6858029997243 19.482016139335663, -66.3743692896239 19.45993515863156 C-66.78052545442542 19.42075376188741, -67.18668161922693 19.381572365143263, -67.61860465284786 19.3399052695533 C-68.02979216992348 19.27342766059933, -68.4409796869991 19.206950051645364, -68.85259325967675 19.140403561325773 C-69.15618512799911 19.071110698503283, -69.45977699632145 19.001817835680793, -70.07126438623538 18.862249829261074 C-70.39054233111018 18.767489811146365, -70.70982027598498 18.67272979303166, -71.26961025146059 18.506587066708043 C-71.56502186872179 18.397872860800867, -71.860433485983 18.28915865489369, -72.4427065951478 18.074876768247425 C-72.83844066523207 17.899697034455215, -73.23417473531634 17.724517300663006, -73.58573291279238 17.568892924097174 C-73.96637750234758 17.37031088554072, -74.34702209190279 17.171728846984266, -74.69399226407678 16.990714730406097 C-75.10966128919786 16.738733724635367, -75.52533031431894 16.486752718864636, -75.76293057360569 16.3427180453909 C-76.15173335387875 16.071506056873496, -76.54053613415184 15.80029406835609, -76.78815534457871 15.627565626425156 C-77.10757618597702 15.372836005555572, -77.42699702737534 15.118106384685987, -77.76545370850187 14.848196188198125 C-78.02985992527407 14.608069457930746, -78.29426614204628 14.367942727663367, -78.69080973676797 14.007812326905697 C-78.94823961143457 13.741994845926655, -79.20566948610117 13.476177364947613, -79.56042094296865 13.109867360095677 C-79.87419149307445 12.741294617891318, -80.18796204318025 12.37272187568696, -80.37071390812658 12.158051136245307 C-80.56179732008962 11.902016772271764, -80.75288073205269 11.645982408298222, -81.11835896464063 11.156274872382316 C-81.35964248056978 10.785598598219151, -81.60092599649893 10.414922324055985, -81.80028387860425 10.108655082055249 C-81.95215519535789 9.83899218052074, -82.10402651211153 9.569329278986231, -82.4136864742735 9.019496659696289 C-82.56893961508007 8.697110190926383, -82.72419275588665 8.374723722156478, -82.95604614880834 7.893275190886686 C-83.1331611206535 7.455797786144137, -83.31027609249864 7.018320381401587, -83.42513422997033 6.73461856121551 C-83.52010590331544 6.448579012781272, -83.61507757666054 6.162539464347033, -83.81902313421489 5.5482879393051325 C-83.90838849745282 5.207499078085475, -83.99775386069075 4.866710216865818, -84.13609428754556 4.339158212148136 C-84.2042933565185 3.988970406850406, -84.27249242549145 3.6387826015526765, -84.37504477658177 3.112197953150904 C-84.4313576465649 2.67544645379567, -84.48767051654805 2.238694954440436, -84.53489270250937 1.872449005199809 C-84.56290295205318 1.4361667590884029, -84.590913201597 0.9998845129769964, -84.61498121591342 0.6250057626472781 C-84.61498121591342 0.15195102747791367, -84.61498121591342 -0.3211037076914508, -84.61498121591342 -0.6250057626472687 C-84.59587630034878 -0.9225802437768547, -84.57677138478414 -1.2201547249064406, -84.53489270250937 -1.8724490051997822 C-84.49889588964005 -2.1516331774394843, -84.46289907677074 -2.4308173496791863, -84.37504477658177 -3.112197953150895 C-84.30319224738012 -3.4811455045639175, -84.23133971817849 -3.85009305597694, -84.13609428754556 -4.339158212148126 C-84.03756229215298 -4.714903414616986, -83.9390302967604 -5.090648617085846, -83.81902313421489 -5.548287939305123 C-83.67686700907906 -5.97643953871156, -83.53471088394322 -6.404591138117997, -83.42513422997033 -6.734618561215485 C-83.28385017583386 -7.083592906473908, -83.1425661216974 -7.432567251732331, -82.95604614880834 -7.893275190886676 C-82.83563373494528 -8.143314144686249, -82.71522132108221 -8.393353098485823, -82.4136864742735 -9.019496659696282 C-82.20827776175305 -9.384220628663954, -82.0028690492326 -9.748944597631626, -81.80028387860425 -10.108655082055243 C-81.62583745466223 -10.376651634653989, -81.4513910307202 -10.644648187252736, -81.11835896464063 -11.156274872382308 C-80.82741052407955 -11.546119276785948, -80.53646208351847 -11.935963681189588, -80.37071390812659 -12.158051136245302 C-80.14244477203293 -12.426189052382716, -79.91417563593927 -12.69432696852013, -79.56042094296866 -13.10986736009567 C-79.38207515265395 -13.294024031057301, -79.20372936233925 -13.478180702018932, -78.69080973676799 -14.007812326905677 C-78.48426726792323 -14.195388732296228, -78.27772479907847 -14.38296513768678, -77.7654537085019 -14.848196188198107 C-77.44504808335626 -15.103711147899984, -77.12464245821062 -15.35922610760186, -76.78815534457871 -15.627565626425149 C-76.52421473822312 -15.811679167614116, -76.26027413186752 -15.995792708803082, -75.76293057360571 -16.342718045390885 C-75.51556335267055 -16.492673508412924, -75.2681961317354 -16.642628971434963, -74.69399226407678 -16.99071473040609 C-74.45072596787725 -17.117626601313887, -74.20745967167773 -17.244538472221684, -73.5857329127924 -17.56889292409717 C-73.35678912784111 -17.670239546319017, -73.12784534288984 -17.771586168540868, -72.44270659514781 -18.07487676824742 C-72.06407020931755 -18.214218458309336, -71.6854338234873 -18.353560148371255, -71.26961025146062 -18.506587066708033 C-70.80924897645242 -18.64321987664482, -70.34888770144423 -18.77985268658161, -70.07126438623541 -18.862249829261067 C-69.61891896747818 -18.965494719262683, -69.16657354872096 -19.068739609264302, -68.85259325967677 -19.140403561325773 C-68.56344603088532 -19.187150642906524, -68.27429880209387 -19.233897724487278, -67.61860465284788 -19.3399052695533 C-67.26877867379662 -19.37365256102508, -66.91895269474537 -19.40739985249686, -66.3743692896239 -19.45993515863156 C-66.03157073342015 -19.470928041112103, -65.68877217721639 -19.481920923592643, -65.125 -19.5 C-65.125 -19.5, -65.125 -19.5, -65.125 -19.5" stroke="none" stroke-width="0" fill="#161D27" style=""/><path d="M-65.125 -19.5 C-27.059601292657092 -19.5, 11.005797414685816 -19.5, 65.125 -19.5 M-65.125 -19.5 C-36.25251639391249 -19.5, -7.38003278782498 -19.5, 65.125 -19.5 M65.125 -19.5 C65.125 -19.5, 65.125 -19.5, 65.125 -19.5 M65.125 -19.5 C65.125 -19.5, 65.125 -19.5, 65.125 -19.5 M65.125 -19.5 C65.38048167751323 -19.49180719986707, 65.63596335502646 -19.483614399734137, 66.3743692896239 -19.45993515863156 M65.125 -19.5 C65.46355912741257 -19.489143067749243, 65.80211825482515 -19.478286135498486, 66.3743692896239 -19.45993515863156 M66.3743692896239 -19.45993515863156 C66.66336560381876 -19.4320560317701, 66.95236191801362 -19.40417690490864, 67.61860465284786 -19.3399052695533 M66.3743692896239 -19.45993515863156 C66.72298294236373 -19.426304818821006, 67.07159659510357 -19.392674479010452, 67.61860465284786 -19.3399052695533 M67.61860465284786 -19.3399052695533 C68.09184137867769 -19.263396025726752, 68.56507810450752 -19.18688678190021, 68.85259325967675 -19.140403561325776 M67.61860465284786 -19.3399052695533 C67.99769952128513 -19.278616151148977, 68.37679438972238 -19.217327032744652, 68.85259325967675 -19.140403561325776 M68.85259325967675 -19.140403561325776 C69.20873698116459 -19.059116080951153, 69.56488070265245 -18.977828600576526, 70.07126438623538 -18.862249829261074 M68.85259325967675 -19.140403561325776 C69.1983153235743 -19.061494756288464, 69.54403738747185 -18.982585951251156, 70.07126438623538 -18.862249829261074 M70.07126438623538 -18.862249829261074 C70.45578344378885 -18.748126591360926, 70.84030250134232 -18.63400335346078, 71.2696102514606 -18.50658706670804 M70.07126438623538 -18.862249829261074 C70.35831609339441 -18.777054389341437, 70.64536780055343 -18.6918589494218, 71.2696102514606 -18.50658706670804 M71.2696102514606 -18.50658706670804 C71.7309017191607 -18.33682754246282, 72.19219318686079 -18.167068018217606, 72.4427065951478 -18.074876768247425 M71.2696102514606 -18.50658706670804 C71.6520517576024 -18.365845057197333, 72.03449326374418 -18.225103047686627, 72.4427065951478 -18.074876768247425 M72.4427065951478 -18.074876768247425 C72.87903967237906 -17.881725058318, 73.31537274961032 -17.68857334838858, 73.58573291279238 -17.568892924097174 M72.4427065951478 -18.074876768247425 C72.77045223564032 -17.929793495430378, 73.09819787613284 -17.784710222613334, 73.58573291279238 -17.568892924097174 M73.58573291279238 -17.568892924097174 C73.92189025424366 -17.393519854381093, 74.25804759569495 -17.218146784665016, 74.69399226407678 -16.990714730406097 M73.58573291279238 -17.568892924097174 C74.01092107103214 -17.347072534289502, 74.43610922927192 -17.12525214448183, 74.69399226407678 -16.990714730406097 M74.69399226407678 -16.990714730406097 C75.01977254971696 -16.793224806753557, 75.34555283535714 -16.595734883101013, 75.7629305736057 -16.342718045390892 M74.69399226407678 -16.990714730406097 C75.0044918510332 -16.802488056095005, 75.31499143798962 -16.614261381783916, 75.7629305736057 -16.342718045390892 M75.7629305736057 -16.342718045390892 C75.98948796748199 -16.184681414934307, 76.21604536135827 -16.02664478447772, 76.78815534457871 -15.627565626425154 M75.7629305736057 -16.342718045390892 C76.13216136400261 -16.085158629753312, 76.50139215439953 -15.82759921411573, 76.78815534457871 -15.627565626425154 M76.78815534457871 -15.627565626425154 C77.13122536267048 -15.353976416473563, 77.47429538076224 -15.08038720652197, 77.76545370850187 -14.848196188198123 M76.78815534457871 -15.627565626425154 C77.11105406251303 -15.370062491568287, 77.43395278044736 -15.11255935671142, 77.76545370850187 -14.848196188198123 M77.76545370850187 -14.848196188198123 C78.04263373981165 -14.596468617544335, 78.31981377112142 -14.34474104689055, 78.69080973676799 -14.007812326905688 M77.76545370850187 -14.848196188198123 C78.08508113633401 -14.557919015119289, 78.40470856416616 -14.267641842040454, 78.69080973676799 -14.007812326905688 M78.69080973676799 -14.007812326905688 C78.94657023303529 -13.743718616182433, 79.2023307293026 -13.479624905459179, 79.56042094296865 -13.10986736009568 M78.69080973676799 -14.007812326905688 C78.96521038154745 -13.724471132458982, 79.23961102632691 -13.441129938012274, 79.56042094296865 -13.10986736009568 M79.56042094296865 -13.10986736009568 C79.86518566718308 -12.751873373429326, 80.16995039139752 -12.393879386762972, 80.37071390812658 -12.158051136245305 M79.56042094296865 -13.10986736009568 C79.87071677743178 -12.745376216602127, 80.1810126118949 -12.380885073108574, 80.37071390812658 -12.158051136245305 M80.37071390812658 -12.158051136245305 C80.56577028144892 -11.896693365994528, 80.76082665477128 -11.635335595743753, 81.11835896464063 -11.156274872382312 M80.37071390812658 -12.158051136245305 C80.5824556629748 -11.87433647481939, 80.79419741782301 -11.590621813393476, 81.11835896464063 -11.156274872382312 M81.11835896464063 -11.156274872382312 C81.28408194163738 -10.901679876864991, 81.44980491863414 -10.64708488134767, 81.80028387860425 -10.108655082055241 M81.11835896464063 -11.156274872382312 C81.28948037867863 -10.893386427886313, 81.46060179271663 -10.630497983390313, 81.80028387860425 -10.108655082055241 M81.80028387860425 -10.108655082055241 C82.04402192314751 -9.675873502815325, 82.28775996769079 -9.24309192357541, 82.4136864742735 -9.019496659696287 M81.80028387860425 -10.108655082055241 C81.97776602704164 -9.793517555488297, 82.15524817547904 -9.478380028921352, 82.4136864742735 -9.019496659696287 M82.4136864742735 -9.019496659696287 C82.5792704024424 -8.67565808992507, 82.7448543306113 -8.331819520153852, 82.95604614880834 -7.893275190886684 M82.4136864742735 -9.019496659696287 C82.54980076343921 -8.736852425864473, 82.68591505260491 -8.45420819203266, 82.95604614880834 -7.893275190886684 M82.95604614880834 -7.893275190886684 C83.06451257923713 -7.6253610106718135, 83.17297900966591 -7.357446830456943, 83.42513422997033 -6.734618561215508 M82.95604614880834 -7.893275190886684 C83.14148626056048 -7.435234529618235, 83.32692637231263 -6.977193868349786, 83.42513422997033 -6.734618561215508 M83.42513422997033 -6.734618561215508 C83.50892847836685 -6.482243635845588, 83.59272272676337 -6.229868710475669, 83.81902313421489 -5.548287939305138 M83.42513422997033 -6.734618561215508 C83.5572297965588 -6.336767761221403, 83.68932536314726 -5.938916961227299, 83.81902313421489 -5.548287939305138 M83.81902313421489 -5.548287939305138 C83.89217803082725 -5.269316612989446, 83.96533292743962 -4.990345286673753, 84.13609428754556 -4.339158212148133 M83.81902313421489 -5.548287939305138 C83.93705530294729 -5.098180124462998, 84.05508747167967 -4.648072309620859, 84.13609428754556 -4.339158212148133 M84.13609428754556 -4.339158212148133 C84.22278646341907 -3.89401221143554, 84.30947863929256 -3.4488662107229477, 84.37504477658177 -3.1121979531509023 M84.13609428754556 -4.339158212148133 C84.2105528752245 -3.9568291012448755, 84.28501146290343 -3.5744999903416184, 84.37504477658177 -3.1121979531509023 M84.37504477658177 -3.1121979531509023 C84.4089841272763 -2.848971051246995, 84.44292347797084 -2.5857441493430873, 84.53489270250937 -1.872449005199798 M84.37504477658177 -3.1121979531509023 C84.40829380327939 -2.854325067847119, 84.44154282997701 -2.5964521825433353, 84.53489270250937 -1.872449005199798 M84.53489270250937 -1.872449005199798 C84.56270122372078 -1.439308840697846, 84.59050974493218 -1.0061686761958943, 84.61498121591342 -0.6250057626472757 M84.53489270250937 -1.872449005199798 C84.56219930115833 -1.447126689752419, 84.5895058998073 -1.0218043743050402, 84.61498121591342 -0.6250057626472757 M84.61498121591342 -0.6250057626472757 C84.61498121591342 -0.3236010599947284, 84.61498121591342 -0.02219635734218106, 84.61498121591342 0.625005762647271 M84.61498121591342 -0.6250057626472757 C84.61498121591342 -0.20394005012831312, 84.61498121591342 0.21712566239064945, 84.61498121591342 0.625005762647271 M84.61498121591342 0.625005762647271 C84.58994126662253 1.0150231847359819, 84.56490131733166 1.4050406068246928, 84.53489270250937 1.8724490051997846 M84.61498121591342 0.625005762647271 C84.58533401572106 1.0867848364324249, 84.55568681552872 1.5485639102175786, 84.53489270250937 1.8724490051997846 M84.53489270250937 1.8724490051997846 C84.49680768753966 2.1678288605680334, 84.45872267256993 2.4632087159362825, 84.37504477658177 3.1121979531508885 M84.53489270250937 1.8724490051997846 C84.49640716005895 2.170935272615227, 84.45792161760853 2.469421540030669, 84.37504477658177 3.1121979531508885 M84.37504477658177 3.1121979531508885 C84.30585918821198 3.4674513270505245, 84.23667359984218 3.8227047009501605, 84.13609428754556 4.339158212148129 M84.37504477658177 3.1121979531508885 C84.28047401239849 3.597798839693997, 84.1859032482152 4.083399726237106, 84.13609428754556 4.339158212148129 M84.13609428754556 4.339158212148129 C84.06088466296018 4.625965106749673, 83.98567503837481 4.912772001351217, 83.81902313421489 5.548287939305125 M84.13609428754556 4.339158212148129 C84.03535051537827 4.7233378780490805, 83.93460674321098 5.107517543950031, 83.81902313421489 5.548287939305125 M83.81902313421489 5.548287939305125 C83.68143265445462 5.962688542277173, 83.54384217469435 6.377089145249222, 83.42513422997033 6.734618561215495 M83.81902313421489 5.548287939305125 C83.69030892198388 5.93595463872018, 83.5615947097529 6.323621338135233, 83.42513422997033 6.734618561215495 M83.42513422997033 6.734618561215495 C83.24803286351977 7.1720623603703455, 83.07093149706922 7.609506159525196, 82.95604614880834 7.893275190886679 M83.42513422997033 6.734618561215495 C83.28347181349399 7.084527468768546, 83.14180939701765 7.434436376321597, 82.95604614880834 7.893275190886679 M82.95604614880834 7.893275190886679 C82.78111242025732 8.256528821205077, 82.60617869170628 8.619782451523474, 82.4136864742735 9.019496659696284 M82.95604614880834 7.893275190886679 C82.80904263009913 8.198531142857796, 82.6620391113899 8.503787094828914, 82.4136864742735 9.019496659696284 M82.4136864742735 9.019496659696284 C82.17776198077455 9.438404487849176, 81.94183748727559 9.857312316002071, 81.80028387860425 10.108655082055236 M82.4136864742735 9.019496659696284 C82.2129735788862 9.375882729840994, 82.01226068349891 9.732268799985702, 81.80028387860425 10.108655082055236 M81.80028387860425 10.108655082055236 C81.55029584865036 10.492703827249695, 81.30030781869648 10.876752572444156, 81.11835896464065 11.156274872382301 M81.80028387860425 10.108655082055236 C81.64540599568117 10.34658910075988, 81.49052811275808 10.584523119464523, 81.11835896464065 11.156274872382301 M81.11835896464065 11.156274872382301 C80.83606931838852 11.53451728124433, 80.55377967213639 11.912759690106357, 80.37071390812659 12.158051136245302 M81.11835896464065 11.156274872382301 C80.93265400136224 11.405102605105172, 80.74694903808384 11.653930337828042, 80.37071390812659 12.158051136245302 M80.37071390812659 12.158051136245302 C80.18926631623125 12.37118980234603, 80.0078187243359 12.58432846844676, 79.56042094296866 13.10986736009567 M80.37071390812659 12.158051136245302 C80.09685832866072 12.479737482709826, 79.82300274919484 12.801423829174349, 79.56042094296866 13.10986736009567 M79.56042094296866 13.10986736009567 C79.33086624404602 13.346901433524579, 79.10131154512338 13.583935506953486, 78.69080973676799 14.007812326905684 M79.56042094296866 13.10986736009567 C79.3231548935454 13.354864036030124, 79.08588884412214 13.599860711964576, 78.69080973676799 14.007812326905684 M78.69080973676799 14.007812326905684 C78.36355740727012 14.305014233933486, 78.03630507777225 14.60221614096129, 77.7654537085019 14.848196188198111 M78.69080973676799 14.007812326905684 C78.48079046635324 14.198546271490967, 78.2707711959385 14.389280216076248, 77.7654537085019 14.848196188198111 M77.7654537085019 14.848196188198111 C77.45505723214168 15.095729118098244, 77.14466075578147 15.343262047998378, 76.78815534457871 15.627565626425152 M77.7654537085019 14.848196188198111 C77.40935504885076 15.132175393086587, 77.0532563891996 15.416154597975062, 76.78815534457871 15.627565626425152 M76.78815534457871 15.627565626425152 C76.50620229658928 15.824243867151857, 76.22424924859983 16.02092210787856, 75.7629305736057 16.34271804539089 M76.78815534457871 15.627565626425152 C76.45759085757504 15.858153102652901, 76.12702637057139 16.08874057888065, 75.7629305736057 16.34271804539089 M75.7629305736057 16.34271804539089 C75.36008113079693 16.586927745027673, 74.95723168798816 16.831137444664453, 74.69399226407678 16.990714730406093 M75.7629305736057 16.34271804539089 C75.49177622033524 16.507093407823298, 75.22062186706476 16.671468770255707, 74.69399226407678 16.990714730406093 M74.69399226407678 16.990714730406093 C74.38916474586738 17.1497430514046, 74.08433722765797 17.308771372403104, 73.58573291279238 17.56889292409717 M74.69399226407678 16.990714730406093 C74.34084004487902 17.174954016956775, 73.98768782568125 17.359193303507453, 73.58573291279238 17.56889292409717 M73.58573291279238 17.56889292409717 C73.19588199630859 17.741468360307998, 72.80603107982478 17.91404379651883, 72.4427065951478 18.07487676824742 M73.58573291279238 17.56889292409717 C73.21790736600241 17.73171838250392, 72.85008181921243 17.89454384091067, 72.4427065951478 18.07487676824742 M72.4427065951478 18.07487676824742 C72.12133517481591 18.1931444216544, 71.79996375448404 18.311412075061373, 71.26961025146062 18.506587066708033 M72.4427065951478 18.07487676824742 C72.10108075790158 18.20059823430865, 71.75945492065537 18.32631970036988, 71.26961025146062 18.506587066708033 M71.26961025146062 18.506587066708033 C70.84015845779538 18.634046104829412, 70.41070666413013 18.761505142950792, 70.07126438623541 18.86224982926107 M71.26961025146062 18.506587066708033 C70.83710613030883 18.63495201960543, 70.40460200915703 18.76331697250282, 70.07126438623541 18.86224982926107 M70.07126438623541 18.86224982926107 C69.69034135220383 18.949193026023675, 69.30941831817226 19.03613622278628, 68.85259325967677 19.140403561325773 M70.07126438623541 18.86224982926107 C69.59545519750344 18.970850171644013, 69.11964600877148 19.079450514026956, 68.85259325967677 19.140403561325773 M68.85259325967677 19.140403561325773 C68.39746876979899 19.21398455930608, 67.9423442799212 19.28756555728639, 67.61860465284788 19.3399052695533 M68.85259325967677 19.140403561325773 C68.47550714218346 19.201367920455574, 68.09842102469014 19.26233227958538, 67.61860465284788 19.3399052695533 M67.61860465284788 19.3399052695533 C67.34538982264411 19.36626197563415, 67.07217499244034 19.392618681715, 66.3743692896239 19.45993515863156 M67.61860465284788 19.3399052695533 C67.20482826709453 19.379821779848015, 66.79105188134118 19.41973829014273, 66.3743692896239 19.45993515863156 M66.3743692896239 19.45993515863156 C65.93272121893642 19.474097952642687, 65.49107314824894 19.488260746653815, 65.125 19.5 M66.3743692896239 19.45993515863156 C66.0136879301536 19.471501507806096, 65.65300657068327 19.48306785698063, 65.125 19.5 M65.125 19.5 C65.125 19.5, 65.125 19.5, 65.125 19.5 M65.125 19.5 C65.125 19.5, 65.125 19.5, 65.125 19.5 M65.125 19.5 C13.597675905877878 19.5, -37.929648188244244 19.5, -65.125 19.5 M65.125 19.5 C36.26745244857844 19.5, 7.409904897156878 19.5, -65.125 19.5 M-65.125 19.5 C-65.61579448382263 19.48426117617732, -66.10658896764525 19.468522352354636, -66.3743692896239 19.45993515863156 M-65.125 19.5 C-65.38134732509786 19.49177944023391, -65.63769465019571 19.48355888046782, -66.3743692896239 19.45993515863156 M-66.3743692896239 19.45993515863156 C-66.6961780849335 19.428890651179742, -67.01798688024311 19.397846143727925, -67.61860465284786 19.3399052695533 M-66.3743692896239 19.45993515863156 C-66.75068760304626 19.423632183524692, -67.12700591646863 19.387329208417825, -67.61860465284786 19.3399052695533 M-67.61860465284786 19.3399052695533 C-68.03872123058156 19.271984079318035, -68.45883780831527 19.204062889082767, -68.85259325967675 19.140403561325773 M-67.61860465284786 19.3399052695533 C-68.00880006944281 19.276821500608875, -68.39899548603778 19.21373773166445, -68.85259325967675 19.140403561325773 M-68.85259325967675 19.140403561325773 C-69.26351018373073 19.04661445489398, -69.6744271077847 18.952825348462188, -70.07126438623538 18.862249829261074 M-68.85259325967675 19.140403561325773 C-69.17797524033877 19.066137247555524, -69.5033572210008 18.991870933785275, -70.07126438623538 18.862249829261074 M-70.07126438623538 18.862249829261074 C-70.43588519714606 18.75403228651648, -70.80050600805674 18.645814743771883, -71.26961025146059 18.506587066708043 M-70.07126438623538 18.862249829261074 C-70.44639039884589 18.750914397794897, -70.8215164114564 18.639578966328724, -71.26961025146059 18.506587066708043 M-71.26961025146059 18.506587066708043 C-71.55263634427952 18.402430848286155, -71.83566243709845 18.298274629864267, -72.4427065951478 18.074876768247425 M-71.26961025146059 18.506587066708043 C-71.64433438536265 18.36868512152016, -72.01905851926473 18.230783176332277, -72.4427065951478 18.074876768247425 M-72.4427065951478 18.074876768247425 C-72.67864084567839 17.970435674278406, -72.91457509620899 17.865994580309387, -73.58573291279238 17.568892924097174 M-72.4427065951478 18.074876768247425 C-72.78305889345923 17.924212901977167, -73.12341119177064 17.77354903570691, -73.58573291279238 17.568892924097174 M-73.58573291279238 17.568892924097174 C-73.93916101939624 17.38450970726345, -74.2925891260001 17.200126490429724, -74.69399226407678 16.990714730406097 M-73.58573291279238 17.568892924097174 C-73.92506457749595 17.39186381197363, -74.26439624219951 17.214834699850087, -74.69399226407678 16.990714730406097 M-74.69399226407678 16.990714730406097 C-75.02671686896957 16.78901511961327, -75.35944147386236 16.587315508820446, -75.76293057360569 16.3427180453909 M-74.69399226407678 16.990714730406097 C-74.92163099555833 16.852718793628313, -75.14926972703987 16.714722856850525, -75.76293057360569 16.3427180453909 M-75.76293057360569 16.3427180453909 C-76.11273160715763 16.098711987027748, -76.46253264070958 15.854705928664599, -76.78815534457871 15.627565626425156 M-75.76293057360569 16.3427180453909 C-76.12410706448507 16.09077696043174, -76.48528355536446 15.838835875472576, -76.78815534457871 15.627565626425156 M-76.78815534457871 15.627565626425156 C-77.11910943021198 15.363638550190721, -77.45006351584523 15.099711473956285, -77.76545370850187 14.848196188198125 M-76.78815534457871 15.627565626425156 C-76.986043379648 15.469755184479176, -77.18393141471728 15.311944742533196, -77.76545370850187 14.848196188198125 M-77.76545370850187 14.848196188198125 C-78.02711424471772 14.610563012365295, -78.28877478093358 14.372929836532464, -78.69080973676797 14.007812326905697 M-77.76545370850187 14.848196188198125 C-78.09850670805041 14.545726266107618, -78.43155970759895 14.243256344017109, -78.69080973676797 14.007812326905697 M-78.69080973676797 14.007812326905697 C-78.99093040865822 13.697913092813614, -79.29105108054846 13.38801385872153, -79.56042094296865 13.109867360095677 M-78.69080973676797 14.007812326905697 C-78.8995683755249 13.792251892986188, -79.10832701428181 13.57669145906668, -79.56042094296865 13.109867360095677 M-79.56042094296865 13.109867360095677 C-79.86557850959544 12.75141191837841, -80.17073607622223 12.392956476661144, -80.37071390812658 12.158051136245307 M-79.56042094296865 13.109867360095677 C-79.81223620383054 12.814070825993051, -80.06405146469241 12.518274291890426, -80.37071390812658 12.158051136245307 M-80.37071390812658 12.158051136245307 C-80.66279792931037 11.766685157260767, -80.95488195049415 11.375319178276229, -81.11835896464063 11.156274872382316 M-80.37071390812658 12.158051136245307 C-80.56477797251912 11.898022969559257, -80.75884203691169 11.637994802873207, -81.11835896464063 11.156274872382316 M-81.11835896464063 11.156274872382316 C-81.36958815605067 10.7703193698927, -81.62081734746069 10.384363867403087, -81.80028387860425 10.108655082055249 M-81.11835896464063 11.156274872382316 C-81.35166564766313 10.797853155643319, -81.58497233068563 10.439431438904322, -81.80028387860425 10.108655082055249 M-81.80028387860425 10.108655082055249 C-81.99560931478322 9.76183499127432, -82.1909347509622 9.415014900493391, -82.4136864742735 9.019496659696289 M-81.80028387860425 10.108655082055249 C-81.92481768724348 9.88753269440074, -82.04935149588272 9.666410306746231, -82.4136864742735 9.019496659696289 M-82.4136864742735 9.019496659696289 C-82.57500440303733 8.68451652896748, -82.73632233180115 8.349536398238673, -82.95604614880834 7.893275190886686 M-82.4136864742735 9.019496659696289 C-82.61589763102565 8.599600866074823, -82.81810878777779 8.179705072453357, -82.95604614880834 7.893275190886686 M-82.95604614880834 7.893275190886686 C-83.05138291183995 7.657791542987678, -83.14671967487158 7.42230789508867, -83.42513422997033 6.73461856121551 M-82.95604614880834 7.893275190886686 C-83.06343522945716 7.6280220854574665, -83.17082431010598 7.362768980028247, -83.42513422997033 6.73461856121551 M-83.42513422997033 6.73461856121551 C-83.56587921858953 6.310717080163091, -83.70662420720872 5.886815599110672, -83.81902313421489 5.5482879393051325 M-83.42513422997033 6.73461856121551 C-83.54545171469572 6.372241467210503, -83.6657691994211 6.009864373205497, -83.81902313421489 5.5482879393051325 M-83.81902313421489 5.5482879393051325 C-83.93941745710774 5.089172206885077, -84.05981178000059 4.630056474465022, -84.13609428754556 4.339158212148136 M-83.81902313421489 5.5482879393051325 C-83.89048771438262 5.2757625221806315, -83.96195229455033 5.003237105056131, -84.13609428754556 4.339158212148136 M-84.13609428754556 4.339158212148136 C-84.22168556686547 3.8996650825636503, -84.30727684618539 3.460171952979165, -84.37504477658177 3.112197953150904 M-84.13609428754556 4.339158212148136 C-84.20440505432325 3.9883968622303643, -84.27271582110095 3.6376355123125927, -84.37504477658177 3.112197953150904 M-84.37504477658177 3.112197953150904 C-84.40834938395776 2.8538939950814073, -84.44165399133374 2.5955900370119105, -84.53489270250937 1.872449005199809 M-84.37504477658177 3.112197953150904 C-84.4385186165133 2.6199073849693892, -84.50199245644484 2.1276168167878744, -84.53489270250937 1.872449005199809 M-84.53489270250937 1.872449005199809 C-84.55132865733849 1.6164457418723164, -84.56776461216761 1.3604424785448237, -84.61498121591342 0.6250057626472781 M-84.53489270250937 1.872449005199809 C-84.56235029673843 1.4447748117110182, -84.58980789096749 1.0171006182222273, -84.61498121591342 0.6250057626472781 M-84.61498121591342 0.6250057626472781 C-84.61498121591342 0.35559111841101987, -84.61498121591342 0.0861764741747616, -84.61498121591342 -0.6250057626472687 M-84.61498121591342 0.6250057626472781 C-84.61498121591342 0.30131337200659336, -84.61498121591342 -0.02237901863409142, -84.61498121591342 -0.6250057626472687 M-84.61498121591342 -0.6250057626472687 C-84.58709050301833 -1.0594261289664508, -84.55919979012324 -1.493846495285633, -84.53489270250937 -1.8724490051997822 M-84.61498121591342 -0.6250057626472687 C-84.58999280350307 -1.0142204562219128, -84.56500439109271 -1.403435149796557, -84.53489270250937 -1.8724490051997822 M-84.53489270250937 -1.8724490051997822 C-84.47446943937689 -2.3410799021323996, -84.41404617624441 -2.8097107990650168, -84.37504477658177 -3.112197953150895 M-84.53489270250937 -1.8724490051997822 C-84.4762363979473 -2.3273757203856262, -84.41758009338525 -2.78230243557147, -84.37504477658177 -3.112197953150895 M-84.37504477658177 -3.112197953150895 C-84.29813495005173 -3.507113657485034, -84.2212251235217 -3.902029361819173, -84.13609428754556 -4.339158212148126 M-84.37504477658177 -3.112197953150895 C-84.28183714359558 -3.5907994490947805, -84.18862951060939 -4.069400945038666, -84.13609428754556 -4.339158212148126 M-84.13609428754556 -4.339158212148126 C-84.04710492590745 -4.678513216307583, -83.95811556426932 -5.01786822046704, -83.81902313421489 -5.548287939305123 M-84.13609428754556 -4.339158212148126 C-84.05612266548832 -4.644124666972626, -83.97615104343109 -4.949091121797126, -83.81902313421489 -5.548287939305123 M-83.81902313421489 -5.548287939305123 C-83.71283523764836 -5.86810896501977, -83.60664734108184 -6.187929990734418, -83.42513422997033 -6.734618561215485 M-83.81902313421489 -5.548287939305123 C-83.69429005480961 -5.923964100956468, -83.56955697540434 -6.299640262607814, -83.42513422997033 -6.734618561215485 M-83.42513422997033 -6.734618561215485 C-83.30472591250438 -7.032029433292836, -83.18431759503842 -7.329440305370188, -82.95604614880834 -7.893275190886676 M-83.42513422997033 -6.734618561215485 C-83.30456574925343 -7.032425039619206, -83.18399726853654 -7.330231518022926, -82.95604614880834 -7.893275190886676 M-82.95604614880834 -7.893275190886676 C-82.8470718903962 -8.119562570155095, -82.73809763198406 -8.345849949423513, -82.4136864742735 -9.019496659696282 M-82.95604614880834 -7.893275190886676 C-82.82693603088148 -8.16137511327578, -82.69782591295463 -8.42947503566488, -82.4136864742735 -9.019496659696282 M-82.4136864742735 -9.019496659696282 C-82.26338966370905 -9.286363866055861, -82.1130928531446 -9.553231072415441, -81.80028387860425 -10.108655082055243 M-82.4136864742735 -9.019496659696282 C-82.26431686908343 -9.284717519023905, -82.11494726389337 -9.549938378351527, -81.80028387860425 -10.108655082055243 M-81.80028387860425 -10.108655082055243 C-81.57610014924951 -10.453061492104478, -81.35191641989479 -10.797467902153713, -81.11835896464063 -11.156274872382308 M-81.80028387860425 -10.108655082055243 C-81.54751245458098 -10.49697986798623, -81.29474103055772 -10.885304653917215, -81.11835896464063 -11.156274872382308 M-81.11835896464063 -11.156274872382308 C-80.82436033986198 -11.550206245759993, -80.53036171508333 -11.944137619137678, -80.37071390812659 -12.158051136245302 M-81.11835896464063 -11.156274872382308 C-80.86998850705773 -11.489068658529233, -80.62161804947483 -11.821862444676158, -80.37071390812659 -12.158051136245302 M-80.37071390812659 -12.158051136245302 C-80.16461593984705 -12.400145537093055, -79.95851797156752 -12.64223993794081, -79.56042094296866 -13.10986736009567 M-80.37071390812659 -12.158051136245302 C-80.11830334562605 -12.45454694552632, -79.8658927831255 -12.751042754807337, -79.56042094296866 -13.10986736009567 M-79.56042094296866 -13.10986736009567 C-79.22510070207075 -13.456113039126539, -78.88978046117282 -13.802358718157407, -78.69080973676799 -14.007812326905677 M-79.56042094296866 -13.10986736009567 C-79.35044298522851 -13.326686840973311, -79.14046502748837 -13.54350632185095, -78.69080973676799 -14.007812326905677 M-78.69080973676799 -14.007812326905677 C-78.48740771389092 -14.19253666236002, -78.28400569101385 -14.377260997814362, -77.7654537085019 -14.848196188198107 M-78.69080973676799 -14.007812326905677 C-78.4866242193684 -14.19324821135524, -78.28243870196881 -14.378684095804802, -77.7654537085019 -14.848196188198107 M-77.7654537085019 -14.848196188198107 C-77.50988713070207 -15.052003733081206, -77.25432055290226 -15.255811277964304, -76.78815534457871 -15.627565626425149 M-77.7654537085019 -14.848196188198107 C-77.40362651839307 -15.13674374368399, -77.04179932828424 -15.425291299169873, -76.78815534457871 -15.627565626425149 M-76.78815534457871 -15.627565626425149 C-76.53885626068791 -15.801465875363975, -76.28955717679709 -15.975366124302802, -75.76293057360571 -16.342718045390885 M-76.78815534457871 -15.627565626425149 C-76.5615348811562 -15.785646251466947, -76.33491441773369 -15.943726876508745, -75.76293057360571 -16.342718045390885 M-75.76293057360571 -16.342718045390885 C-75.37011397354784 -16.580845776792536, -74.97729737348999 -16.818973508194187, -74.69399226407678 -16.99071473040609 M-75.76293057360571 -16.342718045390885 C-75.37151599503078 -16.57999586313039, -74.98010141645585 -16.817273680869892, -74.69399226407678 -16.99071473040609 M-74.69399226407678 -16.99071473040609 C-74.42367863495538 -17.131737177574585, -74.15336500583398 -17.27275962474308, -73.5857329127924 -17.56889292409717 M-74.69399226407678 -16.99071473040609 C-74.47155853123192 -17.10675826635565, -74.24912479838706 -17.222801802305213, -73.5857329127924 -17.56889292409717 M-73.5857329127924 -17.56889292409717 C-73.30224851453302 -17.694383057940705, -73.01876411627364 -17.81987319178424, -72.44270659514781 -18.07487676824742 M-73.5857329127924 -17.56889292409717 C-73.22518275714695 -17.728497782661044, -72.86463260150153 -17.88810264122492, -72.44270659514781 -18.07487676824742 M-72.44270659514781 -18.07487676824742 C-72.08193328751534 -18.207644680408066, -71.72115997988287 -18.34041259256871, -71.26961025146062 -18.506587066708033 M-72.44270659514781 -18.07487676824742 C-71.98360529670063 -18.24383028996186, -71.52450399825346 -18.412783811676302, -71.26961025146062 -18.506587066708033 M-71.26961025146062 -18.506587066708033 C-70.81908199844172 -18.640301487332987, -70.3685537454228 -18.77401590795794, -70.07126438623541 -18.862249829261067 M-71.26961025146062 -18.506587066708033 C-70.92848320912525 -18.607831782260785, -70.58735616678987 -18.70907649781354, -70.07126438623541 -18.862249829261067 M-70.07126438623541 -18.862249829261067 C-69.78335053277499 -18.927964287499933, -69.49543667931455 -18.993678745738798, -68.85259325967677 -19.140403561325773 M-70.07126438623541 -18.862249829261067 C-69.7155596250231 -18.943437119817283, -69.35985486381081 -19.024624410373498, -68.85259325967677 -19.140403561325773 M-68.85259325967677 -19.140403561325773 C-68.40631856231053 -19.212553793483977, -67.96004386494431 -19.284704025642185, -67.61860465284788 -19.3399052695533 M-68.85259325967677 -19.140403561325773 C-68.52172025728 -19.193896542394825, -68.19084725488324 -19.24738952346388, -67.61860465284788 -19.3399052695533 M-67.61860465284788 -19.3399052695533 C-67.13093065877172 -19.386950593248038, -66.64325666469557 -19.433995916942777, -66.3743692896239 -19.45993515863156 M-67.61860465284788 -19.3399052695533 C-67.2013826323978 -19.380154176083224, -66.78416061194773 -19.420403082613152, -66.3743692896239 -19.45993515863156 M-66.3743692896239 -19.45993515863156 C-66.11029434798157 -19.468403528019337, -65.84621940633923 -19.476871897407115, -65.125 -19.5 M-66.3743692896239 -19.45993515863156 C-65.94229374290067 -19.47379098043094, -65.51021819617745 -19.487646802230323, -65.125 -19.5 M-65.125 -19.5 C-65.125 -19.5, -65.125 -19.5, -65.125 -19.5 M-65.125 -19.5 C-65.125 -19.5, -65.125 -19.5, -65.125 -19.5" stroke="#2A3548" stroke-width="1.3" fill="none" stroke-dasharray="0 0" style=""/></g><g class="label" style="" transform="translate(-72.25, -12)"><rect/><foreignObject width="144.5" height="24"><div xmlns="http://www.w3.org/1999/xhtml" style="display: table-cell; white-space: nowrap; line-height: 1.5; max-width: 200px; text-align: center;"><span class="nodeLabel"><p>Website visitor</p></span></div></foreignObject></g></g><g class="node default" id="my-svg-flowchart-P-1" data-look="classic" transform="translate(299.8671875, 162)"><rect class="basic label-container" style="" x="-54.0859375" y="-27" width="108.171875" height="54"/><g class="label" style="" transform="translate(-24.0859375, -12)"><rect/><foreignObject width="48.171875" height="24"><div xmlns="http://www.w3.org/1999/xhtml" style="display: table-cell; white-space: nowrap; line-height: 1.5; max-width: 200px; text-align: center;"><span class="nodeLabel"><p>Pixel</p></span></div></foreignObject></g></g><g class="node default" id="my-svg-flowchart-ID-3" data-look="classic" transform="translate(518.890625, 292)"><rect class="basic label-container" style="" x="-121.515625" y="-27" width="243.03125" height="54"/><g class="label" style="" transform="translate(-91.515625, -12)"><rect/><foreignObject width="183.03125" height="24"><div xmlns="http://www.w3.org/1999/xhtml" style="display: table-cell; white-space: nowrap; line-height: 1.5; max-width: 200px; text-align: center;"><span class="nodeLabel"><p>Identity resolution</p></span></div></foreignObject></g></g><g class="node default" id="my-svg-flowchart-PH-4" data-look="classic" transform="translate(495.8359375, 162)"><rect class="basic label-container" style="" x="-111.8828125" y="-27" width="223.765625" height="54"/><g class="label" style="" transform="translate(-81.8828125, -12)"><rect/><foreignObject width="163.765625" height="24"><div xmlns="http://www.w3.org/1999/xhtml" style="display: table-cell; white-space: nowrap; line-height: 1.5; max-width: 200px; text-align: center;"><span class="nodeLabel"><p>Product analytics</p></span></div></foreignObject></g></g><g class="node default" id="my-svg-flowchart-WH-6" data-look="classic" transform="translate(725.515625, 162)"><rect class="basic label-container" style="" x="-87.796875" y="-39" width="175.59375" height="78"/><g class="label" style="" transform="translate(-57.796875, -24)"><rect/><foreignObject width="115.59375" height="48"><div xmlns="http://www.w3.org/1999/xhtml" style="display: table-cell; white-space: nowrap; line-height: 1.5; max-width: 200px; text-align: center;"><span class="nodeLabel"><p>Your systems<br />webhook</p></span></div></foreignObject></g></g><g class="node default" id="my-svg-flowchart-CO-9" data-look="classic" transform="translate(518.890625, 398)"><rect class="basic label-container" style="" x="-107.0625" y="-39" width="214.125" height="78"/><g class="label" style="" transform="translate(-77.0625, -24)"><rect/><foreignObject width="154.125" height="48"><div xmlns="http://www.w3.org/1999/xhtml" style="display: table-cell; white-space: nowrap; line-height: 1.5; max-width: 200px; text-align: center;"><span class="nodeLabel"><p>Company + person<br />(when known)</p></span></div></foreignObject></g></g><g class="node default" id="my-svg-flowchart-S-11" data-look="classic" transform="translate(518.890625, 504)"><rect class="basic label-container" style="" x="-63.71875" y="-27" width="127.4375" height="54"/><g class="label" style="" transform="translate(-33.71875, -12)"><rect/><foreignObject width="67.4375" height="24"><div xmlns="http://www.w3.org/1999/xhtml" style="display: table-cell; white-space: nowrap; line-height: 1.5; max-width: 200px; text-align: center;"><span class="nodeLabel"><p>Signals</p></span></div></foreignObject></g></g><g class="node default" id="my-svg-flowchart-SC-13" data-look="classic" transform="translate(518.890625, 610)"><rect class="basic label-container" style="" x="-137.515625" y="-39" width="275.03125" height="78"/><g class="label" style="" transform="translate(-107.515625, -24)"><rect/><foreignObject width="215.03125" height="48"><div xmlns="http://www.w3.org/1999/xhtml" style="display: table; white-space: break-spaces; line-height: 1.5; max-width: 200px; text-align: center; width: 200px;"><span class="nodeLabel"><p>Score<br />Fit ⬩ Intent ⬩ Timing</p></span></div></foreignObject></g></g><g class="node default accent" id="my-svg-flowchart-PL-14" data-look="classic" transform="translate(518.890625, 844)"><rect class="basic label-container" style="fill:#7C3AED !important;stroke:#7C3AED !important" x="-54.0859375" y="-27" width="108.171875" height="54"/><g class="label" style="color:#FFFFFF !important" transform="translate(-24.0859375, -12)"><rect/><foreignObject width="48.171875" height="24"><div style="color: rgb(255, 255, 255) !important; display: table-cell; white-space: nowrap; line-height: 1.5; max-width: 200px; text-align: center;" xmlns="http://www.w3.org/1999/xhtml"><span style="color:#FFFFFF !important" class="nodeLabel"><p>Plays</p></span></div></foreignObject></g></g><g class="node default" id="my-svg-flowchart-O1-15" data-look="classic" transform="translate(180.1484375, 950)"><rect class="basic label-container" style="" x="-147.1484375" y="-39" width="294.296875" height="78"/><g class="label" style="" transform="translate(-117.1484375, -24)"><rect/><foreignObject width="234.296875" height="48"><div xmlns="http://www.w3.org/1999/xhtml" style="display: table; white-space: break-spaces; line-height: 1.5; max-width: 200px; text-align: center; width: 200px;"><span class="nodeLabel"><p>Alerts<br />Slack ⬩ Teams ⬩ Discord</p></span></div></foreignObject></g></g><g class="node default" id="my-svg-flowchart-O2-17" data-look="classic" transform="translate(518.890625, 950)"><rect class="basic label-container" style="" x="-161.59375" y="-39" width="323.1875" height="78"/><g class="label" style="" transform="translate(-131.59375, -24)"><rect/><foreignObject width="263.1875" height="48"><div xmlns="http://www.w3.org/1999/xhtml" style="display: table; white-space: break-spaces; line-height: 1.5; max-width: 200px; text-align: center; width: 200px;"><span class="nodeLabel"><p>Tool updates<br />CRM ⬩ sequences ⬩ webhooks</p></span></div></foreignObject></g></g><g class="node default" id="my-svg-flowchart-O3-19" data-look="classic" transform="translate(840.484375, 950)"><rect class="basic label-container" style="" x="-130" y="-39" width="260" height="78"/><g class="label" style="" transform="translate(-100, -24)"><rect/><foreignObject width="200" height="48"><div xmlns="http://www.w3.org/1999/xhtml" style="display: table; white-space: break-spaces; line-height: 1.5; max-width: 200px; text-align: center; width: 200px;"><span class="nodeLabel"><p>On-page personalization</p></span></div></foreignObject></g></g></g></g></g><defs><filter id="my-svg-drop-shadow" height="130%" width="130%"><feDropShadow dx="4" dy="4" stdDeviation="0" flood-opacity="0.06" flood-color="#000000"/></filter></defs><defs><filter id="my-svg-drop-shadow-small" height="150%" width="150%"><feDropShadow dx="2" dy="2" stdDeviation="0" flood-opacity="0.06" flood-color="#000000"/></filter></defs><linearGradient id="my-svg-gradient" gradientUnits="objectBoundingBox" x1="0%" y1="0%" x2="100%" y2="0%"><stop offset="0%" stop-color="#2A3548" stop-opacity="1"/><stop offset="100%" stop-color="hsl(215.2941176471, 0%, 1.9607843137%)" stop-opacity="1"/></linearGradient></svg>