<svg id="my-svg" width="100%" xmlns="http://www.w3.org/2000/svg" xmlns:xlink="http://www.w3.org/1999/xlink" class="flowchart" style="max-width: 616.47px; background-color: transparent;" viewBox="0 0 616.470458984375 809" role="graphics-document document" aria-roledescription="flowchart-v2"><style>#my-svg{font-family:ui-monospace,SFMono-Regular,Menlo,monospace;font-size:16px;fill:#1F2937;}@keyframes edge-animation-frame{from{stroke-dashoffset:0;}}@keyframes dash{to{stroke-dashoffset:0;}}#my-svg .edge-animation-slow{stroke-dasharray:9,5!important;stroke-dashoffset:900;animation:dash 50s linear infinite;stroke-linecap:round;}#my-svg .edge-animation-fast{stroke-dasharray:9,5!important;stroke-dashoffset:900;animation:dash 20s linear infinite;stroke-linecap:round;}#my-svg .error-icon{fill:#F8FAFC;}#my-svg .error-text{fill:#070503;stroke:#070503;}#my-svg .edge-thickness-normal{stroke-width:1px;}#my-svg .edge-thickness-thick{stroke-width:3.5px;}#my-svg .edge-pattern-solid{stroke-dasharray:0;}#my-svg .edge-thickness-invisible{stroke-width:0;fill:none;}#my-svg .edge-pattern-dashed{stroke-dasharray:3;}#my-svg .edge-pattern-dotted{stroke-dasharray:2;}#my-svg .marker{fill:#94A3B8;stroke:#94A3B8;}#my-svg .marker.cross{stroke:#94A3B8;}#my-svg svg{font-family:ui-monospace,SFMono-Regular,Menlo,monospace;font-size:16px;}#my-svg p{margin:0;}#my-svg .label{font-family:ui-monospace,SFMono-Regular,Menlo,monospace;color:#1F2937;}#my-svg .cluster-label text{fill:#070503;}#my-svg .cluster-label span{color:#070503;}#my-svg .cluster-label span p{background-color:transparent;}#my-svg .label text,#my-svg span{fill:#1F2937;color:#1F2937;}#my-svg .node rect,#my-svg .node circle,#my-svg .node ellipse,#my-svg .node polygon,#my-svg .node path{fill:#F8FAFC;stroke:#94A3B8;stroke-width:1px;}#my-svg .rough-node .label text,#my-svg .node .label text,#my-svg .image-shape .label,#my-svg .icon-shape .label{text-anchor:middle;}#my-svg .node .katex path{fill:#000;stroke:#000;stroke-width:1px;}#my-svg .rough-node .label,#my-svg .node .label,#my-svg .image-shape .label,#my-svg .icon-shape .label{text-align:center;}#my-svg .node.clickable{cursor:pointer;}#my-svg .root .anchor path{fill:#94A3B8!important;stroke-width:0;stroke:#94A3B8;}#my-svg .arrowheadPath{fill:#0b0b0b;}#my-svg .edgePath .path{stroke:#94A3B8;stroke-width:1px;}#my-svg .flowchart-link{stroke:#94A3B8;fill:none;}#my-svg .edgeLabel{background-color:#FFFFFF;text-align:center;}#my-svg .edgeLabel p{background-color:#FFFFFF;}#my-svg .edgeLabel rect{opacity:0.5;background-color:#FFFFFF;fill:#FFFFFF;}#my-svg .labelBkg{background-color:rgba(255, 255, 255, 0.5);}#my-svg .cluster rect{fill:transparent;stroke:hsl(210, 0%, 88.0392156863%);stroke-width:1px;}#my-svg .cluster text{fill:#070503;}#my-svg .cluster span{color:#070503;}#my-svg div.mermaidTooltip{position:absolute;text-align:center;max-width:200px;padding:2px;font-family:ui-monospace,SFMono-Regular,Menlo,monospace;font-size:12px;background:#F8FAFC;border:1px solid hsl(210, 0%, 88.0392156863%);border-radius:2px;pointer-events:none;z-index:100;}#my-svg .flowchartTitleText{text-anchor:middle;font-size:18px;fill:#1F2937;}#my-svg rect.text{fill:none;stroke-width:0;}#my-svg .icon-shape,#my-svg .image-shape{background-color:#FFFFFF;text-align:center;}#my-svg .icon-shape p,#my-svg .image-shape p{background-color:#FFFFFF;padding:2px;}#my-svg .icon-shape .label rect,#my-svg .image-shape .label rect{opacity:0.5;background-color:#FFFFFF;fill:#FFFFFF;}#my-svg .label-icon{display:inline-block;height:1em;overflow:visible;vertical-align:-0.125em;}#my-svg .node .label-icon path{fill:currentColor;stroke:revert;stroke-width:revert;}#my-svg .node .neo-node{stroke:#94A3B8;}#my-svg [data-look="neo"].node rect,#my-svg [data-look="neo"].cluster rect,#my-svg [data-look="neo"].node polygon{stroke:url(#my-svg-gradient);filter:drop-shadow( 1px 2px 2px rgba(185,185,185,1));}#my-svg [data-look="neo"].node path{stroke:url(#my-svg-gradient);stroke-width:1px;}#my-svg [data-look="neo"].node .outer-path{filter:drop-shadow( 1px 2px 2px rgba(185,185,185,1));}#my-svg [data-look="neo"].node .neo-line path{stroke:#94A3B8;filter:none;}#my-svg [data-look="neo"].node circle{stroke:url(#my-svg-gradient);filter:drop-shadow( 1px 2px 2px rgba(185,185,185,1));}#my-svg [data-look="neo"].node circle .state-start{fill:#000000;}#my-svg [data-look="neo"].icon-shape .icon{fill:url(#my-svg-gradient);filter:drop-shadow( 1px 2px 2px rgba(185,185,185,1));}#my-svg [data-look="neo"].icon-shape .icon-neo path{stroke:url(#my-svg-gradient);filter:drop-shadow( 1px 2px 2px rgba(185,185,185,1));}#my-svg :root{--mermaid-font-family:"trebuchet ms",verdana,arial,sans-serif;}#my-svg .accent&gt;*{fill:rgb(124, 58, 237)!important;stroke:rgb(124, 58, 237)!important;color:rgb(255, 255, 255)!important;}#my-svg .accent span{fill:rgb(124, 58, 237)!important;stroke:rgb(124, 58, 237)!important;color:rgb(255, 255, 255)!important;}#my-svg .accent tspan{fill:rgb(255, 255, 255)!important;}</style><g><marker id="my-svg_flowchart-v2-pointEnd" class="marker flowchart-v2" viewBox="0 0 10 10" refX="5" refY="5" markerUnits="userSpaceOnUse" markerWidth="8" markerHeight="8" orient="auto"><path d="M 0 0 L 10 5 L 0 10 z" class="arrowMarkerPath" style="stroke-width: 1; stroke-dasharray: 1, 0;"/></marker><marker id="my-svg_flowchart-v2-pointStart" class="marker flowchart-v2" viewBox="0 0 10 10" refX="4.5" refY="5" markerUnits="userSpaceOnUse" markerWidth="8" markerHeight="8" orient="auto"><path d="M 0 5 L 10 10 L 10 0 z" class="arrowMarkerPath" style="stroke-width: 1; stroke-dasharray: 1, 0;"/></marker><marker id="my-svg_flowchart-v2-pointEnd-margin" class="marker flowchart-v2" viewBox="0 0 11.5 14" refX="11.5" refY="7" markerUnits="userSpaceOnUse" markerWidth="10.5" markerHeight="14" orient="auto"><path d="M 0 0 L 11.5 7 L 0 14 z" class="arrowMarkerPath" style="stroke-width: 0; stroke-dasharray: 1, 0;"/></marker><marker id="my-svg_flowchart-v2-pointStart-margin" class="marker flowchart-v2" viewBox="0 0 11.5 14" refX="1" refY="7" markerUnits="userSpaceOnUse" markerWidth="11.5" markerHeight="14" orient="auto"><polygon points="0,7 11.5,14 11.5,0" class="arrowMarkerPath" style="stroke-width: 0; stroke-dasharray: 1, 0;"/></marker><marker id="my-svg_flowchart-v2-circleEnd" class="marker flowchart-v2" viewBox="0 0 10 10" refX="11" refY="5" markerUnits="userSpaceOnUse" markerWidth="11" markerHeight="11" orient="auto"><circle cx="5" cy="5" r="5" class="arrowMarkerPath" style="stroke-width: 1; stroke-dasharray: 1, 0;"/></marker><marker id="my-svg_flowchart-v2-circleStart" class="marker flowchart-v2" viewBox="0 0 10 10" refX="-1" refY="5" markerUnits="userSpaceOnUse" markerWidth="11" markerHeight="11" orient="auto"><circle cx="5" cy="5" r="5" class="arrowMarkerPath" style="stroke-width: 1; stroke-dasharray: 1, 0;"/></marker><marker id="my-svg_flowchart-v2-circleEnd-margin" class="marker flowchart-v2" viewBox="0 0 10 10" refY="5" refX="12.25" markerUnits="userSpaceOnUse" markerWidth="14" markerHeight="14" orient="auto"><circle cx="5" cy="5" r="5" class="arrowMarkerPath" style="stroke-width: 0; stroke-dasharray: 1, 0;"/></marker><marker id="my-svg_flowchart-v2-circleStart-margin" class="marker flowchart-v2" viewBox="0 0 10 10" refX="-2" refY="5" markerUnits="userSpaceOnUse" markerWidth="14" markerHeight="14" orient="auto"><circle cx="5" cy="5" r="5" class="arrowMarkerPath" style="stroke-width: 0; stroke-dasharray: 1, 0;"/></marker><marker id="my-svg_flowchart-v2-crossEnd" class="marker cross flowchart-v2" viewBox="0 0 11 11" refX="12" refY="5.2" markerUnits="userSpaceOnUse" markerWidth="11" markerHeight="11" orient="auto"><path d="M 1,1 l 9,9 M 10,1 l -9,9" class="arrowMarkerPath" style="stroke-width: 2; stroke-dasharray: 1, 0;"/></marker><marker id="my-svg_flowchart-v2-crossStart" class="marker cross flowchart-v2" viewBox="0 0 11 11" refX="-1" refY="5.2" markerUnits="userSpaceOnUse" markerWidth="11" markerHeight="11" orient="auto"><path d="M 1,1 l 9,9 M 10,1 l -9,9" class="arrowMarkerPath" style="stroke-width: 2; stroke-dasharray: 1, 0;"/></marker><marker id="my-svg_flowchart-v2-crossEnd-margin" class="marker cross flowchart-v2" viewBox="0 0 15 15" refX="17.7" refY="7.5" markerUnits="userSpaceOnUse" markerWidth="12" markerHeight="12" orient="auto"><path d="M 1,1 L 14,14 M 1,14 L 14,1" class="arrowMarkerPath" style="stroke-width: 2.5;"/></marker><marker id="my-svg_flowchart-v2-crossStart-margin" class="marker cross flowchart-v2" viewBox="0 0 15 15" refX="-3.5" refY="7.5" markerUnits="userSpaceOnUse" markerWidth="12" markerHeight="12" orient="auto"><path d="M 1,1 L 14,14 M 1,14 L 14,1" class="arrowMarkerPath" style="stroke-width: 2.5; stroke-dasharray: 1, 0;"/></marker><g class="root"><g class="clusters"/><g class="edgePaths"><path d="M93.115,47.5L93.032,50.75C92.948,54,92.782,60.5,92.698,68.417C92.615,76.333,92.615,85.667,92.615,90.333L92.615,95" id="my-svg-L_V_P_0" class="edge-thickness-normal edge-pattern-solid edge-thickness-normal edge-pattern-solid flowchart-link" style=";" data-edge="true" data-et="edge" data-id="L_V_P_0" data-points="W3sieCI6OTMuMTE0OTgyNjA0OTgwNDcsInkiOjQ3LjV9LHsieCI6OTIuNjE0OTgyNjA0OTgwNDcsInkiOjY3fSx7IngiOjkyLjYxNDk4MjYwNDk4MDQ3LCJ5Ijo5OX1d" data-look="classic" marker-end="url(#my-svg_flowchart-v2-pointEnd)"/><path d="M92.615,153L92.615,158.333C92.615,163.667,92.615,174.333,105.865,182.845C119.115,191.356,145.616,197.711,158.866,200.889L172.116,204.067" id="my-svg-L_P_ID_0" class="edge-thickness-normal edge-pattern-solid edge-thickness-normal edge-pattern-solid flowchart-link" style=";" data-edge="true" data-et="edge" data-id="L_P_ID_0" data-points="W3sieCI6OTIuNjE0OTgyNjA0OTgwNDcsInkiOjE1M30seyJ4Ijo5Mi42MTQ5ODI2MDQ5ODA0NywieSI6MTg1fSx7IngiOjE3Ni4wMDU5NDAwNTE3ODg5NywieSI6MjA1fV0=" data-look="classic" marker-end="url(#my-svg_flowchart-v2-pointEnd)"/><path d="M288.584,153L288.584,158.333C288.584,163.667,288.584,174.333,288.584,182.333C288.584,190.333,288.584,195.667,288.584,198.333L288.584,201" id="my-svg-L_PH_ID_0" class="edge-thickness-normal edge-pattern-solid edge-thickness-normal edge-pattern-solid flowchart-link" style=";" data-edge="true" data-et="edge" data-id="L_PH_ID_0" data-points="W3sieCI6Mjg4LjU4MzczMjYwNDk4MDQ3LCJ5IjoxNTN9LHsieCI6Mjg4LjU4MzczMjYwNDk4MDQ3LCJ5IjoxODV9LHsieCI6Mjg4LjU4MzczMjYwNDk4MDQ3LCJ5IjoyMDV9XQ==" data-look="classic" marker-end="url(#my-svg_flowchart-v2-pointEnd)"/><path d="M518.263,165L518.263,168.333C518.263,171.667,518.263,178.333,500.889,185.222C483.515,192.111,448.767,199.221,431.392,202.777L414.018,206.332" id="my-svg-L_WH_ID_0" class="edge-thickness-normal edge-pattern-solid edge-thickness-normal edge-pattern-solid flowchart-link" style=";" data-edge="true" data-et="edge" data-id="L_WH_ID_0" data-points="W3sieCI6NTE4LjI2MzQyMDEwNDk4MDUsInkiOjE2NX0seyJ4Ijo1MTguMjYzNDIwMTA0OTgwNSwieSI6MTg1fSx7IngiOjQxMC4wOTkzNTc2MDQ5ODA0NywieSI6MjA3LjEzMzkxNjExOTU5NTl9XQ==" data-look="classic" marker-end="url(#my-svg_flowchart-v2-pointEnd)"/><path d="M288.584,259L288.584,262.333C288.584,265.667,288.584,272.333,288.584,278.333C288.584,284.333,288.584,289.667,288.584,292.333L288.584,295" id="my-svg-L_ID_CO_0" class="edge-thickness-normal edge-pattern-solid edge-thickness-normal edge-pattern-solid flowchart-link" style=";" data-edge="true" data-et="edge" data-id="L_ID_CO_0" data-points="W3sieCI6Mjg4LjU4MzczMjYwNDk4MDQ3LCJ5IjoyNTl9LHsieCI6Mjg4LjU4MzczMjYwNDk4MDQ3LCJ5IjoyNzl9LHsieCI6Mjg4LjU4MzczMjYwNDk4MDQ3LCJ5IjoyOTl9XQ==" data-look="classic" marker-end="url(#my-svg_flowchart-v2-pointEnd)"/><path d="M288.584,377L288.584,380.333C288.584,383.667,288.584,390.333,288.584,396.333C288.584,402.333,288.584,407.667,288.584,410.333L288.584,413" id="my-svg-L_CO_S_0" class="edge-thickness-normal edge-pattern-solid edge-thickness-normal edge-pattern-solid flowchart-link" style=";" data-edge="true" data-et="edge" data-id="L_CO_S_0" data-points="W3sieCI6Mjg4LjU4MzczMjYwNDk4MDQ3LCJ5IjozNzd9LHsieCI6Mjg4LjU4MzczMjYwNDk4MDQ3LCJ5IjozOTd9LHsieCI6Mjg4LjU4MzczMjYwNDk4MDQ3LCJ5Ijo0MTd9XQ==" data-look="classic" marker-end="url(#my-svg_flowchart-v2-pointEnd)"/><path d="M288.584,471L288.584,474.333C288.584,477.667,288.584,484.333,288.584,490.333C288.584,496.333,288.584,501.667,288.584,504.333L288.584,507" id="my-svg-L_S_SC_0" class="edge-thickness-normal edge-pattern-solid edge-thickness-normal edge-pattern-solid flowchart-link" style=";" data-edge="true" data-et="edge" data-id="L_S_SC_0" data-points="W3sieCI6Mjg4LjU4MzczMjYwNDk4MDQ3LCJ5Ijo0NzF9LHsieCI6Mjg4LjU4MzczMjYwNDk4MDQ3LCJ5Ijo0OTF9LHsieCI6Mjg4LjU4MzczMjYwNDk4MDQ3LCJ5Ijo1MTF9XQ==" data-look="classic" marker-end="url(#my-svg_flowchart-v2-pointEnd)"/><path d="M288.584,589L288.584,592.333C288.584,595.667,288.584,602.333,288.584,608.333C288.584,614.333,288.584,619.667,288.584,622.333L288.584,625" id="my-svg-L_SC_PL_0" class="edge-thickness-normal edge-pattern-solid edge-thickness-normal edge-pattern-solid flowchart-link" style=";" data-edge="true" data-et="edge" data-id="L_SC_PL_0" data-points="W3sieCI6Mjg4LjU4MzczMjYwNDk4MDQ3LCJ5Ijo1ODl9LHsieCI6Mjg4LjU4MzczMjYwNDk4MDQ3LCJ5Ijo2MDl9LHsieCI6Mjg4LjU4MzczMjYwNDk4MDQ3LCJ5Ijo2Mjl9XQ==" data-look="classic" marker-end="url(#my-svg_flowchart-v2-pointEnd)"/><path d="M234.498,669.821L212.858,675.351C191.218,680.881,147.938,691.94,126.298,702.137C104.658,712.333,104.658,721.667,104.658,726.333L104.658,731" id="my-svg-L_PL_O1_0" class="edge-thickness-normal edge-pattern-solid edge-thickness-normal edge-pattern-solid flowchart-link" style=";" data-edge="true" data-et="edge" data-id="L_PL_O1_0" data-points="W3sieCI6MjM0LjQ5Nzc5NTEwNDk4MDQ3LCJ5Ijo2NjkuODIxMDA0NTY2MjF9LHsieCI6MTA0LjY1Nzk1MTM1NDk4MDQ3LCJ5Ijo3MDN9LHsieCI6MTA0LjY1Nzk1MTM1NDk4MDQ3LCJ5Ijo3MzV9XQ==" data-look="classic" marker-end="url(#my-svg_flowchart-v2-pointEnd)"/><path d="M292.733,683L293.245,686.333C293.757,689.667,294.782,696.333,295.294,704.333C295.806,712.333,295.806,721.667,295.806,726.333L295.806,731" id="my-svg-L_PL_O2_0" class="edge-thickness-normal edge-pattern-solid edge-thickness-normal edge-pattern-solid flowchart-link" style=";" data-edge="true" data-et="edge" data-id="L_PL_O2_0" data-points="W3sieCI6MjkyLjczMjkxODExMDI5OTY0LCJ5Ijo2ODN9LHsieCI6Mjk1LjgwNjM4ODg1NDk4MDQ3LCJ5Ijo3MDN9LHsieCI6Mjk1LjgwNjM4ODg1NDk4MDQ3LCJ5Ijo3MzV9XQ==" data-look="classic" marker-end="url(#my-svg_flowchart-v2-pointEnd)"/><path d="M342.67,667.68L369.928,673.567C397.187,679.453,451.704,691.227,478.962,699.78C506.22,708.333,506.22,713.667,506.22,716.333L506.22,719" id="my-svg-L_PL_O3_0" class="edge-thickness-normal edge-pattern-solid edge-thickness-normal edge-pattern-solid flowchart-link" style=";" data-edge="true" data-et="edge" data-id="L_PL_O3_0" data-points="W3sieCI6MzQyLjY2OTY3MDEwNDk4MDQ3LCJ5Ijo2NjcuNjgwMTkzODQzNjY4N30seyJ4Ijo1MDYuMjIwNDUxMzU0OTgwNDcsInkiOjcwM30seyJ4Ijo1MDYuMjIwNDUxMzU0OTgwNDcsInkiOjcyM31d" data-look="classic" marker-end="url(#my-svg_flowchart-v2-pointEnd)"/></g><g class="edgeLabels"><g class="edgeLabel"><g class="label" data-id="L_V_P_0" transform="translate(0, 0)"><foreignObject width="0" height="0"><div xmlns="http://www.w3.org/1999/xhtml" class="labelBkg" style="display: table-cell; white-space: nowrap; line-height: 1.5; max-width: 200px; text-align: center;"><span class="edgeLabel"></span></div></foreignObject></g></g><g class="edgeLabel"><g class="label" data-id="L_P_ID_0" transform="translate(0, 0)"><foreignObject width="0" height="0"><div xmlns="http://www.w3.org/1999/xhtml" class="labelBkg" style="display: table-cell; white-space: nowrap; line-height: 1.5; max-width: 200px; text-align: center;"><span class="edgeLabel"></span></div></foreignObject></g></g><g class="edgeLabel"><g class="label" data-id="L_PH_ID_0" transform="translate(0, 0)"><foreignObject width="0" height="0"><div xmlns="http://www.w3.org/1999/xhtml" class="labelBkg" style="display: table-cell; white-space: nowrap; line-height: 1.5; max-width: 200px; text-align: center;"><span class="edgeLabel"></span></div></foreignObject></g></g><g class="edgeLabel"><g class="label" data-id="L_WH_ID_0" transform="translate(0, 0)"><foreignObject width="0" height="0"><div xmlns="http://www.w3.org/1999/xhtml" class="labelBkg" style="display: table-cell; white-space: nowrap; line-height: 1.5; max-width: 200px; text-align: center;"><span class="edgeLabel"></span></div></foreignObject></g></g><g class="edgeLabel"><g class="label" data-id="L_ID_CO_0" transform="translate(0, 0)"><foreignObject width="0" height="0"><div xmlns="http://www.w3.org/1999/xhtml" class="labelBkg" style="display: table-cell; white-space: nowrap; line-height: 1.5; max-width: 200px; text-align: center;"><span class="edgeLabel"></span></div></foreignObject></g></g><g class="edgeLabel"><g class="label" data-id="L_CO_S_0" transform="translate(0, 0)"><foreignObject width="0" height="0"><div xmlns="http://www.w3.org/1999/xhtml" class="labelBkg" style="display: table-cell; white-space: nowrap; line-height: 1.5; max-width: 200px; text-align: center;"><span class="edgeLabel"></span></div></foreignObject></g></g><g class="edgeLabel"><g class="label" data-id="L_S_SC_0" transform="translate(0, 0)"><foreignObject width="0" height="0"><div xmlns="http://www.w3.org/1999/xhtml" class="labelBkg" style="display: table-cell; white-space: nowrap; line-height: 1.5; max-width: 200px; text-align: center;"><span class="edgeLabel"></span></div></foreignObject></g></g><g class="edgeLabel"><g class="label" data-id="L_SC_PL_0" transform="translate(0, 0)"><foreignObject width="0" height="0"><div xmlns="http://www.w3.org/1999/xhtml" class="labelBkg" style="display: table-cell; white-space: nowrap; line-height: 1.5; max-width: 200px; text-align: center;"><span class="edgeLabel"></span></div></foreignObject></g></g><g class="edgeLabel"><g class="label" data-id="L_PL_O1_0" transform="translate(0, 0)"><foreignObject width="0" height="0"><div xmlns="http://www.w3.org/1999/xhtml" class="labelBkg" style="display: table-cell; white-space: nowrap; line-height: 1.5; max-width: 200px; text-align: center;"><span class="edgeLabel"></span></div></foreignObject></g></g><g class="edgeLabel"><g class="label" data-id="L_PL_O2_0" transform="translate(0, 0)"><foreignObject width="0" height="0"><div xmlns="http://www.w3.org/1999/xhtml" class="labelBkg" style="display: table-cell; white-space: nowrap; line-height: 1.5; max-width: 200px; text-align: center;"><span class="edgeLabel"></span></div></foreignObject></g></g><g class="edgeLabel"><g class="label" data-id="L_PL_O3_0" transform="translate(0, 0)"><foreignObject width="0" height="0"><div xmlns="http://www.w3.org/1999/xhtml" class="labelBkg" style="display: table-cell; white-space: nowrap; line-height: 1.5; max-width: 200px; text-align: center;"><span class="edgeLabel"></span></div></foreignObject></g></g></g><g class="nodes"><g class="node default" id="my-svg-flowchart-V-0" data-look="classic" transform="translate(92.61498260498047, 27.5)"><g class="basic label-container outer-path"><path d="M-65.125 -19.5 C-24.654783398564533 -19.5, 15.815433202870935 -19.5, 65.125 -19.5 C65.125 -19.5, 65.125 -19.5, 65.125 -19.5 C65.59167330405954 -19.48503469546329, 66.05834660811908 -19.470069390926586, 66.3743692896239 -19.45993515863156 C66.65290720443187 -19.433064940980888, 66.93144511923985 -19.406194723330213, 67.61860465284786 -19.3399052695533 C68.00488167728862 -19.277454995864783, 68.39115870172937 -19.215004722176268, 68.85259325967675 -19.140403561325776 C69.19664520219798 -19.06187595059405, 69.54069714471922 -18.98334833986232, 70.07126438623538 -18.862249829261074 C70.34501623645426 -18.781001717068897, 70.61876808667313 -18.699753604876722, 71.2696102514606 -18.50658706670804 C71.66212799603176 -18.362136908311598, 72.05464574060292 -18.217686749915156, 72.4427065951478 -18.074876768247425 C72.67311432548753 -17.972882100828503, 72.90352205582727 -17.87088743340958, 73.58573291279238 -17.568892924097174 C73.84724549248325 -17.432461978779244, 74.10875807217414 -17.29603103346132, 74.69399226407678 -16.990714730406097 C75.02657992601507 -16.789098135237058, 75.35916758795337 -16.58748154006802, 75.7629305736057 -16.342718045390892 C76.1598699008751 -16.065830353914293, 76.5568092281445 -15.788942662437693, 76.78815534457871 -15.627565626425154 C77.0692767389995 -15.403378795329056, 77.3503981334203 -15.179191964232958, 77.76545370850187 -14.848196188198123 C78.05243133727757 -14.587570698756005, 78.33940896605327 -14.326945209313887, 78.69080973676799 -14.007812326905688 C78.94877772991863 -13.741439194411528, 79.20674572306926 -13.47506606191737, 79.56042094296865 -13.10986736009568 C79.72411486574052 -12.917583163959769, 79.88780878851239 -12.725298967823857, 80.37071390812658 -12.158051136245305 C80.6166236231271 -11.828554520980514, 80.86253333812762 -11.499057905715725, 81.11835896464063 -11.156274872382312 C81.3318622058206 -10.828276560282166, 81.54536544700056 -10.500278248182022, 81.80028387860425 -10.108655082055241 C81.98904326857257 -9.773493671205609, 82.17780265854088 -9.438332260355978, 82.4136864742735 -9.019496659696287 C82.5665583798225 -8.702054876889012, 82.71943028537149 -8.384613094081736, 82.95604614880834 -7.893275190886684 C83.1294637158872 -7.46493044740133, 83.30288128296606 -7.036585703915977, 83.42513422997033 -6.734618561215508 C83.51644693164107 -6.459599252486499, 83.6077596333118 -6.184579943757491, 83.81902313421489 -5.548287939305138 C83.94341721232364 -5.073919406741968, 84.06781129043239 -4.599550874178798, 84.13609428754556 -4.339158212148133 C84.22885989709386 -3.8628264131361862, 84.32162550664214 -3.3864946141242394, 84.37504477658177 -3.1121979531509023 C84.43714815400045 -2.6305364215906577, 84.49925153141912 -2.1488748900304135, 84.53489270250937 -1.872449005199798 C84.55334206219808 -1.5850853359928627, 84.57179142188681 -1.2977216667859273, 84.61498121591342 -0.6250057626472757 C84.61498121591342 -0.2512136167350813, 84.61498121591342 0.1225785291771131, 84.61498121591342 0.625005762647271 C84.5932799038975 0.9630212142790651, 84.57157859188156 1.3010366659108592, 84.53489270250937 1.8724490051997846 C84.49247774733351 2.201411021763503, 84.45006279215764 2.5303730383272214, 84.37504477658177 3.1121979531508885 C84.2868908451803 3.5648497595574726, 84.19873691377883 4.017501565964057, 84.13609428754556 4.339158212148129 C84.0618919668339 4.622123820510905, 83.98768964612225 4.905089428873681, 83.81902313421489 5.548287939305125 C83.67741414065263 5.974791665585531, 83.53580514709037 6.401295391865936, 83.42513422997033 6.734618561215495 C83.2956148713715 7.054533881041052, 83.16609551277267 7.374449200866609, 82.95604614880834 7.893275190886679 C82.80146630204639 8.214263550166752, 82.64688645528443 8.535251909446824, 82.4136864742735 9.019496659696284 C82.26207235445374 9.288702882030691, 82.11045823463397 9.557909104365098, 81.80028387860425 10.108655082055236 C81.55612721010613 10.483745290113854, 81.31197054160799 10.858835498172471, 81.11835896464065 11.156274872382301 C80.82556543726787 11.548591525022752, 80.53277190989508 11.940908177663202, 80.37071390812659 12.158051136245302 C80.10369322794241 12.471708821096767, 79.83667254775823 12.78536650594823, 79.56042094296866 13.10986736009567 C79.34631464591571 13.330949690256741, 79.13220834886276 13.55203202041781, 78.69080973676799 14.007812326905684 C78.47254558721886 14.206034052573267, 78.25428143766973 14.40425577824085, 77.7654537085019 14.848196188198111 C77.40483740612162 15.135778092943548, 77.04422110374135 15.423359997688985, 76.78815534457871 15.627565626425152 C76.51715101080812 15.816606518074986, 76.24614667703753 16.00564740972482, 75.7629305736057 16.34271804539089 C75.41123806742415 16.55591610941272, 75.0595455612426 16.769114173434552, 74.69399226407678 16.990714730406093 C74.3689879159608 17.160269290642983, 74.04398356784482 17.32982385087987, 73.58573291279238 17.56889292409717 C73.31179522497021 17.690157012423253, 73.03785753714806 17.811421100749335, 72.4427065951478 18.07487676824742 C72.10916273035032 18.197623993738578, 71.77561886555286 18.320371219229735, 71.26961025146062 18.506587066708033 C70.7907176476081 18.648719877772884, 70.3118250437556 18.790852688837738, 70.07126438623541 18.86224982926107 C69.77867942477046 18.92903043742014, 69.4860944633055 18.99581104557921, 68.85259325967677 19.140403561325773 C68.60297070773937 19.180760599671206, 68.35334815580198 19.221117638016644, 67.61860465284788 19.3399052695533 C67.17207472109585 19.382981475038605, 66.72554478934383 19.426057680523908, 66.3743692896239 19.45993515863156 C65.9673068007568 19.47298886035046, 65.5602443118897 19.486042562069358, 65.125 19.5 C65.125 19.5, 65.125 19.5, 65.125 19.5 C25.495374485980022 19.5, -14.134251028039955 19.5, -65.125 19.5 C-65.59912864034123 19.48479561733967, -66.07325728068245 19.469591234679342, -66.3743692896239 19.45993515863156 C-66.83969876909828 19.41504538338724, -67.30502824857265 19.370155608142927, -67.61860465284786 19.3399052695533 C-68.00407996726311 19.277584610124354, -68.38955528167834 19.215263950695405, -68.85259325967675 19.140403561325773 C-69.12832035190284 19.077470651812597, -69.40404744412892 19.01453774229942, -70.07126438623538 18.862249829261074 C-70.32046454386636 18.78828853055452, -70.56966470149735 18.714327231847967, -71.26961025146059 18.506587066708043 C-71.71557086702538 18.342469437765462, -72.16153148259016 18.17835180882288, -72.4427065951478 18.074876768247425 C-72.80150574432541 17.916047028305098, -73.16030489350301 17.757217288362767, -73.58573291279238 17.568892924097174 C-73.86814168965115 17.42156044610141, -74.15055046650991 17.274227968105645, -74.69399226407678 16.990714730406097 C-74.93062210711446 16.84726832896535, -75.16725195015212 16.703821927524604, -75.76293057360569 16.3427180453909 C-75.98957286990192 16.184622190681527, -76.21621516619815 16.026526335972154, -76.78815534457871 15.627565626425156 C-77.04774153538094 15.420552547139035, -77.30732772618315 15.213539467852916, -77.76545370850187 14.848196188198125 C-78.05043412729866 14.589384512015567, -78.33541454609546 14.330572835833006, -78.69080973676797 14.007812326905697 C-78.92849634082813 13.762381393780467, -79.16618294488829 13.51695046065524, -79.56042094296865 13.109867360095677 C-79.86742510658532 12.749242800479749, -80.174429270202 12.38861824086382, -80.37071390812658 12.158051136245307 C-80.64120562415407 11.795616879070735, -80.91169734018156 11.433182621896165, -81.11835896464063 11.156274872382316 C-81.35780716573788 10.788418134651979, -81.59725536683514 10.420561396921643, -81.80028387860425 10.108655082055249 C-82.01042521525939 9.735527859706279, -82.22056655191453 9.362400637357311, -82.4136864742735 9.019496659696289 C-82.60308626750907 8.62620393653627, -82.79248606074462 8.232911213376251, -82.95604614880834 7.893275190886686 C-83.0767040225735 7.59524790992548, -83.19736189633863 7.297220628964274, -83.42513422997033 6.73461856121551 C-83.51340580915132 6.468758628888562, -83.6016773883323 6.202898696561613, -83.81902313421489 5.5482879393051325 C-83.92691976346154 5.1368313292927, -84.03481639270821 4.725374719280266, -84.13609428754556 4.339158212148136 C-84.20472149086739 3.9867720274551357, -84.27334869418921 3.634385842762136, -84.37504477658177 3.112197953150904 C-84.4343239400475 2.652440467305574, -84.49360310351324 2.1926829814602438, -84.53489270250937 1.872449005199809 C-84.56052065460902 1.473272964737031, -84.58614860670869 1.074096924274253, -84.61498121591342 0.6250057626472781 C-84.61498121591342 0.29442378203848835, -84.61498121591342 -0.03615819857030145, -84.61498121591342 -0.6250057626472687 C-84.588705885018 -1.0342652504086942, -84.56243055412259 -1.4435247381701197, -84.53489270250937 -1.8724490051997822 C-84.49647656721699 -2.170396964403535, -84.45806043192461 -2.4683449236072876, -84.37504477658177 -3.112197953150895 C-84.31794606992551 -3.405387744014875, -84.26084736326925 -3.698577534878855, -84.13609428754556 -4.339158212148126 C-84.02989963725412 -4.744124438761962, -83.92370498696269 -5.149090665375799, -83.81902313421489 -5.548287939305123 C-83.70312750638703 -5.897347104861975, -83.58723187855918 -6.246406270418826, -83.42513422997033 -6.734618561215485 C-83.31739671363351 -7.0007323095305924, -83.2096591972967 -7.2668460578457, -82.95604614880834 -7.893275190886676 C-82.80091530860042 -8.215407699846674, -82.64578446839249 -8.537540208806671, -82.4136864742735 -9.019496659696282 C-82.1807988691231 -9.43301218506805, -81.94791126397268 -9.846527710439819, -81.80028387860425 -10.108655082055243 C-81.56511724554574 -10.469934181516079, -81.32995061248722 -10.831213280976916, -81.11835896464063 -11.156274872382308 C-80.86776709028338 -11.492045154631633, -80.61717521592612 -11.827815436880957, -80.37071390812659 -12.158051136245302 C-80.12189944790471 -12.450322759165784, -79.87308498768283 -12.742594382086267, -79.56042094296866 -13.10986736009567 C-79.30388194002686 -13.374764942876933, -79.04734293708503 -13.639662525658196, -78.69080973676799 -14.007812326905677 C-78.45601630620456 -14.221045508249638, -78.22122287564113 -14.434278689593599, -77.7654537085019 -14.848196188198107 C-77.50238957844383 -15.057982831488914, -77.23932544838576 -15.267769474779723, -76.78815534457871 -15.627565626425149 C-76.44039395123444 -15.870148920074028, -76.09263255789017 -16.112732213722907, -75.76293057360571 -16.342718045390885 C-75.36035535042674 -16.586761511476585, -74.95778012724777 -16.83080497756228, -74.69399226407678 -16.99071473040609 C-74.33393714945106 -17.178555253080027, -73.97388203482532 -17.366395775753965, -73.5857329127924 -17.56889292409717 C-73.24531510506034 -17.71958578944467, -72.90489729732829 -17.87027865479217, -72.44270659514781 -18.07487676824742 C-71.99897443313142 -18.23817430568459, -71.55524227111505 -18.401471843121758, -71.26961025146062 -18.506587066708033 C-70.98867431858447 -18.589967376922868, -70.70773838570832 -18.673347687137706, -70.07126438623541 -18.862249829261067 C-69.62183050267564 -18.96483018035341, -69.17239661911587 -19.06741053144575, -68.85259325967677 -19.140403561325773 C-68.51501563185356 -19.194980494238628, -68.17743800403034 -19.24955742715148, -67.61860465284788 -19.3399052695533 C-67.23041016515178 -19.377353924909166, -66.84221567745568 -19.41480258026503, -66.3743692896239 -19.45993515863156 C-66.1082281915839 -19.46846978563348, -65.84208709354391 -19.477004412635402, -65.125 -19.5 C-65.125 -19.5, -65.125 -19.5, -65.125 -19.5" stroke="none" stroke-width="0" fill="#F8FAFC" style=""/><path d="M-65.125 -19.5 C-35.482713245577315 -19.5, -5.8404264911546235 -19.5, 65.125 -19.5 M-65.125 -19.5 C-15.041563068071717 -19.5, 35.041873863856566 -19.5, 65.125 -19.5 M65.125 -19.5 C65.125 -19.5, 65.125 -19.5, 65.125 -19.5 M65.125 -19.5 C65.125 -19.5, 65.125 -19.5, 65.125 -19.5 M65.125 -19.5 C65.45865320402217 -19.489300391163574, 65.79230640804434 -19.478600782327145, 66.3743692896239 -19.45993515863156 M65.125 -19.5 C65.46593730790624 -19.48906680412966, 65.80687461581248 -19.47813360825932, 66.3743692896239 -19.45993515863156 M66.3743692896239 -19.45993515863156 C66.70204489894348 -19.428324686688075, 67.02972050826305 -19.396714214744595, 67.61860465284786 -19.3399052695533 M66.3743692896239 -19.45993515863156 C66.84918903485682 -19.41412986886323, 67.32400878008973 -19.368324579094903, 67.61860465284786 -19.3399052695533 M67.61860465284786 -19.3399052695533 C67.92181353447728 -19.29088480899145, 68.2250224161067 -19.2418643484296, 68.85259325967675 -19.140403561325776 M67.61860465284786 -19.3399052695533 C68.02284573239805 -19.274550706748016, 68.42708681194826 -19.209196143942734, 68.85259325967675 -19.140403561325776 M68.85259325967675 -19.140403561325776 C69.30660437592678 -19.036778486741117, 69.76061549217683 -18.933153412156457, 70.07126438623538 -18.862249829261074 M68.85259325967675 -19.140403561325776 C69.12777817430957 -19.077594400310225, 69.40296308894239 -19.014785239294675, 70.07126438623538 -18.862249829261074 M70.07126438623538 -18.862249829261074 C70.35367646439292 -18.778431406875168, 70.63608854255047 -18.694612984489257, 71.2696102514606 -18.50658706670804 M70.07126438623538 -18.862249829261074 C70.33118894812645 -18.785105583663672, 70.59111351001752 -18.70796133806627, 71.2696102514606 -18.50658706670804 M71.2696102514606 -18.50658706670804 C71.53269459280963 -18.409769597166605, 71.79577893415866 -18.31295212762517, 72.4427065951478 -18.074876768247425 M71.2696102514606 -18.50658706670804 C71.6173336080682 -18.378621657156973, 71.9650569646758 -18.250656247605907, 72.4427065951478 -18.074876768247425 M72.4427065951478 -18.074876768247425 C72.74489255932858 -17.941108005932726, 73.04707852350936 -17.807339243618028, 73.58573291279238 -17.568892924097174 M72.4427065951478 -18.074876768247425 C72.77746970496406 -17.92668706992659, 73.11223281478031 -17.77849737160576, 73.58573291279238 -17.568892924097174 M73.58573291279238 -17.568892924097174 C73.92860083896012 -17.390018946632853, 74.27146876512786 -17.211144969168533, 74.69399226407678 -16.990714730406097 M73.58573291279238 -17.568892924097174 C73.86575935627171 -17.422803307899503, 74.14578579975104 -17.276713691701833, 74.69399226407678 -16.990714730406097 M74.69399226407678 -16.990714730406097 C74.91533401005601 -16.856536063245002, 75.13667575603526 -16.722357396083908, 75.7629305736057 -16.342718045390892 M74.69399226407678 -16.990714730406097 C74.9354590737661 -16.844336131355952, 75.17692588345543 -16.697957532305804, 75.7629305736057 -16.342718045390892 M75.7629305736057 -16.342718045390892 C76.15358834144502 -16.07021209784839, 76.54424610928434 -15.797706150305887, 76.78815534457871 -15.627565626425154 M75.7629305736057 -16.342718045390892 C76.09942714195758 -16.10799260601029, 76.43592371030947 -15.873267166629685, 76.78815534457871 -15.627565626425154 M76.78815534457871 -15.627565626425154 C77.15967566224141 -15.331288059660007, 77.53119597990413 -15.035010492894859, 77.76545370850187 -14.848196188198123 M76.78815534457871 -15.627565626425154 C76.99577095584829 -15.461997701321119, 77.20338656711785 -15.296429776217083, 77.76545370850187 -14.848196188198123 M77.76545370850187 -14.848196188198123 C78.08190670716581 -14.560801947699057, 78.39835970582976 -14.273407707199988, 78.69080973676799 -14.007812326905688 M77.76545370850187 -14.848196188198123 C77.95593821861544 -14.675203196056934, 78.14642272872901 -14.502210203915746, 78.69080973676799 -14.007812326905688 M78.69080973676799 -14.007812326905688 C79.02193070731354 -13.66590273928014, 79.3530516778591 -13.32399315165459, 79.56042094296865 -13.10986736009568 M78.69080973676799 -14.007812326905688 C79.02911633647855 -13.658482987216146, 79.3674229361891 -13.309153647526603, 79.56042094296865 -13.10986736009568 M79.56042094296865 -13.10986736009568 C79.820607010359 -12.804238000332333, 80.08079307774935 -12.498608640568987, 80.37071390812658 -12.158051136245305 M79.56042094296865 -13.10986736009568 C79.73510196102559 -12.904677096654495, 79.90978297908252 -12.69948683321331, 80.37071390812658 -12.158051136245305 M80.37071390812658 -12.158051136245305 C80.62473859844002 -11.817681193350666, 80.87876328875345 -11.477311250456026, 81.11835896464063 -11.156274872382312 M80.37071390812658 -12.158051136245305 C80.59213453609453 -11.861367666602426, 80.81355516406249 -11.564684196959547, 81.11835896464063 -11.156274872382312 M81.11835896464063 -11.156274872382312 C81.38512158474504 -10.746455852108495, 81.65188420484944 -10.336636831834678, 81.80028387860425 -10.108655082055241 M81.11835896464063 -11.156274872382312 C81.36596332355705 -10.775888086006685, 81.61356768247349 -10.395501299631057, 81.80028387860425 -10.108655082055241 M81.80028387860425 -10.108655082055241 C82.0230827387701 -9.71305314499978, 82.24588159893594 -9.31745120794432, 82.4136864742735 -9.019496659696287 M81.80028387860425 -10.108655082055241 C81.98465493931913 -9.781285594161627, 82.169026000034 -9.45391610626801, 82.4136864742735 -9.019496659696287 M82.4136864742735 -9.019496659696287 C82.54578992787833 -8.74518101172476, 82.67789338148316 -8.470865363753232, 82.95604614880834 -7.893275190886684 M82.4136864742735 -9.019496659696287 C82.58234009221962 -8.66928381342183, 82.75099371016574 -8.31907096714737, 82.95604614880834 -7.893275190886684 M82.95604614880834 -7.893275190886684 C83.11154351683133 -7.5091936855327885, 83.26704088485434 -7.125112180178894, 83.42513422997033 -6.734618561215508 M82.95604614880834 -7.893275190886684 C83.1374371789662 -7.445235839439777, 83.31882820912406 -6.997196487992868, 83.42513422997033 -6.734618561215508 M83.42513422997033 -6.734618561215508 C83.5438919956118 -6.376939092583769, 83.66264976125326 -6.0192596239520295, 83.81902313421489 -5.548287939305138 M83.42513422997033 -6.734618561215508 C83.5302108012672 -6.418144670147376, 83.6352873725641 -6.101670779079242, 83.81902313421489 -5.548287939305138 M83.81902313421489 -5.548287939305138 C83.88517163971765 -5.296035018879444, 83.95132014522042 -5.0437820984537485, 84.13609428754556 -4.339158212148133 M83.81902313421489 -5.548287939305138 C83.94245262169498 -5.077597808865287, 84.06588210917506 -4.606907678425436, 84.13609428754556 -4.339158212148133 M84.13609428754556 -4.339158212148133 C84.21926888002544 -3.9120742587202626, 84.30244347250533 -3.4849903052923916, 84.37504477658177 -3.1121979531509023 M84.13609428754556 -4.339158212148133 C84.22715169226792 -3.871597683888062, 84.3182090969903 -3.404037155627991, 84.37504477658177 -3.1121979531509023 M84.37504477658177 -3.1121979531509023 C84.41001517022777 -2.8409744857179113, 84.44498556387376 -2.56975101828492, 84.53489270250937 -1.872449005199798 M84.37504477658177 -3.1121979531509023 C84.40884548641259 -2.850046322408178, 84.44264619624342 -2.5878946916654533, 84.53489270250937 -1.872449005199798 M84.53489270250937 -1.872449005199798 C84.56686792530914 -1.3744091001580498, 84.59884314810891 -0.8763691951163016, 84.61498121591342 -0.6250057626472757 M84.53489270250937 -1.872449005199798 C84.55507229270775 -1.5581355991879038, 84.57525188290614 -1.2438221931760098, 84.61498121591342 -0.6250057626472757 M84.61498121591342 -0.6250057626472757 C84.61498121591342 -0.17850009795243182, 84.61498121591342 0.26800556674241205, 84.61498121591342 0.625005762647271 M84.61498121591342 -0.6250057626472757 C84.61498121591342 -0.2093542438045995, 84.61498121591342 0.2062972750380767, 84.61498121591342 0.625005762647271 M84.61498121591342 0.625005762647271 C84.58941414906849 1.0232334661218396, 84.56384708222357 1.4214611695964083, 84.53489270250937 1.8724490051997846 M84.61498121591342 0.625005762647271 C84.59528147948387 0.9318450588783993, 84.57558174305434 1.2386843551095277, 84.53489270250937 1.8724490051997846 M84.53489270250937 1.8724490051997846 C84.48686451245027 2.2449461630592364, 84.43883632239118 2.6174433209186883, 84.37504477658177 3.1121979531508885 M84.53489270250937 1.8724490051997846 C84.48968238953394 2.2230912648510937, 84.44447207655851 2.5737335245024022, 84.37504477658177 3.1121979531508885 M84.37504477658177 3.1121979531508885 C84.31343858361333 3.428532733570324, 84.2518323906449 3.74486751398976, 84.13609428754556 4.339158212148129 M84.37504477658177 3.1121979531508885 C84.28978855286493 3.5499706430276055, 84.2045323291481 3.987743332904323, 84.13609428754556 4.339158212148129 M84.13609428754556 4.339158212148129 C84.03865791854804 4.710725316325142, 83.94122154955052 5.082292420502156, 83.81902313421489 5.548287939305125 M84.13609428754556 4.339158212148129 C84.05375849353737 4.653140279260217, 83.97142269952919 4.967122346372306, 83.81902313421489 5.548287939305125 M83.81902313421489 5.548287939305125 C83.72864062011247 5.82050567128359, 83.63825810601006 6.092723403262055, 83.42513422997033 6.734618561215495 M83.81902313421489 5.548287939305125 C83.67394110783309 5.985251887085347, 83.5288590814513 6.422215834865569, 83.42513422997033 6.734618561215495 M83.42513422997033 6.734618561215495 C83.33111491638144 6.9668480835198245, 83.23709560279255 7.199077605824154, 82.95604614880834 7.893275190886679 M83.42513422997033 6.734618561215495 C83.2471485501094 7.174246631591008, 83.06916287024848 7.613874701966521, 82.95604614880834 7.893275190886679 M82.95604614880834 7.893275190886679 C82.82166188901743 8.172326981705027, 82.68727762922653 8.451378772523375, 82.4136864742735 9.019496659696284 M82.95604614880834 7.893275190886679 C82.76843880226775 8.282845860132364, 82.58083145572718 8.672416529378049, 82.4136864742735 9.019496659696284 M82.4136864742735 9.019496659696284 C82.23295362690234 9.340406131389088, 82.05222077953118 9.66131560308189, 81.80028387860425 10.108655082055236 M82.4136864742735 9.019496659696284 C82.2453215199627 9.318445684875453, 82.07695656565188 9.617394710054622, 81.80028387860425 10.108655082055236 M81.80028387860425 10.108655082055236 C81.63386478827164 10.364319494589044, 81.46744569793903 10.619983907122853, 81.11835896464065 11.156274872382301 M81.80028387860425 10.108655082055236 C81.57319283493254 10.457527907618552, 81.34610179126085 10.806400733181865, 81.11835896464065 11.156274872382301 M81.11835896464065 11.156274872382301 C80.91854385218285 11.42400891954453, 80.71872873972504 11.69174296670676, 80.37071390812659 12.158051136245302 M81.11835896464065 11.156274872382301 C80.87400431488119 11.483687841893424, 80.62964966512173 11.811100811404549, 80.37071390812659 12.158051136245302 M80.37071390812659 12.158051136245302 C80.15435915451013 12.41219374077742, 79.93800440089369 12.66633634530954, 79.56042094296866 13.10986736009567 M80.37071390812659 12.158051136245302 C80.05679184930166 12.526801849212235, 79.74286979047673 12.89555256217917, 79.56042094296866 13.10986736009567 M79.56042094296866 13.10986736009567 C79.2407872534145 13.439915386974295, 78.92115356386034 13.76996341385292, 78.69080973676799 14.007812326905684 M79.56042094296866 13.10986736009567 C79.23424439618218 13.446671424245233, 78.9080678493957 13.783475488394794, 78.69080973676799 14.007812326905684 M78.69080973676799 14.007812326905684 C78.48553377801747 14.19423852133866, 78.28025781926696 14.380664715771635, 77.7654537085019 14.848196188198111 M78.69080973676799 14.007812326905684 C78.43942150150144 14.236116470806536, 78.18803326623491 14.46442061470739, 77.7654537085019 14.848196188198111 M77.7654537085019 14.848196188198111 C77.48180539456472 15.07439817036437, 77.19815708062754 15.300600152530631, 76.78815534457871 15.627565626425152 M77.7654537085019 14.848196188198111 C77.37648689704747 15.158386869491448, 76.98752008559305 15.468577550784785, 76.78815534457871 15.627565626425152 M76.78815534457871 15.627565626425152 C76.46447840624242 15.853348646859718, 76.14080146790613 16.079131667294284, 75.7629305736057 16.34271804539089 M76.78815534457871 15.627565626425152 C76.40873735913517 15.892231188330696, 76.02931937369164 16.15689675023624, 75.7629305736057 16.34271804539089 M75.7629305736057 16.34271804539089 C75.43189948810843 16.54339103477393, 75.10086840261114 16.744064024156966, 74.69399226407678 16.990714730406093 M75.7629305736057 16.34271804539089 C75.42105987856783 16.54996206977805, 75.07918918352996 16.757206094165213, 74.69399226407678 16.990714730406093 M74.69399226407678 16.990714730406093 C74.31911989985349 17.186285402704172, 73.94424753563021 17.381856075002254, 73.58573291279238 17.56889292409717 M74.69399226407678 16.990714730406093 C74.45097580332482 17.117496262320916, 74.20795934257286 17.24427779423574, 73.58573291279238 17.56889292409717 M73.58573291279238 17.56889292409717 C73.23694156938816 17.72329250529463, 72.88815022598394 17.87769208649209, 72.4427065951478 18.07487676824742 M73.58573291279238 17.56889292409717 C73.20361518253462 17.73804510816255, 72.82149745227687 17.907197292227927, 72.4427065951478 18.07487676824742 M72.4427065951478 18.07487676824742 C72.08430086719365 18.20677338920078, 71.7258951392395 18.338670010154136, 71.26961025146062 18.506587066708033 M72.4427065951478 18.07487676824742 C71.9799433449578 18.24517792205393, 71.51718009476782 18.41547907586044, 71.26961025146062 18.506587066708033 M71.26961025146062 18.506587066708033 C70.8312759679724 18.636682381183732, 70.39294168448419 18.766777695659428, 70.07126438623541 18.86224982926107 M71.26961025146062 18.506587066708033 C70.81932727545284 18.64022869040357, 70.36904429944506 18.773870314099106, 70.07126438623541 18.86224982926107 M70.07126438623541 18.86224982926107 C69.6242602573197 18.96427560471153, 69.17725612840401 19.066301380161995, 68.85259325967677 19.140403561325773 M70.07126438623541 18.86224982926107 C69.71817401179494 18.94284040309708, 69.36508363735449 19.023430976933092, 68.85259325967677 19.140403561325773 M68.85259325967677 19.140403561325773 C68.42885076118418 19.2089109623099, 68.00510826269158 19.27741836329403, 67.61860465284788 19.3399052695533 M68.85259325967677 19.140403561325773 C68.41849726504206 19.210584835273597, 67.98440127040735 19.280766109221418, 67.61860465284788 19.3399052695533 M67.61860465284788 19.3399052695533 C67.24337571008438 19.376103154382864, 66.86814676732088 19.412301039212434, 66.3743692896239 19.45993515863156 M67.61860465284788 19.3399052695533 C67.29452333347332 19.371169004668552, 66.97044201409877 19.4024327397838, 66.3743692896239 19.45993515863156 M66.3743692896239 19.45993515863156 C66.05786581739136 19.47008480894942, 65.74136234515882 19.480234459267283, 65.125 19.5 M66.3743692896239 19.45993515863156 C65.94915601425333 19.47357092074526, 65.52394273888277 19.487206682858965, 65.125 19.5 M65.125 19.5 C65.125 19.5, 65.125 19.5, 65.125 19.5 M65.125 19.5 C65.125 19.5, 65.125 19.5, 65.125 19.5 M65.125 19.5 C27.534701034889423 19.5, -10.055597930221154 19.5, -65.125 19.5 M65.125 19.5 C31.116155137916827 19.5, -2.8926897241663454 19.5, -65.125 19.5 M-65.125 19.5 C-65.4922917779051 19.48822166757266, -65.85958355581019 19.47644333514532, -66.3743692896239 19.45993515863156 M-65.125 19.5 C-65.50330425649126 19.48786851881889, -65.88160851298254 19.47573703763778, -66.3743692896239 19.45993515863156 M-66.3743692896239 19.45993515863156 C-66.77159110058663 19.421615648257106, -67.16881291154935 19.383296137882652, -67.61860465284786 19.3399052695533 M-66.3743692896239 19.45993515863156 C-66.86832282745891 19.41228405490266, -67.36227636529394 19.364632951173757, -67.61860465284786 19.3399052695533 M-67.61860465284786 19.3399052695533 C-67.90902714870064 19.292952012683912, -68.19944964455344 19.245998755814526, -68.85259325967675 19.140403561325773 M-67.61860465284786 19.3399052695533 C-67.92540467308464 19.290304221551107, -68.23220469332144 19.240703173548916, -68.85259325967675 19.140403561325773 M-68.85259325967675 19.140403561325773 C-69.28478595549413 19.041758398826367, -69.71697865131152 18.943113236326965, -70.07126438623538 18.862249829261074 M-68.85259325967675 19.140403561325773 C-69.33251803112555 19.030863864044402, -69.81244280257432 18.921324166763032, -70.07126438623538 18.862249829261074 M-70.07126438623538 18.862249829261074 C-70.47696307858659 18.74184058692713, -70.8826617709378 18.621431344593184, -71.26961025146059 18.506587066708043 M-70.07126438623538 18.862249829261074 C-70.38718039027957 18.768487617537705, -70.70309639432377 18.674725405814335, -71.26961025146059 18.506587066708043 M-71.26961025146059 18.506587066708043 C-71.55058390540106 18.403186164765966, -71.83155755934153 18.29978526282389, -72.4427065951478 18.074876768247425 M-71.26961025146059 18.506587066708043 C-71.65880079542347 18.36336134889175, -72.04799133938637 18.220135631075458, -72.4427065951478 18.074876768247425 M-72.4427065951478 18.074876768247425 C-72.84449853429835 17.897015395519876, -73.24629047344891 17.719154022792324, -73.58573291279238 17.568892924097174 M-72.4427065951478 18.074876768247425 C-72.79804610767101 17.91757850682552, -73.15338562019423 17.760280245403617, -73.58573291279238 17.568892924097174 M-73.58573291279238 17.568892924097174 C-73.8268796895038 17.44308680514871, -74.06802646621522 17.31728068620025, -74.69399226407678 16.990714730406097 M-73.58573291279238 17.568892924097174 C-73.93028474634991 17.389140453226194, -74.27483657990743 17.209387982355217, -74.69399226407678 16.990714730406097 M-74.69399226407678 16.990714730406097 C-75.09585430270108 16.747103600988574, -75.49771634132537 16.50349247157105, -75.76293057360569 16.3427180453909 M-74.69399226407678 16.990714730406097 C-75.10859455715283 16.739380383869882, -75.52319685022886 16.488046037333667, -75.76293057360569 16.3427180453909 M-75.76293057360569 16.3427180453909 C-76.150543180571 16.07233627025121, -76.53815578753634 15.801954495111518, -76.78815534457871 15.627565626425156 M-75.76293057360569 16.3427180453909 C-76.12185131565694 16.092350473164448, -76.48077205770821 15.841982900937994, -76.78815534457871 15.627565626425156 M-76.78815534457871 15.627565626425156 C-77.14177415419276 15.34556403594968, -77.49539296380681 15.063562445474204, -77.76545370850187 14.848196188198125 M-76.78815534457871 15.627565626425156 C-77.12903566759496 15.355722640026054, -77.46991599061123 15.083879653626951, -77.76545370850187 14.848196188198125 M-77.76545370850187 14.848196188198125 C-78.0794975511513 14.56298987944865, -78.39354139380075 14.277783570699178, -78.69080973676797 14.007812326905697 M-77.76545370850187 14.848196188198125 C-78.13383771989835 14.513639575954663, -78.50222173129484 14.1790829637112, -78.69080973676797 14.007812326905697 M-78.69080973676797 14.007812326905697 C-78.93545235645492 13.755198736546307, -79.18009497614187 13.502585146186917, -79.56042094296865 13.109867360095677 M-78.69080973676797 14.007812326905697 C-78.95054790416762 13.739611344165427, -79.21028607156727 13.471410361425155, -79.56042094296865 13.109867360095677 M-79.56042094296865 13.109867360095677 C-79.82381699708542 12.800467367270059, -80.08721305120218 12.491067374444441, -80.37071390812658 12.158051136245307 M-79.56042094296865 13.109867360095677 C-79.8528479998459 12.766365899516735, -80.14527505672316 12.422864438937793, -80.37071390812658 12.158051136245307 M-80.37071390812658 12.158051136245307 C-80.648484210238 11.785864236811102, -80.92625451234943 11.413677337376898, -81.11835896464063 11.156274872382316 M-80.37071390812658 12.158051136245307 C-80.60422881678163 11.845162432293366, -80.83774372543667 11.532273728341425, -81.11835896464063 11.156274872382316 M-81.11835896464063 11.156274872382316 C-81.33672572322364 10.820804891513824, -81.55509248180662 10.48533491064533, -81.80028387860425 10.108655082055249 M-81.11835896464063 11.156274872382316 C-81.38196396253053 10.751306807770261, -81.64556896042043 10.346338743158206, -81.80028387860425 10.108655082055249 M-81.80028387860425 10.108655082055249 C-82.00216037303858 9.750202923975367, -82.2040368674729 9.391750765895484, -82.4136864742735 9.019496659696289 M-81.80028387860425 10.108655082055249 C-81.97274683744678 9.80242963486204, -82.14520979628932 9.496204187668832, -82.4136864742735 9.019496659696289 M-82.4136864742735 9.019496659696289 C-82.60913804146222 8.613637298435341, -82.80458960865091 8.207777937174393, -82.95604614880834 7.893275190886686 M-82.4136864742735 9.019496659696289 C-82.52960655510043 8.778786131566797, -82.64552663592734 8.538075603437305, -82.95604614880834 7.893275190886686 M-82.95604614880834 7.893275190886686 C-83.05444348347974 7.650231871865279, -83.15284081815115 7.407188552843872, -83.42513422997033 6.73461856121551 M-82.95604614880834 7.893275190886686 C-83.11431072876086 7.502358618566486, -83.27257530871337 7.111442046246286, -83.42513422997033 6.73461856121551 M-83.42513422997033 6.73461856121551 C-83.54060440847964 6.38684078121994, -83.65607458698896 6.0390630012243705, -83.81902313421489 5.5482879393051325 M-83.42513422997033 6.73461856121551 C-83.5353820061008 6.402569825108191, -83.64562978223128 6.070521089000873, -83.81902313421489 5.5482879393051325 M-83.81902313421489 5.5482879393051325 C-83.89184967734535 5.27056876712524, -83.96467622047581 4.992849594945347, -84.13609428754556 4.339158212148136 M-83.81902313421489 5.5482879393051325 C-83.88831211397938 5.284059029429302, -83.95760109374389 5.019830119553472, -84.13609428754556 4.339158212148136 M-84.13609428754556 4.339158212148136 C-84.22045543931928 3.9059815275258516, -84.30481659109299 3.4728048429035674, -84.37504477658177 3.112197953150904 M-84.13609428754556 4.339158212148136 C-84.21185846102674 3.950125194086039, -84.28762263450791 3.5610921760239425, -84.37504477658177 3.112197953150904 M-84.37504477658177 3.112197953150904 C-84.43196309580222 2.670750709070555, -84.48888141502268 2.2293034649902066, -84.53489270250937 1.872449005199809 M-84.37504477658177 3.112197953150904 C-84.42285141487824 2.7414191070120424, -84.4706580531747 2.3706402608731807, -84.53489270250937 1.872449005199809 M-84.53489270250937 1.872449005199809 C-84.56200648060953 1.4501300254420686, -84.58912025870968 1.0278110456843281, -84.61498121591342 0.6250057626472781 M-84.53489270250937 1.872449005199809 C-84.56281194767922 1.4375842256701574, -84.59073119284909 1.0027194461405058, -84.61498121591342 0.6250057626472781 M-84.61498121591342 0.6250057626472781 C-84.61498121591342 0.24697330018134028, -84.61498121591342 -0.13105916228459757, -84.61498121591342 -0.6250057626472687 M-84.61498121591342 0.6250057626472781 C-84.61498121591342 0.2124145905014851, -84.61498121591342 -0.20017658164430796, -84.61498121591342 -0.6250057626472687 M-84.61498121591342 -0.6250057626472687 C-84.58792423511022 -1.0464400786588939, -84.56086725430701 -1.467874394670519, -84.53489270250937 -1.8724490051997822 M-84.61498121591342 -0.6250057626472687 C-84.59395029183548 -0.9525793810173928, -84.57291936775756 -1.280152999387517, -84.53489270250937 -1.8724490051997822 M-84.53489270250937 -1.8724490051997822 C-84.49360304563395 -2.1926834303605176, -84.45231338875854 -2.5129178555212537, -84.37504477658177 -3.112197953150895 M-84.53489270250937 -1.8724490051997822 C-84.48100346205099 -2.2904033125607497, -84.42711422159262 -2.7083576199217174, -84.37504477658177 -3.112197953150895 M-84.37504477658177 -3.112197953150895 C-84.3040671809778 -3.476652905457156, -84.23308958537383 -3.8411078577634172, -84.13609428754556 -4.339158212148126 M-84.37504477658177 -3.112197953150895 C-84.31678764465455 -3.4113360129480075, -84.25853051272732 -3.71047407274512, -84.13609428754556 -4.339158212148126 M-84.13609428754556 -4.339158212148126 C-84.05214778487993 -4.659282609456555, -83.96820128221431 -4.979407006764983, -83.81902313421489 -5.548287939305123 M-84.13609428754556 -4.339158212148126 C-84.05565791458235 -4.645896963601406, -83.97522154161915 -4.9526357150546865, -83.81902313421489 -5.548287939305123 M-83.81902313421489 -5.548287939305123 C-83.68132689786154 -5.963007064285483, -83.5436306615082 -6.377726189265843, -83.42513422997033 -6.734618561215485 M-83.81902313421489 -5.548287939305123 C-83.673243187136 -5.987353913026427, -83.52746324005712 -6.426419886747731, -83.42513422997033 -6.734618561215485 M-83.42513422997033 -6.734618561215485 C-83.24165317127738 -7.187820323552029, -83.05817211258442 -7.641022085888574, -82.95604614880834 -7.893275190886676 M-83.42513422997033 -6.734618561215485 C-83.29523541139794 -7.055471154512084, -83.16533659282555 -7.376323747808683, -82.95604614880834 -7.893275190886676 M-82.95604614880834 -7.893275190886676 C-82.82274903597076 -8.170069497795238, -82.68945192313318 -8.446863804703797, -82.4136864742735 -9.019496659696282 M-82.95604614880834 -7.893275190886676 C-82.78036921832877 -8.258072095911649, -82.6046922878492 -8.62286900093662, -82.4136864742735 -9.019496659696282 M-82.4136864742735 -9.019496659696282 C-82.26507429370773 -9.283372634905911, -82.11646211314196 -9.54724861011554, -81.80028387860425 -10.108655082055243 M-82.4136864742735 -9.019496659696282 C-82.28824804422528 -9.242225294265287, -82.16280961417708 -9.464953928834294, -81.80028387860425 -10.108655082055243 M-81.80028387860425 -10.108655082055243 C-81.58454392961863 -10.440089577985024, -81.368803980633 -10.771524073914803, -81.11835896464063 -11.156274872382308 M-81.80028387860425 -10.108655082055243 C-81.59387402840537 -10.425756040766265, -81.38746417820649 -10.742856999477286, -81.11835896464063 -11.156274872382308 M-81.11835896464063 -11.156274872382308 C-80.88867275732231 -11.464033465344912, -80.65898655000399 -11.771792058307517, -80.37071390812659 -12.158051136245302 M-81.11835896464063 -11.156274872382308 C-80.87046108091482 -11.488435452613098, -80.62256319718901 -11.820596032843888, -80.37071390812659 -12.158051136245302 M-80.37071390812659 -12.158051136245302 C-80.09525400246937 -12.481622015542928, -79.81979409681216 -12.805192894840555, -79.56042094296866 -13.10986736009567 M-80.37071390812659 -12.158051136245302 C-80.06346199792108 -12.518966713101655, -79.75621008771557 -12.879882289958006, -79.56042094296866 -13.10986736009567 M-79.56042094296866 -13.10986736009567 C-79.33889007837571 -13.338616165810121, -79.11735921378276 -13.567364971524574, -78.69080973676799 -14.007812326905677 M-79.56042094296866 -13.10986736009567 C-79.2858618379476 -13.393372177751647, -79.01130273292655 -13.676876995407625, -78.69080973676799 -14.007812326905677 M-78.69080973676799 -14.007812326905677 C-78.47402275586872 -14.2046925270892, -78.25723577496944 -14.401572727272724, -77.7654537085019 -14.848196188198107 M-78.69080973676799 -14.007812326905677 C-78.4991060807698 -14.18191251508244, -78.30740242477162 -14.356012703259202, -77.7654537085019 -14.848196188198107 M-77.7654537085019 -14.848196188198107 C-77.53494369139311 -15.03202179271319, -77.30443367428433 -15.215847397228274, -76.78815534457871 -15.627565626425149 M-77.7654537085019 -14.848196188198107 C-77.44882006230523 -15.100703095064752, -77.13218641610857 -15.353210001931396, -76.78815534457871 -15.627565626425149 M-76.78815534457871 -15.627565626425149 C-76.56422702330782 -15.783768329642928, -76.34029870203695 -15.939971032860706, -75.76293057360571 -16.342718045390885 M-76.78815534457871 -15.627565626425149 C-76.50642961098904 -15.824085302466852, -76.22470387739939 -16.020604978508555, -75.76293057360571 -16.342718045390885 M-75.76293057360571 -16.342718045390885 C-75.36638631730243 -16.583105503914652, -74.96984206099914 -16.823492962438415, -74.69399226407678 -16.99071473040609 M-75.76293057360571 -16.342718045390885 C-75.4062338981439 -16.558949666238178, -75.04953722268206 -16.77518128708547, -74.69399226407678 -16.99071473040609 M-74.69399226407678 -16.99071473040609 C-74.34923190220026 -17.17057599036752, -74.00447154032375 -17.35043725032895, -73.5857329127924 -17.56889292409717 M-74.69399226407678 -16.99071473040609 C-74.2537925693307 -17.220366629193762, -73.81359287458461 -17.450018527981438, -73.5857329127924 -17.56889292409717 M-73.5857329127924 -17.56889292409717 C-73.28679337462324 -17.701224589918326, -72.9878538364541 -17.833556255739477, -72.44270659514781 -18.07487676824742 M-73.5857329127924 -17.56889292409717 C-73.34470204052619 -17.675590141322633, -73.10367116825998 -17.782287358548096, -72.44270659514781 -18.07487676824742 M-72.44270659514781 -18.07487676824742 C-72.1634713930145 -18.177637903854393, -71.8842361908812 -18.28039903946136, -71.26961025146062 -18.506587066708033 M-72.44270659514781 -18.07487676824742 C-72.204266827832 -18.162624806732687, -71.96582706051619 -18.25037284521795, -71.26961025146062 -18.506587066708033 M-71.26961025146062 -18.506587066708033 C-70.90761601203597 -18.61402505682273, -70.54562177261133 -18.72146304693743, -70.07126438623541 -18.862249829261067 M-71.26961025146062 -18.506587066708033 C-70.95116788438928 -18.601099089716712, -70.63272551731795 -18.695611112725388, -70.07126438623541 -18.862249829261067 M-70.07126438623541 -18.862249829261067 C-69.79320441268862 -18.925715203712222, -69.51514443914182 -18.989180578163374, -68.85259325967677 -19.140403561325773 M-70.07126438623541 -18.862249829261067 C-69.71456331136957 -18.94366452190715, -69.35786223650373 -19.02507921455323, -68.85259325967677 -19.140403561325773 M-68.85259325967677 -19.140403561325773 C-68.38026423321546 -19.21676605535773, -67.90793520675416 -19.29312854938969, -67.61860465284788 -19.3399052695533 M-68.85259325967677 -19.140403561325773 C-68.39079763652978 -19.215063096397632, -67.92900201338281 -19.28972263146949, -67.61860465284788 -19.3399052695533 M-67.61860465284788 -19.3399052695533 C-67.19964555318987 -19.38032175002527, -66.78068645353184 -19.420738230497243, -66.3743692896239 -19.45993515863156 M-67.61860465284788 -19.3399052695533 C-67.30739604928725 -19.369927189255687, -66.99618744572662 -19.399949108958076, -66.3743692896239 -19.45993515863156 M-66.3743692896239 -19.45993515863156 C-65.89513566048487 -19.475303248346375, -65.41590203134585 -19.490671338061194, -65.125 -19.5 M-66.3743692896239 -19.45993515863156 C-65.90083675230784 -19.475120425428116, -65.42730421499179 -19.490305692224673, -65.125 -19.5 M-65.125 -19.5 C-65.125 -19.5, -65.125 -19.5, -65.125 -19.5 M-65.125 -19.5 C-65.125 -19.5, -65.125 -19.5, -65.125 -19.5" stroke="#94A3B8" stroke-width="1.3" fill="none" stroke-dasharray="0 0" style=""/></g><g class="label" style="" transform="translate(-72.25, -12)"><rect/><foreignObject width="144.5" height="24"><div xmlns="http://www.w3.org/1999/xhtml" style="display: table-cell; white-space: nowrap; line-height: 1.5; max-width: 200px; text-align: center;"><span class="nodeLabel"><p>Website visitor</p></span></div></foreignObject></g></g><g class="node default" id="my-svg-flowchart-P-1" data-look="classic" transform="translate(92.61498260498047, 126)"><rect class="basic label-container" style="" x="-54.0859375" y="-27" width="108.171875" height="54"/><g class="label" style="" transform="translate(-24.0859375, -12)"><rect/><foreignObject width="48.171875" height="24"><div xmlns="http://www.w3.org/1999/xhtml" style="display: table-cell; white-space: nowrap; line-height: 1.5; max-width: 200px; text-align: center;"><span class="nodeLabel"><p>Pixel</p></span></div></foreignObject></g></g><g class="node default" id="my-svg-flowchart-ID-3" data-look="classic" transform="translate(288.58373260498047, 232)"><rect class="basic label-container" style="" x="-121.515625" y="-27" width="243.03125" height="54"/><g class="label" style="" transform="translate(-91.515625, -12)"><rect/><foreignObject width="183.03125" height="24"><div xmlns="http://www.w3.org/1999/xhtml" style="display: table-cell; white-space: nowrap; line-height: 1.5; max-width: 200px; text-align: center;"><span class="nodeLabel"><p>Identity resolution</p></span></div></foreignObject></g></g><g class="node default" id="my-svg-flowchart-PH-4" data-look="classic" transform="translate(288.58373260498047, 126)"><rect class="basic label-container" style="" x="-111.8828125" y="-27" width="223.765625" height="54"/><g class="label" style="" transform="translate(-81.8828125, -12)"><rect/><foreignObject width="163.765625" height="24"><div xmlns="http://www.w3.org/1999/xhtml" style="display: table-cell; white-space: nowrap; line-height: 1.5; max-width: 200px; text-align: center;"><span class="nodeLabel"><p>Product analytics</p></span></div></foreignObject></g></g><g class="node default" id="my-svg-flowchart-WH-6" data-look="classic" transform="translate(518.2634201049805, 126)"><rect class="basic label-container" style="" x="-87.796875" y="-39" width="175.59375" height="78"/><g class="label" style="" transform="translate(-57.796875, -24)"><rect/><foreignObject width="115.59375" height="48"><div xmlns="http://www.w3.org/1999/xhtml" style="display: table-cell; white-space: nowrap; line-height: 1.5; max-width: 200px; text-align: center;"><span class="nodeLabel"><p>Your systems<br />webhook</p></span></div></foreignObject></g></g><g class="node default" id="my-svg-flowchart-CO-9" data-look="classic" transform="translate(288.58373260498047, 338)"><rect class="basic label-container" style="" x="-107.0625" y="-39" width="214.125" height="78"/><g class="label" style="" transform="translate(-77.0625, -24)"><rect/><foreignObject width="154.125" height="48"><div xmlns="http://www.w3.org/1999/xhtml" style="display: table-cell; white-space: nowrap; line-height: 1.5; max-width: 200px; text-align: center;"><span class="nodeLabel"><p>Company + person<br />(when known)</p></span></div></foreignObject></g></g><g class="node default" id="my-svg-flowchart-S-11" data-look="classic" transform="translate(288.58373260498047, 444)"><rect class="basic label-container" style="" x="-63.71875" y="-27" width="127.4375" height="54"/><g class="label" style="" transform="translate(-33.71875, -12)"><rect/><foreignObject width="67.4375" height="24"><div xmlns="http://www.w3.org/1999/xhtml" style="display: table-cell; white-space: nowrap; line-height: 1.5; max-width: 200px; text-align: center;"><span class="nodeLabel"><p>Signals</p></span></div></foreignObject></g></g><g class="node default" id="my-svg-flowchart-SC-13" data-look="classic" transform="translate(288.58373260498047, 550)"><rect class="basic label-container" style="" x="-137.515625" y="-39" width="275.03125" height="78"/><g class="label" style="" transform="translate(-107.515625, -24)"><rect/><foreignObject width="215.03125" height="48"><div xmlns="http://www.w3.org/1999/xhtml" style="display: table; white-space: break-spaces; line-height: 1.5; max-width: 200px; text-align: center; width: 200px;"><span class="nodeLabel"><p>Score<br />Fit ⬩ Intent ⬩ Timing</p></span></div></foreignObject></g></g><g class="node default accent" id="my-svg-flowchart-PL-15" data-look="classic" transform="translate(288.58373260498047, 656)"><rect class="basic label-container" style="fill:#7C3AED !important;stroke:#7C3AED !important" x="-54.0859375" y="-27" width="108.171875" height="54"/><g class="label" style="color:#FFFFFF !important" transform="translate(-24.0859375, -12)"><rect/><foreignObject width="48.171875" height="24"><div style="color: rgb(255, 255, 255) !important; display: table-cell; white-space: nowrap; line-height: 1.5; max-width: 200px; text-align: center;" xmlns="http://www.w3.org/1999/xhtml"><span style="color:#FFFFFF !important" class="nodeLabel"><p>Plays</p></span></div></foreignObject></g></g><g class="node default" id="my-svg-flowchart-O1-17" data-look="classic" transform="translate(104.65795135498047, 762)"><rect class="basic label-container" style="" x="-82.984375" y="-27" width="165.96875" height="54"/><g class="label" style="" transform="translate(-52.984375, -12)"><rect/><foreignObject width="105.96875" height="24"><div xmlns="http://www.w3.org/1999/xhtml" style="display: table-cell; white-space: nowrap; line-height: 1.5; max-width: 200px; text-align: center;"><span class="nodeLabel"><p>Slack alert</p></span></div></foreignObject></g></g><g class="node default" id="my-svg-flowchart-O2-19" data-look="classic" transform="translate(295.80638885498047, 762)"><rect class="basic label-container" style="" x="-78.1640625" y="-27" width="156.328125" height="54"/><g class="label" style="" transform="translate(-48.1640625, -12)"><rect/><foreignObject width="96.328125" height="24"><div xmlns="http://www.w3.org/1999/xhtml" style="display: table-cell; white-space: nowrap; line-height: 1.5; max-width: 200px; text-align: center;"><span class="nodeLabel"><p>CRM update</p></span></div></foreignObject></g></g><g class="node default" id="my-svg-flowchart-O3-21" data-look="classic" transform="translate(506.22045135498047, 762)"><rect class="basic label-container" style="" x="-102.25" y="-39" width="204.5" height="78"/><g class="label" style="" transform="translate(-72.25, -24)"><rect/><foreignObject width="144.5" height="48"><div xmlns="http://www.w3.org/1999/xhtml" style="display: table-cell; white-space: nowrap; line-height: 1.5; max-width: 200px; text-align: center;"><span class="nodeLabel"><p>On-page<br />personalization</p></span></div></foreignObject></g></g></g></g></g><defs><filter id="my-svg-drop-shadow" height="130%" width="130%"><feDropShadow dx="4" dy="4" stdDeviation="0" flood-opacity="0.06" flood-color="#000000"/></filter></defs><defs><filter id="my-svg-drop-shadow-small" height="150%" width="150%"><feDropShadow dx="2" dy="2" stdDeviation="0" flood-opacity="0.06" flood-color="#000000"/></filter></defs><linearGradient id="my-svg-gradient" gradientUnits="objectBoundingBox" x1="0%" y1="0%" x2="100%" y2="0%"><stop offset="0%" stop-color="#94A3B8" stop-opacity="1"/><stop offset="100%" stop-color="hsl(210, 0%, 88.0392156863%)" stop-opacity="1"/></linearGradient></svg>