<svg id="my-svg" width="100%" xmlns="http://www.w3.org/2000/svg" xmlns:xlink="http://www.w3.org/1999/xlink" class="flowchart" style="max-width: 1857.93px; background-color: transparent;" viewBox="0 0 1857.9346923828125 290" role="graphics-document document" aria-roledescription="flowchart-v2"><style>#my-svg{font-family:ui-monospace,SFMono-Regular,Menlo,monospace;font-size:14px;fill:#E2E8F0;}@keyframes edge-animation-frame{from{stroke-dashoffset:0;}}@keyframes dash{to{stroke-dashoffset:0;}}#my-svg .edge-animation-slow{stroke-dasharray:9,5!important;stroke-dashoffset:900;animation:dash 50s linear infinite;stroke-linecap:round;}#my-svg .edge-animation-fast{stroke-dasharray:9,5!important;stroke-dashoffset:900;animation:dash 20s linear infinite;stroke-linecap:round;}#my-svg .error-icon{fill:#161D27;}#my-svg .error-text{fill:#e9e2d8;stroke:#e9e2d8;}#my-svg .edge-thickness-normal{stroke-width:1px;}#my-svg .edge-thickness-thick{stroke-width:3.5px;}#my-svg .edge-pattern-solid{stroke-dasharray:0;}#my-svg .edge-thickness-invisible{stroke-width:0;fill:none;}#my-svg .edge-pattern-dashed{stroke-dasharray:3;}#my-svg .edge-pattern-dotted{stroke-dasharray:2;}#my-svg .marker{fill:#7B8794;stroke:#7B8794;}#my-svg .marker.cross{stroke:#7B8794;}#my-svg svg{font-family:ui-monospace,SFMono-Regular,Menlo,monospace;font-size:14px;}#my-svg p{margin:0;}#my-svg .label{font-family:ui-monospace,SFMono-Regular,Menlo,monospace;color:#E2E8F0;}#my-svg .cluster-label text{fill:#e9e2d8;}#my-svg .cluster-label span{color:#e9e2d8;}#my-svg .cluster-label span p{background-color:transparent;}#my-svg .label text,#my-svg span{fill:#E2E8F0;color:#E2E8F0;}#my-svg .node rect,#my-svg .node circle,#my-svg .node ellipse,#my-svg .node polygon,#my-svg .node path{fill:#161D27;stroke:#2A3548;stroke-width:1px;}#my-svg .rough-node .label text,#my-svg .node .label text,#my-svg .image-shape .label,#my-svg .icon-shape .label{text-anchor:middle;}#my-svg .node .katex path{fill:#000;stroke:#000;stroke-width:1px;}#my-svg .rough-node .label,#my-svg .node .label,#my-svg .image-shape .label,#my-svg .icon-shape .label{text-align:center;}#my-svg .node.clickable{cursor:pointer;}#my-svg .root .anchor path{fill:#7B8794!important;stroke-width:0;stroke:#7B8794;}#my-svg .arrowheadPath{fill:#0b0b0b;}#my-svg .edgePath .path{stroke:#7B8794;stroke-width:1px;}#my-svg .flowchart-link{stroke:#7B8794;fill:none;}#my-svg .edgeLabel{background-color:#0D1320;text-align:center;}#my-svg .edgeLabel p{background-color:#0D1320;}#my-svg .edgeLabel rect{opacity:0.5;background-color:#0D1320;fill:#0D1320;}#my-svg .labelBkg{background-color:rgba(13, 19, 32, 0.5);}#my-svg .cluster rect{fill:transparent;stroke:hsl(215.2941176471, 0%, 1.9607843137%);stroke-width:1px;}#my-svg .cluster text{fill:#e9e2d8;}#my-svg .cluster span{color:#e9e2d8;}#my-svg div.mermaidTooltip{position:absolute;text-align:center;max-width:200px;padding:2px;font-family:ui-monospace,SFMono-Regular,Menlo,monospace;font-size:12px;background:#161D27;border:1px solid hsl(215.2941176471, 0%, 1.9607843137%);border-radius:2px;pointer-events:none;z-index:100;}#my-svg .flowchartTitleText{text-anchor:middle;font-size:18px;fill:#E2E8F0;}#my-svg rect.text{fill:none;stroke-width:0;}#my-svg .icon-shape,#my-svg .image-shape{background-color:#0D1320;text-align:center;}#my-svg .icon-shape p,#my-svg .image-shape p{background-color:#0D1320;padding:2px;}#my-svg .icon-shape .label rect,#my-svg .image-shape .label rect{opacity:0.5;background-color:#0D1320;fill:#0D1320;}#my-svg .label-icon{display:inline-block;height:1em;overflow:visible;vertical-align:-0.125em;}#my-svg .node .label-icon path{fill:currentColor;stroke:revert;stroke-width:revert;}#my-svg .node .neo-node{stroke:#2A3548;}#my-svg [data-look="neo"].node rect,#my-svg [data-look="neo"].cluster rect,#my-svg [data-look="neo"].node polygon{stroke:url(#my-svg-gradient);filter:drop-shadow( 1px 2px 2px rgba(185,185,185,1));}#my-svg [data-look="neo"].node path{stroke:url(#my-svg-gradient);stroke-width:1px;}#my-svg [data-look="neo"].node .outer-path{filter:drop-shadow( 1px 2px 2px rgba(185,185,185,1));}#my-svg [data-look="neo"].node .neo-line path{stroke:#2A3548;filter:none;}#my-svg [data-look="neo"].node circle{stroke:url(#my-svg-gradient);filter:drop-shadow( 1px 2px 2px rgba(185,185,185,1));}#my-svg [data-look="neo"].node circle .state-start{fill:#000000;}#my-svg [data-look="neo"].icon-shape .icon{fill:url(#my-svg-gradient);filter:drop-shadow( 1px 2px 2px rgba(185,185,185,1));}#my-svg [data-look="neo"].icon-shape .icon-neo path{stroke:url(#my-svg-gradient);filter:drop-shadow( 1px 2px 2px rgba(185,185,185,1));}#my-svg :root{--mermaid-font-family:"trebuchet ms",verdana,arial,sans-serif;}#my-svg .accent&gt;*{fill:rgb(124, 58, 237)!important;stroke:rgb(124, 58, 237)!important;color:rgb(255, 255, 255)!important;}#my-svg .accent span{fill:rgb(124, 58, 237)!important;stroke:rgb(124, 58, 237)!important;color:rgb(255, 255, 255)!important;}#my-svg .accent tspan{fill:rgb(255, 255, 255)!important;}</style><g><marker id="my-svg_flowchart-v2-pointEnd" class="marker flowchart-v2" viewBox="0 0 10 10" refX="5" refY="5" markerUnits="userSpaceOnUse" markerWidth="8" markerHeight="8" orient="auto"><path d="M 0 0 L 10 5 L 0 10 z" class="arrowMarkerPath" style="stroke-width: 1; stroke-dasharray: 1, 0;"/></marker><marker id="my-svg_flowchart-v2-pointStart" class="marker flowchart-v2" viewBox="0 0 10 10" refX="4.5" refY="5" markerUnits="userSpaceOnUse" markerWidth="8" markerHeight="8" orient="auto"><path d="M 0 5 L 10 10 L 10 0 z" class="arrowMarkerPath" style="stroke-width: 1; stroke-dasharray: 1, 0;"/></marker><marker id="my-svg_flowchart-v2-pointEnd-margin" class="marker flowchart-v2" viewBox="0 0 11.5 14" refX="11.5" refY="7" markerUnits="userSpaceOnUse" markerWidth="10.5" markerHeight="14" orient="auto"><path d="M 0 0 L 11.5 7 L 0 14 z" class="arrowMarkerPath" style="stroke-width: 0; stroke-dasharray: 1, 0;"/></marker><marker id="my-svg_flowchart-v2-pointStart-margin" class="marker flowchart-v2" viewBox="0 0 11.5 14" refX="1" refY="7" markerUnits="userSpaceOnUse" markerWidth="11.5" markerHeight="14" orient="auto"><polygon points="0,7 11.5,14 11.5,0" class="arrowMarkerPath" style="stroke-width: 0; stroke-dasharray: 1, 0;"/></marker><marker id="my-svg_flowchart-v2-circleEnd" class="marker flowchart-v2" viewBox="0 0 10 10" refX="11" refY="5" markerUnits="userSpaceOnUse" markerWidth="11" markerHeight="11" orient="auto"><circle cx="5" cy="5" r="5" class="arrowMarkerPath" style="stroke-width: 1; stroke-dasharray: 1, 0;"/></marker><marker id="my-svg_flowchart-v2-circleStart" class="marker flowchart-v2" viewBox="0 0 10 10" refX="-1" refY="5" markerUnits="userSpaceOnUse" markerWidth="11" markerHeight="11" orient="auto"><circle cx="5" cy="5" r="5" class="arrowMarkerPath" style="stroke-width: 1; stroke-dasharray: 1, 0;"/></marker><marker id="my-svg_flowchart-v2-circleEnd-margin" class="marker flowchart-v2" viewBox="0 0 10 10" refY="5" refX="12.25" markerUnits="userSpaceOnUse" markerWidth="14" markerHeight="14" orient="auto"><circle cx="5" cy="5" r="5" class="arrowMarkerPath" style="stroke-width: 0; stroke-dasharray: 1, 0;"/></marker><marker id="my-svg_flowchart-v2-circleStart-margin" class="marker flowchart-v2" viewBox="0 0 10 10" refX="-2" refY="5" markerUnits="userSpaceOnUse" markerWidth="14" markerHeight="14" orient="auto"><circle cx="5" cy="5" r="5" class="arrowMarkerPath" style="stroke-width: 0; stroke-dasharray: 1, 0;"/></marker><marker id="my-svg_flowchart-v2-crossEnd" class="marker cross flowchart-v2" viewBox="0 0 11 11" refX="12" refY="5.2" markerUnits="userSpaceOnUse" markerWidth="11" markerHeight="11" orient="auto"><path d="M 1,1 l 9,9 M 10,1 l -9,9" class="arrowMarkerPath" style="stroke-width: 2; stroke-dasharray: 1, 0;"/></marker><marker id="my-svg_flowchart-v2-crossStart" class="marker cross flowchart-v2" viewBox="0 0 11 11" refX="-1" refY="5.2" markerUnits="userSpaceOnUse" markerWidth="11" markerHeight="11" orient="auto"><path d="M 1,1 l 9,9 M 10,1 l -9,9" class="arrowMarkerPath" style="stroke-width: 2; stroke-dasharray: 1, 0;"/></marker><marker id="my-svg_flowchart-v2-crossEnd-margin" class="marker cross flowchart-v2" viewBox="0 0 15 15" refX="17.7" refY="7.5" markerUnits="userSpaceOnUse" markerWidth="12" markerHeight="12" orient="auto"><path d="M 1,1 L 14,14 M 1,14 L 14,1" class="arrowMarkerPath" style="stroke-width: 2.5;"/></marker><marker id="my-svg_flowchart-v2-crossStart-margin" class="marker cross flowchart-v2" viewBox="0 0 15 15" refX="-3.5" refY="7.5" markerUnits="userSpaceOnUse" markerWidth="12" markerHeight="12" orient="auto"><path d="M 1,1 L 14,14 M 1,14 L 14,1" class="arrowMarkerPath" style="stroke-width: 2.5; stroke-dasharray: 1, 0;"/></marker><g class="root"><g class="clusters"/><g class="edgePaths"><path d="M158.919,34L163.002,33.917C167.086,33.833,175.252,33.667,191.264,33.583C207.276,33.5,231.133,33.5,243.061,33.5L254.989,33.5" id="my-svg-L_V_P_0" class="edge-thickness-normal edge-pattern-solid edge-thickness-normal edge-pattern-solid flowchart-link" style=";" data-edge="true" data-et="edge" data-id="L_V_P_0" data-points="W3sieCI6MTU4LjkxOTAwMzc4MzIyNDgsInkiOjM0fSx7IngiOjE4My40MTkwMDYzNDc2NTYyNSwieSI6MzMuNX0seyJ4IjoyNTguOTg5MzE4ODQ3NjU2MjUsInkiOjMzLjV9XQ==" data-look="classic" marker-end="url(#my-svg_flowchart-v2-pointEnd)"/><path d="M361.146,33.5L373.741,33.5C386.336,33.5,411.526,33.5,440.416,45.684C469.306,57.868,501.896,82.236,518.191,94.421L534.487,106.605" id="my-svg-L_P_ID_0" class="edge-thickness-normal edge-pattern-solid edge-thickness-normal edge-pattern-solid flowchart-link" style=";" data-edge="true" data-et="edge" data-id="L_P_ID_0" data-points="W3sieCI6MzYxLjE0NTU2ODg0NzY1NjI1LCJ5IjozMy41fSx7IngiOjQzNi43MTU4ODEzNDc2NTYyNSwieSI6MzMuNX0seyJ4Ijo1MzcuNjkwMTIzMzAzMTAxOCwieSI6MTA5fV0=" data-look="classic" marker-end="url(#my-svg_flowchart-v2-pointEnd)"/><path d="M411.716,134.5L415.883,134.5C420.049,134.5,428.383,134.5,436.049,134.5C443.716,134.5,450.716,134.5,454.216,134.5L457.716,134.5" id="my-svg-L_PH_ID_0" class="edge-thickness-normal edge-pattern-solid edge-thickness-normal edge-pattern-solid flowchart-link" style=";" data-edge="true" data-et="edge" data-id="L_PH_ID_0" data-points="W3sieCI6NDExLjcxNTg4MTM0NzY1NjI1LCJ5IjoxMzQuNX0seyJ4Ijo0MzYuNzE1ODgxMzQ3NjU2MjUsInkiOjEzNC41fSx7IngiOjQ2MS43MTU4ODEzNDc2NTYyNSwieSI6MTM0LjV9XQ==" data-look="classic" marker-end="url(#my-svg_flowchart-v2-pointEnd)"/><path d="M390.646,246L398.324,246C406.002,246,421.359,246,445.888,232.091C470.416,218.182,504.117,190.364,520.967,176.455L537.817,162.546" id="my-svg-L_WH_ID_0" class="edge-thickness-normal edge-pattern-solid edge-thickness-normal edge-pattern-solid flowchart-link" style=";" data-edge="true" data-et="edge" data-id="L_WH_ID_0" data-points="W3sieCI6MzkwLjY0NTU2ODg0NzY1NjI1LCJ5IjoyNDZ9LHsieCI6NDM2LjcxNTg4MTM0NzY1NjI1LCJ5IjoyNDZ9LHsieCI6NTQwLjkwMTY5OTczMzMwNjUsInkiOjE2MH1d" data-look="classic" marker-end="url(#my-svg_flowchart-v2-pointEnd)"/><path d="M681.872,134.5L686.039,134.5C690.205,134.5,698.539,134.5,706.205,134.5C713.872,134.5,720.872,134.5,724.372,134.5L727.872,134.5" id="my-svg-L_ID_CO_0" class="edge-thickness-normal edge-pattern-solid edge-thickness-normal edge-pattern-solid flowchart-link" style=";" data-edge="true" data-et="edge" data-id="L_ID_CO_0" data-points="W3sieCI6NjgxLjg3MjEzMTM0NzY1NjIsInkiOjEzNC41fSx7IngiOjcwNi44NzIxMzEzNDc2NTYyLCJ5IjoxMzQuNX0seyJ4Ijo3MzEuODcyMTMxMzQ3NjU2MiwieSI6MTM0LjV9XQ==" data-look="classic" marker-end="url(#my-svg_flowchart-v2-pointEnd)"/><path d="M926.732,134.5L930.898,134.5C935.065,134.5,943.398,134.5,951.065,134.5C958.732,134.5,965.732,134.5,969.232,134.5L972.732,134.5" id="my-svg-L_CO_S_0" class="edge-thickness-normal edge-pattern-solid edge-thickness-normal edge-pattern-solid flowchart-link" style=";" data-edge="true" data-et="edge" data-id="L_CO_S_0" data-points="W3sieCI6OTI2LjczMTUwNjM0NzY1NjIsInkiOjEzNC41fSx7IngiOjk1MS43MzE1MDYzNDc2NTYyLCJ5IjoxMzQuNX0seyJ4Ijo5NzYuNzMxNTA2MzQ3NjU2MiwieSI6MTM0LjV9XQ==" data-look="classic" marker-end="url(#my-svg_flowchart-v2-pointEnd)"/><path d="M1095.747,134.5L1099.914,134.5C1104.08,134.5,1112.414,134.5,1120.08,134.5C1127.747,134.5,1134.747,134.5,1138.247,134.5L1141.747,134.5" id="my-svg-L_S_SC_0" class="edge-thickness-normal edge-pattern-solid edge-thickness-normal edge-pattern-solid flowchart-link" style=";" data-edge="true" data-et="edge" data-id="L_S_SC_0" data-points="W3sieCI6MTA5NS43NDcxMzEzNDc2NTYyLCJ5IjoxMzQuNX0seyJ4IjoxMTIwLjc0NzEzMTM0NzY1NjIsInkiOjEzNC41fSx7IngiOjExNDUuNzQ3MTMxMzQ3NjU2MiwieSI6MTM0LjV9XQ==" data-look="classic" marker-end="url(#my-svg_flowchart-v2-pointEnd)"/><path d="M1393.903,134.5L1398.07,134.5C1402.237,134.5,1410.57,134.5,1418.237,134.5C1425.903,134.5,1432.903,134.5,1436.403,134.5L1439.903,134.5" id="my-svg-L_SC_PL_0" class="edge-thickness-normal edge-pattern-solid edge-thickness-normal edge-pattern-solid flowchart-link" style=";" data-edge="true" data-et="edge" data-id="L_SC_PL_0" data-points="W3sieCI6MTM5My45MDMzODEzNDc2NTYyLCJ5IjoxMzQuNX0seyJ4IjoxNDE4LjkwMzM4MTM0NzY1NjIsInkiOjEzNC41fSx7IngiOjE0NDMuOTAzMzgxMzQ3NjU2MiwieSI6MTM0LjV9XQ==" data-look="classic" marker-end="url(#my-svg_flowchart-v2-pointEnd)"/><path d="M1515.243,109L1524.545,97.292C1533.848,85.583,1552.454,62.167,1573.686,50.458C1594.919,38.75,1618.778,38.75,1630.708,38.75L1642.638,38.75" id="my-svg-L_PL_O1_0" class="edge-thickness-normal edge-pattern-solid edge-thickness-normal edge-pattern-solid flowchart-link" style=";" data-edge="true" data-et="edge" data-id="L_PL_O1_0" data-points="W3sieCI6MTUxNS4yNDI1MjEzNjA3MTEyLCJ5IjoxMDl9LHsieCI6MTU3MS4wNTk2MzEzNDc2NTYyLCJ5IjozOC43NX0seyJ4IjoxNjQ2LjYzNzc1NjM0NzY1NjIsInkiOjM4Ljc1fV0=" data-look="classic" marker-end="url(#my-svg_flowchart-v2-pointEnd)"/><path d="M1546.06,138.025L1550.226,138.312C1554.393,138.6,1562.726,139.175,1579.524,139.462C1596.323,139.75,1621.586,139.75,1634.217,139.75L1646.849,139.75" id="my-svg-L_PL_O2_0" class="edge-thickness-normal edge-pattern-solid edge-thickness-normal edge-pattern-solid flowchart-link" style=";" data-edge="true" data-et="edge" data-id="L_PL_O2_0" data-points="W3sieCI6MTU0Ni4wNTk2MzEzNDc2NTYyLCJ5IjoxMzguMDI0Nzk5NzUzNTQyODJ9LHsieCI6MTU3MS4wNTk2MzEzNDc2NTYyLCJ5IjoxMzkuNzV9LHsieCI6MTY1MC44NDg2OTM4NDc2NTYyLCJ5IjoxMzkuNzV9XQ==" data-look="classic" marker-end="url(#my-svg_flowchart-v2-pointEnd)"/><path d="M1513.24,160L1522.877,173.458C1532.513,186.917,1551.787,213.833,1564.923,227.292C1578.06,240.75,1585.06,240.75,1588.56,240.75L1592.06,240.75" id="my-svg-L_PL_O3_0" class="edge-thickness-normal edge-pattern-solid edge-thickness-normal edge-pattern-solid flowchart-link" style=";" data-edge="true" data-et="edge" data-id="L_PL_O3_0" data-points="W3sieCI6MTUxMy4yNDAyNTYzNDc2NTYyLCJ5IjoxNjB9LHsieCI6MTU3MS4wNTk2MzEzNDc2NTYyLCJ5IjoyNDAuNzV9LHsieCI6MTU5Ni4wNTk2MzEzNDc2NTYyLCJ5IjoyNDAuNzV9XQ==" data-look="classic" marker-end="url(#my-svg_flowchart-v2-pointEnd)"/></g><g class="edgeLabels"><g class="edgeLabel"><g class="label" data-id="L_V_P_0" transform="translate(0, 0)"><foreignObject width="0" height="0"><div xmlns="http://www.w3.org/1999/xhtml" class="labelBkg" style="display: table-cell; white-space: nowrap; line-height: 1.5; max-width: 200px; text-align: center;"><span class="edgeLabel"></span></div></foreignObject></g></g><g class="edgeLabel"><g class="label" data-id="L_P_ID_0" transform="translate(0, 0)"><foreignObject width="0" height="0"><div xmlns="http://www.w3.org/1999/xhtml" class="labelBkg" style="display: table-cell; white-space: nowrap; line-height: 1.5; max-width: 200px; text-align: center;"><span class="edgeLabel"></span></div></foreignObject></g></g><g class="edgeLabel"><g class="label" data-id="L_PH_ID_0" transform="translate(0, 0)"><foreignObject width="0" height="0"><div xmlns="http://www.w3.org/1999/xhtml" class="labelBkg" style="display: table-cell; white-space: nowrap; line-height: 1.5; max-width: 200px; text-align: center;"><span class="edgeLabel"></span></div></foreignObject></g></g><g class="edgeLabel"><g class="label" data-id="L_WH_ID_0" transform="translate(0, 0)"><foreignObject width="0" height="0"><div xmlns="http://www.w3.org/1999/xhtml" class="labelBkg" style="display: table-cell; white-space: nowrap; line-height: 1.5; max-width: 200px; text-align: center;"><span class="edgeLabel"></span></div></foreignObject></g></g><g class="edgeLabel"><g class="label" data-id="L_ID_CO_0" transform="translate(0, 0)"><foreignObject width="0" height="0"><div xmlns="http://www.w3.org/1999/xhtml" class="labelBkg" style="display: table-cell; white-space: nowrap; line-height: 1.5; max-width: 200px; text-align: center;"><span class="edgeLabel"></span></div></foreignObject></g></g><g class="edgeLabel"><g class="label" data-id="L_CO_S_0" transform="translate(0, 0)"><foreignObject width="0" height="0"><div xmlns="http://www.w3.org/1999/xhtml" class="labelBkg" style="display: table-cell; white-space: nowrap; line-height: 1.5; max-width: 200px; text-align: center;"><span class="edgeLabel"></span></div></foreignObject></g></g><g class="edgeLabel"><g class="label" data-id="L_S_SC_0" transform="translate(0, 0)"><foreignObject width="0" height="0"><div xmlns="http://www.w3.org/1999/xhtml" class="labelBkg" style="display: table-cell; white-space: nowrap; line-height: 1.5; max-width: 200px; text-align: center;"><span class="edgeLabel"></span></div></foreignObject></g></g><g class="edgeLabel"><g class="label" data-id="L_SC_PL_0" transform="translate(0, 0)"><foreignObject width="0" height="0"><div xmlns="http://www.w3.org/1999/xhtml" class="labelBkg" style="display: table-cell; white-space: nowrap; line-height: 1.5; max-width: 200px; text-align: center;"><span class="edgeLabel"></span></div></foreignObject></g></g><g class="edgeLabel"><g class="label" data-id="L_PL_O1_0" transform="translate(0, 0)"><foreignObject width="0" height="0"><div xmlns="http://www.w3.org/1999/xhtml" class="labelBkg" style="display: table-cell; white-space: nowrap; line-height: 1.5; max-width: 200px; text-align: center;"><span class="edgeLabel"></span></div></foreignObject></g></g><g class="edgeLabel"><g class="label" data-id="L_PL_O2_0" transform="translate(0, 0)"><foreignObject width="0" height="0"><div xmlns="http://www.w3.org/1999/xhtml" class="labelBkg" style="display: table-cell; white-space: nowrap; line-height: 1.5; max-width: 200px; text-align: center;"><span class="edgeLabel"></span></div></foreignObject></g></g><g class="edgeLabel"><g class="label" data-id="L_PL_O3_0" transform="translate(0, 0)"><foreignObject width="0" height="0"><div xmlns="http://www.w3.org/1999/xhtml" class="labelBkg" style="display: table-cell; white-space: nowrap; line-height: 1.5; max-width: 200px; text-align: center;"><span class="edgeLabel"></span></div></foreignObject></g></g></g><g class="nodes"><g class="node default" id="my-svg-flowchart-V-0" data-look="classic" transform="translate(83.20950317382812, 33.5)"><g class="basic label-container outer-path"><path d="M-57.21875 -18 C-32.705393599524484 -18, -8.192037199048968 -18, 57.21875 -18 C57.21875 -18, 57.21875 -18, 57.21875 -18 C57.47989173923187 -17.991625692704392, 57.741033478463734 -17.98325138540879, 58.37201395965283 -17.963017069506055 C58.66863662717137 -17.93440223751149, 58.96525929468989 -17.90578740551693, 59.52053891032111 -17.85222024881843 C59.88513322882169 -17.793275466874427, 60.249727547322266 -17.73433068493042, 60.6596053166247 -17.668064825839178 C61.087813752166944 -17.570329044747844, 61.5160221877092 -17.47259326365651, 61.78453251037113 -17.41130753470253 C62.06335689212549 -17.32855392177688, 62.34218127387985 -17.245800308851233, 62.89069792442517 -17.083003446192034 C63.172254802295726 -16.979387912452424, 63.453811680166275 -16.87577237871281, 63.97355608782873 -16.68450163222839 C64.30674948434785 -16.537006799420315, 64.63994288086695 -16.38951196661224, 65.02865730411605 -16.217439622243546 C65.29037283865654 -16.08090279551057, 65.55208837319704 -15.944365968777598, 66.05166593607088 -15.683736674221011 C66.37070999321504 -15.49033029186922, 66.68975405035923 -15.29692390951743, 67.03837822178987 -15.085585888053133 C67.32889819000546 -14.882931734632663, 67.61941815822107 -14.680277581212192, 67.98473954884189 -14.425445193623219 C68.30358415110419 -14.17117510813024, 68.62242875336648 -13.916905022637263, 68.88686111554019 -13.706027250644421 C69.10757685648058 -13.505579054540847, 69.32829259742097 -13.305130858437275, 69.74103591086275 -12.930288301759097 C69.97556558603834 -12.688117156895864, 70.21009526121395 -12.44594601203263, 70.54375394735568 -12.101416024703706 C70.72055785626614 -11.893732092870067, 70.89736176517658 -11.686048161036426, 71.29171668442453 -11.222816433457204 C71.45637825948857 -11.002184923849477, 71.6210398345526 -10.78155341424175, 71.9818505827452 -10.298099882199057 C72.11888964984355 -10.087571074993962, 72.25592871694191 -9.877042267788866, 72.61131973409623 -9.331066229589453 C72.80334079349988 -8.990113394377543, 72.99536185290353 -8.649160559165633, 73.177537514714 -8.325689224335035 C73.36207307463947 -7.942497185721356, 73.54660863456493 -7.559305147107676, 73.67817721428463 -7.286100176203093 C73.80369788956781 -6.976061681476467, 73.92921856485098 -6.6660231867498405, 74.11118159689568 -6.216570979583546 C74.21647522493424 -5.899443348192757, 74.32176885297281 -5.582315716801968, 74.4747713546599 -5.121496559358589 C74.58114342476675 -4.715853754094326, 74.68751549487361 -4.310210948830061, 74.76745241927283 -4.005376811213661 C74.84009957752623 -3.632349007564768, 74.91274673577963 -3.2593212039158748, 74.9880221014601 -2.872798110600833 C75.02009255192792 -2.6240660297992675, 75.05216300239572 -2.375333948997702, 75.13557403308556 -1.728414466338275 C75.16174139148228 -1.3208367373978396, 75.187908749879 -0.9132590084574043, 75.20950189161238 -0.576928396289793 C75.20950189161238 -0.3212241442979553, 75.20950189161238 -0.06551989230611766, 75.20950189161238 0.5769283962897886 C75.18345508123306 0.9826284925544895, 75.15740827085375 1.3883285888191903, 75.13557403308556 1.7284144663382628 C75.08469098717799 2.1230533224034263, 75.03380794127044 2.51769217846859, 74.9880221014601 2.8727981106008205 C74.92495574645154 3.196630514490905, 74.861889391443 3.520462918380989, 74.76745241927283 4.005376811213657 C74.67496875936844 4.358057089100832, 74.58248509946405 4.710737366988008, 74.4747713546599 5.121496559358577 C74.33363011937325 5.546591472239987, 74.19248888408663 5.971686385121397, 74.11118159689569 6.216570979583534 C73.94552235855016 6.625752501100463, 73.77986312020465 7.03493402261739, 73.67817721428463 7.286100176203088 C73.536054747061 7.5812205203266, 73.39393227983737 7.876340864450112, 73.177537514714 8.325689224335031 C72.97089578056861 8.692602548054746, 72.76425404642323 9.059515871774462, 72.61131973409623 9.33106622958945 C72.42398860970609 9.61885714210304, 72.23665748531593 9.906648054616632, 71.98185058274521 10.298099882199049 C71.7233821117277 10.644424086400392, 71.4649136407102 10.990748290601735, 71.29171668442454 11.2228164334572 C71.11835579628031 11.42645599718539, 70.9449949081361 11.630095560913578, 70.54375394735568 12.101416024703695 C70.25353366856538 12.401092290082701, 69.96331338977508 12.700768555461707, 69.74103591086276 12.930288301759093 C69.47661771962045 13.170425906923397, 69.21219952837814 13.410563512087698, 68.8868611155402 13.706027250644409 C68.62966176656573 13.91113688708942, 68.37246241759128 14.116246523534432, 67.98473954884189 14.425445193623217 C67.75341416849786 14.586807765036896, 67.52208878815382 14.748170336450576, 67.03837822178988 15.085585888053126 C66.75504509915845 15.257344092042551, 66.471711976527 15.429102296031976, 66.05166593607088 15.68373667422101 C65.83912990210638 15.79461658700446, 65.62659386814188 15.90549649978791, 65.02865730411605 16.217439622243543 C64.6100889239981 16.402727427731918, 64.19152054388016 16.588015233220293, 63.97355608782874 16.68450163222839 C63.60551751171312 16.819943230350244, 63.23747893559749 16.955384828472095, 62.89069792442518 17.08300344619203 C62.567706817316264 17.17886551136704, 62.244715710207345 17.274727576542052, 61.78453251037115 17.411307534702527 C61.43899771605022 17.49017359668102, 61.09346292172929 17.569039658659516, 60.659605316624706 17.668064825839174 C60.34814077422547 17.71841999761068, 60.036676231826235 17.76877516938219, 59.52053891032112 17.85222024881843 C59.261872001543956 17.87717353441569, 59.003205092766784 17.902126820012953, 58.37201395965283 17.963017069506055 C58.06548581783104 17.972846830393447, 57.75895767600924 17.98267659128084, 57.21875 18 C57.21875 18, 57.21875 18, 57.21875 18 C19.53317833597597 18, -18.152393328048063 18, -57.21875 18 C-57.53357748008984 17.989904095488033, -57.848404960179685 17.97980819097607, -58.372013959652826 17.963017069506055 C-58.81812759859055 17.919981023287882, -59.26424123752827 17.876944977069705, -59.520538910321115 17.85222024881843 C-59.829872518294856 17.80220958999919, -60.139206126268604 17.752198931179954, -60.6596053166247 17.668064825839174 C-61.03846311368902 17.581593005937417, -61.41732091075334 17.495121186035657, -61.78453251037113 17.41130753470253 C-62.2196473204997 17.282167743020615, -62.654762130628285 17.153027951338697, -62.89069792442516 17.083003446192038 C-63.10856978859297 17.002824586192848, -63.326441652760785 16.922645726193657, -63.97355608782873 16.68450163222839 C-64.3841627725497 16.502738233116954, -64.79476945727068 16.32097483400552, -65.02865730411604 16.217439622243546 C-65.35394153727843 16.047739046157222, -65.67922577044082 15.878038470070898, -66.05166593607088 15.683736674221013 C-66.40035363842226 15.472360139939216, -66.74904134077364 15.260983605657419, -67.03837822178987 15.085585888053139 C-67.40236475849187 14.83168463677304, -67.76635129519387 14.577783385492943, -67.98473954884189 14.42544519362322 C-68.31691698874577 14.160542524912781, -68.64909442864968 13.895639856202344, -68.88686111554019 13.706027250644423 C-69.07128314516187 13.538540042881516, -69.25570517478357 13.37105283511861, -69.74103591086275 12.930288301759106 C-69.91045556624782 12.755348597961625, -70.0798752216329 12.580408894164144, -70.54375394735568 12.101416024703703 C-70.72557398982741 11.887839856962902, -70.90739403229915 11.674263689222101, -71.29171668442453 11.222816433457206 C-71.5535427660642 10.871993336906785, -71.81536884770387 10.521170240356366, -71.9818505827452 10.29809988219906 C-72.16491183117724 10.016868645779365, -72.34797307960928 9.73563740935967, -72.61131973409623 9.33106622958946 C-72.78057348532478 9.030539055482391, -72.94982723655333 8.730011881375324, -73.177537514714 8.325689224335036 C-73.30614562068325 8.058631740517253, -73.4347537266525 7.7915742566994695, -73.67817721428463 7.286100176203095 C-73.8257291362944 6.9216440761166025, -73.97328105830417 6.557187976030111, -74.11118159689568 6.2165709795835475 C-74.19717481298271 5.957573113887747, -74.28316802906974 5.698575248191947, -74.4747713546599 5.121496559358584 C-74.56662682602817 4.771211836618228, -74.65848229739643 4.420927113877873, -74.76745241927281 4.005376811213663 C-74.84658143854469 3.599066021176735, -74.92571045781658 3.1927552311398073, -74.9880221014601 2.8727981106008347 C-75.02981342617505 2.548672848742159, -75.07160475089 2.2245475868834834, -75.13557403308556 1.7284144663382852 C-75.16163450720417 1.3225015463047987, -75.18769498132279 0.9165886262713121, -75.20950189161238 0.5769283962897952 C-75.20950189161238 0.21339535620004163, -75.20950189161238 -0.15013768388971194, -75.20950189161238 -0.5769283962897864 C-75.19265434529174 -0.8393425293281704, -75.17580679897112 -1.1017566623665545, -75.13557403308556 -1.7284144663382603 C-75.10188549309554 -1.989696129946215, -75.06819695310551 -2.2509777935541697, -74.9880221014601 -2.8727981106008262 C-74.93661902693917 -3.136742034222147, -74.88521595241825 -3.400685957843467, -74.76745241927283 -4.005376811213655 C-74.70474974623029 -4.244489279035242, -74.64204707318775 -4.483601746856828, -74.4747713546599 -5.121496559358575 C-74.387384565511 -5.384691645080988, -74.29999777636212 -5.647886730803401, -74.11118159689569 -6.2165709795835244 C-73.93909676093904 -6.641623851430431, -73.76701192498238 -7.066676723277338, -73.67817721428463 -7.286100176203086 C-73.52998153920191 -7.593831666391835, -73.3817858641192 -7.9015631565805835, -73.177537514714 -8.32568922433503 C-72.98089218292651 -8.674852923422794, -72.78424685113903 -9.024016622510556, -72.61131973409623 -9.331066229589455 C-72.38589668369225 -9.677376569574639, -72.16047363328828 -10.023686909559821, -71.98185058274521 -10.298099882199054 C-71.7968057946807 -10.546043040278512, -71.61176100661618 -10.793986198357972, -71.29171668442454 -11.2228164334572 C-71.08864687458598 -11.461353787093097, -70.88557706474741 -11.699891140728992, -70.54375394735568 -12.101416024703695 C-70.30137823729387 -12.351688844758392, -70.05900252723205 -12.60196166481309, -69.74103591086276 -12.930288301759086 C-69.45857249542254 -13.186814102089457, -69.17610907998233 -13.44333990241983, -68.8868611155402 -13.706027250644407 C-68.67151254813571 -13.87776200248344, -68.45616398073122 -14.049496754322472, -67.9847395488419 -14.425445193623215 C-67.77387577105156 -14.572534636863928, -67.56301199326124 -14.719624080104639, -67.03837822178988 -15.085585888053124 C-66.83080425171333 -15.211418448553582, -66.62323028163678 -15.33725100905404, -66.05166593607089 -15.683736674221008 C-65.81132650125478 -15.809121603419815, -65.57098706643868 -15.934506532618624, -65.02865730411605 -16.217439622243543 C-64.6080762370909 -16.4036183845215, -64.18749517006574 -16.58979714679946, -63.97355608782874 -16.684501632228386 C-63.72948161348213 -16.77432329498765, -63.48540713913551 -16.86414495774691, -62.89069792442518 -17.08300344619203 C-62.456652658153175 -17.211825802871466, -62.022607391881174 -17.340648159550902, -61.78453251037115 -17.411307534702523 C-61.50992934221923 -17.473983915880062, -61.23532617406731 -17.536660297057598, -60.659605316624706 -17.668064825839174 C-60.212337079490126 -17.74037568580211, -59.765068842355554 -17.812686545765047, -59.52053891032112 -17.85222024881843 C-59.16664157996756 -17.886360298653827, -58.812744249614 -17.920500348489224, -58.37201395965283 -17.963017069506055 C-58.06597068454105 -17.972831281661794, -57.75992740942927 -17.98264549381753, -57.21875000000001 -18 C-57.21875000000001 -18, -57.21875000000001 -18, -57.21875 -18" stroke="none" stroke-width="0" fill="#161D27" style=""/><path d="M-57.21875 -18 C-19.64144228858278 -18, 17.93586542283444 -18, 57.21875 -18 M-57.21875 -18 C-15.680604153654826 -18, 25.857541692690347 -18, 57.21875 -18 M57.21875 -18 C57.21875 -18, 57.21875 -18, 57.21875 -18 M57.21875 -18 C57.21875 -18, 57.21875 -18, 57.21875 -18 M57.21875 -18 C57.49462279005815 -17.991153296576645, 57.770495580116304 -17.982306593153293, 58.37201395965283 -17.963017069506055 M57.21875 -18 C57.63365851319994 -17.986694691552106, 58.04856702639988 -17.973389383104212, 58.37201395965283 -17.963017069506055 M58.37201395965283 -17.963017069506055 C58.64048392949251 -17.937118094398, 58.90895389933219 -17.911219119289942, 59.52053891032111 -17.85222024881843 M58.37201395965283 -17.963017069506055 C58.60223968400176 -17.94080747076506, 58.832465408350686 -17.91859787202406, 59.52053891032111 -17.85222024881843 M59.52053891032111 -17.85222024881843 C59.79523953544829 -17.807808782083033, 60.06994016057547 -17.763397315347635, 60.6596053166247 -17.668064825839178 M59.52053891032111 -17.85222024881843 C59.86417576194785 -17.796663707591005, 60.20781261357459 -17.74110716636358, 60.6596053166247 -17.668064825839178 M60.6596053166247 -17.668064825839178 C60.90671713538498 -17.61166316576246, 61.153828954145254 -17.555261505685746, 61.78453251037113 -17.41130753470253 M60.6596053166247 -17.668064825839178 C61.015592323684935 -17.586813114509997, 61.37157933074517 -17.505561403180817, 61.78453251037113 -17.41130753470253 M61.78453251037113 -17.41130753470253 C62.204602885975284 -17.286632852217615, 62.62467326157944 -17.161958169732696, 62.89069792442517 -17.083003446192034 M61.78453251037113 -17.41130753470253 C62.145006695073974 -17.304320688850332, 62.50548087977682 -17.197333842998134, 62.89069792442517 -17.083003446192034 M62.89069792442517 -17.083003446192034 C63.22391916958661 -16.9603749477092, 63.55714041474805 -16.83774644922637, 63.97355608782873 -16.68450163222839 M62.89069792442517 -17.083003446192034 C63.190348245936825 -16.972729357938537, 63.489998567448474 -16.862455269685043, 63.97355608782873 -16.68450163222839 M63.97355608782873 -16.68450163222839 C64.3642654878705 -16.511546170812462, 64.75497488791227 -16.338590709396534, 65.02865730411605 -16.217439622243546 M63.97355608782873 -16.68450163222839 C64.19559633636557 -16.586211000791085, 64.4176365849024 -16.48792036935378, 65.02865730411605 -16.217439622243546 M65.02865730411605 -16.217439622243546 C65.32479613342132 -16.062944184680962, 65.62093496272658 -15.908448747118376, 66.05166593607088 -15.683736674221011 M65.02865730411605 -16.217439622243546 C65.24138498132963 -16.106459729299804, 65.4541126585432 -15.995479836356061, 66.05166593607088 -15.683736674221011 M66.05166593607088 -15.683736674221011 C66.33769090876898 -15.510346654902111, 66.62371588146706 -15.336956635583213, 67.03837822178987 -15.085585888053133 M66.05166593607088 -15.683736674221011 C66.29458271190182 -15.536479097174862, 66.53749948773277 -15.389221520128713, 67.03837822178987 -15.085585888053133 M67.03837822178987 -15.085585888053133 C67.2591196457388 -14.93160622644859, 67.47986106968773 -14.777626564844049, 67.98473954884189 -14.425445193623219 M67.03837822178987 -15.085585888053133 C67.33327763570662 -14.879876822894689, 67.62817704962336 -14.674167757736244, 67.98473954884189 -14.425445193623219 M67.98473954884189 -14.425445193623219 C68.31665207193959 -14.160753789015983, 68.6485645950373 -13.896062384408749, 68.88686111554019 -13.706027250644421 M67.98473954884189 -14.425445193623219 C68.27281691381832 -14.195711161115145, 68.56089427879476 -13.965977128607072, 68.88686111554019 -13.706027250644421 M68.88686111554019 -13.706027250644421 C69.0713064036839 -13.538518920107192, 69.25575169182763 -13.371010589569963, 69.74103591086275 -12.930288301759097 M68.88686111554019 -13.706027250644421 C69.20460210313973 -13.417463292672352, 69.52234309073928 -13.128899334700282, 69.74103591086275 -12.930288301759097 M69.74103591086275 -12.930288301759097 C69.96127377657761 -12.702874623543458, 70.18151164229246 -12.47546094532782, 70.54375394735568 -12.101416024703706 M69.74103591086275 -12.930288301759097 C69.94995105512974 -12.714566263051092, 70.15886619939674 -12.498844224343088, 70.54375394735568 -12.101416024703706 M70.54375394735568 -12.101416024703706 C70.80932071369602 -11.78946618978325, 71.07488748003637 -11.477516354862793, 71.29171668442453 -11.222816433457204 M70.54375394735568 -12.101416024703706 C70.81461387098238 -11.783248546045517, 71.08547379460907 -11.465081067387326, 71.29171668442453 -11.222816433457204 M71.29171668442453 -11.222816433457204 C71.46654080568828 -10.988568037768859, 71.64136492695205 -10.754319642080516, 71.9818505827452 -10.298099882199057 M71.29171668442453 -11.222816433457204 C71.53734789680787 -10.893692986327322, 71.78297910919122 -10.564569539197437, 71.9818505827452 -10.298099882199057 M71.9818505827452 -10.298099882199057 C72.13201847438454 -10.067401674915985, 72.2821863660239 -9.836703467632912, 72.61131973409623 -9.331066229589453 M71.9818505827452 -10.298099882199057 C72.22519749084007 -9.924253683570951, 72.46854439893495 -9.550407484942847, 72.61131973409623 -9.331066229589453 M72.61131973409623 -9.331066229589453 C72.83508279896328 -8.933752249450666, 73.05884586383036 -8.53643826931188, 73.177537514714 -8.325689224335035 M72.61131973409623 -9.331066229589453 C72.81735699752807 -8.965226204830943, 73.0233942609599 -8.599386180072434, 73.177537514714 -8.325689224335035 M73.177537514714 -8.325689224335035 C73.28297778017037 -8.106740257054637, 73.38841804562672 -7.887791289774239, 73.67817721428463 -7.286100176203093 M73.177537514714 -8.325689224335035 C73.32584081327094 -8.017734251699292, 73.47414411182788 -7.709779279063548, 73.67817721428463 -7.286100176203093 M73.67817721428463 -7.286100176203093 C73.83019679795267 -6.910608865444313, 73.98221638162072 -6.535117554685534, 74.11118159689568 -6.216570979583546 M73.67817721428463 -7.286100176203093 C73.81371503768999 -6.9513191319463, 73.94925286109535 -6.616538087689506, 74.11118159689568 -6.216570979583546 M74.11118159689568 -6.216570979583546 C74.18673081152153 -5.9890287822631825, 74.26228002614737 -5.761486584942819, 74.4747713546599 -5.121496559358589 M74.11118159689568 -6.216570979583546 C74.234208697752 -5.8460329535109, 74.3572357986083 -5.4754949274382545, 74.4747713546599 -5.121496559358589 M74.4747713546599 -5.121496559358589 C74.57103655064752 -4.754395645457894, 74.66730174663516 -4.387294731557199, 74.76745241927283 -4.005376811213661 M74.4747713546599 -5.121496559358589 C74.58119909240811 -4.715641469251298, 74.68762683015633 -4.309786379144007, 74.76745241927283 -4.005376811213661 M74.76745241927283 -4.005376811213661 C74.8541148092363 -3.5603837548538597, 74.94077719919976 -3.1153906984940587, 74.9880221014601 -2.872798110600833 M74.76745241927283 -4.005376811213661 C74.81365678485773 -3.7681271592313488, 74.85986115044261 -3.5308775072490373, 74.9880221014601 -2.872798110600833 M74.9880221014601 -2.872798110600833 C75.0431978113275 -2.4448662005455875, 75.09837352119489 -2.016934290490342, 75.13557403308556 -1.728414466338275 M74.9880221014601 -2.872798110600833 C75.03010231050644 -2.546432318914634, 75.07218251955277 -2.2200665272284357, 75.13557403308556 -1.728414466338275 M75.13557403308556 -1.728414466338275 C75.16427559143044 -1.2813645276359835, 75.1929771497753 -0.834314588933692, 75.20950189161238 -0.576928396289793 M75.13557403308556 -1.728414466338275 C75.16412466667586 -1.2837153025126526, 75.19267530026617 -0.8390161386870303, 75.20950189161238 -0.576928396289793 M75.20950189161238 -0.576928396289793 C75.20950189161238 -0.16651244937039006, 75.20950189161238 0.24390349754901286, 75.20950189161238 0.5769283962897886 M75.20950189161238 -0.576928396289793 C75.20950189161238 -0.2253949284970494, 75.20950189161238 0.12613853929569419, 75.20950189161238 0.5769283962897886 M75.20950189161238 0.5769283962897886 C75.1917674619285 0.8531564535899843, 75.17403303224465 1.1293845108901799, 75.13557403308556 1.7284144663382628 M75.20950189161238 0.5769283962897886 C75.18108256070964 1.0195824147708308, 75.15266322980692 1.4622364332518731, 75.13557403308556 1.7284144663382628 M75.13557403308556 1.7284144663382628 C75.07760528251598 2.178008648531417, 75.01963653194639 2.6276028307245722, 74.9880221014601 2.8727981106008205 M75.13557403308556 1.7284144663382628 C75.09204843487967 2.0659904109216294, 75.04852283667378 2.403566355504996, 74.9880221014601 2.8727981106008205 M74.9880221014601 2.8727981106008205 C74.90922287410994 3.2774154888212736, 74.8304236467598 3.682032867041727, 74.76745241927283 4.005376811213657 M74.9880221014601 2.8727981106008205 C74.9034841171655 3.30688279284425, 74.81894613287092 3.74096747508768, 74.76745241927283 4.005376811213657 M74.76745241927283 4.005376811213657 C74.67188568022353 4.369814206095366, 74.57631894117422 4.734251600977075, 74.4747713546599 5.121496559358577 M74.76745241927283 4.005376811213657 C74.69119281828381 4.296187720904913, 74.61493321729479 4.5869986305961685, 74.4747713546599 5.121496559358577 M74.4747713546599 5.121496559358577 C74.33208267028117 5.551252142352815, 74.18939398590246 5.981007725347053, 74.11118159689569 6.216570979583534 M74.4747713546599 5.121496559358577 C74.34468710745766 5.51328958582159, 74.21460286025541 5.905082612284604, 74.11118159689569 6.216570979583534 M74.11118159689569 6.216570979583534 C73.96098147559151 6.587568183126642, 73.81078135428734 6.95856538666975, 73.67817721428463 7.286100176203088 M74.11118159689569 6.216570979583534 C74.0154331721557 6.4530714398611835, 73.9196847474157 6.689571900138832, 73.67817721428463 7.286100176203088 M73.67817721428463 7.286100176203088 C73.56392629132633 7.52334466230415, 73.44967536836802 7.760589148405212, 73.177537514714 8.325689224335031 M73.67817721428463 7.286100176203088 C73.5584682757611 7.534678348408153, 73.43875933723757 7.783256520613219, 73.177537514714 8.325689224335031 M73.177537514714 8.325689224335031 C72.9602692436089 8.711471040480257, 72.74300097250382 9.097252856625483, 72.61131973409623 9.33106622958945 M73.177537514714 8.325689224335031 C72.95319400587204 8.72403384152759, 72.72885049703007 9.122378458720148, 72.61131973409623 9.33106622958945 M72.61131973409623 9.33106622958945 C72.37279901186173 9.69749811072365, 72.13427828962723 10.06392999185785, 71.98185058274521 10.298099882199049 M72.61131973409623 9.33106622958945 C72.47387694531132 9.542215261719551, 72.3364341565264 9.753364293849655, 71.98185058274521 10.298099882199049 M71.98185058274521 10.298099882199049 C71.78363372492913 10.563692413745361, 71.58541686711305 10.829284945291674, 71.29171668442454 11.2228164334572 M71.98185058274521 10.298099882199049 C71.7900242025862 10.555129755869391, 71.59819782242718 10.812159629539732, 71.29171668442454 11.2228164334572 M71.29171668442454 11.2228164334572 C70.99291783184164 11.573802567837435, 70.69411897925873 11.92478870221767, 70.54375394735568 12.101416024703695 M71.29171668442454 11.2228164334572 C71.01530925751625 11.54750032513182, 70.73890183060797 11.87218421680644, 70.54375394735568 12.101416024703695 M70.54375394735568 12.101416024703695 C70.23393353054756 12.421331041787365, 69.92411311373944 12.741246058871035, 69.74103591086276 12.930288301759093 M70.54375394735568 12.101416024703695 C70.30263581407894 12.350390293478839, 70.06151768080218 12.599364562253983, 69.74103591086276 12.930288301759093 M69.74103591086276 12.930288301759093 C69.43875120855209 13.204815270382694, 69.13646650624143 13.479342239006295, 68.8868611155402 13.706027250644409 M69.74103591086276 12.930288301759093 C69.41862990310366 13.223088907610395, 69.09622389534455 13.515889513461696, 68.8868611155402 13.706027250644409 M68.8868611155402 13.706027250644409 C68.5855387333374 13.94632383192579, 68.28421635113462 14.186620413207171, 67.98473954884189 14.425445193623217 M68.8868611155402 13.706027250644409 C68.53055700770301 13.99017029499405, 68.17425289986583 14.274313339343692, 67.98473954884189 14.425445193623217 M67.98473954884189 14.425445193623217 C67.75300918328382 14.587090265190676, 67.52127881772576 14.748735336758134, 67.03837822178988 15.085585888053126 M67.98473954884189 14.425445193623217 C67.68632454921024 14.633606579189122, 67.38790954957861 14.841767964755027, 67.03837822178988 15.085585888053126 M67.03837822178988 15.085585888053126 C66.65405763845685 15.318563284188055, 66.2697370551238 15.551540680322985, 66.05166593607088 15.68373667422101 M67.03837822178988 15.085585888053126 C66.67553482873552 15.30554368522714, 66.31269143568116 15.52550148240115, 66.05166593607088 15.68373667422101 M66.05166593607088 15.68373667422101 C65.65794788766847 15.889139127884098, 65.26422983926606 16.094541581547187, 65.02865730411605 16.217439622243543 M66.05166593607088 15.68373667422101 C65.71955212808234 15.857000235119584, 65.3874383200938 16.030263796018158, 65.02865730411605 16.217439622243543 M65.02865730411605 16.217439622243543 C64.73972284901846 16.34534233457916, 64.45078839392086 16.473245046914784, 63.97355608782874 16.68450163222839 M65.02865730411605 16.217439622243543 C64.66667762401768 16.377677288877397, 64.30469794391931 16.537914955511248, 63.97355608782874 16.68450163222839 M63.97355608782874 16.68450163222839 C63.739000996558865 16.7708200740192, 63.50444590528898 16.85713851581001, 62.89069792442518 17.08300344619203 M63.97355608782874 16.68450163222839 C63.62402958934821 16.813130614656757, 63.274503090867675 16.941759597085127, 62.89069792442518 17.08300344619203 M62.89069792442518 17.08300344619203 C62.601792028806884 17.16874919951355, 62.312886133188584 17.25449495283507, 61.78453251037115 17.411307534702527 M62.89069792442518 17.08300344619203 C62.61718199250593 17.164181539071244, 62.34366606058667 17.245359631950453, 61.78453251037115 17.411307534702527 M61.78453251037115 17.411307534702527 C61.36454467302896 17.507167017899114, 60.94455683568676 17.603026501095698, 60.659605316624706 17.668064825839174 M61.78453251037115 17.411307534702527 C61.4881797115526 17.47894812715012, 61.191826912734044 17.546588719597707, 60.659605316624706 17.668064825839174 M60.659605316624706 17.668064825839174 C60.395959436037906 17.71068904720811, 60.132313555451105 17.753313268577042, 59.52053891032112 17.85222024881843 M60.659605316624706 17.668064825839174 C60.42860791933349 17.705410693621648, 60.19761052204226 17.74275656140412, 59.52053891032112 17.85222024881843 M59.52053891032112 17.85222024881843 C59.125756568995335 17.890304426490896, 58.73097422766955 17.928388604163366, 58.37201395965283 17.963017069506055 M59.52053891032112 17.85222024881843 C59.28962320824832 17.874496408880628, 59.05870750617553 17.89677256894283, 58.37201395965283 17.963017069506055 M58.37201395965283 17.963017069506055 C57.984633110039695 17.975439619362067, 57.59725226042656 17.987862169218076, 57.21875 18 M58.37201395965283 17.963017069506055 C58.05651313199395 17.973134566963967, 57.74101230433507 17.98325206442188, 57.21875 18 M57.21875 18 C57.21875 18, 57.21875 18, 57.21875 18 M57.21875 18 C57.21875 18, 57.21875 18, 57.21875 18 M57.21875 18 C29.403366029190945 18, 1.5879820583818898 18, -57.21875 18 M57.21875 18 C26.248161019462906 18, -4.722427961074189 18, -57.21875 18 M-57.21875 18 C-57.46949131445763 17.991959214083707, -57.720232628915255 17.98391842816741, -58.372013959652826 17.963017069506055 M-57.21875 18 C-57.49210718502168 17.991233967133837, -57.765464370043354 17.982467934267675, -58.372013959652826 17.963017069506055 M-58.372013959652826 17.963017069506055 C-58.825393943915756 17.919280047693416, -59.27877392817869 17.875543025880777, -59.520538910321115 17.85222024881843 M-58.372013959652826 17.963017069506055 C-58.730476041300584 17.92843666360322, -59.088938122948335 17.893856257700392, -59.520538910321115 17.85222024881843 M-59.520538910321115 17.85222024881843 C-59.92513173500277 17.786808818588113, -60.329724559684436 17.7213973883578, -60.6596053166247 17.668064825839174 M-59.520538910321115 17.85222024881843 C-59.95787258090839 17.781515532531145, -60.395206251495665 17.710810816243864, -60.6596053166247 17.668064825839174 M-60.6596053166247 17.668064825839174 C-61.02862967161633 17.5838374249213, -61.39765402660797 17.499610024003427, -61.78453251037113 17.41130753470253 M-60.6596053166247 17.668064825839174 C-60.97956156394674 17.595036900297558, -61.29951781126877 17.522008974755945, -61.78453251037113 17.41130753470253 M-61.78453251037113 17.41130753470253 C-62.07136247571564 17.32617790658949, -62.358192441060154 17.241048278476452, -62.89069792442516 17.083003446192038 M-61.78453251037113 17.41130753470253 C-62.17465402460536 17.295521517067424, -62.5647755388396 17.179735499432322, -62.89069792442516 17.083003446192038 M-62.89069792442516 17.083003446192038 C-63.261608248282734 16.946505018355, -63.63251857214031 16.810006590517965, -63.97355608782873 16.68450163222839 M-62.89069792442516 17.083003446192038 C-63.111368061463764 17.001794795909447, -63.33203819850236 16.920586145626856, -63.97355608782873 16.68450163222839 M-63.97355608782873 16.68450163222839 C-64.18796880878075 16.589587480990318, -64.40238152973276 16.494673329752246, -65.02865730411604 16.217439622243546 M-63.97355608782873 16.68450163222839 C-64.27654087256887 16.550379255748236, -64.579525657309 16.416256879268083, -65.02865730411604 16.217439622243546 M-65.02865730411604 16.217439622243546 C-65.26553191086036 16.09386229163046, -65.50240651760468 15.970284961017374, -66.05166593607088 15.683736674221013 M-65.02865730411604 16.217439622243546 C-65.26586498965956 16.093688524634263, -65.50307267520309 15.969937427024982, -66.05166593607088 15.683736674221013 M-66.05166593607088 15.683736674221013 C-66.40061520102527 15.472201579152152, -66.74956446597969 15.260666484083293, -67.03837822178987 15.085585888053139 M-66.05166593607088 15.683736674221013 C-66.37523608730297 15.487586547034851, -66.69880623853504 15.291436419848688, -67.03837822178987 15.085585888053139 M-67.03837822178987 15.085585888053139 C-67.25030698742633 14.937753555393543, -67.4622357530628 14.789921222733948, -67.98473954884189 14.42544519362322 M-67.03837822178987 15.085585888053139 C-67.4108539821438 14.825762921846017, -67.78332974249776 14.565939955638896, -67.98473954884189 14.42544519362322 M-67.98473954884189 14.42544519362322 C-68.34072014226545 14.141560143409354, -68.69670073568903 13.857675093195489, -68.88686111554019 13.706027250644423 M-67.98473954884189 14.42544519362322 C-68.27200112361552 14.196361732092791, -68.55926269838916 13.96727827056236, -68.88686111554019 13.706027250644423 M-68.88686111554019 13.706027250644423 C-69.14580677285332 13.470859655999284, -69.40475243016645 13.235692061354147, -69.74103591086275 12.930288301759106 M-68.88686111554019 13.706027250644423 C-69.11986578066124 13.494418578747085, -69.35287044578232 13.282809906849748, -69.74103591086275 12.930288301759106 M-69.74103591086275 12.930288301759106 C-70.03166415919836 12.63019077432965, -70.32229240753396 12.330093246900192, -70.54375394735568 12.101416024703703 M-69.74103591086275 12.930288301759106 C-69.94107964845291 12.723726718800966, -70.14112338604308 12.517165135842825, -70.54375394735568 12.101416024703703 M-70.54375394735568 12.101416024703703 C-70.79073174431512 11.811301850960378, -71.03770954127457 11.521187677217052, -71.29171668442453 11.222816433457206 M-70.54375394735568 12.101416024703703 C-70.74451898531476 11.865585987262689, -70.94528402327383 11.629755949821675, -71.29171668442453 11.222816433457206 M-71.29171668442453 11.222816433457206 C-71.5233223139193 10.912485989641125, -71.75492794341406 10.602155545825044, -71.9818505827452 10.29809988219906 M-71.29171668442453 11.222816433457206 C-71.51476591412303 10.923950785864063, -71.73781514382154 10.62508513827092, -71.9818505827452 10.29809988219906 M-71.9818505827452 10.29809988219906 C-72.2332673438654 9.911856222265099, -72.4846841049856 9.525612562331139, -72.61131973409623 9.33106622958946 M-71.9818505827452 10.29809988219906 C-72.14767596673914 10.043347562033912, -72.3135013507331 9.788595241868766, -72.61131973409623 9.33106622958946 M-72.61131973409623 9.33106622958946 C-72.81692157118367 8.965999348397114, -73.02252340827111 8.600932467204766, -73.177537514714 8.325689224335036 M-72.61131973409623 9.33106622958946 C-72.82273391441282 8.95567894443019, -73.03414809472942 8.580291659270918, -73.177537514714 8.325689224335036 M-73.177537514714 8.325689224335036 C-73.28199673845009 8.108777411177734, -73.38645596218616 7.891865598020431, -73.67817721428463 7.286100176203095 M-73.177537514714 8.325689224335036 C-73.33093092167675 8.007164532683758, -73.4843243286395 7.6886398410324786, -73.67817721428463 7.286100176203095 M-73.67817721428463 7.286100176203095 C-73.83581804336522 6.896724280595931, -73.99345887244581 6.5073483849887666, -74.11118159689568 6.2165709795835475 M-73.67817721428463 7.286100176203095 C-73.82416474103233 6.92550816265944, -73.97015226778004 6.564916149115786, -74.11118159689568 6.2165709795835475 M-74.11118159689568 6.2165709795835475 C-74.22778915852565 5.865367582845942, -74.34439672015563 5.514164186108336, -74.4747713546599 5.121496559358584 M-74.11118159689568 6.2165709795835475 C-74.24898586952513 5.801526466552808, -74.38679014215457 5.386481953522068, -74.4747713546599 5.121496559358584 M-74.4747713546599 5.121496559358584 C-74.57161764335457 4.752179687118719, -74.66846393204925 4.3828628148788535, -74.76745241927281 4.005376811213663 M-74.4747713546599 5.121496559358584 C-74.58027276948896 4.719173940012924, -74.68577418431802 4.316851320667265, -74.76745241927281 4.005376811213663 M-74.76745241927281 4.005376811213663 C-74.82145046187938 3.7281082749192995, -74.87544850448595 3.4508397386249356, -74.9880221014601 2.8727981106008347 M-74.76745241927281 4.005376811213663 C-74.83919434349185 3.6369971930099765, -74.9109362677109 3.26861757480629, -74.9880221014601 2.8727981106008347 M-74.9880221014601 2.8727981106008347 C-75.0192118461405 2.6308966099713933, -75.0504015908209 2.3889951093419515, -75.13557403308556 1.7284144663382852 M-74.9880221014601 2.8727981106008347 C-75.0232000459433 2.5999649198599926, -75.0583779904265 2.327131729119151, -75.13557403308556 1.7284144663382852 M-75.13557403308556 1.7284144663382852 C-75.15611267769786 1.4085084980061282, -75.17665132231016 1.0886025296739712, -75.20950189161238 0.5769283962897952 M-75.13557403308556 1.7284144663382852 C-75.15896521424027 1.3640779388322346, -75.18235639539496 0.999741411326184, -75.20950189161238 0.5769283962897952 M-75.20950189161238 0.5769283962897952 C-75.20950189161238 0.2585701321224101, -75.20950189161238 -0.05978813204497502, -75.20950189161238 -0.5769283962897864 M-75.20950189161238 0.5769283962897952 C-75.20950189161238 0.31563368086692134, -75.20950189161238 0.05433896544404748, -75.20950189161238 -0.5769283962897864 M-75.20950189161238 -0.5769283962897864 C-75.18379043035631 -0.9774051592710553, -75.15807896910023 -1.3778819222523242, -75.13557403308556 -1.7284144663382603 M-75.20950189161238 -0.5769283962897864 C-75.18269145726661 -0.9945225522182157, -75.15588102292084 -1.412116708146645, -75.13557403308556 -1.7284144663382603 M-75.13557403308556 -1.7284144663382603 C-75.09255077553743 -2.0620943559784393, -75.0495275179893 -2.395774245618618, -74.9880221014601 -2.8727981106008262 M-75.13557403308556 -1.7284144663382603 C-75.09216234680265 -2.06510693254145, -75.04875066051974 -2.401799398744639, -74.9880221014601 -2.8727981106008262 M-74.9880221014601 -2.8727981106008262 C-74.93560675092476 -3.141939857611516, -74.88319140038944 -3.411081604622205, -74.76745241927283 -4.005376811213655 M-74.9880221014601 -2.8727981106008262 C-74.90325657855328 -3.308051155527763, -74.81849105564646 -3.7433042004547, -74.76745241927283 -4.005376811213655 M-74.76745241927283 -4.005376811213655 C-74.70199264577145 -4.255003298019689, -74.63653287227008 -4.504629784825722, -74.4747713546599 -5.121496559358575 M-74.76745241927283 -4.005376811213655 C-74.65085915892705 -4.4499974447507995, -74.53426589858127 -4.894618078287944, -74.4747713546599 -5.121496559358575 M-74.4747713546599 -5.121496559358575 C-74.35256296241259 -5.489568765544378, -74.2303545701653 -5.8576409717301825, -74.11118159689569 -6.2165709795835244 M-74.4747713546599 -5.121496559358575 C-74.36748369481664 -5.444629896839258, -74.26019603497339 -5.767763234319942, -74.11118159689569 -6.2165709795835244 M-74.11118159689569 -6.2165709795835244 C-74.01924800215015 -6.443648736020162, -73.9273144074046 -6.6707264924568, -73.67817721428463 -7.286100176203086 M-74.11118159689569 -6.2165709795835244 C-73.99048233942976 -6.514700479085767, -73.86978308196383 -6.812829978588009, -73.67817721428463 -7.286100176203086 M-73.67817721428463 -7.286100176203086 C-73.49345018102217 -7.6696898132979054, -73.30872314775972 -8.053279450392724, -73.177537514714 -8.32568922433503 M-73.67817721428463 -7.286100176203086 C-73.51094286186036 -7.633365887254015, -73.34370850943607 -7.980631598304943, -73.177537514714 -8.32568922433503 M-73.177537514714 -8.32568922433503 C-73.02742657450119 -8.592226399063854, -72.87731563428837 -8.858763573792677, -72.61131973409623 -9.331066229589455 M-73.177537514714 -8.32568922433503 C-72.96957464289375 -8.694948361776174, -72.76161177107349 -9.06420749921732, -72.61131973409623 -9.331066229589455 M-72.61131973409623 -9.331066229589455 C-72.38066989168618 -9.685406325686143, -72.15002004927612 -10.039746421782832, -71.98185058274521 -10.298099882199054 M-72.61131973409623 -9.331066229589455 C-72.36541205880862 -9.708846454287881, -72.119504383521 -10.086626678986308, -71.98185058274521 -10.298099882199054 M-71.98185058274521 -10.298099882199054 C-71.75271307522353 -10.605123267421739, -71.52357556770184 -10.912146652644422, -71.29171668442454 -11.2228164334572 M-71.98185058274521 -10.298099882199054 C-71.73594554340507 -10.627590232504906, -71.49004050406492 -10.957080582810756, -71.29171668442454 -11.2228164334572 M-71.29171668442454 -11.2228164334572 C-71.05693286171638 -11.498606871188178, -70.82214903900822 -11.774397308919156, -70.54375394735568 -12.101416024703695 M-71.29171668442454 -11.2228164334572 C-71.0053122012915 -11.55924343622202, -70.71890771815848 -11.89567043898684, -70.54375394735568 -12.101416024703695 M-70.54375394735568 -12.101416024703695 C-70.32573196001555 -12.326541626570435, -70.10770997267542 -12.551667228437175, -69.74103591086276 -12.930288301759086 M-70.54375394735568 -12.101416024703695 C-70.3545948401229 -12.296738333173078, -70.1654357328901 -12.49206064164246, -69.74103591086276 -12.930288301759086 M-69.74103591086276 -12.930288301759086 C-69.48242071118602 -13.165155783522284, -69.22380551150927 -13.400023265285482, -68.8868611155402 -13.706027250644407 M-69.74103591086276 -12.930288301759086 C-69.4009734533319 -13.239124028129044, -69.06091099580102 -13.547959754499, -68.8868611155402 -13.706027250644407 M-68.8868611155402 -13.706027250644407 C-68.57017705181443 -13.958574364148854, -68.25349298808865 -14.2111214776533, -67.9847395488419 -14.425445193623215 M-68.8868611155402 -13.706027250644407 C-68.59840831762547 -13.936060680930082, -68.30995551971074 -14.166094111215756, -67.9847395488419 -14.425445193623215 M-67.9847395488419 -14.425445193623215 C-67.70953439592411 -14.617416394859605, -67.43432924300632 -14.809387596095995, -67.03837822178988 -15.085585888053124 M-67.9847395488419 -14.425445193623215 C-67.75447791386568 -14.586065742317102, -67.52421627888945 -14.746686291010988, -67.03837822178988 -15.085585888053124 M-67.03837822178988 -15.085585888053124 C-66.64456755342759 -15.32431622950272, -66.25075688506529 -15.563046570952316, -66.05166593607089 -15.683736674221008 M-67.03837822178988 -15.085585888053124 C-66.803080041588 -15.2282250276571, -66.56778186138612 -15.370864167261075, -66.05166593607089 -15.683736674221008 M-66.05166593607089 -15.683736674221008 C-65.8171565105096 -15.806080091325875, -65.58264708494832 -15.92842350843074, -65.02865730411605 -16.217439622243543 M-66.05166593607089 -15.683736674221008 C-65.68456343044033 -15.875253816268092, -65.31746092480978 -16.066770958315175, -65.02865730411605 -16.217439622243543 M-65.02865730411605 -16.217439622243543 C-64.80957148604756 -16.314422414952578, -64.59048566797908 -16.41140520766161, -63.97355608782874 -16.684501632228386 M-65.02865730411605 -16.217439622243543 C-64.69832304281233 -16.363668800705, -64.3679887815086 -16.509897979166453, -63.97355608782874 -16.684501632228386 M-63.97355608782874 -16.684501632228386 C-63.59187630811217 -16.824963319373293, -63.2101965283956 -16.9654250065182, -62.89069792442518 -17.08300344619203 M-63.97355608782874 -16.684501632228386 C-63.69220256530878 -16.788042329319182, -63.410849042788826 -16.89158302640998, -62.89069792442518 -17.08300344619203 M-62.89069792442518 -17.08300344619203 C-62.63143944534372 -17.15995000190788, -62.37218096626227 -17.23689655762373, -61.78453251037115 -17.411307534702523 M-62.89069792442518 -17.08300344619203 C-62.560332523005215 -17.1810541632101, -62.22996712158525 -17.279104880228164, -61.78453251037115 -17.411307534702523 M-61.78453251037115 -17.411307534702523 C-61.353356459454815 -17.50972065463749, -60.92218040853849 -17.60813377457246, -60.659605316624706 -17.668064825839174 M-61.78453251037115 -17.411307534702523 C-61.426497860692145 -17.49302660709732, -61.06846321101314 -17.574745679492118, -60.659605316624706 -17.668064825839174 M-60.659605316624706 -17.668064825839174 C-60.29444028689173 -17.7271018759493, -59.92927525715874 -17.786138926059433, -59.52053891032112 -17.85222024881843 M-60.659605316624706 -17.668064825839174 C-60.35914535884714 -17.71664086171088, -60.05868540106957 -17.765216897582587, -59.52053891032112 -17.85222024881843 M-59.52053891032112 -17.85222024881843 C-59.069142184445774 -17.895765948079635, -58.61774545857043 -17.93931164734084, -58.37201395965283 -17.963017069506055 M-59.52053891032112 -17.85222024881843 C-59.15471774958484 -17.887510576230344, -58.78889658884856 -17.92280090364226, -58.37201395965283 -17.963017069506055 M-58.37201395965283 -17.963017069506055 C-58.12858232989134 -17.970823448061584, -57.88515070012984 -17.978629826617112, -57.21875000000001 -18 M-58.37201395965283 -17.963017069506055 C-57.97274296232491 -17.97582091325651, -57.57347196499698 -17.988624757006967, -57.21875000000001 -18 M-57.21875000000001 -18 C-57.21875000000001 -18, -57.21875 -18, -57.21875 -18 M-57.21875000000001 -18 C-57.21875000000001 -18, -57.21875 -18, -57.21875 -18" stroke="#2A3548" stroke-width="1.3" fill="none" stroke-dasharray="0 0" style=""/></g><g class="label" style="" transform="translate(-63.21875, -10.5)"><rect/><foreignObject width="126.4375" height="21"><div xmlns="http://www.w3.org/1999/xhtml" style="display: table-cell; white-space: nowrap; line-height: 1.5; max-width: 200px; text-align: center;"><span class="nodeLabel"><p>Website visitor</p></span></div></foreignObject></g></g><g class="node default" id="my-svg-flowchart-P-1" data-look="classic" transform="translate(310.06744384765625, 33.5)"><rect class="basic label-container" style="" x="-51.078125" y="-25.5" width="102.15625" height="51"/><g class="label" style="" transform="translate(-21.078125, -10.5)"><rect/><foreignObject width="42.15625" height="21"><div xmlns="http://www.w3.org/1999/xhtml" style="display: table-cell; white-space: nowrap; line-height: 1.5; max-width: 200px; text-align: center;"><span class="nodeLabel"><p>Pixel</p></span></div></foreignObject></g></g><g class="node default" id="my-svg-flowchart-ID-3" data-look="classic" transform="translate(571.7940063476562, 134.5)"><rect class="basic label-container" style="" x="-110.078125" y="-25.5" width="220.15625" height="51"/><g class="label" style="" transform="translate(-80.078125, -10.5)"><rect/><foreignObject width="160.15625" height="21"><div xmlns="http://www.w3.org/1999/xhtml" style="display: table-cell; white-space: nowrap; line-height: 1.5; max-width: 200px; text-align: center;"><span class="nodeLabel"><p>Identity resolution</p></span></div></foreignObject></g></g><g class="node default" id="my-svg-flowchart-PH-4" data-look="classic" transform="translate(310.06744384765625, 134.5)"><rect class="basic label-container" style="" x="-101.6484375" y="-25.5" width="203.296875" height="51"/><g class="label" style="" transform="translate(-71.6484375, -10.5)"><rect/><foreignObject width="143.296875" height="21"><div xmlns="http://www.w3.org/1999/xhtml" style="display: table-cell; white-space: nowrap; line-height: 1.5; max-width: 200px; text-align: center;"><span class="nodeLabel"><p>Product analytics</p></span></div></foreignObject></g></g><g class="node default" id="my-svg-flowchart-WH-6" data-look="classic" transform="translate(310.06744384765625, 246)"><rect class="basic label-container" style="" x="-80.578125" y="-36" width="161.15625" height="72"/><g class="label" style="" transform="translate(-50.578125, -21)"><rect/><foreignObject width="101.15625" height="42"><div xmlns="http://www.w3.org/1999/xhtml" style="display: table-cell; white-space: nowrap; line-height: 1.5; max-width: 200px; text-align: center;"><span class="nodeLabel"><p>Your systems<br />webhook</p></span></div></foreignObject></g></g><g class="node default" id="my-svg-flowchart-CO-9" data-look="classic" transform="translate(829.3018188476562, 134.5)"><rect class="basic label-container" style="" x="-97.4296875" y="-36" width="194.859375" height="72"/><g class="label" style="" transform="translate(-67.4296875, -21)"><rect/><foreignObject width="134.859375" height="42"><div xmlns="http://www.w3.org/1999/xhtml" style="display: table-cell; white-space: nowrap; line-height: 1.5; max-width: 200px; text-align: center;"><span class="nodeLabel"><p>Company + person<br />(when known)</p></span></div></foreignObject></g></g><g class="node default" id="my-svg-flowchart-S-11" data-look="classic" transform="translate(1036.2393188476562, 134.5)"><rect class="basic label-container" style="" x="-59.5078125" y="-25.5" width="119.015625" height="51"/><g class="label" style="" transform="translate(-29.5078125, -10.5)"><rect/><foreignObject width="59.015625" height="21"><div xmlns="http://www.w3.org/1999/xhtml" style="display: table-cell; white-space: nowrap; line-height: 1.5; max-width: 200px; text-align: center;"><span class="nodeLabel"><p>Signals</p></span></div></foreignObject></g></g><g class="node default" id="my-svg-flowchart-SC-13" data-look="classic" transform="translate(1269.8252563476562, 134.5)"><rect class="basic label-container" style="" x="-124.078125" y="-36" width="248.15625" height="72"/><g class="label" style="" transform="translate(-94.078125, -21)"><rect/><foreignObject width="188.15625" height="42"><div xmlns="http://www.w3.org/1999/xhtml" style="display: table-cell; white-space: nowrap; line-height: 1.5; max-width: 200px; text-align: center;"><span class="nodeLabel"><p>Score<br />Fit ⬩ Intent ⬩ Timing</p></span></div></foreignObject></g></g><g class="node default accent" id="my-svg-flowchart-PL-15" data-look="classic" transform="translate(1494.9815063476562, 134.5)"><rect class="basic label-container" style="fill:#7C3AED !important;stroke:#7C3AED !important" x="-51.078125" y="-25.5" width="102.15625" height="51"/><g class="label" style="color:#FFFFFF !important" transform="translate(-21.078125, -10.5)"><rect/><foreignObject width="42.15625" height="21"><div style="color: rgb(255, 255, 255) !important; display: table-cell; white-space: nowrap; line-height: 1.5; max-width: 200px; text-align: center;" xmlns="http://www.w3.org/1999/xhtml"><span style="color:#FFFFFF !important" class="nodeLabel"><p>Plays</p></span></div></foreignObject></g></g><g class="node default" id="my-svg-flowchart-O1-17" data-look="classic" transform="translate(1722.9971313476562, 38.75)"><rect class="basic label-container" style="" x="-76.359375" y="-25.5" width="152.71875" height="51"/><g class="label" style="" transform="translate(-46.359375, -10.5)"><rect/><foreignObject width="92.71875" height="21"><div xmlns="http://www.w3.org/1999/xhtml" style="display: table-cell; white-space: nowrap; line-height: 1.5; max-width: 200px; text-align: center;"><span class="nodeLabel"><p>Slack alert</p></span></div></foreignObject></g></g><g class="node default" id="my-svg-flowchart-O2-19" data-look="classic" transform="translate(1722.9971313476562, 139.75)"><rect class="basic label-container" style="" x="-72.1484375" y="-25.5" width="144.296875" height="51"/><g class="label" style="" transform="translate(-42.1484375, -10.5)"><rect/><foreignObject width="84.296875" height="21"><div xmlns="http://www.w3.org/1999/xhtml" style="display: table-cell; white-space: nowrap; line-height: 1.5; max-width: 200px; text-align: center;"><span class="nodeLabel"><p>CRM update</p></span></div></foreignObject></g></g><g class="node default" id="my-svg-flowchart-O3-21" data-look="classic" transform="translate(1722.9971313476562, 240.75)"><rect class="basic label-container" style="" x="-126.9375" y="-25.5" width="253.875" height="51"/><g class="label" style="" transform="translate(-96.9375, -10.5)"><rect/><foreignObject width="193.875" height="21"><div xmlns="http://www.w3.org/1999/xhtml" style="display: table-cell; white-space: nowrap; line-height: 1.5; max-width: 200px; text-align: center;"><span class="nodeLabel"><p>On-page personalization</p></span></div></foreignObject></g></g></g></g></g><defs><filter id="my-svg-drop-shadow" height="130%" width="130%"><feDropShadow dx="4" dy="4" stdDeviation="0" flood-opacity="0.06" flood-color="#000000"/></filter></defs><defs><filter id="my-svg-drop-shadow-small" height="150%" width="150%"><feDropShadow dx="2" dy="2" stdDeviation="0" flood-opacity="0.06" flood-color="#000000"/></filter></defs><linearGradient id="my-svg-gradient" gradientUnits="objectBoundingBox" x1="0%" y1="0%" x2="100%" y2="0%"><stop offset="0%" stop-color="#2A3548" stop-opacity="1"/><stop offset="100%" stop-color="hsl(215.2941176471, 0%, 1.9607843137%)" stop-opacity="1"/></linearGradient></svg>