<svg id="my-svg" width="100%" xmlns="http://www.w3.org/2000/svg" xmlns:xlink="http://www.w3.org/1999/xlink" class="flowchart" style="max-width: 693.051px; background-color: transparent;" viewBox="0 16 693.05078125 1001" role="graphics-document document" aria-roledescription="flowchart-v2"><style>#my-svg{font-family:ui-monospace,SFMono-Regular,Menlo,monospace;font-size:16px;fill:#1F2937;}@keyframes edge-animation-frame{from{stroke-dashoffset:0;}}@keyframes dash{to{stroke-dashoffset:0;}}#my-svg .edge-animation-slow{stroke-dasharray:9,5!important;stroke-dashoffset:900;animation:dash 50s linear infinite;stroke-linecap:round;}#my-svg .edge-animation-fast{stroke-dasharray:9,5!important;stroke-dashoffset:900;animation:dash 20s linear infinite;stroke-linecap:round;}#my-svg .error-icon{fill:#F8FAFC;}#my-svg .error-text{fill:#070503;stroke:#070503;}#my-svg .edge-thickness-normal{stroke-width:1px;}#my-svg .edge-thickness-thick{stroke-width:3.5px;}#my-svg .edge-pattern-solid{stroke-dasharray:0;}#my-svg .edge-thickness-invisible{stroke-width:0;fill:none;}#my-svg .edge-pattern-dashed{stroke-dasharray:3;}#my-svg .edge-pattern-dotted{stroke-dasharray:2;}#my-svg .marker{fill:#94A3B8;stroke:#94A3B8;}#my-svg .marker.cross{stroke:#94A3B8;}#my-svg svg{font-family:ui-monospace,SFMono-Regular,Menlo,monospace;font-size:16px;}#my-svg p{margin:0;}#my-svg .label{font-family:ui-monospace,SFMono-Regular,Menlo,monospace;color:#1F2937;}#my-svg .cluster-label text{fill:#1F2937;}#my-svg .cluster-label span{color:#1F2937;}#my-svg .cluster-label span p{background-color:transparent;}#my-svg .label text,#my-svg span{fill:#1F2937;color:#1F2937;}#my-svg .node rect,#my-svg .node circle,#my-svg .node ellipse,#my-svg .node polygon,#my-svg .node path{fill:#F8FAFC;stroke:#94A3B8;stroke-width:1px;}#my-svg .rough-node .label text,#my-svg .node .label text,#my-svg .image-shape .label,#my-svg .icon-shape .label{text-anchor:middle;}#my-svg .node .katex path{fill:#000;stroke:#000;stroke-width:1px;}#my-svg .rough-node .label,#my-svg .node .label,#my-svg .image-shape .label,#my-svg .icon-shape .label{text-align:center;}#my-svg .node.clickable{cursor:pointer;}#my-svg .root .anchor path{fill:#94A3B8!important;stroke-width:0;stroke:#94A3B8;}#my-svg .arrowheadPath{fill:#0b0b0b;}#my-svg .edgePath .path{stroke:#94A3B8;stroke-width:1px;}#my-svg .flowchart-link{stroke:#94A3B8;fill:none;}#my-svg .edgeLabel{background-color:#FFFFFF;text-align:center;}#my-svg .edgeLabel p{background-color:#FFFFFF;}#my-svg .edgeLabel rect{opacity:0.5;background-color:#FFFFFF;fill:#FFFFFF;}#my-svg .labelBkg{background-color:rgba(255, 255, 255, 0.5);}#my-svg .cluster rect{fill:transparent;stroke:#94A3B8;stroke-width:1px;}#my-svg .cluster text{fill:#1F2937;}#my-svg .cluster span{color:#1F2937;}#my-svg div.mermaidTooltip{position:absolute;text-align:center;max-width:200px;padding:2px;font-family:ui-monospace,SFMono-Regular,Menlo,monospace;font-size:12px;background:#F8FAFC;border:1px solid hsl(210, 0%, 88.0392156863%);border-radius:2px;pointer-events:none;z-index:100;}#my-svg .flowchartTitleText{text-anchor:middle;font-size:18px;fill:#1F2937;}#my-svg rect.text{fill:none;stroke-width:0;}#my-svg .icon-shape,#my-svg .image-shape{background-color:#FFFFFF;text-align:center;}#my-svg .icon-shape p,#my-svg .image-shape p{background-color:#FFFFFF;padding:2px;}#my-svg .icon-shape .label rect,#my-svg .image-shape .label rect{opacity:0.5;background-color:#FFFFFF;fill:#FFFFFF;}#my-svg .label-icon{display:inline-block;height:1em;overflow:visible;vertical-align:-0.125em;}#my-svg .node .label-icon path{fill:currentColor;stroke:revert;stroke-width:revert;}#my-svg .node .neo-node{stroke:#94A3B8;}#my-svg [data-look="neo"].node rect,#my-svg [data-look="neo"].cluster rect,#my-svg [data-look="neo"].node polygon{stroke:url(#my-svg-gradient);filter:drop-shadow( 1px 2px 2px rgba(185,185,185,1));}#my-svg [data-look="neo"].node path{stroke:url(#my-svg-gradient);stroke-width:1px;}#my-svg [data-look="neo"].node .outer-path{filter:drop-shadow( 1px 2px 2px rgba(185,185,185,1));}#my-svg [data-look="neo"].node .neo-line path{stroke:#94A3B8;filter:none;}#my-svg [data-look="neo"].node circle{stroke:url(#my-svg-gradient);filter:drop-shadow( 1px 2px 2px rgba(185,185,185,1));}#my-svg [data-look="neo"].node circle .state-start{fill:#000000;}#my-svg [data-look="neo"].icon-shape .icon{fill:url(#my-svg-gradient);filter:drop-shadow( 1px 2px 2px rgba(185,185,185,1));}#my-svg [data-look="neo"].icon-shape .icon-neo path{stroke:url(#my-svg-gradient);filter:drop-shadow( 1px 2px 2px rgba(185,185,185,1));}#my-svg :root{--mermaid-font-family:"trebuchet ms",verdana,arial,sans-serif;}#my-svg .accent&gt;*{fill:rgb(124, 58, 237)!important;stroke:rgb(124, 58, 237)!important;color:rgb(255, 255, 255)!important;}#my-svg .accent span{fill:rgb(124, 58, 237)!important;stroke:rgb(124, 58, 237)!important;color:rgb(255, 255, 255)!important;}#my-svg .accent tspan{fill:rgb(255, 255, 255)!important;}</style><g><marker id="my-svg_flowchart-v2-pointEnd" class="marker flowchart-v2" viewBox="0 0 10 10" refX="5" refY="5" markerUnits="userSpaceOnUse" markerWidth="8" markerHeight="8" orient="auto"><path d="M 0 0 L 10 5 L 0 10 z" class="arrowMarkerPath" style="stroke-width: 1; stroke-dasharray: 1, 0;"/></marker><marker id="my-svg_flowchart-v2-pointStart" class="marker flowchart-v2" viewBox="0 0 10 10" refX="4.5" refY="5" markerUnits="userSpaceOnUse" markerWidth="8" markerHeight="8" orient="auto"><path d="M 0 5 L 10 10 L 10 0 z" class="arrowMarkerPath" style="stroke-width: 1; stroke-dasharray: 1, 0;"/></marker><marker id="my-svg_flowchart-v2-pointEnd-margin" class="marker flowchart-v2" viewBox="0 0 11.5 14" refX="11.5" refY="7" markerUnits="userSpaceOnUse" markerWidth="10.5" markerHeight="14" orient="auto"><path d="M 0 0 L 11.5 7 L 0 14 z" class="arrowMarkerPath" style="stroke-width: 0; stroke-dasharray: 1, 0;"/></marker><marker id="my-svg_flowchart-v2-pointStart-margin" class="marker flowchart-v2" viewBox="0 0 11.5 14" refX="1" refY="7" markerUnits="userSpaceOnUse" markerWidth="11.5" markerHeight="14" orient="auto"><polygon points="0,7 11.5,14 11.5,0" class="arrowMarkerPath" style="stroke-width: 0; stroke-dasharray: 1, 0;"/></marker><marker id="my-svg_flowchart-v2-circleEnd" class="marker flowchart-v2" viewBox="0 0 10 10" refX="11" refY="5" markerUnits="userSpaceOnUse" markerWidth="11" markerHeight="11" orient="auto"><circle cx="5" cy="5" r="5" class="arrowMarkerPath" style="stroke-width: 1; stroke-dasharray: 1, 0;"/></marker><marker id="my-svg_flowchart-v2-circleStart" class="marker flowchart-v2" viewBox="0 0 10 10" refX="-1" refY="5" markerUnits="userSpaceOnUse" markerWidth="11" markerHeight="11" orient="auto"><circle cx="5" cy="5" r="5" class="arrowMarkerPath" style="stroke-width: 1; stroke-dasharray: 1, 0;"/></marker><marker id="my-svg_flowchart-v2-circleEnd-margin" class="marker flowchart-v2" viewBox="0 0 10 10" refY="5" refX="12.25" markerUnits="userSpaceOnUse" markerWidth="14" markerHeight="14" orient="auto"><circle cx="5" cy="5" r="5" class="arrowMarkerPath" style="stroke-width: 0; stroke-dasharray: 1, 0;"/></marker><marker id="my-svg_flowchart-v2-circleStart-margin" class="marker flowchart-v2" viewBox="0 0 10 10" refX="-2" refY="5" markerUnits="userSpaceOnUse" markerWidth="14" markerHeight="14" orient="auto"><circle cx="5" cy="5" r="5" class="arrowMarkerPath" style="stroke-width: 0; stroke-dasharray: 1, 0;"/></marker><marker id="my-svg_flowchart-v2-crossEnd" class="marker cross flowchart-v2" viewBox="0 0 11 11" refX="12" refY="5.2" markerUnits="userSpaceOnUse" markerWidth="11" markerHeight="11" orient="auto"><path d="M 1,1 l 9,9 M 10,1 l -9,9" class="arrowMarkerPath" style="stroke-width: 2; stroke-dasharray: 1, 0;"/></marker><marker id="my-svg_flowchart-v2-crossStart" class="marker cross flowchart-v2" viewBox="0 0 11 11" refX="-1" refY="5.2" markerUnits="userSpaceOnUse" markerWidth="11" markerHeight="11" orient="auto"><path d="M 1,1 l 9,9 M 10,1 l -9,9" class="arrowMarkerPath" style="stroke-width: 2; stroke-dasharray: 1, 0;"/></marker><marker id="my-svg_flowchart-v2-crossEnd-margin" class="marker cross flowchart-v2" viewBox="0 0 15 15" refX="17.7" refY="7.5" markerUnits="userSpaceOnUse" markerWidth="12" markerHeight="12" orient="auto"><path d="M 1,1 L 14,14 M 1,14 L 14,1" class="arrowMarkerPath" style="stroke-width: 2.5;"/></marker><marker id="my-svg_flowchart-v2-crossStart-margin" class="marker cross flowchart-v2" viewBox="0 0 15 15" refX="-3.5" refY="7.5" markerUnits="userSpaceOnUse" markerWidth="12" markerHeight="12" orient="auto"><path d="M 1,1 L 14,14 M 1,14 L 14,1" class="arrowMarkerPath" style="stroke-width: 2.5; stroke-dasharray: 1, 0;"/></marker><g class="root"><g class="clusters"><g class="cluster" id="my-svg-PE" data-look="classic"><rect style="" x="30.08203125" y="765" width="636.796875" height="244"/><g class="cluster-label" transform="translate(266.59765625, 773)"><foreignObject width="163.765625" height="24"><div xmlns="http://www.w3.org/1999/xhtml" style="display: table-cell; white-space: nowrap; line-height: 1.5;"><span class="nodeLabel"><p>Play agent engine</p></span></div></foreignObject></g></g><g class="cluster" id="my-svg-NS" data-look="classic"><rect style="" x="8" y="71" width="677.05078125" height="598"/><g class="cluster-label" transform="translate(274.275390625, 79)"><foreignObject width="144.5" height="24"><div xmlns="http://www.w3.org/1999/xhtml" style="display: table-cell; white-space: nowrap; line-height: 1.5;"><span class="nodeLabel"><p>Noise to signal</p></span></div></foreignObject></g></g></g><g class="edgePaths"><path d="M147.105,63.5L147.022,66.75C146.939,70,146.772,76.5,146.689,83.083C146.605,89.667,146.605,96.333,146.605,104.333C146.605,112.333,146.605,121.667,146.605,126.333L146.605,131" id="my-svg-L_V_P_0" class="edge-thickness-normal edge-pattern-solid edge-thickness-normal edge-pattern-solid flowchart-link" style=";" data-edge="true" data-et="edge" data-id="L_V_P_0" data-points="W3sieCI6MTQ3LjEwNTQ2ODc1LCJ5Ijo2My41fSx7IngiOjE0Ni42MDU0Njg3NSwieSI6ODN9LHsieCI6MTQ2LjYwNTQ2ODc1LCJ5IjoxMDN9LHsieCI6MTQ2LjYwNTQ2ODc1LCJ5IjoxMzV9XQ==" data-look="classic" marker-end="url(#my-svg_flowchart-v2-pointEnd)"/><path d="M146.605,189L146.605,196.333C146.605,203.667,146.605,218.333,162.998,230.801C179.39,243.268,212.174,253.536,228.566,258.67L244.958,263.804" id="my-svg-L_P_ID_0" class="edge-thickness-normal edge-pattern-solid edge-thickness-normal edge-pattern-solid flowchart-link" style=";" data-edge="true" data-et="edge" data-id="L_P_ID_0" data-points="W3sieCI6MTQ2LjYwNTQ2ODc1LCJ5IjoxODl9LHsieCI6MTQ2LjYwNTQ2ODc1LCJ5IjoyMzN9LHsieCI6MjQ4Ljc3NDk2MDI3NTQyMzcyLCJ5IjoyNjV9XQ==" data-look="classic" marker-end="url(#my-svg_flowchart-v2-pointEnd)"/><path d="M342.574,189L342.574,196.333C342.574,203.667,342.574,218.333,341.973,230.339C341.372,242.344,340.169,251.688,339.568,256.361L338.966,261.033" id="my-svg-L_PH_ID_0" class="edge-thickness-normal edge-pattern-solid edge-thickness-normal edge-pattern-solid flowchart-link" style=";" data-edge="true" data-et="edge" data-id="L_PH_ID_0" data-points="W3sieCI6MzQyLjU3NDIxODc1LCJ5IjoxODl9LHsieCI6MzQyLjU3NDIxODc1LCJ5IjoyMzN9LHsieCI6MzM4LjQ1NTU3NDY4MjIwMzQsInkiOjI2NX1d" data-look="classic" marker-end="url(#my-svg_flowchart-v2-pointEnd)"/><path d="M572.254,201L572.254,206.333C572.254,211.667,572.254,222.333,551.452,232.839C530.651,243.345,489.048,253.69,468.247,258.862L447.445,264.035" id="my-svg-L_WH_ID_0" class="edge-thickness-normal edge-pattern-solid edge-thickness-normal edge-pattern-solid flowchart-link" style=";" data-edge="true" data-et="edge" data-id="L_WH_ID_0" data-points="W3sieCI6NTcyLjI1MzkwNjI1LCJ5IjoyMDF9LHsieCI6NTcyLjI1MzkwNjI1LCJ5IjoyMzN9LHsieCI6NDQzLjU2MzIyODI4Mzg5ODMsInkiOjI2NX1d" data-look="classic" marker-end="url(#my-svg_flowchart-v2-pointEnd)"/><path d="M334.98,319L334.98,322.333C334.98,325.667,334.98,332.333,334.98,338.333C334.98,344.333,334.98,349.667,334.98,352.333L334.98,355" id="my-svg-L_ID_CO_0" class="edge-thickness-normal edge-pattern-solid edge-thickness-normal edge-pattern-solid flowchart-link" style=";" data-edge="true" data-et="edge" data-id="L_ID_CO_0" data-points="W3sieCI6MzM0Ljk4MDQ2ODc1LCJ5IjozMTl9LHsieCI6MzM0Ljk4MDQ2ODc1LCJ5IjozMzl9LHsieCI6MzM0Ljk4MDQ2ODc1LCJ5IjozNTl9XQ==" data-look="classic" marker-end="url(#my-svg_flowchart-v2-pointEnd)"/><path d="M334.98,437L334.98,440.333C334.98,443.667,334.98,450.333,334.98,456.333C334.98,462.333,334.98,467.667,334.98,470.333L334.98,473" id="my-svg-L_CO_S_0" class="edge-thickness-normal edge-pattern-solid edge-thickness-normal edge-pattern-solid flowchart-link" style=";" data-edge="true" data-et="edge" data-id="L_CO_S_0" data-points="W3sieCI6MzM0Ljk4MDQ2ODc1LCJ5Ijo0Mzd9LHsieCI6MzM0Ljk4MDQ2ODc1LCJ5Ijo0NTd9LHsieCI6MzM0Ljk4MDQ2ODc1LCJ5Ijo0Nzd9XQ==" data-look="classic" marker-end="url(#my-svg_flowchart-v2-pointEnd)"/><path d="M334.98,531L334.98,534.333C334.98,537.667,334.98,544.333,334.98,550.333C334.98,556.333,334.98,561.667,334.98,564.333L334.98,567" id="my-svg-L_S_SC_0" class="edge-thickness-normal edge-pattern-solid edge-thickness-normal edge-pattern-solid flowchart-link" style=";" data-edge="true" data-et="edge" data-id="L_S_SC_0" data-points="W3sieCI6MzM0Ljk4MDQ2ODc1LCJ5Ijo1MzF9LHsieCI6MzM0Ljk4MDQ2ODc1LCJ5Ijo1NTF9LHsieCI6MzM0Ljk4MDQ2ODc1LCJ5Ijo1NzF9XQ==" data-look="classic" marker-end="url(#my-svg_flowchart-v2-pointEnd)"/><path d="M280.895,856.909L257.09,862.591C233.285,868.273,185.676,879.636,161.871,889.985C138.066,900.333,138.066,909.667,138.066,914.333L138.066,919" id="my-svg-L_PL_O1_0" class="edge-thickness-normal edge-pattern-solid edge-thickness-normal edge-pattern-solid flowchart-link" style=";" data-edge="true" data-et="edge" data-id="L_PL_O1_0" data-points="W3sieCI6MjgwLjg5NDUzMTI1LCJ5Ijo4NTYuOTA5MzgzMDU4OTE2OX0seyJ4IjoxMzguMDY2NDA2MjUsInkiOjg5MX0seyJ4IjoxMzguMDY2NDA2MjUsInkiOjkyM31d" data-look="classic" marker-end="url(#my-svg_flowchart-v2-pointEnd)"/><path d="M331.668,871L331.259,874.333C330.85,877.667,330.033,884.333,329.624,892.333C329.215,900.333,329.215,909.667,329.215,914.333L329.215,919" id="my-svg-L_PL_O2_0" class="edge-thickness-normal edge-pattern-solid edge-thickness-normal edge-pattern-solid flowchart-link" style=";" data-edge="true" data-et="edge" data-id="L_PL_O2_0" data-points="W3sieCI6MzMxLjY2ODMwMTE5NjgwODUsInkiOjg3MX0seyJ4IjozMjkuMjE0ODQzNzUsInkiOjg5MX0seyJ4IjozMjkuMjE0ODQzNzUsInkiOjkyM31d" data-look="classic" marker-end="url(#my-svg_flowchart-v2-pointEnd)"/><path d="M389.066,856.421L414.16,862.185C439.254,867.948,489.441,879.474,514.535,887.904C539.629,896.333,539.629,901.667,539.629,904.333L539.629,907" id="my-svg-L_PL_O3_0" class="edge-thickness-normal edge-pattern-solid edge-thickness-normal edge-pattern-solid flowchart-link" style=";" data-edge="true" data-et="edge" data-id="L_PL_O3_0" data-points="W3sieCI6Mzg5LjA2NjQwNjI1LCJ5Ijo4NTYuNDIxNDkyNjUxMjY5M30seyJ4Ijo1MzkuNjI4OTA2MjUsInkiOjg5MX0seyJ4Ijo1MzkuNjI4OTA2MjUsInkiOjkxMX1d" data-look="classic" marker-end="url(#my-svg_flowchart-v2-pointEnd)"/><path d="M334.98,649L334.98,652.333C334.98,655.667,334.98,662.333,334.98,669C334.98,675.667,334.98,682.333,334.98,693C334.98,703.667,334.98,718.333,334.98,733C334.98,747.667,334.98,762.333,334.98,773C334.98,783.667,334.98,790.333,334.98,796.333C334.98,802.333,334.98,807.667,334.98,810.333L334.98,813" id="my-svg-L_SC_PL_0" class="edge-thickness-normal edge-pattern-solid edge-thickness-normal edge-pattern-solid flowchart-link" style=";" data-edge="true" data-et="edge" data-id="L_SC_PL_0" data-points="W3sieCI6MzM0Ljk4MDQ2ODc1LCJ5Ijo2NDl9LHsieCI6MzM0Ljk4MDQ2ODc1LCJ5Ijo2Njl9LHsieCI6MzM0Ljk4MDQ2ODc1LCJ5Ijo2ODl9LHsieCI6MzM0Ljk4MDQ2ODc1LCJ5Ijo3MzN9LHsieCI6MzM0Ljk4MDQ2ODc1LCJ5Ijo3Nzd9LHsieCI6MzM0Ljk4MDQ2ODc1LCJ5Ijo3OTd9LHsieCI6MzM0Ljk4MDQ2ODc1LCJ5Ijo4MTd9XQ==" data-look="classic" marker-end="url(#my-svg_flowchart-v2-pointEnd)"/></g><g class="edgeLabels"><g class="edgeLabel"><g class="label" data-id="L_V_P_0" transform="translate(0, 0)"><foreignObject width="0" height="0"><div xmlns="http://www.w3.org/1999/xhtml" class="labelBkg" style="display: table-cell; white-space: nowrap; line-height: 1.5; max-width: 200px; text-align: center;"><span class="edgeLabel"></span></div></foreignObject></g></g><g class="edgeLabel" transform="translate(146.60546875, 233)"><g class="label" data-id="L_P_ID_0" transform="translate(-94.6953125, -12)"><foreignObject width="189.390625" height="24"><div xmlns="http://www.w3.org/1999/xhtml" class="labelBkg" style="display: table-cell; white-space: nowrap; line-height: 1.5; max-width: 200px; text-align: center;"><span class="edgeLabel"><p>page views ⬩ clicks</p></span></div></foreignObject></g></g><g class="edgeLabel" transform="translate(342.57421875, 233)"><g class="label" data-id="L_PH_ID_0" transform="translate(-67.4296875, -12)"><foreignObject width="134.859375" height="24"><div xmlns="http://www.w3.org/1999/xhtml" class="labelBkg" style="display: table-cell; white-space: nowrap; line-height: 1.5; max-width: 200px; text-align: center;"><span class="edgeLabel"><p>product events</p></span></div></foreignObject></g></g><g class="edgeLabel" transform="translate(572.25390625, 233)"><g class="label" data-id="L_WH_ID_0" transform="translate(-52.984375, -12)"><foreignObject width="105.96875" height="24"><div xmlns="http://www.w3.org/1999/xhtml" class="labelBkg" style="display: table-cell; white-space: nowrap; line-height: 1.5; max-width: 200px; text-align: center;"><span class="edgeLabel"><p>your events</p></span></div></foreignObject></g></g><g class="edgeLabel"><g class="label" data-id="L_ID_CO_0" transform="translate(0, 0)"><foreignObject width="0" height="0"><div xmlns="http://www.w3.org/1999/xhtml" class="labelBkg" style="display: table-cell; white-space: nowrap; line-height: 1.5; max-width: 200px; text-align: center;"><span class="edgeLabel"></span></div></foreignObject></g></g><g class="edgeLabel"><g class="label" data-id="L_CO_S_0" transform="translate(0, 0)"><foreignObject width="0" height="0"><div xmlns="http://www.w3.org/1999/xhtml" class="labelBkg" style="display: table-cell; white-space: nowrap; line-height: 1.5; max-width: 200px; text-align: center;"><span class="edgeLabel"></span></div></foreignObject></g></g><g class="edgeLabel"><g class="label" data-id="L_S_SC_0" transform="translate(0, 0)"><foreignObject width="0" height="0"><div xmlns="http://www.w3.org/1999/xhtml" class="labelBkg" style="display: table-cell; white-space: nowrap; line-height: 1.5; max-width: 200px; text-align: center;"><span class="edgeLabel"></span></div></foreignObject></g></g><g class="edgeLabel"><g class="label" data-id="L_PL_O1_0" transform="translate(0, 0)"><foreignObject width="0" height="0"><div xmlns="http://www.w3.org/1999/xhtml" class="labelBkg" style="display: table-cell; white-space: nowrap; line-height: 1.5; max-width: 200px; text-align: center;"><span class="edgeLabel"></span></div></foreignObject></g></g><g class="edgeLabel"><g class="label" data-id="L_PL_O2_0" transform="translate(0, 0)"><foreignObject width="0" height="0"><div xmlns="http://www.w3.org/1999/xhtml" class="labelBkg" style="display: table-cell; white-space: nowrap; line-height: 1.5; max-width: 200px; text-align: center;"><span class="edgeLabel"></span></div></foreignObject></g></g><g class="edgeLabel"><g class="label" data-id="L_PL_O3_0" transform="translate(0, 0)"><foreignObject width="0" height="0"><div xmlns="http://www.w3.org/1999/xhtml" class="labelBkg" style="display: table-cell; white-space: nowrap; line-height: 1.5; max-width: 200px; text-align: center;"><span class="edgeLabel"></span></div></foreignObject></g></g><g class="edgeLabel" transform="translate(334.98046875, 733)"><g class="label" data-id="L_SC_PL_0" transform="translate(-100, -24)"><foreignObject width="200" height="48"><div xmlns="http://www.w3.org/1999/xhtml" class="labelBkg" style="display: table; white-space: break-spaces; line-height: 1.5; max-width: 200px; text-align: center; width: 200px;"><span class="edgeLabel"><p>a scored signal triggers a Play</p></span></div></foreignObject></g></g></g><g class="nodes"><g class="node default" id="my-svg-flowchart-V-0" data-look="classic" transform="translate(146.60546875, 43.5)"><g class="basic label-container outer-path"><path d="M-65.125 -19.5 C-34.36229913087 -19.5, -3.599598261740006 -19.5, 65.125 -19.5 C65.125 -19.5, 65.125 -19.5, 65.125 -19.5 C65.55608157167052 -19.486176053045906, 65.98716314334102 -19.472352106091808, 66.3743692896239 -19.45993515863156 C66.79870829946026 -19.41899968469497, 67.22304730929662 -19.37806421075838, 67.61860465284786 -19.3399052695533 C68.02839143648892 -19.273654120318184, 68.43817822012997 -19.20740297108307, 68.85259325967675 -19.140403561325776 C69.20334980078889 -19.06034566971727, 69.55410634190102 -18.980287778108767, 70.07126438623538 -18.862249829261074 C70.44915985038507 -18.750092439115218, 70.82705531453477 -18.637935048969357, 71.2696102514606 -18.50658706670804 C71.62318418366218 -18.376468591256263, 71.97675811586375 -18.246350115804482, 72.4427065951478 -18.074876768247425 C72.69991135255574 -17.96101985185097, 72.95711610996369 -17.847162935454516, 73.58573291279238 -17.568892924097174 C73.89076760365202 -17.409756521259744, 74.19580229451167 -17.250620118422315, 74.69399226407678 -16.990714730406097 C74.97687583820644 -16.81922904536029, 75.25975941233611 -16.647743360314482, 75.7629305736057 -16.342718045390892 C76.13696790167775 -16.0818057971428, 76.51100522974978 -15.820893548894707, 76.78815534457871 -15.627565626425154 C76.98661436370321 -15.469299839889665, 77.1850733828277 -15.311034053354176, 77.76545370850187 -14.848196188198123 C77.98889350784127 -14.645274074331216, 78.21233330718066 -14.442351960464306, 78.69080973676799 -14.007812326905688 C79.00976003885462 -13.678469953694442, 79.32871034094124 -13.349127580483199, 79.56042094296865 -13.10986736009568 C79.72629157849349 -12.915026273301669, 79.89216221401833 -12.720185186507656, 80.37071390812658 -12.158051136245305 C80.5326488919172 -11.941073010546377, 80.69458387570783 -11.724094884847451, 81.11835896464063 -11.156274872382312 C81.34321216314406 -10.81083997794305, 81.56806536164747 -10.465405083503788, 81.80028387860425 -10.108655082055241 C81.99661626506898 -9.76004704907718, 82.19294865153371 -9.411439016099116, 82.4136864742735 -9.019496659696287 C82.54302543520758 -8.75092153990625, 82.67236439614165 -8.482346420116212, 82.95604614880834 -7.893275190886684 C83.10315847965737 -7.5299048894661595, 83.2502708105064 -7.166534588045635, 83.42513422997033 -6.734618561215508 C83.50974162838898 -6.479794557536815, 83.59434902680762 -6.224970553858122, 83.81902313421489 -5.548287939305138 C83.90574760358557 -5.217569950971965, 83.99247207295623 -4.886851962638794, 84.13609428754556 -4.339158212148133 C84.20696009409141 -3.97527727302868, 84.27782590063727 -3.611396333909226, 84.37504477658177 -3.1121979531509023 C84.43214611025307 -2.669331285130106, 84.48924744392436 -2.2264646171093094, 84.53489270250937 -1.872449005199798 C84.55883450649189 -1.4995360826957622, 84.5827763104744 -1.1266231601917267, 84.61498121591342 -0.6250057626472757 C84.61498121591342 -0.17115743182227489, 84.61498121591342 0.2826908990027259, 84.61498121591342 0.625005762647271 C84.58635537402155 1.070876356476772, 84.55772953212968 1.5167469503062732, 84.53489270250937 1.8724490051997846 C84.47532593413062 2.3344370979564046, 84.4157591657519 2.796425190713024, 84.37504477658177 3.1121979531508885 C84.28178396266017 3.591072521958304, 84.18852314873858 4.06994709076572, 84.13609428754556 4.339158212148129 C84.0605172518407 4.627366204585264, 83.98494021613583 4.915574197022399, 83.81902313421489 5.548287939305125 C83.70691594279025 5.885936938020872, 83.5948087513656 6.223585936736617, 83.42513422997033 6.734618561215495 C83.27003883975132 7.1177071736218, 83.11494344953233 7.500795786028105, 82.95604614880834 7.893275190886679 C82.8251797112634 8.165022148541945, 82.69431327371846 8.436769106197211, 82.4136864742735 9.019496659696284 C82.17004446834846 9.452107712644565, 81.92640246242343 9.884718765592847, 81.80028387860425 10.108655082055236 C81.66259114757023 10.320188092598858, 81.5248984165362 10.53172110314248, 81.11835896464065 11.156274872382301 C80.82930133819058 11.543585758133897, 80.5402437117405 11.930896643885493, 80.37071390812659 12.158051136245302 C80.19253242976787 12.367353239538792, 80.01435095140914 12.576655342832282, 79.56042094296866 13.10986736009567 C79.22580641412233 13.455384333493246, 78.89119188527599 13.800901306890822, 78.69080973676799 14.007812326905684 C78.3400230949161 14.326387473729628, 77.98923645306421 14.644962620553573, 77.7654537085019 14.848196188198111 C77.50334781674819 15.057218661940977, 77.2412419249945 15.266241135683842, 76.78815534457871 15.627565626425152 C76.39445835678987 15.902191602238734, 76.00076136900101 16.176817578052315, 75.7629305736057 16.34271804539089 C75.38044349389118 16.57458396085741, 74.99795641417664 16.806449876323935, 74.69399226407678 16.990714730406093 C74.29322138820592 17.19979663964192, 73.89245051233506 17.40887854887775, 73.58573291279238 17.56889292409717 C73.14417864115703 17.764355901908058, 72.70262436952167 17.95981887971894, 72.4427065951478 18.07487676824742 C72.12184431693248 18.192957052649046, 71.80098203871715 18.31103733705067, 71.26961025146062 18.506587066708033 C70.94366559861801 18.603325728753322, 70.6177209457754 18.700064390798612, 70.07126438623541 18.86224982926107 C69.63510025980253 18.961801444882454, 69.19893613336964 19.06135306050384, 68.85259325967677 19.140403561325773 C68.48781701193562 19.19937775617851, 68.12304076419449 19.258351951031248, 67.61860465284788 19.3399052695533 C67.3324637087213 19.367508942298358, 67.04632276459472 19.395112615043413, 66.3743692896239 19.45993515863156 C65.93280852129259 19.47409515302605, 65.49124775296127 19.48825514742054, 65.125 19.5 C65.125 19.5, 65.125 19.5, 65.125 19.5 C30.626037712818878 19.5, -3.8729245743622442 19.5, -65.125 19.5 C-65.58816321302166 19.4851472572509, -66.0513264260433 19.4702945145018, -66.3743692896239 19.45993515863156 C-66.81866591739633 19.417074397295224, -67.26296254516878 19.37421363595889, -67.61860465284786 19.3399052695533 C-68.10094815811308 19.261923712251765, -68.58329166337832 19.183942154950234, -68.85259325967675 19.140403561325773 C-69.23300918371798 19.05357610910926, -69.61342510775923 18.96674865689275, -70.07126438623538 18.862249829261074 C-70.44866276346049 18.750239971905174, -70.82606114068558 18.63823011454927, -71.26961025146059 18.506587066708043 C-71.50998072934249 18.418128508887165, -71.7503512072244 18.329669951066283, -72.4427065951478 18.074876768247425 C-72.75386526784014 17.937136054040604, -73.06502394053247 17.799395339833783, -73.58573291279238 17.568892924097174 C-73.93310967875153 17.387666687801723, -74.28048644471069 17.20644045150627, -74.69399226407678 16.990714730406097 C-75.06347888009273 16.766729772432857, -75.43296549610868 16.542744814459613, -75.76293057360569 16.3427180453909 C-76.12610602662168 16.08938257097891, -76.4892814796377 15.836047096566919, -76.78815534457871 15.627565626425156 C-77.11604560008963 15.366081873181338, -77.44393585560057 15.10459811993752, -77.76545370850187 14.848196188198125 C-78.01580655084996 14.62083236075081, -78.26615939319805 14.393468533303496, -78.69080973676797 14.007812326905697 C-79.01333353531959 13.674780025204845, -79.33585733387119 13.341747723503993, -79.56042094296865 13.109867360095677 C-79.80480131598159 12.822804268317515, -80.04918168899454 12.535741176539354, -80.37071390812658 12.158051136245307 C-80.62056820489119 11.823269140775432, -80.8704225016558 11.488487145305557, -81.11835896464063 11.156274872382316 C-81.27918427461431 10.909204008620184, -81.44000958458798 10.662133144858052, -81.80028387860425 10.108655082055249 C-82.04292259628895 9.677825468971639, -82.28556131397364 9.246995855888027, -82.4136864742735 9.019496659696289 C-82.61538121256 8.600673220068327, -82.81707595084649 8.181849780440364, -82.95604614880834 7.893275190886686 C-83.05719277352439 7.643441072301085, -83.15833939824044 7.393606953715484, -83.42513422997033 6.73461856121551 C-83.52638326288036 6.429672605933161, -83.62763229579038 6.124726650650811, -83.81902313421489 5.5482879393051325 C-83.91229692968696 5.1925945320514275, -84.00557072515905 4.8369011247977225, -84.13609428754556 4.339158212148136 C-84.20911402609005 3.9642172874493906, -84.28213376463454 3.5892763627506454, -84.37504477658177 3.112197953150904 C-84.4168356339562 2.788076315893087, -84.45862649133062 2.46395467863527, -84.53489270250937 1.872449005199809 C-84.55730975215323 1.5232853622798195, -84.5797268017971 1.17412171935983, -84.61498121591342 0.6250057626472781 C-84.61498121591342 0.2857482538300691, -84.61498121591342 -0.05350925498713999, -84.61498121591342 -0.6250057626472687 C-84.58938378269218 -1.0237064469442, -84.56378634947094 -1.4224071312411313, -84.53489270250937 -1.8724490051997822 C-84.49707307780851 -2.1657705460500116, -84.45925345310765 -2.459092086900241, -84.37504477658177 -3.112197953150895 C-84.31657347393391 -3.4124357343334317, -84.25810217128607 -3.7126735155159682, -84.13609428754556 -4.339158212148126 C-84.05374087375927 -4.653207471110595, -83.97138745997296 -4.967256730073064, -83.81902313421489 -5.548287939305123 C-83.7031466081739 -5.897289573323423, -83.58727008213289 -6.246291207341724, -83.42513422997033 -6.734618561215485 C-83.27410798841385 -7.107656297753748, -83.12308174685735 -7.480694034292011, -82.95604614880834 -7.893275190886676 C-82.74368308098603 -8.334251645061437, -82.53132001316374 -8.7752280992362, -82.4136864742735 -9.019496659696282 C-82.25285287097465 -9.305073008521752, -82.09201926767578 -9.590649357347225, -81.80028387860425 -10.108655082055243 C-81.57082153024092 -10.46117086840936, -81.34135918187759 -10.813686654763478, -81.11835896464063 -11.156274872382308 C-80.83446012789327 -11.536673449907692, -80.5505612911459 -11.917072027433074, -80.37071390812659 -12.158051136245302 C-80.10513553770193 -12.470014601983479, -79.83955716727728 -12.781978067721656, -79.56042094296866 -13.10986736009567 C-79.3861619154027 -13.28980411298977, -79.21190288783671 -13.46974086588387, -78.69080973676799 -14.007812326905677 C-78.38540783145498 -14.285170256819336, -78.08000592614198 -14.562528186732994, -77.7654537085019 -14.848196188198107 C-77.49572041688008 -15.063301310362162, -77.22598712525826 -15.278406432526218, -76.78815534457871 -15.627565626425149 C-76.50477849395789 -15.825237050232092, -76.22140164333705 -16.022908474039035, -75.76293057360571 -16.342718045390885 C-75.44148862630956 -16.537578042844366, -75.12004667901341 -16.732438040297847, -74.69399226407678 -16.99071473040609 C-74.39659208511495 -17.14586821327658, -74.09919190615311 -17.301021696147064, -73.5857329127924 -17.56889292409717 C-73.35491889593683 -17.671067442504587, -73.12410487908127 -17.773241960912, -72.44270659514781 -18.07487676824742 C-72.1107430274173 -18.197042429809827, -71.7787794596868 -18.319208091372236, -71.26961025146062 -18.506587066708033 C-70.92414500008746 -18.60911933993148, -70.57867974871431 -18.71165161315492, -70.07126438623541 -18.862249829261067 C-69.67115722492218 -18.95357167788758, -69.27105006360895 -19.04489352651409, -68.85259325967677 -19.140403561325773 C-68.59329221105861 -19.18232534395669, -68.33399116244046 -19.22424712658761, -67.61860465284788 -19.3399052695533 C-67.23576775620354 -19.376837084543848, -66.85293085955922 -19.413768899534393, -66.3743692896239 -19.45993515863156 C-65.91054250467339 -19.474809180840854, -65.44671571972289 -19.48968320305015, -65.125 -19.5 C-65.125 -19.5, -65.125 -19.5, -65.125 -19.5" stroke="none" stroke-width="0" fill="#F8FAFC" style=""/><path d="M-65.125 -19.5 C-35.74759324611986 -19.5, -6.370186492239718 -19.5, 65.125 -19.5 M-65.125 -19.5 C-38.804176898349915 -19.5, -12.48335379669983 -19.5, 65.125 -19.5 M65.125 -19.5 C65.125 -19.5, 65.125 -19.5, 65.125 -19.5 M65.125 -19.5 C65.125 -19.5, 65.125 -19.5, 65.125 -19.5 M65.125 -19.5 C65.50067653096765 -19.487952784861875, 65.8763530619353 -19.47590556972375, 66.3743692896239 -19.45993515863156 M65.125 -19.5 C65.50536753363986 -19.48780235353666, 65.88573506727971 -19.47560470707332, 66.3743692896239 -19.45993515863156 M66.3743692896239 -19.45993515863156 C66.85917264089608 -19.413166762395665, 67.34397599216825 -19.366398366159775, 67.61860465284786 -19.3399052695533 M66.3743692896239 -19.45993515863156 C66.77531666377192 -19.421256247657265, 67.17626403791994 -19.382577336682974, 67.61860465284786 -19.3399052695533 M67.61860465284786 -19.3399052695533 C68.01634345774828 -19.2756019440875, 68.41408226264868 -19.2112986186217, 68.85259325967675 -19.140403561325776 M67.61860465284786 -19.3399052695533 C67.86826322366507 -19.299542407954707, 68.11792179448227 -19.259179546356116, 68.85259325967675 -19.140403561325776 M68.85259325967675 -19.140403561325776 C69.28844814367139 -19.040922528272926, 69.72430302766601 -18.941441495220076, 70.07126438623538 -18.862249829261074 M68.85259325967675 -19.140403561325776 C69.1752804721127 -19.06675231081812, 69.49796768454866 -18.99310106031047, 70.07126438623538 -18.862249829261074 M70.07126438623538 -18.862249829261074 C70.38046792229171 -18.77047984280204, 70.68967145834804 -18.678709856343, 71.2696102514606 -18.50658706670804 M70.07126438623538 -18.862249829261074 C70.53383543151563 -18.724961171106862, 70.99640647679587 -18.587672512952654, 71.2696102514606 -18.50658706670804 M71.2696102514606 -18.50658706670804 C71.61211275393956 -18.380542979737356, 71.95461525641852 -18.254498892766673, 72.4427065951478 -18.074876768247425 M71.2696102514606 -18.50658706670804 C71.56327168624806 -18.398516944129714, 71.8569331210355 -18.290446821551388, 72.4427065951478 -18.074876768247425 M72.4427065951478 -18.074876768247425 C72.89795130111 -17.87335344127235, 73.3531960070722 -17.671830114297272, 73.58573291279238 -17.568892924097174 M72.4427065951478 -18.074876768247425 C72.83341623854464 -17.901921199105416, 73.22412588194149 -17.72896562996341, 73.58573291279238 -17.568892924097174 M73.58573291279238 -17.568892924097174 C73.81734334660078 -17.448061909132893, 74.04895378040919 -17.32723089416861, 74.69399226407678 -16.990714730406097 M73.58573291279238 -17.568892924097174 C73.93052175510155 -17.389016805912277, 74.27531059741071 -17.209140687727377, 74.69399226407678 -16.990714730406097 M74.69399226407678 -16.990714730406097 C75.08672013621488 -16.752640786390835, 75.47944800835296 -16.51456684237557, 75.7629305736057 -16.342718045390892 M74.69399226407678 -16.990714730406097 C75.0210537019641 -16.79244816473245, 75.34811513985144 -16.594181599058796, 75.7629305736057 -16.342718045390892 M75.7629305736057 -16.342718045390892 C76.12450720885982 -16.09049783703788, 76.48608384411395 -15.838277628684871, 76.78815534457871 -15.627565626425154 M75.7629305736057 -16.342718045390892 C75.99892989906255 -16.17809513219834, 76.23492922451939 -16.013472219005788, 76.78815534457871 -15.627565626425154 M76.78815534457871 -15.627565626425154 C77.12031669940106 -15.36267578513921, 77.45247805422339 -15.097785943853268, 77.76545370850187 -14.848196188198123 M76.78815534457871 -15.627565626425154 C77.13615218118 -15.350047409820373, 77.48414901778128 -15.07252919321559, 77.76545370850187 -14.848196188198123 M77.76545370850187 -14.848196188198123 C78.0013581741635 -14.633953994174353, 78.23726263982515 -14.419711800150584, 78.69080973676799 -14.007812326905688 M77.76545370850187 -14.848196188198123 C77.96932506494275 -14.663045616419012, 78.17319642138364 -14.4778950446399, 78.69080973676799 -14.007812326905688 M78.69080973676799 -14.007812326905688 C78.8792772480219 -13.813204148065573, 79.06774475927583 -13.618595969225458, 79.56042094296865 -13.10986736009568 M78.69080973676799 -14.007812326905688 C78.99513597681519 -13.693570498407976, 79.2994622168624 -13.379328669910262, 79.56042094296865 -13.10986736009568 M79.56042094296865 -13.10986736009568 C79.83834818205176 -12.783398210560755, 80.11627542113486 -12.456929061025829, 80.37071390812658 -12.158051136245305 M79.56042094296865 -13.10986736009568 C79.79035772006428 -12.839770537945881, 80.02029449715992 -12.569673715796084, 80.37071390812658 -12.158051136245305 M80.37071390812658 -12.158051136245305 C80.62658734610513 -11.815204039903787, 80.88246078408369 -11.472356943562266, 81.11835896464063 -11.156274872382312 M80.37071390812658 -12.158051136245305 C80.61905953561487 -11.825290620163099, 80.86740516310316 -11.492530104080894, 81.11835896464063 -11.156274872382312 M81.11835896464063 -11.156274872382312 C81.35037106056777 -10.799841989067112, 81.58238315649488 -10.443409105751913, 81.80028387860425 -10.108655082055241 M81.11835896464063 -11.156274872382312 C81.28320569468438 -10.903026027490062, 81.44805242472812 -10.649777182597813, 81.80028387860425 -10.108655082055241 M81.80028387860425 -10.108655082055241 C81.93132872055078 -9.875971695450012, 82.06237356249731 -9.643288308844783, 82.4136864742735 -9.019496659696287 M81.80028387860425 -10.108655082055241 C82.02397736590595 -9.711464643929242, 82.24767085320765 -9.314274205803242, 82.4136864742735 -9.019496659696287 M82.4136864742735 -9.019496659696287 C82.53426804319787 -8.769106451792581, 82.65484961212223 -8.518716243888875, 82.95604614880834 -7.893275190886684 M82.4136864742735 -9.019496659696287 C82.60790517037057 -8.61619738163633, 82.80212386646765 -8.212898103576372, 82.95604614880834 -7.893275190886684 M82.95604614880834 -7.893275190886684 C83.07898116837404 -7.5896233157724735, 83.20191618793976 -7.285971440658264, 83.42513422997033 -6.734618561215508 M82.95604614880834 -7.893275190886684 C83.05086397453691 -7.659073328159163, 83.14568180026548 -7.424871465431643, 83.42513422997033 -6.734618561215508 M83.42513422997033 -6.734618561215508 C83.50723034242506 -6.487358150741024, 83.58932645487981 -6.240097740266539, 83.81902313421489 -5.548287939305138 M83.42513422997033 -6.734618561215508 C83.58191265748015 -6.26242691680612, 83.73869108498997 -5.790235272396733, 83.81902313421489 -5.548287939305138 M83.81902313421489 -5.548287939305138 C83.92353326177901 -5.149745527927291, 84.02804338934315 -4.751203116549443, 84.13609428754556 -4.339158212148133 M83.81902313421489 -5.548287939305138 C83.90728486779838 -5.211707696273939, 83.99554660138189 -4.87512745324274, 84.13609428754556 -4.339158212148133 M84.13609428754556 -4.339158212148133 C84.19888636736408 -4.016734153390754, 84.26167844718262 -3.6943100946333747, 84.37504477658177 -3.1121979531509023 M84.13609428754556 -4.339158212148133 C84.21298528723914 -3.944339179640184, 84.2898762869327 -3.549520147132234, 84.37504477658177 -3.1121979531509023 M84.37504477658177 -3.1121979531509023 C84.42181913573079 -2.749425260233073, 84.46859349487981 -2.386652567315244, 84.53489270250937 -1.872449005199798 M84.37504477658177 -3.1121979531509023 C84.43423640985836 -2.6531193341678296, 84.49342804313494 -2.194040715184757, 84.53489270250937 -1.872449005199798 M84.53489270250937 -1.872449005199798 C84.55155789447645 -1.6128751884116377, 84.56822308644354 -1.3533013716234774, 84.61498121591342 -0.6250057626472757 M84.53489270250937 -1.872449005199798 C84.56336619724424 -1.4289513413129038, 84.5918396919791 -0.9854536774260099, 84.61498121591342 -0.6250057626472757 M84.61498121591342 -0.6250057626472757 C84.61498121591342 -0.2617971717234727, 84.61498121591342 0.10141141920033026, 84.61498121591342 0.625005762647271 M84.61498121591342 -0.6250057626472757 C84.61498121591342 -0.286564633442276, 84.61498121591342 0.051876495762723684, 84.61498121591342 0.625005762647271 M84.61498121591342 0.625005762647271 C84.58570398131222 1.081022323719301, 84.55642674671103 1.5370388847913312, 84.53489270250937 1.8724490051997846 M84.61498121591342 0.625005762647271 C84.5889578119943 1.030341284400935, 84.56293440807521 1.435676806154599, 84.53489270250937 1.8724490051997846 M84.53489270250937 1.8724490051997846 C84.47731580824951 2.319004027235375, 84.41973891398968 2.7655590492709647, 84.37504477658177 3.1121979531508885 M84.53489270250937 1.8724490051997846 C84.49883519860138 2.1521038851506358, 84.46277769469339 2.431758765101487, 84.37504477658177 3.1121979531508885 M84.37504477658177 3.1121979531508885 C84.30836729956552 3.454572705339618, 84.24168982254926 3.7969474575283475, 84.13609428754556 4.339158212148129 M84.37504477658177 3.1121979531508885 C84.31100357921741 3.4410359665049968, 84.24696238185307 3.7698739798591054, 84.13609428754556 4.339158212148129 M84.13609428754556 4.339158212148129 C84.07059139897194 4.588949115410802, 84.00508851039834 4.838740018673476, 83.81902313421489 5.548287939305125 M84.13609428754556 4.339158212148129 C84.01684086930258 4.793923180667014, 83.89758745105961 5.2486881491859, 83.81902313421489 5.548287939305125 M83.81902313421489 5.548287939305125 C83.72010184238185 5.846223109338762, 83.62118055054881 6.144158279372399, 83.42513422997033 6.734618561215495 M83.81902313421489 5.548287939305125 C83.71738612245832 5.854402425057202, 83.61574911070177 6.160516910809279, 83.42513422997033 6.734618561215495 M83.42513422997033 6.734618561215495 C83.3001384746856 7.043360493397313, 83.17514271940085 7.352102425579131, 82.95604614880834 7.893275190886679 M83.42513422997033 6.734618561215495 C83.24742483382242 7.173564205478254, 83.06971543767452 7.612509849741014, 82.95604614880834 7.893275190886679 M82.95604614880834 7.893275190886679 C82.78365169444241 8.251255964027955, 82.61125724007647 8.609236737169232, 82.4136864742735 9.019496659696284 M82.95604614880834 7.893275190886679 C82.80266353280598 8.211777474877822, 82.64928091680362 8.530279758868966, 82.4136864742735 9.019496659696284 M82.4136864742735 9.019496659696284 C82.20644075768222 9.38748241540855, 81.99919504109093 9.755468171120816, 81.80028387860425 10.108655082055236 M82.4136864742735 9.019496659696284 C82.27771123809003 9.260934460525748, 82.14173600190657 9.502372261355212, 81.80028387860425 10.108655082055236 M81.80028387860425 10.108655082055236 C81.65129036384835 10.337549131081, 81.50229684909243 10.566443180106765, 81.11835896464065 11.156274872382301 M81.80028387860425 10.108655082055236 C81.57642692992478 10.452559469234384, 81.35256998124531 10.796463856413531, 81.11835896464065 11.156274872382301 M81.11835896464065 11.156274872382301 C80.96654302047497 11.359694406847268, 80.8147270763093 11.563113941312237, 80.37071390812659 12.158051136245302 M81.11835896464065 11.156274872382301 C80.86892654182913 11.490491595188555, 80.6194941190176 11.824708317994807, 80.37071390812659 12.158051136245302 M80.37071390812659 12.158051136245302 C80.1315316958775 12.439008172606513, 79.89234948362841 12.719965208967723, 79.56042094296866 13.10986736009567 M80.37071390812659 12.158051136245302 C80.1985735084748 12.36025704474252, 80.026433108823 12.56246295323974, 79.56042094296866 13.10986736009567 M79.56042094296866 13.10986736009567 C79.26505444297345 13.414857521381357, 78.96968794297825 13.719847682667046, 78.69080973676799 14.007812326905684 M79.56042094296866 13.10986736009567 C79.2346128501123 13.446290965311757, 78.90880475725594 13.782714570527846, 78.69080973676799 14.007812326905684 M78.69080973676799 14.007812326905684 C78.44438643686671 14.231607447872804, 78.19796313696541 14.455402568839924, 77.7654537085019 14.848196188198111 M78.69080973676799 14.007812326905684 C78.43407477148921 14.240972229536935, 78.17733980621041 14.474132132168185, 77.7654537085019 14.848196188198111 M77.7654537085019 14.848196188198111 C77.48194473465065 15.074287050353833, 77.19843576079941 15.300377912509553, 76.78815534457871 15.627565626425152 M77.7654537085019 14.848196188198111 C77.45573529522574 15.095188380832731, 77.14601688194958 15.342180573467349, 76.78815534457871 15.627565626425152 M76.78815534457871 15.627565626425152 C76.55347163168844 15.791270825243217, 76.31878791879817 15.954976024061283, 75.7629305736057 16.34271804539089 M76.78815534457871 15.627565626425152 C76.49563637845712 15.831614194249623, 76.20311741233553 16.035662762074093, 75.7629305736057 16.34271804539089 M75.7629305736057 16.34271804539089 C75.46086777812471 16.525830287129487, 75.15880498264372 16.708942528868086, 74.69399226407678 16.990714730406093 M75.7629305736057 16.34271804539089 C75.42681589809762 16.546472736912975, 75.09070122258952 16.75022742843506, 74.69399226407678 16.990714730406093 M74.69399226407678 16.990714730406093 C74.34256318653452 17.174055055058822, 73.99113410899227 17.35739537971155, 73.58573291279238 17.56889292409717 M74.69399226407678 16.990714730406093 C74.43481811946364 17.125925715641806, 74.1756439748505 17.26113670087752, 73.58573291279238 17.56889292409717 M73.58573291279238 17.56889292409717 C73.2498975210488 17.717557289819116, 72.91406212930521 17.866221655541064, 72.4427065951478 18.07487676824742 M73.58573291279238 17.56889292409717 C73.16732706035478 17.754108783402664, 72.74892120791719 17.939324642708158, 72.4427065951478 18.07487676824742 M72.4427065951478 18.07487676824742 C72.00121588969289 18.23734942895017, 71.55972518423799 18.399822089652922, 71.26961025146062 18.506587066708033 M72.4427065951478 18.07487676824742 C72.16784182349714 18.176029545036958, 71.8929770518465 18.277182321826494, 71.26961025146062 18.506587066708033 M71.26961025146062 18.506587066708033 C70.83235907963399 18.636360919327938, 70.39510790780737 18.766134771947847, 70.07126438623541 18.86224982926107 M71.26961025146062 18.506587066708033 C71.02766641252735 18.5783947281143, 70.78572257359407 18.650202389520572, 70.07126438623541 18.86224982926107 M70.07126438623541 18.86224982926107 C69.61296183942791 18.966854394866267, 69.15465929262042 19.071458960471464, 68.85259325967677 19.140403561325773 M70.07126438623541 18.86224982926107 C69.8262099811309 18.918181898096737, 69.58115557602639 18.9741139669324, 68.85259325967677 19.140403561325773 M68.85259325967677 19.140403561325773 C68.38918875341848 19.215323208141996, 67.9257842471602 19.290242854958215, 67.61860465284788 19.3399052695533 M68.85259325967677 19.140403561325773 C68.58226511606343 19.184108119159113, 68.31193697245008 19.227812676992457, 67.61860465284788 19.3399052695533 M67.61860465284788 19.3399052695533 C67.23401637457836 19.377006038222884, 66.84942809630886 19.414106806892466, 66.3743692896239 19.45993515863156 M67.61860465284788 19.3399052695533 C67.14289670398485 19.3857962432576, 66.6671887551218 19.431687216961908, 66.3743692896239 19.45993515863156 M66.3743692896239 19.45993515863156 C66.09135960451637 19.469010728388024, 65.80834991940884 19.478086298144486, 65.125 19.5 M66.3743692896239 19.45993515863156 C65.99745364273345 19.472022109805536, 65.62053799584301 19.48410906097951, 65.125 19.5 M65.125 19.5 C65.125 19.5, 65.125 19.5, 65.125 19.5 M65.125 19.5 C65.125 19.5, 65.125 19.5, 65.125 19.5 M65.125 19.5 C21.908379920356566 19.5, -21.308240159286868 19.5, -65.125 19.5 M65.125 19.5 C33.15710574948465 19.5, 1.1892114989693 19.5, -65.125 19.5 M-65.125 19.5 C-65.50645851884502 19.487767367764604, -65.88791703769004 19.47553473552921, -66.3743692896239 19.45993515863156 M-65.125 19.5 C-65.5707455729643 19.48570580706616, -66.0164911459286 19.471411614132318, -66.3743692896239 19.45993515863156 M-66.3743692896239 19.45993515863156 C-66.65524630080625 19.432839291166825, -66.9361233119886 19.40574342370209, -67.61860465284786 19.3399052695533 M-66.3743692896239 19.45993515863156 C-66.63149764358218 19.435130295567294, -66.88862599754046 19.410325432503026, -67.61860465284786 19.3399052695533 M-67.61860465284786 19.3399052695533 C-68.0310953074048 19.273216979437336, -68.44358596196172 19.206528689321374, -68.85259325967675 19.140403561325773 M-67.61860465284786 19.3399052695533 C-67.99028922565925 19.279814190278064, -68.36197379847066 19.21972311100283, -68.85259325967675 19.140403561325773 M-68.85259325967675 19.140403561325773 C-69.29920239605099 19.038467940345335, -69.74581153242522 18.936532319364893, -70.07126438623538 18.862249829261074 M-68.85259325967675 19.140403561325773 C-69.31986473724763 19.03375189580158, -69.78713621481849 18.927100230277386, -70.07126438623538 18.862249829261074 M-70.07126438623538 18.862249829261074 C-70.40425872278541 18.763418858095967, -70.73725305933544 18.66458788693086, -71.26961025146059 18.506587066708043 M-70.07126438623538 18.862249829261074 C-70.54636328004577 18.721242971423138, -71.02146217385615 18.5802361135852, -71.26961025146059 18.506587066708043 M-71.26961025146059 18.506587066708043 C-71.57419272496796 18.394497900927814, -71.87877519847532 18.282408735147584, -72.4427065951478 18.074876768247425 M-71.26961025146059 18.506587066708043 C-71.63180410724894 18.373296379694633, -71.99399796303729 18.24000569268122, -72.4427065951478 18.074876768247425 M-72.4427065951478 18.074876768247425 C-72.80719556654634 17.913528312790465, -73.1716845379449 17.75217985733351, -73.58573291279238 17.568892924097174 M-72.4427065951478 18.074876768247425 C-72.85367927492992 17.892951353979278, -73.26465195471202 17.71102593971113, -73.58573291279238 17.568892924097174 M-73.58573291279238 17.568892924097174 C-74.0022034093176 17.35162053282205, -74.41867390584282 17.13434814154693, -74.69399226407678 16.990714730406097 M-73.58573291279238 17.568892924097174 C-74.00423317812607 17.350561603734803, -74.42273344345975 17.132230283372433, -74.69399226407678 16.990714730406097 M-74.69399226407678 16.990714730406097 C-75.00074782423671 16.80475770714138, -75.30750338439664 16.618800683876664, -75.76293057360569 16.3427180453909 M-74.69399226407678 16.990714730406097 C-75.01520859686376 16.79599150179393, -75.33642492965073 16.60126827318177, -75.76293057360569 16.3427180453909 M-75.76293057360569 16.3427180453909 C-76.10510134895108 16.104034524844085, -76.44727212429648 15.86535100429727, -76.78815534457871 15.627565626425156 M-75.76293057360569 16.3427180453909 C-76.11131312148187 16.099701461229902, -76.45969566935807 15.856684877068904, -76.78815534457871 15.627565626425156 M-76.78815534457871 15.627565626425156 C-77.08287714103211 15.392532836629945, -77.37759893748553 15.157500046834734, -77.76545370850187 14.848196188198125 M-76.78815534457871 15.627565626425156 C-77.16195550505782 15.329469945683089, -77.53575566553694 15.031374264941023, -77.76545370850187 14.848196188198125 M-77.76545370850187 14.848196188198125 C-77.9555212427888 14.675581882470109, -78.14558877707574 14.502967576742094, -78.69080973676797 14.007812326905697 M-77.76545370850187 14.848196188198125 C-78.04314933540667 14.596000367266841, -78.32084496231148 14.343804546335555, -78.69080973676797 14.007812326905697 M-78.69080973676797 14.007812326905697 C-78.90182988288416 13.789916700964543, -79.11285002900033 13.57202107502339, -79.56042094296865 13.109867360095677 M-78.69080973676797 14.007812326905697 C-79.01097518217078 13.677215218455382, -79.33114062757357 13.346618110005066, -79.56042094296865 13.109867360095677 M-79.56042094296865 13.109867360095677 C-79.728460871483 12.912478098319916, -79.89650079999736 12.715088836544155, -80.37071390812658 12.158051136245307 M-79.56042094296865 13.109867360095677 C-79.79881963472218 12.82983069149213, -80.03721832647571 12.549794022888586, -80.37071390812658 12.158051136245307 M-80.37071390812658 12.158051136245307 C-80.66178799356042 11.768038379158641, -80.95286207899429 11.378025622071974, -81.11835896464063 11.156274872382316 M-80.37071390812658 12.158051136245307 C-80.6013307233974 11.849045613406483, -80.83194753866823 11.54004009056766, -81.11835896464063 11.156274872382316 M-81.11835896464063 11.156274872382316 C-81.34611278669847 10.80638384123699, -81.5738666087563 10.456492810091664, -81.80028387860425 10.108655082055249 M-81.11835896464063 11.156274872382316 C-81.32310896759827 10.841723884765226, -81.52785897055593 10.527172897148137, -81.80028387860425 10.108655082055249 M-81.80028387860425 10.108655082055249 C-82.00369062527861 9.747485806168342, -82.20709737195297 9.386316530281437, -82.4136864742735 9.019496659696289 M-81.80028387860425 10.108655082055249 C-82.03430389969522 9.693128837511464, -82.2683239207862 9.27760259296768, -82.4136864742735 9.019496659696289 M-82.4136864742735 9.019496659696289 C-82.59870661086453 8.635298387268293, -82.78372674745555 8.251100114840296, -82.95604614880834 7.893275190886686 M-82.4136864742735 9.019496659696289 C-82.5784548115805 8.67735168180065, -82.74322314888751 8.335206703905008, -82.95604614880834 7.893275190886686 M-82.95604614880834 7.893275190886686 C-83.12179331336864 7.483876489919333, -83.28754047792893 7.074477788951979, -83.42513422997033 6.73461856121551 M-82.95604614880834 7.893275190886686 C-83.05953749291683 7.637649570069681, -83.16302883702534 7.382023949252676, -83.42513422997033 6.73461856121551 M-83.42513422997033 6.73461856121551 C-83.53794100064835 6.394862541251381, -83.65074777132638 6.055106521287252, -83.81902313421489 5.5482879393051325 M-83.42513422997033 6.73461856121551 C-83.52375314243712 6.437594109655383, -83.62237205490392 6.140569658095256, -83.81902313421489 5.5482879393051325 M-83.81902313421489 5.5482879393051325 C-83.89377837951228 5.263213789857912, -83.96853362480967 4.978139640410691, -84.13609428754556 4.339158212148136 M-83.81902313421489 5.5482879393051325 C-83.91529203254868 5.181172906753906, -84.01156093088248 4.81405787420268, -84.13609428754556 4.339158212148136 M-84.13609428754556 4.339158212148136 C-84.19731676368285 4.024793736558101, -84.25853923982012 3.7104292609680662, -84.37504477658177 3.112197953150904 M-84.13609428754556 4.339158212148136 C-84.18600078256345 4.082898907972739, -84.23590727758133 3.826639603797343, -84.37504477658177 3.112197953150904 M-84.37504477658177 3.112197953150904 C-84.4327324533542 2.6647837238241885, -84.49042013012664 2.2173694944974724, -84.53489270250937 1.872449005199809 M-84.37504477658177 3.112197953150904 C-84.43890164099977 2.6169367226890556, -84.50275850541777 2.121675492227207, -84.53489270250937 1.872449005199809 M-84.53489270250937 1.872449005199809 C-84.56286951822653 1.4366875179257408, -84.5908463339437 1.0009260306516725, -84.61498121591342 0.6250057626472781 M-84.53489270250937 1.872449005199809 C-84.55982180554149 1.484158103064725, -84.58475090857361 1.095867200929641, -84.61498121591342 0.6250057626472781 M-84.61498121591342 0.6250057626472781 C-84.61498121591342 0.2660482913702879, -84.61498121591342 -0.09290917990670233, -84.61498121591342 -0.6250057626472687 M-84.61498121591342 0.6250057626472781 C-84.61498121591342 0.1467408664675297, -84.61498121591342 -0.3315240297122187, -84.61498121591342 -0.6250057626472687 M-84.61498121591342 -0.6250057626472687 C-84.59497928609909 -0.9365519647725762, -84.57497735628476 -1.2480981668978837, -84.53489270250937 -1.8724490051997822 M-84.61498121591342 -0.6250057626472687 C-84.5882173402583 -1.0418747293874142, -84.56145346460316 -1.4587436961275597, -84.53489270250937 -1.8724490051997822 M-84.53489270250937 -1.8724490051997822 C-84.48573381658281 -2.253715616926157, -84.43657493065625 -2.6349822286525315, -84.37504477658177 -3.112197953150895 M-84.53489270250937 -1.8724490051997822 C-84.48569377157473 -2.254026198101028, -84.4364948406401 -2.635603391002274, -84.37504477658177 -3.112197953150895 M-84.37504477658177 -3.112197953150895 C-84.27997897249857 -3.60034076495334, -84.18491316841536 -4.0884835767557846, -84.13609428754556 -4.339158212148126 M-84.37504477658177 -3.112197953150895 C-84.31896660830259 -3.4001474951394752, -84.26288844002339 -3.6880970371280553, -84.13609428754556 -4.339158212148126 M-84.13609428754556 -4.339158212148126 C-84.01705989037964 -4.7930879583758585, -83.89802549321372 -5.24701770460359, -83.81902313421489 -5.548287939305123 M-84.13609428754556 -4.339158212148126 C-84.06667276164346 -4.6038925778924895, -83.99725123574136 -4.868626943636854, -83.81902313421489 -5.548287939305123 M-83.81902313421489 -5.548287939305123 C-83.7301686120623 -5.815903602983173, -83.64131408990971 -6.083519266661224, -83.42513422997033 -6.734618561215485 M-83.81902313421489 -5.548287939305123 C-83.67334017541582 -5.987061799780614, -83.52765721661675 -6.425835660256105, -83.42513422997033 -6.734618561215485 M-83.42513422997033 -6.734618561215485 C-83.24318363377766 -7.184040051586829, -83.061233037585 -7.633461541958172, -82.95604614880834 -7.893275190886676 M-83.42513422997033 -6.734618561215485 C-83.25559752794813 -7.153377492979457, -83.08606082592594 -7.572136424743429, -82.95604614880834 -7.893275190886676 M-82.95604614880834 -7.893275190886676 C-82.76005665247739 -8.300251573521335, -82.56406715614644 -8.707227956155993, -82.4136864742735 -9.019496659696282 M-82.95604614880834 -7.893275190886676 C-82.75056250218341 -8.31996637974905, -82.54507885555849 -8.746657568611427, -82.4136864742735 -9.019496659696282 M-82.4136864742735 -9.019496659696282 C-82.28211806492939 -9.253109693232869, -82.15054965558528 -9.486722726769456, -81.80028387860425 -10.108655082055243 M-82.4136864742735 -9.019496659696282 C-82.17623628196364 -9.4411135205817, -81.93878608965379 -9.86273038146712, -81.80028387860425 -10.108655082055243 M-81.80028387860425 -10.108655082055243 C-81.53454895781368 -10.516895280207086, -81.26881403702313 -10.925135478358929, -81.11835896464063 -11.156274872382308 M-81.80028387860425 -10.108655082055243 C-81.63170748016476 -10.367633699159551, -81.46313108172527 -10.626612316263857, -81.11835896464063 -11.156274872382308 M-81.11835896464063 -11.156274872382308 C-80.83055157918025 -11.541910549107023, -80.54274419371987 -11.927546225831735, -80.37071390812659 -12.158051136245302 M-81.11835896464063 -11.156274872382308 C-80.93596915114564 -11.40066060641176, -80.75357933765066 -11.645046340441212, -80.37071390812659 -12.158051136245302 M-80.37071390812659 -12.158051136245302 C-80.08768053834348 -12.490518237447516, -79.80464716856038 -12.822985338649728, -79.56042094296866 -13.10986736009567 M-80.37071390812659 -12.158051136245302 C-80.06286619477672 -12.519666577377183, -79.75501848142684 -12.881282018509065, -79.56042094296866 -13.10986736009567 M-79.56042094296866 -13.10986736009567 C-79.23860217553155 -13.442171659286668, -78.91678340809445 -13.774475958477664, -78.69080973676799 -14.007812326905677 M-79.56042094296866 -13.10986736009567 C-79.27259991882748 -13.407066198066985, -78.9847788946863 -13.704265036038299, -78.69080973676799 -14.007812326905677 M-78.69080973676799 -14.007812326905677 C-78.40617710750455 -14.266308149836053, -78.1215444782411 -14.524803972766431, -77.7654537085019 -14.848196188198107 M-78.69080973676799 -14.007812326905677 C-78.39373513935367 -14.277607616114249, -78.09666054193934 -14.54740290532282, -77.7654537085019 -14.848196188198107 M-77.7654537085019 -14.848196188198107 C-77.46320751420576 -15.089229485040246, -77.16096131990965 -15.330262781882386, -76.78815534457871 -15.627565626425149 M-77.7654537085019 -14.848196188198107 C-77.50602887316623 -15.055080590793494, -77.24660403783058 -15.261964993388881, -76.78815534457871 -15.627565626425149 M-76.78815534457871 -15.627565626425149 C-76.50257080641943 -15.826777037489665, -76.21698626826014 -16.02598844855418, -75.76293057360571 -16.342718045390885 M-76.78815534457871 -15.627565626425149 C-76.46657238301015 -15.851887979313346, -76.14498942144158 -16.076210332201544, -75.76293057360571 -16.342718045390885 M-75.76293057360571 -16.342718045390885 C-75.43766180480003 -16.539897884532348, -75.11239303599434 -16.737077723673806, -74.69399226407678 -16.99071473040609 M-75.76293057360571 -16.342718045390885 C-75.46023417863768 -16.52621437886197, -75.15753778366965 -16.709710712333056, -74.69399226407678 -16.99071473040609 M-74.69399226407678 -16.99071473040609 C-74.38435585737179 -17.152251845452504, -74.0747194506668 -17.313788960498915, -73.5857329127924 -17.56889292409717 M-74.69399226407678 -16.99071473040609 C-74.33213526527544 -17.17949529490028, -73.97027826647411 -17.368275859394473, -73.5857329127924 -17.56889292409717 M-73.5857329127924 -17.56889292409717 C-73.18603543083138 -17.745827142756777, -72.78633794887035 -17.922761361416384, -72.44270659514781 -18.07487676824742 M-73.5857329127924 -17.56889292409717 C-73.26081002674735 -17.71272664725435, -72.93588714070232 -17.856560370411533, -72.44270659514781 -18.07487676824742 M-72.44270659514781 -18.07487676824742 C-72.0083057353317 -18.234740300217275, -71.57390487551561 -18.39460383218713, -71.26961025146062 -18.506587066708033 M-72.44270659514781 -18.07487676824742 C-72.00694280968361 -18.23524186945452, -71.57117902421942 -18.39560697066162, -71.26961025146062 -18.506587066708033 M-71.26961025146062 -18.506587066708033 C-70.84936435549278 -18.631313842715567, -70.42911845952493 -18.756040618723098, -70.07126438623541 -18.862249829261067 M-71.26961025146062 -18.506587066708033 C-70.99458619558465 -18.588212762861296, -70.71956213970866 -18.669838459014557, -70.07126438623541 -18.862249829261067 M-70.07126438623541 -18.862249829261067 C-69.6626055824785 -18.955523534470668, -69.25394677872158 -19.04879723968027, -68.85259325967677 -19.140403561325773 M-70.07126438623541 -18.862249829261067 C-69.61023583193975 -18.96747658828658, -69.14920727764408 -19.072703347312093, -68.85259325967677 -19.140403561325773 M-68.85259325967677 -19.140403561325773 C-68.39395428364601 -19.214552754172047, -67.93531530761526 -19.28870194701832, -67.61860465284788 -19.3399052695533 M-68.85259325967677 -19.140403561325773 C-68.4732162616719 -19.201738292250642, -68.09383926366702 -19.263073023175508, -67.61860465284788 -19.3399052695533 M-67.61860465284788 -19.3399052695533 C-67.32255019362866 -19.368465287176598, -67.02649573440942 -19.397025304799897, -66.3743692896239 -19.45993515863156 M-67.61860465284788 -19.3399052695533 C-67.3306290398648 -19.36768593059643, -67.04265342688173 -19.39546659163956, -66.3743692896239 -19.45993515863156 M-66.3743692896239 -19.45993515863156 C-66.08010567149724 -19.469371620115496, -65.78584205337057 -19.478808081599432, -65.125 -19.5 M-66.3743692896239 -19.45993515863156 C-65.93968962898022 -19.47387448929577, -65.50500996833654 -19.487813819959978, -65.125 -19.5 M-65.125 -19.5 C-65.125 -19.5, -65.125 -19.5, -65.125 -19.5 M-65.125 -19.5 C-65.125 -19.5, -65.125 -19.5, -65.125 -19.5" stroke="#94A3B8" stroke-width="1.3" fill="none" stroke-dasharray="0 0" style=""/></g><g class="label" style="" transform="translate(-72.25, -12)"><rect/><foreignObject width="144.5" height="24"><div xmlns="http://www.w3.org/1999/xhtml" style="display: table-cell; white-space: nowrap; line-height: 1.5; max-width: 200px; text-align: center;"><span class="nodeLabel"><p>Website visitor</p></span></div></foreignObject></g></g><g class="node default" id="my-svg-flowchart-P-1" data-look="classic" transform="translate(146.60546875, 162)"><rect class="basic label-container" style="" x="-54.0859375" y="-27" width="108.171875" height="54"/><g class="label" style="" transform="translate(-24.0859375, -12)"><rect/><foreignObject width="48.171875" height="24"><div xmlns="http://www.w3.org/1999/xhtml" style="display: table-cell; white-space: nowrap; line-height: 1.5; max-width: 200px; text-align: center;"><span class="nodeLabel"><p>Pixel</p></span></div></foreignObject></g></g><g class="node default" id="my-svg-flowchart-ID-3" data-look="classic" transform="translate(334.98046875, 292)"><rect class="basic label-container" style="" x="-121.515625" y="-27" width="243.03125" height="54"/><g class="label" style="" transform="translate(-91.515625, -12)"><rect/><foreignObject width="183.03125" height="24"><div xmlns="http://www.w3.org/1999/xhtml" style="display: table-cell; white-space: nowrap; line-height: 1.5; max-width: 200px; text-align: center;"><span class="nodeLabel"><p>Identity resolution</p></span></div></foreignObject></g></g><g class="node default" id="my-svg-flowchart-PH-4" data-look="classic" transform="translate(342.57421875, 162)"><rect class="basic label-container" style="" x="-111.8828125" y="-27" width="223.765625" height="54"/><g class="label" style="" transform="translate(-81.8828125, -12)"><rect/><foreignObject width="163.765625" height="24"><div xmlns="http://www.w3.org/1999/xhtml" style="display: table-cell; white-space: nowrap; line-height: 1.5; max-width: 200px; text-align: center;"><span class="nodeLabel"><p>Product analytics</p></span></div></foreignObject></g></g><g class="node default" id="my-svg-flowchart-WH-6" data-look="classic" transform="translate(572.25390625, 162)"><rect class="basic label-container" style="" x="-87.796875" y="-39" width="175.59375" height="78"/><g class="label" style="" transform="translate(-57.796875, -24)"><rect/><foreignObject width="115.59375" height="48"><div xmlns="http://www.w3.org/1999/xhtml" style="display: table-cell; white-space: nowrap; line-height: 1.5; max-width: 200px; text-align: center;"><span class="nodeLabel"><p>Your systems<br />webhook</p></span></div></foreignObject></g></g><g class="node default" id="my-svg-flowchart-CO-9" data-look="classic" transform="translate(334.98046875, 398)"><rect class="basic label-container" style="" x="-107.0625" y="-39" width="214.125" height="78"/><g class="label" style="" transform="translate(-77.0625, -24)"><rect/><foreignObject width="154.125" height="48"><div xmlns="http://www.w3.org/1999/xhtml" style="display: table-cell; white-space: nowrap; line-height: 1.5; max-width: 200px; text-align: center;"><span class="nodeLabel"><p>Company + person<br />(when known)</p></span></div></foreignObject></g></g><g class="node default" id="my-svg-flowchart-S-11" data-look="classic" transform="translate(334.98046875, 504)"><rect class="basic label-container" style="" x="-63.71875" y="-27" width="127.4375" height="54"/><g class="label" style="" transform="translate(-33.71875, -12)"><rect/><foreignObject width="67.4375" height="24"><div xmlns="http://www.w3.org/1999/xhtml" style="display: table-cell; white-space: nowrap; line-height: 1.5; max-width: 200px; text-align: center;"><span class="nodeLabel"><p>Signals</p></span></div></foreignObject></g></g><g class="node default" id="my-svg-flowchart-SC-13" data-look="classic" transform="translate(334.98046875, 610)"><rect class="basic label-container" style="" x="-137.515625" y="-39" width="275.03125" height="78"/><g class="label" style="" transform="translate(-107.515625, -24)"><rect/><foreignObject width="215.03125" height="48"><div xmlns="http://www.w3.org/1999/xhtml" style="display: table; white-space: break-spaces; line-height: 1.5; max-width: 200px; text-align: center; width: 200px;"><span class="nodeLabel"><p>Score<br />Fit ⬩ Intent ⬩ Timing</p></span></div></foreignObject></g></g><g class="node default accent" id="my-svg-flowchart-PL-14" data-look="classic" transform="translate(334.98046875, 844)"><rect class="basic label-container" style="fill:#7C3AED !important;stroke:#7C3AED !important" x="-54.0859375" y="-27" width="108.171875" height="54"/><g class="label" style="color:#FFFFFF !important" transform="translate(-24.0859375, -12)"><rect/><foreignObject width="48.171875" height="24"><div style="color: rgb(255, 255, 255) !important; display: table-cell; white-space: nowrap; line-height: 1.5; max-width: 200px; text-align: center;" xmlns="http://www.w3.org/1999/xhtml"><span style="color:#FFFFFF !important" class="nodeLabel"><p>Plays</p></span></div></foreignObject></g></g><g class="node default" id="my-svg-flowchart-O1-15" data-look="classic" transform="translate(138.06640625, 950)"><rect class="basic label-container" style="" x="-82.984375" y="-27" width="165.96875" height="54"/><g class="label" style="" transform="translate(-52.984375, -12)"><rect/><foreignObject width="105.96875" height="24"><div xmlns="http://www.w3.org/1999/xhtml" style="display: table-cell; white-space: nowrap; line-height: 1.5; max-width: 200px; text-align: center;"><span class="nodeLabel"><p>Slack alert</p></span></div></foreignObject></g></g><g class="node default" id="my-svg-flowchart-O2-17" data-look="classic" transform="translate(329.21484375, 950)"><rect class="basic label-container" style="" x="-78.1640625" y="-27" width="156.328125" height="54"/><g class="label" style="" transform="translate(-48.1640625, -12)"><rect/><foreignObject width="96.328125" height="24"><div xmlns="http://www.w3.org/1999/xhtml" style="display: table-cell; white-space: nowrap; line-height: 1.5; max-width: 200px; text-align: center;"><span class="nodeLabel"><p>CRM update</p></span></div></foreignObject></g></g><g class="node default" id="my-svg-flowchart-O3-19" data-look="classic" transform="translate(539.62890625, 950)"><rect class="basic label-container" style="" x="-102.25" y="-39" width="204.5" height="78"/><g class="label" style="" transform="translate(-72.25, -24)"><rect/><foreignObject width="144.5" height="48"><div xmlns="http://www.w3.org/1999/xhtml" style="display: table-cell; white-space: nowrap; line-height: 1.5; max-width: 200px; text-align: center;"><span class="nodeLabel"><p>On-page<br />personalization</p></span></div></foreignObject></g></g></g></g></g><defs><filter id="my-svg-drop-shadow" height="130%" width="130%"><feDropShadow dx="4" dy="4" stdDeviation="0" flood-opacity="0.06" flood-color="#000000"/></filter></defs><defs><filter id="my-svg-drop-shadow-small" height="150%" width="150%"><feDropShadow dx="2" dy="2" stdDeviation="0" flood-opacity="0.06" flood-color="#000000"/></filter></defs><linearGradient id="my-svg-gradient" gradientUnits="objectBoundingBox" x1="0%" y1="0%" x2="100%" y2="0%"><stop offset="0%" stop-color="#94A3B8" stop-opacity="1"/><stop offset="100%" stop-color="hsl(210, 0%, 88.0392156863%)" stop-opacity="1"/></linearGradient></svg>