<svg id="my-svg" width="100%" xmlns="http://www.w3.org/2000/svg" xmlns:xlink="http://www.w3.org/1999/xlink" class="flowchart" style="max-width: 673.984px; background-color: transparent;" viewBox="0 16 673.984375 889" role="graphics-document document" aria-roledescription="flowchart-v2"><style>#my-svg{font-family:ui-monospace,SFMono-Regular,Menlo,monospace;font-size:16px;fill:#E2E8F0;}@keyframes edge-animation-frame{from{stroke-dashoffset:0;}}@keyframes dash{to{stroke-dashoffset:0;}}#my-svg .edge-animation-slow{stroke-dasharray:9,5!important;stroke-dashoffset:900;animation:dash 50s linear infinite;stroke-linecap:round;}#my-svg .edge-animation-fast{stroke-dasharray:9,5!important;stroke-dashoffset:900;animation:dash 20s linear infinite;stroke-linecap:round;}#my-svg .error-icon{fill:#161D27;}#my-svg .error-text{fill:#e9e2d8;stroke:#e9e2d8;}#my-svg .edge-thickness-normal{stroke-width:1px;}#my-svg .edge-thickness-thick{stroke-width:3.5px;}#my-svg .edge-pattern-solid{stroke-dasharray:0;}#my-svg .edge-thickness-invisible{stroke-width:0;fill:none;}#my-svg .edge-pattern-dashed{stroke-dasharray:3;}#my-svg .edge-pattern-dotted{stroke-dasharray:2;}#my-svg .marker{fill:#7B8794;stroke:#7B8794;}#my-svg .marker.cross{stroke:#7B8794;}#my-svg svg{font-family:ui-monospace,SFMono-Regular,Menlo,monospace;font-size:16px;}#my-svg p{margin:0;}#my-svg .label{font-family:ui-monospace,SFMono-Regular,Menlo,monospace;color:#E2E8F0;}#my-svg .cluster-label text{fill:#94A3B8;}#my-svg .cluster-label span{color:#94A3B8;}#my-svg .cluster-label span p{background-color:transparent;}#my-svg .label text,#my-svg span{fill:#E2E8F0;color:#E2E8F0;}#my-svg .node rect,#my-svg .node circle,#my-svg .node ellipse,#my-svg .node polygon,#my-svg .node path{fill:#161D27;stroke:#2A3548;stroke-width:1px;}#my-svg .rough-node .label text,#my-svg .node .label text,#my-svg .image-shape .label,#my-svg .icon-shape .label{text-anchor:middle;}#my-svg .node .katex path{fill:#000;stroke:#000;stroke-width:1px;}#my-svg .rough-node .label,#my-svg .node .label,#my-svg .image-shape .label,#my-svg .icon-shape .label{text-align:center;}#my-svg .node.clickable{cursor:pointer;}#my-svg .root .anchor path{fill:#7B8794!important;stroke-width:0;stroke:#7B8794;}#my-svg .arrowheadPath{fill:#0b0b0b;}#my-svg .edgePath .path{stroke:#7B8794;stroke-width:1px;}#my-svg .flowchart-link{stroke:#7B8794;fill:none;}#my-svg .edgeLabel{background-color:#0D1320;text-align:center;}#my-svg .edgeLabel p{background-color:#0D1320;}#my-svg .edgeLabel rect{opacity:0.5;background-color:#0D1320;fill:#0D1320;}#my-svg .labelBkg{background-color:rgba(13, 19, 32, 0.5);}#my-svg .cluster rect{fill:transparent;stroke:#2A3548;stroke-width:1px;}#my-svg .cluster text{fill:#94A3B8;}#my-svg .cluster span{color:#94A3B8;}#my-svg div.mermaidTooltip{position:absolute;text-align:center;max-width:200px;padding:2px;font-family:ui-monospace,SFMono-Regular,Menlo,monospace;font-size:12px;background:#161D27;border:1px solid hsl(215.2941176471, 0%, 1.9607843137%);border-radius:2px;pointer-events:none;z-index:100;}#my-svg .flowchartTitleText{text-anchor:middle;font-size:18px;fill:#E2E8F0;}#my-svg rect.text{fill:none;stroke-width:0;}#my-svg .icon-shape,#my-svg .image-shape{background-color:#0D1320;text-align:center;}#my-svg .icon-shape p,#my-svg .image-shape p{background-color:#0D1320;padding:2px;}#my-svg .icon-shape .label rect,#my-svg .image-shape .label rect{opacity:0.5;background-color:#0D1320;fill:#0D1320;}#my-svg .label-icon{display:inline-block;height:1em;overflow:visible;vertical-align:-0.125em;}#my-svg .node .label-icon path{fill:currentColor;stroke:revert;stroke-width:revert;}#my-svg .node .neo-node{stroke:#2A3548;}#my-svg [data-look="neo"].node rect,#my-svg [data-look="neo"].cluster rect,#my-svg [data-look="neo"].node polygon{stroke:url(#my-svg-gradient);filter:drop-shadow( 1px 2px 2px rgba(185,185,185,1));}#my-svg [data-look="neo"].node path{stroke:url(#my-svg-gradient);stroke-width:1px;}#my-svg [data-look="neo"].node .outer-path{filter:drop-shadow( 1px 2px 2px rgba(185,185,185,1));}#my-svg [data-look="neo"].node .neo-line path{stroke:#2A3548;filter:none;}#my-svg [data-look="neo"].node circle{stroke:url(#my-svg-gradient);filter:drop-shadow( 1px 2px 2px rgba(185,185,185,1));}#my-svg [data-look="neo"].node circle .state-start{fill:#000000;}#my-svg [data-look="neo"].icon-shape .icon{fill:url(#my-svg-gradient);filter:drop-shadow( 1px 2px 2px rgba(185,185,185,1));}#my-svg [data-look="neo"].icon-shape .icon-neo path{stroke:url(#my-svg-gradient);filter:drop-shadow( 1px 2px 2px rgba(185,185,185,1));}#my-svg :root{--mermaid-font-family:"trebuchet ms",verdana,arial,sans-serif;}#my-svg .accent&gt;*{fill:rgb(124, 58, 237)!important;stroke:rgb(124, 58, 237)!important;color:rgb(255, 255, 255)!important;}#my-svg .accent span{fill:rgb(124, 58, 237)!important;stroke:rgb(124, 58, 237)!important;color:rgb(255, 255, 255)!important;}#my-svg .accent tspan{fill:rgb(255, 255, 255)!important;}</style><g><marker id="my-svg_flowchart-v2-pointEnd" class="marker flowchart-v2" viewBox="0 0 10 10" refX="5" refY="5" markerUnits="userSpaceOnUse" markerWidth="8" markerHeight="8" orient="auto"><path d="M 0 0 L 10 5 L 0 10 z" class="arrowMarkerPath" style="stroke-width: 1; stroke-dasharray: 1, 0;"/></marker><marker id="my-svg_flowchart-v2-pointStart" class="marker flowchart-v2" viewBox="0 0 10 10" refX="4.5" refY="5" markerUnits="userSpaceOnUse" markerWidth="8" markerHeight="8" orient="auto"><path d="M 0 5 L 10 10 L 10 0 z" class="arrowMarkerPath" style="stroke-width: 1; stroke-dasharray: 1, 0;"/></marker><marker id="my-svg_flowchart-v2-pointEnd-margin" class="marker flowchart-v2" viewBox="0 0 11.5 14" refX="11.5" refY="7" markerUnits="userSpaceOnUse" markerWidth="10.5" markerHeight="14" orient="auto"><path d="M 0 0 L 11.5 7 L 0 14 z" class="arrowMarkerPath" style="stroke-width: 0; stroke-dasharray: 1, 0;"/></marker><marker id="my-svg_flowchart-v2-pointStart-margin" class="marker flowchart-v2" viewBox="0 0 11.5 14" refX="1" refY="7" markerUnits="userSpaceOnUse" markerWidth="11.5" markerHeight="14" orient="auto"><polygon points="0,7 11.5,14 11.5,0" class="arrowMarkerPath" style="stroke-width: 0; stroke-dasharray: 1, 0;"/></marker><marker id="my-svg_flowchart-v2-circleEnd" class="marker flowchart-v2" viewBox="0 0 10 10" refX="11" refY="5" markerUnits="userSpaceOnUse" markerWidth="11" markerHeight="11" orient="auto"><circle cx="5" cy="5" r="5" class="arrowMarkerPath" style="stroke-width: 1; stroke-dasharray: 1, 0;"/></marker><marker id="my-svg_flowchart-v2-circleStart" class="marker flowchart-v2" viewBox="0 0 10 10" refX="-1" refY="5" markerUnits="userSpaceOnUse" markerWidth="11" markerHeight="11" orient="auto"><circle cx="5" cy="5" r="5" class="arrowMarkerPath" style="stroke-width: 1; stroke-dasharray: 1, 0;"/></marker><marker id="my-svg_flowchart-v2-circleEnd-margin" class="marker flowchart-v2" viewBox="0 0 10 10" refY="5" refX="12.25" markerUnits="userSpaceOnUse" markerWidth="14" markerHeight="14" orient="auto"><circle cx="5" cy="5" r="5" class="arrowMarkerPath" style="stroke-width: 0; stroke-dasharray: 1, 0;"/></marker><marker id="my-svg_flowchart-v2-circleStart-margin" class="marker flowchart-v2" viewBox="0 0 10 10" refX="-2" refY="5" markerUnits="userSpaceOnUse" markerWidth="14" markerHeight="14" orient="auto"><circle cx="5" cy="5" r="5" class="arrowMarkerPath" style="stroke-width: 0; stroke-dasharray: 1, 0;"/></marker><marker id="my-svg_flowchart-v2-crossEnd" class="marker cross flowchart-v2" viewBox="0 0 11 11" refX="12" refY="5.2" markerUnits="userSpaceOnUse" markerWidth="11" markerHeight="11" orient="auto"><path d="M 1,1 l 9,9 M 10,1 l -9,9" class="arrowMarkerPath" style="stroke-width: 2; stroke-dasharray: 1, 0;"/></marker><marker id="my-svg_flowchart-v2-crossStart" class="marker cross flowchart-v2" viewBox="0 0 11 11" refX="-1" refY="5.2" markerUnits="userSpaceOnUse" markerWidth="11" markerHeight="11" orient="auto"><path d="M 1,1 l 9,9 M 10,1 l -9,9" class="arrowMarkerPath" style="stroke-width: 2; stroke-dasharray: 1, 0;"/></marker><marker id="my-svg_flowchart-v2-crossEnd-margin" class="marker cross flowchart-v2" viewBox="0 0 15 15" refX="17.7" refY="7.5" markerUnits="userSpaceOnUse" markerWidth="12" markerHeight="12" orient="auto"><path d="M 1,1 L 14,14 M 1,14 L 14,1" class="arrowMarkerPath" style="stroke-width: 2.5;"/></marker><marker id="my-svg_flowchart-v2-crossStart-margin" class="marker cross flowchart-v2" viewBox="0 0 15 15" refX="-3.5" refY="7.5" markerUnits="userSpaceOnUse" markerWidth="12" markerHeight="12" orient="auto"><path d="M 1,1 L 14,14 M 1,14 L 14,1" class="arrowMarkerPath" style="stroke-width: 2.5; stroke-dasharray: 1, 0;"/></marker><g class="root"><g class="clusters"><g class="cluster" id="my-svg-PE" data-look="classic"><rect style="" x="23.2265625" y="653" width="636.796875" height="244"/><g class="cluster-label" transform="translate(259.7421875, 661)"><foreignObject width="163.765625" height="24"><div xmlns="http://www.w3.org/1999/xhtml" style="display: table-cell; white-space: nowrap; line-height: 1.5;"><span class="nodeLabel"><p>Play agent engine</p></span></div></foreignObject></g></g><g class="cluster" id="my-svg-NS" data-look="classic"><rect style="" x="8" y="71" width="657.984375" height="574"/><g class="cluster-label" transform="translate(264.7421875, 79)"><foreignObject width="144.5" height="24"><div xmlns="http://www.w3.org/1999/xhtml" style="display: table-cell; white-space: nowrap; line-height: 1.5;"><span class="nodeLabel"><p>Noise to signal</p></span></div></foreignObject></g></g></g><g class="edgePaths"><path d="M122.445,63.5L122.362,66.75C122.279,70,122.112,76.5,122.029,83.083C121.945,89.667,121.945,96.333,121.945,104.333C121.945,112.333,121.945,121.667,121.945,126.333L121.945,131" id="my-svg-L_V_P_0" class="edge-thickness-normal edge-pattern-solid edge-thickness-normal edge-pattern-solid flowchart-link" style=";" data-edge="true" data-et="edge" data-id="L_V_P_0" data-points="W3sieCI6MTIyLjQ0NTMxMjUsInkiOjYzLjV9LHsieCI6MTIxLjk0NTMxMjUsInkiOjgzfSx7IngiOjEyMS45NDUzMTI1LCJ5IjoxMDN9LHsieCI6MTIxLjk0NTMxMjUsInkiOjEzNX1d" data-look="classic" marker-end="url(#my-svg_flowchart-v2-pointEnd)"/><path d="M121.945,189L121.945,194.333C121.945,199.667,121.945,210.333,135.51,218.848C149.075,227.362,176.204,233.724,189.769,236.906L203.334,240.087" id="my-svg-L_P_ID_0" class="edge-thickness-normal edge-pattern-solid edge-thickness-normal edge-pattern-solid flowchart-link" style=";" data-edge="true" data-et="edge" data-id="L_P_ID_0" data-points="W3sieCI6MTIxLjk0NTMxMjUsInkiOjE4OX0seyJ4IjoxMjEuOTQ1MzEyNSwieSI6MjIxfSx7IngiOjIwNy4yMjc4OTIyODcyMzQwNiwieSI6MjQxfV0=" data-look="classic" marker-end="url(#my-svg_flowchart-v2-pointEnd)"/><path d="M317.914,189L317.914,194.333C317.914,199.667,317.914,210.333,318.167,218.336C318.419,226.339,318.924,231.679,319.177,234.348L319.429,237.018" id="my-svg-L_PH_ID_0" class="edge-thickness-normal edge-pattern-solid edge-thickness-normal edge-pattern-solid flowchart-link" style=";" data-edge="true" data-et="edge" data-id="L_PH_ID_0" data-points="W3sieCI6MzE3LjkxNDA2MjUsInkiOjE4OX0seyJ4IjozMTcuOTE0MDYyNSwieSI6MjIxfSx7IngiOjMxOS44MDU2ODQ4NDA0MjU1NiwieSI6MjQxfV0=" data-look="classic" marker-end="url(#my-svg_flowchart-v2-pointEnd)"/><path d="M547.594,201L547.594,204.333C547.594,207.667,547.594,214.333,530.96,221.138C514.326,227.942,481.058,234.884,464.425,238.355L447.791,241.826" id="my-svg-L_WH_ID_0" class="edge-thickness-normal edge-pattern-solid edge-thickness-normal edge-pattern-solid flowchart-link" style=";" data-edge="true" data-et="edge" data-id="L_WH_ID_0" data-points="W3sieCI6NTQ3LjU5Mzc1LCJ5IjoyMDF9LHsieCI6NTQ3LjU5Mzc1LCJ5IjoyMjF9LHsieCI6NDQzLjg3NSwieSI6MjQyLjY0MzE0OTQ5NzA1MTd9XQ==" data-look="classic" marker-end="url(#my-svg_flowchart-v2-pointEnd)"/><path d="M322.359,295L322.359,298.333C322.359,301.667,322.359,308.333,322.359,314.333C322.359,320.333,322.359,325.667,322.359,328.333L322.359,331" id="my-svg-L_ID_CO_0" class="edge-thickness-normal edge-pattern-solid edge-thickness-normal edge-pattern-solid flowchart-link" style=";" data-edge="true" data-et="edge" data-id="L_ID_CO_0" data-points="W3sieCI6MzIyLjM1OTM3NSwieSI6Mjk1fSx7IngiOjMyMi4zNTkzNzUsInkiOjMxNX0seyJ4IjozMjIuMzU5Mzc1LCJ5IjozMzV9XQ==" data-look="classic" marker-end="url(#my-svg_flowchart-v2-pointEnd)"/><path d="M322.359,413L322.359,416.333C322.359,419.667,322.359,426.333,322.359,432.333C322.359,438.333,322.359,443.667,322.359,446.333L322.359,449" id="my-svg-L_CO_S_0" class="edge-thickness-normal edge-pattern-solid edge-thickness-normal edge-pattern-solid flowchart-link" style=";" data-edge="true" data-et="edge" data-id="L_CO_S_0" data-points="W3sieCI6MzIyLjM1OTM3NSwieSI6NDEzfSx7IngiOjMyMi4zNTkzNzUsInkiOjQzM30seyJ4IjozMjIuMzU5Mzc1LCJ5Ijo0NTN9XQ==" data-look="classic" marker-end="url(#my-svg_flowchart-v2-pointEnd)"/><path d="M322.359,507L322.359,510.333C322.359,513.667,322.359,520.333,322.359,526.333C322.359,532.333,322.359,537.667,322.359,540.333L322.359,543" id="my-svg-L_S_SC_0" class="edge-thickness-normal edge-pattern-solid edge-thickness-normal edge-pattern-solid flowchart-link" style=";" data-edge="true" data-et="edge" data-id="L_S_SC_0" data-points="W3sieCI6MzIyLjM1OTM3NSwieSI6NTA3fSx7IngiOjMyMi4zNTkzNzUsInkiOjUyN30seyJ4IjozMjIuMzU5Mzc1LCJ5Ijo1NDd9XQ==" data-look="classic" marker-end="url(#my-svg_flowchart-v2-pointEnd)"/><path d="M268.273,745.299L245.43,750.916C222.586,756.533,176.898,767.766,154.055,778.05C131.211,788.333,131.211,797.667,131.211,802.333L131.211,807" id="my-svg-L_PL_O1_0" class="edge-thickness-normal edge-pattern-solid edge-thickness-normal edge-pattern-solid flowchart-link" style=";" data-edge="true" data-et="edge" data-id="L_PL_O1_0" data-points="W3sieCI6MjY4LjI3MzQzNzUsInkiOjc0NS4yOTg3Njk3NzE1Mjl9LHsieCI6MTMxLjIxMDkzNzUsInkiOjc3OX0seyJ4IjoxMzEuMjEwOTM3NSwieSI6ODExfV0=" data-look="classic" marker-end="url(#my-svg_flowchart-v2-pointEnd)"/><path d="M322.359,759L322.359,762.333C322.359,765.667,322.359,772.333,322.359,780.333C322.359,788.333,322.359,797.667,322.359,802.333L322.359,807" id="my-svg-L_PL_O2_0" class="edge-thickness-normal edge-pattern-solid edge-thickness-normal edge-pattern-solid flowchart-link" style=";" data-edge="true" data-et="edge" data-id="L_PL_O2_0" data-points="W3sieCI6MzIyLjM1OTM3NSwieSI6NzU5fSx7IngiOjMyMi4zNTkzNzUsInkiOjc3OX0seyJ4IjozMjIuMzU5Mzc1LCJ5Ijo4MTF9XQ==" data-look="classic" marker-end="url(#my-svg_flowchart-v2-pointEnd)"/><path d="M376.445,744.081L402.5,749.901C428.555,755.721,480.664,767.36,506.719,775.847C532.773,784.333,532.773,789.667,532.773,792.333L532.773,795" id="my-svg-L_PL_O3_0" class="edge-thickness-normal edge-pattern-solid edge-thickness-normal edge-pattern-solid flowchart-link" style=";" data-edge="true" data-et="edge" data-id="L_PL_O3_0" data-points="W3sieCI6Mzc2LjQ0NTMxMjUsInkiOjc0NC4wODExMjcyNDE2NzM4fSx7IngiOjUzMi43NzM0Mzc1LCJ5Ijo3Nzl9LHsieCI6NTMyLjc3MzQzNzUsInkiOjc5OX1d" data-look="classic" marker-end="url(#my-svg_flowchart-v2-pointEnd)"/><path d="M322.359,625L322.359,628.333C322.359,631.667,322.359,638.333,322.359,645C322.359,651.667,322.359,658.333,322.359,665C322.359,671.667,322.359,678.333,322.359,684.333C322.359,690.333,322.359,695.667,322.359,698.333L322.359,701" id="my-svg-L_SC_PL_0" class="edge-thickness-normal edge-pattern-solid edge-thickness-normal edge-pattern-solid flowchart-link" style=";" data-edge="true" data-et="edge" data-id="L_SC_PL_0" data-points="W3sieCI6MzIyLjM1OTM3NSwieSI6NjI1fSx7IngiOjMyMi4zNTkzNzUsInkiOjY0NX0seyJ4IjozMjIuMzU5Mzc1LCJ5Ijo2NjV9LHsieCI6MzIyLjM1OTM3NSwieSI6Njg1fSx7IngiOjMyMi4zNTkzNzUsInkiOjcwNX1d" data-look="classic" marker-end="url(#my-svg_flowchart-v2-pointEnd)"/></g><g class="edgeLabels"><g class="edgeLabel"><g class="label" data-id="L_V_P_0" transform="translate(0, 0)"><foreignObject width="0" height="0"><div xmlns="http://www.w3.org/1999/xhtml" class="labelBkg" style="display: table-cell; white-space: nowrap; line-height: 1.5; max-width: 200px; text-align: center;"><span class="edgeLabel"></span></div></foreignObject></g></g><g class="edgeLabel"><g class="label" data-id="L_P_ID_0" transform="translate(0, 0)"><foreignObject width="0" height="0"><div xmlns="http://www.w3.org/1999/xhtml" class="labelBkg" style="display: table-cell; white-space: nowrap; line-height: 1.5; max-width: 200px; text-align: center;"><span class="edgeLabel"></span></div></foreignObject></g></g><g class="edgeLabel"><g class="label" data-id="L_PH_ID_0" transform="translate(0, 0)"><foreignObject width="0" height="0"><div xmlns="http://www.w3.org/1999/xhtml" class="labelBkg" style="display: table-cell; white-space: nowrap; line-height: 1.5; max-width: 200px; text-align: center;"><span class="edgeLabel"></span></div></foreignObject></g></g><g class="edgeLabel"><g class="label" data-id="L_WH_ID_0" transform="translate(0, 0)"><foreignObject width="0" height="0"><div xmlns="http://www.w3.org/1999/xhtml" class="labelBkg" style="display: table-cell; white-space: nowrap; line-height: 1.5; max-width: 200px; text-align: center;"><span class="edgeLabel"></span></div></foreignObject></g></g><g class="edgeLabel"><g class="label" data-id="L_ID_CO_0" transform="translate(0, 0)"><foreignObject width="0" height="0"><div xmlns="http://www.w3.org/1999/xhtml" class="labelBkg" style="display: table-cell; white-space: nowrap; line-height: 1.5; max-width: 200px; text-align: center;"><span class="edgeLabel"></span></div></foreignObject></g></g><g class="edgeLabel"><g class="label" data-id="L_CO_S_0" transform="translate(0, 0)"><foreignObject width="0" height="0"><div xmlns="http://www.w3.org/1999/xhtml" class="labelBkg" style="display: table-cell; white-space: nowrap; line-height: 1.5; max-width: 200px; text-align: center;"><span class="edgeLabel"></span></div></foreignObject></g></g><g class="edgeLabel"><g class="label" data-id="L_S_SC_0" transform="translate(0, 0)"><foreignObject width="0" height="0"><div xmlns="http://www.w3.org/1999/xhtml" class="labelBkg" style="display: table-cell; white-space: nowrap; line-height: 1.5; max-width: 200px; text-align: center;"><span class="edgeLabel"></span></div></foreignObject></g></g><g class="edgeLabel"><g class="label" data-id="L_PL_O1_0" transform="translate(0, 0)"><foreignObject width="0" height="0"><div xmlns="http://www.w3.org/1999/xhtml" class="labelBkg" style="display: table-cell; white-space: nowrap; line-height: 1.5; max-width: 200px; text-align: center;"><span class="edgeLabel"></span></div></foreignObject></g></g><g class="edgeLabel"><g class="label" data-id="L_PL_O2_0" transform="translate(0, 0)"><foreignObject width="0" height="0"><div xmlns="http://www.w3.org/1999/xhtml" class="labelBkg" style="display: table-cell; white-space: nowrap; line-height: 1.5; max-width: 200px; text-align: center;"><span class="edgeLabel"></span></div></foreignObject></g></g><g class="edgeLabel"><g class="label" data-id="L_PL_O3_0" transform="translate(0, 0)"><foreignObject width="0" height="0"><div xmlns="http://www.w3.org/1999/xhtml" class="labelBkg" style="display: table-cell; white-space: nowrap; line-height: 1.5; max-width: 200px; text-align: center;"><span class="edgeLabel"></span></div></foreignObject></g></g><g class="edgeLabel"><g class="label" data-id="L_SC_PL_0" transform="translate(0, 0)"><foreignObject width="0" height="0"><div xmlns="http://www.w3.org/1999/xhtml" class="labelBkg" style="display: table-cell; white-space: nowrap; line-height: 1.5; max-width: 200px; text-align: center;"><span class="edgeLabel"></span></div></foreignObject></g></g></g><g class="nodes"><g class="node default" id="my-svg-flowchart-V-0" data-look="classic" transform="translate(121.9453125, 43.5)"><g class="basic label-container outer-path"><path d="M-65.125 -19.5 C-31.20038900648661 -19.5, 2.7242219870267803 -19.5, 65.125 -19.5 C65.125 -19.5, 65.125 -19.5, 65.125 -19.5 C65.53552233824682 -19.48683534764568, 65.94604467649366 -19.473670695291364, 66.3743692896239 -19.45993515863156 C66.78614704540594 -19.420211453766473, 67.19792480118797 -19.380487748901384, 67.61860465284786 -19.3399052695533 C67.93805745583226 -19.288258617760267, 68.25751025881668 -19.236611965967235, 68.85259325967675 -19.140403561325776 C69.23390293405694 -19.05337211642666, 69.61521260843715 -18.96634067152755, 70.07126438623538 -18.862249829261074 C70.54284675067382 -18.722286658882094, 71.01442911511225 -18.58232348850311, 71.2696102514606 -18.50658706670804 C71.57121945626164 -18.39559209129633, 71.87282866106268 -18.28459711588462, 72.4427065951478 -18.074876768247425 C72.76955137377668 -17.930192280254293, 73.09639615240556 -17.785507792261164, 73.58573291279238 -17.568892924097174 C73.89336137172386 -17.408403354118057, 74.20098983065533 -17.247913784138937, 74.69399226407678 -16.990714730406097 C74.91994982145192 -16.853737931251292, 75.14590737882706 -16.716761132096483, 75.7629305736057 -16.342718045390892 C76.09744715522727 -16.109373759041105, 76.43196373684886 -15.876029472691318, 76.78815534457871 -15.627565626425154 C77.09734953128464 -15.380991490530043, 77.40654371799056 -15.134417354634932, 77.76545370850187 -14.848196188198123 C78.12653768712651 -14.520269272569761, 78.48762166575116 -14.192342356941401, 78.69080973676799 -14.007812326905688 C79.00963921414564 -13.678594715126357, 79.32846869152328 -13.349377103347027, 79.56042094296865 -13.10986736009568 C79.87114738335356 -12.744870402384235, 80.18187382373846 -12.379873444672791, 80.37071390812658 -12.158051136245305 C80.6434433298541 -11.792618557291883, 80.91617275158161 -11.427185978338462, 81.11835896464063 -11.156274872382312 C81.32392603861331 -10.840468644271846, 81.52949311258598 -10.52466241616138, 81.80028387860425 -10.108655082055241 C82.03397015667964 -9.693721432030753, 82.26765643475505 -9.278787782006264, 82.4136864742735 -9.019496659696287 C82.5759820668478 -8.682486389146387, 82.73827765942208 -8.345476118596485, 82.95604614880834 -7.893275190886684 C83.05259604098602 -7.654795090542635, 83.14914593316371 -7.416314990198584, 83.42513422997033 -6.734618561215508 C83.53683805450932 -6.398184439291547, 83.64854187904831 -6.061750317367585, 83.81902313421489 -5.548287939305138 C83.89664237041647 -5.2522921512787475, 83.97426160661804 -4.956296363252358, 84.13609428754556 -4.339158212148133 C84.20115322350773 -4.005094326193347, 84.26621215946992 -3.67103044023856, 84.37504477658177 -3.1121979531509023 C84.41827764934273 -2.776892329313323, 84.46151052210368 -2.4415867054757436, 84.53489270250937 -1.872449005199798 C84.55434124333682 -1.5695222832324933, 84.57378978416429 -1.2665955612651887, 84.61498121591342 -0.6250057626472757 C84.61498121591342 -0.24523676651999726, 84.61498121591342 0.13453222960728117, 84.61498121591342 0.625005762647271 C84.58419162724198 1.1045784591135952, 84.55340203857054 1.5841511555799195, 84.53489270250937 1.8724490051997846 C84.49819258761993 2.157087849024843, 84.4614924727305 2.441726692849901, 84.37504477658177 3.1121979531508885 C84.32238186098888 3.382610894409212, 84.26971894539601 3.653023835667536, 84.13609428754556 4.339158212148129 C84.06327994157428 4.616830871273796, 83.990465595603 4.894503530399463, 83.81902313421489 5.548287939305125 C83.67040498831868 5.995902115658649, 83.52178684242246 6.4435162920121725, 83.42513422997033 6.734618561215495 C83.3304216362356 6.968560498883706, 83.23570904250087 7.202502436551916, 82.95604614880834 7.893275190886679 C82.74309182634667 8.335479397970916, 82.53013750388499 8.777683605055152, 82.4136864742735 9.019496659696284 C82.25808110218158 9.295789754598024, 82.10247573008965 9.572082849499763, 81.80028387860425 10.108655082055236 C81.60930825656057 10.402044921649312, 81.41833263451689 10.695434761243387, 81.11835896464065 11.156274872382301 C80.85632595599826 11.50737523226494, 80.59429294735585 11.858475592147578, 80.37071390812659 12.158051136245302 C80.12353595551656 12.448400424204992, 79.87635800290651 12.738749712164683, 79.56042094296866 13.10986736009567 C79.37746543501501 13.298783942984361, 79.19450992706138 13.487700525873052, 78.69080973676799 14.007812326905684 C78.50384979869213 14.177604395977287, 78.31688986061627 14.347396465048888, 77.7654537085019 14.848196188198111 C77.5592127750399 15.012667844332322, 77.3529718415779 15.17713950046653, 76.78815534457871 15.627565626425152 C76.54011378503513 15.800588680816698, 76.29207222549155 15.973611735208245, 75.7629305736057 16.34271804539089 C75.49105716067432 16.507529306015414, 75.21918374774292 16.67234056663994, 74.69399226407678 16.990714730406093 C74.25689093601291 17.218750213280252, 73.81978960794903 17.446785696154414, 73.58573291279238 17.56889292409717 C73.31983254912727 17.686599127437674, 73.05393218546216 17.804305330778178, 72.4427065951478 18.07487676824742 C71.98542990535944 18.243158817108924, 71.52815321557107 18.411440865970427, 71.26961025146062 18.506587066708033 C70.9005539099716 18.616121051645706, 70.53149756848259 18.72565503658338, 70.07126438623541 18.86224982926107 C69.69224611659189 18.94875827598185, 69.31322784694838 19.03526672270263, 68.85259325967677 19.140403561325773 C68.53177287823777 19.19227131259761, 68.2109524967988 19.24413906386945, 67.61860465284788 19.3399052695533 C67.27668969663397 19.372889394166357, 66.93477474042004 19.405873518779416, 66.3743692896239 19.45993515863156 C65.9206317780941 19.47448563747983, 65.46689426656432 19.4890361163281, 65.125 19.5 C65.125 19.5, 65.125 19.5, 65.125 19.5 C17.43981576454223 19.5, -30.245368470915537 19.5, -65.125 19.5 C-65.50169517126137 19.48792011905032, -65.87839034252274 19.475840238100638, -66.3743692896239 19.45993515863156 C-66.84010907862321 19.41500580132084, -67.30584886762253 19.370076444010124, -67.61860465284786 19.3399052695533 C-67.92434661670231 19.290475279901653, -68.23008858055675 19.241045290250007, -68.85259325967675 19.140403561325773 C-69.25247127531723 19.04913401370375, -69.65234929095773 18.957864466081727, -70.07126438623538 18.862249829261074 C-70.41628731352677 18.759848835503295, -70.76131024081815 18.657447841745515, -71.26961025146059 18.506587066708043 C-71.63660442387486 18.371529818802653, -72.00359859628912 18.236472570897263, -72.4427065951478 18.074876768247425 C-72.67683127190884 17.97123671890709, -72.91095594866988 17.867596669566755, -73.58573291279238 17.568892924097174 C-73.84654701738073 17.43282637279284, -74.10736112196909 17.296759821488504, -74.69399226407678 16.990714730406097 C-74.92390787585357 16.8513385354129, -75.15382348763036 16.711962340419703, -75.76293057360569 16.3427180453909 C-76.16230381907187 16.064132557942845, -76.56167706453805 15.785547070494793, -76.78815534457871 15.627565626425156 C-76.98419697046937 15.47122764666412, -77.18023859636001 15.314889666903083, -77.76545370850187 14.848196188198125 C-78.1325089187062 14.514846358039225, -78.49956412891054 14.181496527880325, -78.69080973676797 14.007812326905697 C-79.02327562066927 13.6645140058209, -79.35574150457057 13.321215684736103, -79.56042094296865 13.109867360095677 C-79.77479634045302 12.858049819904846, -79.98917173793741 12.606232279714016, -80.37071390812658 12.158051136245307 C-80.59593665643102 11.856273171731825, -80.82115940473547 11.554495207218343, -81.11835896464063 11.156274872382316 C-81.30949974778382 10.862631300987458, -81.50064053092699 10.5689877295926, -81.80028387860425 10.108655082055249 C-82.01475286687123 9.727843676047213, -82.2292218551382 9.347032270039179, -82.4136864742735 9.019496659696289 C-82.6065173395019 8.619079242129951, -82.79934820473031 8.218661824563613, -82.95604614880834 7.893275190886686 C-83.07146108598128 7.608198064673519, -83.18687602315421 7.323120938460352, -83.42513422997033 6.73461856121551 C-83.57280081562448 6.289870332700558, -83.72046740127861 5.845122104185608, -83.81902313421489 5.5482879393051325 C-83.92767796570617 5.1339399755270065, -84.03633279719746 4.719592011748881, -84.13609428754556 4.339158212148136 C-84.19476609406809 4.037890885945645, -84.25343790059061 3.736623559743154, -84.37504477658177 3.112197953150904 C-84.4304281252872 2.6826556372708663, -84.48581147399263 2.2531133213908285, -84.53489270250937 1.872449005199809 C-84.55393402487981 1.5758650394014473, -84.57297534725025 1.2792810736030855, -84.61498121591342 0.6250057626472781 C-84.61498121591342 0.24290487652923287, -84.61498121591342 -0.1391960095888124, -84.61498121591342 -0.6250057626472687 C-84.58879719791824 -1.0328429782811657, -84.56261317992305 -1.4406801939150626, -84.53489270250937 -1.8724490051997822 C-84.50145129187239 -2.131813982346785, -84.46800988123539 -2.3911789594937876, -84.37504477658177 -3.112197953150895 C-84.28097211040871 -3.5952412116845043, -84.18689944423566 -4.078284470218113, -84.13609428754556 -4.339158212148126 C-84.0263090727579 -4.757816817346551, -83.91652385797025 -5.176475422544976, -83.81902313421489 -5.548287939305123 C-83.71993059343642 -5.8467388838775936, -83.62083805265794 -6.1451898284500635, -83.42513422997033 -6.734618561215485 C-83.25304436530865 -7.15968385406101, -83.08095450064698 -7.5847491469065345, -82.95604614880834 -7.893275190886676 C-82.80799879264107 -8.20069869367397, -82.6599514364738 -8.508122196461267, -82.4136864742735 -9.019496659696282 C-82.21172943607105 -9.378091831392403, -82.00977239786862 -9.736687003088525, -81.80028387860425 -10.108655082055243 C-81.5644761665349 -10.470919051030537, -81.32866845446556 -10.83318302000583, -81.11835896464063 -11.156274872382308 C-80.82204885187421 -11.553303429082723, -80.52573873910778 -11.950331985783137, -80.37071390812659 -12.158051136245302 C-80.06604339836223 -12.515934453257639, -79.76137288859786 -12.873817770269977, -79.56042094296866 -13.10986736009567 C-79.31211043038789 -13.366268351007545, -79.0637999178071 -13.62266934191942, -78.69080973676799 -14.007812326905677 C-78.4955816763734 -14.185113285904624, -78.3003536159788 -14.362414244903572, -77.7654537085019 -14.848196188198107 C-77.42146241115239 -15.122520093841471, -77.07747111380287 -15.396843999484837, -76.78815534457871 -15.627565626425149 C-76.56259909643977 -15.78490390095427, -76.33704284830081 -15.94224217548339, -75.76293057360571 -16.342718045390885 C-75.3487516461071 -16.59379574522609, -74.93457271860848 -16.844873445061292, -74.69399226407678 -16.99071473040609 C-74.44608726196542 -17.12004661121686, -74.19818225985405 -17.249378492027628, -73.5857329127924 -17.56889292409717 C-73.3449374077447 -17.67548595123692, -73.10414190269701 -17.782078978376664, -72.44270659514781 -18.07487676824742 C-72.02184984449677 -18.229755942844157, -71.60099309384573 -18.384635117440897, -71.26961025146062 -18.506587066708033 C-71.02950125422959 -18.57785015672836, -70.78939225699854 -18.649113246748687, -70.07126438623541 -18.862249829261067 C-69.7115046240997 -18.944362647316698, -69.35174486196398 -19.02647546537233, -68.85259325967677 -19.140403561325773 C-68.42698956507321 -19.209211866063328, -68.00138587046966 -19.278020170800886, -67.61860465284788 -19.3399052695533 C-67.35063209447979 -19.365756259974916, -67.08265953611169 -19.391607250396532, -66.3743692896239 -19.45993515863156 C-65.90914770846062 -19.47485390924059, -65.44392612729736 -19.48977265984962, -65.125 -19.5 C-65.125 -19.5, -65.125 -19.5, -65.125 -19.5" stroke="none" stroke-width="0" fill="#161D27" style=""/><path d="M-65.125 -19.5 C-14.977270343726339 -19.5, 35.17045931254732 -19.5, 65.125 -19.5 M-65.125 -19.5 C-19.454965554509663 -19.5, 26.215068890980675 -19.5, 65.125 -19.5 M65.125 -19.5 C65.125 -19.5, 65.125 -19.5, 65.125 -19.5 M65.125 -19.5 C65.125 -19.5, 65.125 -19.5, 65.125 -19.5 M65.125 -19.5 C65.48262204154969 -19.48853175719658, 65.84024408309936 -19.477063514393155, 66.3743692896239 -19.45993515863156 M65.125 -19.5 C65.42587981446734 -19.490351369977063, 65.72675962893469 -19.480702739954125, 66.3743692896239 -19.45993515863156 M66.3743692896239 -19.45993515863156 C66.64635829702694 -19.433696706202028, 66.91834730442997 -19.407458253772496, 67.61860465284786 -19.3399052695533 M66.3743692896239 -19.45993515863156 C66.8069551481915 -19.418204121116155, 67.2395410067591 -19.37647308360075, 67.61860465284786 -19.3399052695533 M67.61860465284786 -19.3399052695533 C67.9912120570556 -19.279664994054567, 68.36381946126335 -19.219424718555835, 68.85259325967675 -19.140403561325776 M67.61860465284786 -19.3399052695533 C68.10291130142535 -19.261606326465447, 68.58721795000282 -19.183307383377592, 68.85259325967675 -19.140403561325776 M68.85259325967675 -19.140403561325776 C69.33127869444206 -19.031146734554984, 69.80996412920737 -18.921889907784188, 70.07126438623538 -18.862249829261074 M68.85259325967675 -19.140403561325776 C69.208613763784 -19.059144204514205, 69.56463426789124 -18.977884847702633, 70.07126438623538 -18.862249829261074 M70.07126438623538 -18.862249829261074 C70.54668625645735 -18.721147113719518, 71.02210812667933 -18.58004439817796, 71.2696102514606 -18.50658706670804 M70.07126438623538 -18.862249829261074 C70.4335575784176 -18.754723111537164, 70.79585077059983 -18.647196393813257, 71.2696102514606 -18.50658706670804 M71.2696102514606 -18.50658706670804 C71.73417422838882 -18.335623228816125, 72.19873820531706 -18.164659390924214, 72.4427065951478 -18.074876768247425 M71.2696102514606 -18.50658706670804 C71.6504386061404 -18.366438711847156, 72.03126696082018 -18.226290356986276, 72.4427065951478 -18.074876768247425 M72.4427065951478 -18.074876768247425 C72.79583816579932 -17.918555897195848, 73.14896973645087 -17.762235026144268, 73.58573291279238 -17.568892924097174 M72.4427065951478 -18.074876768247425 C72.7471040835758 -17.940129029751017, 73.0515015720038 -17.805381291254612, 73.58573291279238 -17.568892924097174 M73.58573291279238 -17.568892924097174 C73.83264847806153 -17.440077231853227, 74.07956404333068 -17.311261539609283, 74.69399226407678 -16.990714730406097 M73.58573291279238 -17.568892924097174 C73.92479638673616 -17.392003726921224, 74.26385986067994 -17.215114529745275, 74.69399226407678 -16.990714730406097 M74.69399226407678 -16.990714730406097 C74.98941368764002 -16.811628527353076, 75.28483511120325 -16.63254232430005, 75.7629305736057 -16.342718045390892 M74.69399226407678 -16.990714730406097 C75.1118104935494 -16.737430864327337, 75.52962872302203 -16.484146998248573, 75.7629305736057 -16.342718045390892 M75.7629305736057 -16.342718045390892 C75.9747304407631 -16.194975626730372, 76.18653030792048 -16.047233208069855, 76.78815534457871 -15.627565626425154 M75.7629305736057 -16.342718045390892 C76.01949392161175 -16.163750560270195, 76.27605726961782 -15.984783075149501, 76.78815534457871 -15.627565626425154 M76.78815534457871 -15.627565626425154 C77.13595063474848 -15.35020813773613, 77.48374592491824 -15.072850649047108, 77.76545370850187 -14.848196188198123 M76.78815534457871 -15.627565626425154 C77.09187899434593 -15.385354098161557, 77.39560264411315 -15.14314256989796, 77.76545370850187 -14.848196188198123 M77.76545370850187 -14.848196188198123 C78.06132657799888 -14.579492276488079, 78.3571994474959 -14.310788364778034, 78.69080973676799 -14.007812326905688 M77.76545370850187 -14.848196188198123 C77.95930412382513 -14.67214637000246, 78.1531545391484 -14.496096551806797, 78.69080973676799 -14.007812326905688 M78.69080973676799 -14.007812326905688 C78.88900466650531 -13.803159789845546, 79.08719959624264 -13.598507252785403, 79.56042094296865 -13.10986736009568 M78.69080973676799 -14.007812326905688 C78.9532253748423 -13.736846635869394, 79.21564101291662 -13.465880944833101, 79.56042094296865 -13.10986736009568 M79.56042094296865 -13.10986736009568 C79.74827982284101 -12.88919763032451, 79.9361387027134 -12.668527900553341, 80.37071390812658 -12.158051136245305 M79.56042094296865 -13.10986736009568 C79.8072908418434 -12.819879929582212, 80.05416074071815 -12.529892499068746, 80.37071390812658 -12.158051136245305 M80.37071390812658 -12.158051136245305 C80.5633367784125 -11.899954038366648, 80.75595964869844 -11.64185694048799, 81.11835896464063 -11.156274872382312 M80.37071390812658 -12.158051136245305 C80.6131001856437 -11.833275606216498, 80.85548646316084 -11.50850007618769, 81.11835896464063 -11.156274872382312 M81.11835896464063 -11.156274872382312 C81.32554403659165 -10.837982964883818, 81.53272910854267 -10.519691057385323, 81.80028387860425 -10.108655082055241 M81.11835896464063 -11.156274872382312 C81.36578727160912 -10.776158549075285, 81.61321557857761 -10.396042225768257, 81.80028387860425 -10.108655082055241 M81.80028387860425 -10.108655082055241 C81.98710942057795 -9.776927414143394, 82.17393496255166 -9.445199746231546, 82.4136864742735 -9.019496659696287 M81.80028387860425 -10.108655082055241 C81.93337441157219 -9.87233936389282, 82.06646494454013 -9.636023645730397, 82.4136864742735 -9.019496659696287 M82.4136864742735 -9.019496659696287 C82.62787494248343 -8.574729722559317, 82.84206341069336 -8.129962785422347, 82.95604614880834 -7.893275190886684 M82.4136864742735 -9.019496659696287 C82.59577065967616 -8.641394952730217, 82.77785484507882 -8.263293245764146, 82.95604614880834 -7.893275190886684 M82.95604614880834 -7.893275190886684 C83.0648624676177 -7.6244967796071474, 83.17367878642708 -7.3557183683276115, 83.42513422997033 -6.734618561215508 M82.95604614880834 -7.893275190886684 C83.14168116821499 -7.434753103943312, 83.32731618762165 -6.9762310169999395, 83.42513422997033 -6.734618561215508 M83.42513422997033 -6.734618561215508 C83.5172948072611 -6.457045586209621, 83.60945538455185 -6.179472611203734, 83.81902313421489 -5.548287939305138 M83.42513422997033 -6.734618561215508 C83.55494182383697 -6.34365877052059, 83.68474941770361 -5.952698979825672, 83.81902313421489 -5.548287939305138 M83.81902313421489 -5.548287939305138 C83.94290840279876 -5.075859717979776, 84.06679367138264 -4.603431496654416, 84.13609428754556 -4.339158212148133 M83.81902313421489 -5.548287939305138 C83.9263424888574 -5.1390327275506795, 84.03366184349993 -4.729777515796221, 84.13609428754556 -4.339158212148133 M84.13609428754556 -4.339158212148133 C84.2251324176079 -3.881966232493513, 84.31417054767022 -3.424774252838893, 84.37504477658177 -3.1121979531509023 M84.13609428754556 -4.339158212148133 C84.20383391833832 -3.991329524803385, 84.27157354913106 -3.643500837458637, 84.37504477658177 -3.1121979531509023 M84.37504477658177 -3.1121979531509023 C84.43070205323806 -2.680531106177118, 84.48635932989436 -2.2488642592033337, 84.53489270250937 -1.872449005199798 M84.37504477658177 -3.1121979531509023 C84.43096656600073 -2.6784795974238365, 84.4868883554197 -2.24476124169677, 84.53489270250937 -1.872449005199798 M84.53489270250937 -1.872449005199798 C84.55539334619324 -1.5531349320016146, 84.57589398987713 -1.233820858803431, 84.61498121591342 -0.6250057626472757 M84.53489270250937 -1.872449005199798 C84.55388512633607 -1.5766266736904195, 84.57287755016276 -1.2808043421810411, 84.61498121591342 -0.6250057626472757 M84.61498121591342 -0.6250057626472757 C84.61498121591342 -0.34313169867535426, 84.61498121591342 -0.06125763470343282, 84.61498121591342 0.625005762647271 M84.61498121591342 -0.6250057626472757 C84.61498121591342 -0.23216454347941606, 84.61498121591342 0.16067667568844357, 84.61498121591342 0.625005762647271 M84.61498121591342 0.625005762647271 C84.59145578335762 0.9914333640911952, 84.56793035080182 1.3578609655351195, 84.53489270250937 1.8724490051997846 M84.61498121591342 0.625005762647271 C84.5892068363033 1.0264625297795786, 84.56343245669319 1.4279192969118861, 84.53489270250937 1.8724490051997846 M84.53489270250937 1.8724490051997846 C84.49728086037732 2.1641590254776384, 84.45966901824526 2.4558690457554926, 84.37504477658177 3.1121979531508885 M84.53489270250937 1.8724490051997846 C84.50041598781306 2.1398435961869353, 84.46593927311676 2.4072381871740856, 84.37504477658177 3.1121979531508885 M84.37504477658177 3.1121979531508885 C84.303446599495 3.4798394602113736, 84.23184842240823 3.847480967271859, 84.13609428754556 4.339158212148129 M84.37504477658177 3.1121979531508885 C84.31039833725092 3.444143756085028, 84.24575189792007 3.7760895590191677, 84.13609428754556 4.339158212148129 M84.13609428754556 4.339158212148129 C84.01602647686623 4.797028811986717, 83.89595866618691 5.254899411825306, 83.81902313421489 5.548287939305125 M84.13609428754556 4.339158212148129 C84.0643018902263 4.612933738148296, 83.99250949290703 4.886709264148463, 83.81902313421489 5.548287939305125 M83.81902313421489 5.548287939305125 C83.69513122545666 5.921430628989889, 83.57123931669845 6.294573318674651, 83.42513422997033 6.734618561215495 M83.81902313421489 5.548287939305125 C83.69027504960184 5.936056656938082, 83.5615269649888 6.32382537457104, 83.42513422997033 6.734618561215495 M83.42513422997033 6.734618561215495 C83.30674767572177 7.027035639057766, 83.18836112147319 7.319452716900039, 82.95604614880834 7.893275190886679 M83.42513422997033 6.734618561215495 C83.27954421865105 7.094228703965465, 83.1339542073318 7.453838846715434, 82.95604614880834 7.893275190886679 M82.95604614880834 7.893275190886679 C82.81302131239771 8.190269323934606, 82.66999647598709 8.487263456982534, 82.4136864742735 9.019496659696284 M82.95604614880834 7.893275190886679 C82.80254205755412 8.212029720837473, 82.64903796629989 8.530784250788267, 82.4136864742735 9.019496659696284 M82.4136864742735 9.019496659696284 C82.28056722769078 9.255863361789324, 82.14744798110806 9.492230063882362, 81.80028387860425 10.108655082055236 M82.4136864742735 9.019496659696284 C82.25803676177742 9.295868485475571, 82.10238704928132 9.572240311254859, 81.80028387860425 10.108655082055236 M81.80028387860425 10.108655082055236 C81.63778903137535 10.358290803374931, 81.47529418414643 10.607926524694626, 81.11835896464065 11.156274872382301 M81.80028387860425 10.108655082055236 C81.55936349942007 10.478773480662253, 81.31844312023591 10.84889187926927, 81.11835896464065 11.156274872382301 M81.11835896464065 11.156274872382301 C80.8399121942648 11.529368177663319, 80.56146542388893 11.902461482944336, 80.37071390812659 12.158051136245302 M81.11835896464065 11.156274872382301 C80.9255801826808 11.414580877700155, 80.73280140072097 11.67288688301801, 80.37071390812659 12.158051136245302 M80.37071390812659 12.158051136245302 C80.1793806132599 12.382802111568616, 79.9880473183932 12.60755308689193, 79.56042094296866 13.10986736009567 M80.37071390812659 12.158051136245302 C80.17201563517693 12.391453433903983, 79.97331736222729 12.624855731562665, 79.56042094296866 13.10986736009567 M79.56042094296866 13.10986736009567 C79.30046485337193 13.378293365396173, 79.0405087637752 13.646719370696674, 78.69080973676799 14.007812326905684 M79.56042094296866 13.10986736009567 C79.31739571699474 13.360810858655865, 79.07437049102082 13.61175435721606, 78.69080973676799 14.007812326905684 M78.69080973676799 14.007812326905684 C78.38380784687305 14.28662332048338, 78.0768059569781 14.56543431406108, 77.7654537085019 14.848196188198111 M78.69080973676799 14.007812326905684 C78.41226860853966 14.26077600976825, 78.13372748031134 14.513739692630814, 77.7654537085019 14.848196188198111 M77.7654537085019 14.848196188198111 C77.4604219433415 15.091450903677345, 77.15539017818112 15.334705619156578, 76.78815534457871 15.627565626425152 M77.7654537085019 14.848196188198111 C77.4994302080637 15.060342850614916, 77.2334067076255 15.272489513031722, 76.78815534457871 15.627565626425152 M76.78815534457871 15.627565626425152 C76.49640364474917 15.831078982498715, 76.20465194491962 16.034592338572278, 75.7629305736057 16.34271804539089 M76.78815534457871 15.627565626425152 C76.40900941296266 15.892041415357664, 76.0298634813466 16.156517204290175, 75.7629305736057 16.34271804539089 M75.7629305736057 16.34271804539089 C75.41277981355358 16.55498149384875, 75.06262905350147 16.76724494230661, 74.69399226407678 16.990714730406093 M75.7629305736057 16.34271804539089 C75.34874906116993 16.593797312230198, 74.93456754873414 16.844876579069503, 74.69399226407678 16.990714730406093 M74.69399226407678 16.990714730406093 C74.43989564412777 17.12327677427684, 74.18579902417876 17.255838818147588, 73.58573291279238 17.56889292409717 M74.69399226407678 16.990714730406093 C74.40790670446496 17.139965383609034, 74.12182114485313 17.289216036811975, 73.58573291279238 17.56889292409717 M73.58573291279238 17.56889292409717 C73.1567258961459 17.758801604325573, 72.72771887949942 17.94871028455398, 72.4427065951478 18.07487676824742 M73.58573291279238 17.56889292409717 C73.3553493349755 17.670876899910684, 73.1249657571586 17.7728608757242, 72.4427065951478 18.07487676824742 M72.4427065951478 18.07487676824742 C72.04065939590193 18.22283385405347, 71.63861219665607 18.370790939859518, 71.26961025146062 18.506587066708033 M72.4427065951478 18.07487676824742 C72.09155357928475 18.204104324107917, 71.7404005634217 18.333331879968416, 71.26961025146062 18.506587066708033 M71.26961025146062 18.506587066708033 C70.99746822391756 18.58735739198016, 70.7253261963745 18.66812771725229, 70.07126438623541 18.86224982926107 M71.26961025146062 18.506587066708033 C71.02447769232205 18.579341123533297, 70.7793451331835 18.652095180358565, 70.07126438623541 18.86224982926107 M70.07126438623541 18.86224982926107 C69.59948638204878 18.96993008007748, 69.12770837786213 19.077610330893886, 68.85259325967677 19.140403561325773 M70.07126438623541 18.86224982926107 C69.81553516053268 18.920618356238567, 69.55980593482994 18.97898688321606, 68.85259325967677 19.140403561325773 M68.85259325967677 19.140403561325773 C68.48858115278148 19.199254215812555, 68.12456904588619 19.258104870299334, 67.61860465284788 19.3399052695533 M68.85259325967677 19.140403561325773 C68.50364251650726 19.196819211327988, 68.15469177333775 19.253234861330206, 67.61860465284788 19.3399052695533 M67.61860465284788 19.3399052695533 C67.17822385823955 19.38238827517377, 66.73784306363122 19.424871280794243, 66.3743692896239 19.45993515863156 M67.61860465284788 19.3399052695533 C67.2202707707495 19.37833206009275, 66.8219368886511 19.416758850632196, 66.3743692896239 19.45993515863156 M66.3743692896239 19.45993515863156 C66.02466515924674 19.471149489434957, 65.67496102886956 19.48236382023836, 65.125 19.5 M66.3743692896239 19.45993515863156 C65.97138335144369 19.472858133304456, 65.56839741326347 19.48578110797735, 65.125 19.5 M65.125 19.5 C65.125 19.5, 65.125 19.5, 65.125 19.5 M65.125 19.5 C65.125 19.5, 65.125 19.5, 65.125 19.5 M65.125 19.5 C18.009863924572777 19.5, -29.105272150854447 19.5, -65.125 19.5 M65.125 19.5 C32.138448865565 19.5, -0.8481022688699937 19.5, -65.125 19.5 M-65.125 19.5 C-65.57345108008897 19.48561904671862, -66.02190216017794 19.471238093437243, -66.3743692896239 19.45993515863156 M-65.125 19.5 C-65.48929309439265 19.48831782951632, -65.8535861887853 19.47663565903264, -66.3743692896239 19.45993515863156 M-66.3743692896239 19.45993515863156 C-66.69066664268937 19.429422333384554, -67.00696399575483 19.39890950813755, -67.61860465284786 19.3399052695533 M-66.3743692896239 19.45993515863156 C-66.79939005796437 19.418933916272014, -67.22441082630485 19.377932673912465, -67.61860465284786 19.3399052695533 M-67.61860465284786 19.3399052695533 C-68.0023867505372 19.277858356273505, -68.38616884822653 19.21581144299371, -68.85259325967675 19.140403561325773 M-67.61860465284786 19.3399052695533 C-68.00497597033676 19.27743975129601, -68.39134728782565 19.214974233038724, -68.85259325967675 19.140403561325773 M-68.85259325967675 19.140403561325773 C-69.31610639980045 19.034609711798453, -69.77961953992414 18.928815862271133, -70.07126438623538 18.862249829261074 M-68.85259325967675 19.140403561325773 C-69.25527282616211 19.048494578005236, -69.65795239264746 18.9565855946847, -70.07126438623538 18.862249829261074 M-70.07126438623538 18.862249829261074 C-70.31745772280232 18.7891809392632, -70.56365105936926 18.71611204926533, -71.26961025146059 18.506587066708043 M-70.07126438623538 18.862249829261074 C-70.37933449633833 18.77081623767553, -70.68740460644128 18.679382646089984, -71.26961025146059 18.506587066708043 M-71.26961025146059 18.506587066708043 C-71.50952930675881 18.418294636570863, -71.74944836205702 18.330002206433686, -72.4427065951478 18.074876768247425 M-71.26961025146059 18.506587066708043 C-71.52127973518435 18.413970370290496, -71.77294921890811 18.32135367387295, -72.4427065951478 18.074876768247425 M-72.4427065951478 18.074876768247425 C-72.80029376922762 17.916583533728918, -73.15788094330746 17.758290299210415, -73.58573291279238 17.568892924097174 M-72.4427065951478 18.074876768247425 C-72.7589675702448 17.934877416120475, -73.07522854534182 17.79487806399353, -73.58573291279238 17.568892924097174 M-73.58573291279238 17.568892924097174 C-73.81608825055775 17.448716691934617, -74.04644358832311 17.32854045977206, -74.69399226407678 16.990714730406097 M-73.58573291279238 17.568892924097174 C-73.88629389514529 17.41209045212216, -74.18685487749819 17.255287980147145, -74.69399226407678 16.990714730406097 M-74.69399226407678 16.990714730406097 C-74.92827883995852 16.84868883128584, -75.16256541584026 16.70666293216558, -75.76293057360569 16.3427180453909 M-74.69399226407678 16.990714730406097 C-75.10059085448924 16.74423227545952, -75.50718944490171 16.497749820512944, -75.76293057360569 16.3427180453909 M-75.76293057360569 16.3427180453909 C-75.97827224395178 16.192505018148125, -76.19361391429788 16.042291990905355, -76.78815534457871 15.627565626425156 M-75.76293057360569 16.3427180453909 C-76.13066160414549 16.086204797306085, -76.49839263468529 15.829691549221268, -76.78815534457871 15.627565626425156 M-76.78815534457871 15.627565626425156 C-77.13192546892414 15.353418100366877, -77.47569559326958 15.079270574308598, -77.76545370850187 14.848196188198125 M-76.78815534457871 15.627565626425156 C-76.98391137377672 15.471455402426455, -77.17966740297473 15.315345178427755, -77.76545370850187 14.848196188198125 M-77.76545370850187 14.848196188198125 C-78.04578363784134 14.593607963495502, -78.32611356718081 14.339019738792878, -78.69080973676797 14.007812326905697 M-77.76545370850187 14.848196188198125 C-78.12880962830707 14.518205955701854, -78.49216554811227 14.188215723205584, -78.69080973676797 14.007812326905697 M-78.69080973676797 14.007812326905697 C-78.93414314430632 13.756550605578061, -79.17747655184465 13.505288884250426, -79.56042094296865 13.109867360095677 M-78.69080973676797 14.007812326905697 C-78.96159448468723 13.728204842837807, -79.23237923260648 13.448597358769915, -79.56042094296865 13.109867360095677 M-79.56042094296865 13.109867360095677 C-79.73464835643613 12.905209926416099, -79.90887576990362 12.700552492736522, -80.37071390812658 12.158051136245307 M-79.56042094296865 13.109867360095677 C-79.7847704872918 12.846333619482996, -80.00912003161494 12.582799878870317, -80.37071390812658 12.158051136245307 M-80.37071390812658 12.158051136245307 C-80.56203921870376 11.901692650166247, -80.75336452928094 11.645334164087187, -81.11835896464063 11.156274872382316 M-80.37071390812658 12.158051136245307 C-80.61446856429218 11.831442103489408, -80.85822322045779 11.504833070733511, -81.11835896464063 11.156274872382316 M-81.11835896464063 11.156274872382316 C-81.29897972782715 10.878792876661786, -81.47960049101367 10.601310880941254, -81.80028387860425 10.108655082055249 M-81.11835896464063 11.156274872382316 C-81.2869366489376 10.897294279855629, -81.45551433323456 10.638313687328942, -81.80028387860425 10.108655082055249 M-81.80028387860425 10.108655082055249 C-81.97308407724535 9.801830831450445, -82.14588427588646 9.495006580845642, -82.4136864742735 9.019496659696289 M-81.80028387860425 10.108655082055249 C-81.93867218699647 9.862932627169071, -82.07706049538871 9.617210172282896, -82.4136864742735 9.019496659696289 M-82.4136864742735 9.019496659696289 C-82.5507252848272 8.734932637420737, -82.68776409538087 8.450368615145186, -82.95604614880834 7.893275190886686 M-82.4136864742735 9.019496659696289 C-82.6136792618083 8.604207357220133, -82.8136720493431 8.188918054743977, -82.95604614880834 7.893275190886686 M-82.95604614880834 7.893275190886686 C-83.07159681185355 7.607862819144904, -83.18714747489878 7.3224504474031225, -83.42513422997033 6.73461856121551 M-82.95604614880834 7.893275190886686 C-83.13079877414165 7.4616328277012345, -83.30555139947496 7.029990464515783, -83.42513422997033 6.73461856121551 M-83.42513422997033 6.73461856121551 C-83.55847110318942 6.333029143425307, -83.69180797640851 5.931439725635105, -83.81902313421489 5.5482879393051325 M-83.42513422997033 6.73461856121551 C-83.5719155876209 6.292536498405406, -83.71869694527146 5.850454435595302, -83.81902313421489 5.5482879393051325 M-83.81902313421489 5.5482879393051325 C-83.88455606036277 5.298382489753417, -83.95008898651065 5.0484770402017, -84.13609428754556 4.339158212148136 M-83.81902313421489 5.5482879393051325 C-83.93339093706032 5.112153939736179, -84.04775873990576 4.676019940167224, -84.13609428754556 4.339158212148136 M-84.13609428754556 4.339158212148136 C-84.22289004182151 3.8934803582302724, -84.30968579609747 3.447802504312409, -84.37504477658177 3.112197953150904 M-84.13609428754556 4.339158212148136 C-84.21682760271646 3.9246097017377726, -84.29756091788735 3.5100611913274093, -84.37504477658177 3.112197953150904 M-84.37504477658177 3.112197953150904 C-84.4092908704365 2.8465920118698538, -84.44353696429121 2.5809860705888035, -84.53489270250937 1.872449005199809 M-84.37504477658177 3.112197953150904 C-84.41274626466769 2.8197926565574223, -84.45044775275362 2.5273873599639405, -84.53489270250937 1.872449005199809 M-84.53489270250937 1.872449005199809 C-84.56289836472371 1.4362382104477855, -84.59090402693805 1.000027415695762, -84.61498121591342 0.6250057626472781 M-84.53489270250937 1.872449005199809 C-84.5565221817037 1.535552407746782, -84.57815166089803 1.1986558102937548, -84.61498121591342 0.6250057626472781 M-84.61498121591342 0.6250057626472781 C-84.61498121591342 0.29733407331815886, -84.61498121591342 -0.03033761601096041, -84.61498121591342 -0.6250057626472687 M-84.61498121591342 0.6250057626472781 C-84.61498121591342 0.2224596224123359, -84.61498121591342 -0.18008651782260632, -84.61498121591342 -0.6250057626472687 M-84.61498121591342 -0.6250057626472687 C-84.58677887008255 -1.0642800634868255, -84.55857652425168 -1.5035543643263822, -84.53489270250937 -1.8724490051997822 M-84.61498121591342 -0.6250057626472687 C-84.59053127928821 -1.0058332612184846, -84.566081342663 -1.3866607597897005, -84.53489270250937 -1.8724490051997822 M-84.53489270250937 -1.8724490051997822 C-84.50151564901336 -2.1313148410701372, -84.46813859551735 -2.390180676940492, -84.37504477658177 -3.112197953150895 M-84.53489270250937 -1.8724490051997822 C-84.48613584280598 -2.2505975809282863, -84.43737898310259 -2.6287461566567907, -84.37504477658177 -3.112197953150895 M-84.37504477658177 -3.112197953150895 C-84.28357917107022 -3.581854506190218, -84.19211356555864 -4.051511059229541, -84.13609428754556 -4.339158212148126 M-84.37504477658177 -3.112197953150895 C-84.28829902480435 -3.55761905480687, -84.20155327302692 -4.003040156462845, -84.13609428754556 -4.339158212148126 M-84.13609428754556 -4.339158212148126 C-84.0179555180388 -4.789672541943959, -83.89981674853206 -5.240186871739792, -83.81902313421489 -5.548287939305123 M-84.13609428754556 -4.339158212148126 C-84.0314691388497 -4.7381392489517165, -83.92684399015384 -5.137120285755307, -83.81902313421489 -5.548287939305123 M-83.81902313421489 -5.548287939305123 C-83.6828952108564 -5.958283555421739, -83.5467672874979 -6.368279171538354, -83.42513422997033 -6.734618561215485 M-83.81902313421489 -5.548287939305123 C-83.7092265177756 -5.878977854305085, -83.59942990133634 -6.209667769305047, -83.42513422997033 -6.734618561215485 M-83.42513422997033 -6.734618561215485 C-83.30372148508351 -7.034510388441658, -83.18230874019669 -7.334402215667832, -82.95604614880834 -7.893275190886676 M-83.42513422997033 -6.734618561215485 C-83.30491645107978 -7.031558799327771, -83.18469867218924 -7.328499037440055, -82.95604614880834 -7.893275190886676 M-82.95604614880834 -7.893275190886676 C-82.81819838259884 -8.17951902689041, -82.68035061638933 -8.465762862894147, -82.4136864742735 -9.019496659696282 M-82.95604614880834 -7.893275190886676 C-82.8362569665434 -8.142019990937715, -82.71646778427848 -8.390764790988754, -82.4136864742735 -9.019496659696282 M-82.4136864742735 -9.019496659696282 C-82.19419762329193 -9.409221340270307, -81.97470877231035 -9.798946020844332, -81.80028387860425 -10.108655082055243 M-82.4136864742735 -9.019496659696282 C-82.18215905396617 -9.430597039145502, -81.95063163365886 -9.841697418594721, -81.80028387860425 -10.108655082055243 M-81.80028387860425 -10.108655082055243 C-81.65647437324967 -10.32958510053913, -81.51266486789508 -10.550515119023016, -81.11835896464063 -11.156274872382308 M-81.80028387860425 -10.108655082055243 C-81.65104766142835 -10.337921987172832, -81.50181144425245 -10.567188892290421, -81.11835896464063 -11.156274872382308 M-81.11835896464063 -11.156274872382308 C-80.95349339506878 -11.37717971604624, -80.7886278254969 -11.598084559710172, -80.37071390812659 -12.158051136245302 M-81.11835896464063 -11.156274872382308 C-80.84978348634736 -11.516141545565869, -80.5812080080541 -11.876008218749432, -80.37071390812659 -12.158051136245302 M-80.37071390812659 -12.158051136245302 C-80.06257243549624 -12.520011643743413, -79.75443096286588 -12.881972151241524, -79.56042094296866 -13.10986736009567 M-80.37071390812659 -12.158051136245302 C-80.10340122757204 -12.472051821347092, -79.8360885470175 -12.786052506448883, -79.56042094296866 -13.10986736009567 M-79.56042094296866 -13.10986736009567 C-79.34485470937383 -13.332457194599243, -79.12928847577902 -13.555047029102814, -78.69080973676799 -14.007812326905677 M-79.56042094296866 -13.10986736009567 C-79.28735253748283 -13.391832908092812, -79.01428413199702 -13.673798456089957, -78.69080973676799 -14.007812326905677 M-78.69080973676799 -14.007812326905677 C-78.42964316265716 -14.244996899424255, -78.16847658854631 -14.48218147194283, -77.7654537085019 -14.848196188198107 M-78.69080973676799 -14.007812326905677 C-78.3780794501747 -14.291825698799753, -78.06534916358139 -14.57583907069383, -77.7654537085019 -14.848196188198107 M-77.7654537085019 -14.848196188198107 C-77.56566541095036 -15.00752203890557, -77.36587711339884 -15.166847889613035, -76.78815534457871 -15.627565626425149 M-77.7654537085019 -14.848196188198107 C-77.54805961407767 -15.021562193401614, -77.33066551965344 -15.194928198605123, -76.78815534457871 -15.627565626425149 M-76.78815534457871 -15.627565626425149 C-76.46207343826902 -15.855026248408574, -76.13599153195933 -16.082486870392, -75.76293057360571 -16.342718045390885 M-76.78815534457871 -15.627565626425149 C-76.57450501998348 -15.776598844089303, -76.36085469538823 -15.925632061753458, -75.76293057360571 -16.342718045390885 M-75.76293057360571 -16.342718045390885 C-75.40399962132207 -16.560304097977635, -75.04506866903841 -16.77789015056439, -74.69399226407678 -16.99071473040609 M-75.76293057360571 -16.342718045390885 C-75.46559778631591 -16.52296292836737, -75.1682649990261 -16.70320781134385, -74.69399226407678 -16.99071473040609 M-74.69399226407678 -16.99071473040609 C-74.377702537166 -17.155722878342207, -74.06141281025522 -17.320731026278324, -73.5857329127924 -17.56889292409717 M-74.69399226407678 -16.99071473040609 C-74.42892922539762 -17.12899794790403, -74.16386618671847 -17.26728116540197, -73.5857329127924 -17.56889292409717 M-73.5857329127924 -17.56889292409717 C-73.34586427699578 -17.675075653714064, -73.10599564119917 -17.781258383330954, -72.44270659514781 -18.07487676824742 M-73.5857329127924 -17.56889292409717 C-73.14922445147221 -17.762122271360177, -72.712715990152 -17.955351618623187, -72.44270659514781 -18.07487676824742 M-72.44270659514781 -18.07487676824742 C-72.01989077689942 -18.230476897829405, -71.59707495865104 -18.38607702741139, -71.26961025146062 -18.506587066708033 M-72.44270659514781 -18.07487676824742 C-72.03845657326991 -18.223644513144727, -71.63420655139201 -18.37241225804203, -71.26961025146062 -18.506587066708033 M-71.26961025146062 -18.506587066708033 C-70.87047660924215 -18.625047836623235, -70.47134296702367 -18.743508606538438, -70.07126438623541 -18.862249829261067 M-71.26961025146062 -18.506587066708033 C-70.86736877104627 -18.625970226686395, -70.46512729063193 -18.745353386664757, -70.07126438623541 -18.862249829261067 M-70.07126438623541 -18.862249829261067 C-69.65345818242133 -18.957611368841352, -69.23565197860727 -19.052972908421637, -68.85259325967677 -19.140403561325773 M-70.07126438623541 -18.862249829261067 C-69.62780067234935 -18.963467528084383, -69.18433695846329 -19.0646852269077, -68.85259325967677 -19.140403561325773 M-68.85259325967677 -19.140403561325773 C-68.56155164714055 -19.187456912179215, -68.27051003460433 -19.234510263032657, -67.61860465284788 -19.3399052695533 M-68.85259325967677 -19.140403561325773 C-68.51965162654264 -19.194230982569973, -68.18670999340851 -19.24805840381417, -67.61860465284788 -19.3399052695533 M-67.61860465284788 -19.3399052695533 C-67.16001715941687 -19.384144653512436, -66.70142966598584 -19.428384037471574, -66.3743692896239 -19.45993515863156 M-67.61860465284788 -19.3399052695533 C-67.22091940350815 -19.378269487270614, -66.82323415416843 -19.41663370498793, -66.3743692896239 -19.45993515863156 M-66.3743692896239 -19.45993515863156 C-65.900638793301 -19.475126773588162, -65.4269082969781 -19.490318388544765, -65.125 -19.5 M-66.3743692896239 -19.45993515863156 C-66.05656134885105 -19.470126640716515, -65.73875340807821 -19.48031812280147, -65.125 -19.5 M-65.125 -19.5 C-65.125 -19.5, -65.125 -19.5, -65.125 -19.5 M-65.125 -19.5 C-65.125 -19.5, -65.125 -19.5, -65.125 -19.5" stroke="#2A3548" stroke-width="1.3" fill="none" stroke-dasharray="0 0" style=""/></g><g class="label" style="" transform="translate(-72.25, -12)"><rect/><foreignObject width="144.5" height="24"><div xmlns="http://www.w3.org/1999/xhtml" style="display: table-cell; white-space: nowrap; line-height: 1.5; max-width: 200px; text-align: center;"><span class="nodeLabel"><p>Website visitor</p></span></div></foreignObject></g></g><g class="node default" id="my-svg-flowchart-P-1" data-look="classic" transform="translate(121.9453125, 162)"><rect class="basic label-container" style="" x="-54.0859375" y="-27" width="108.171875" height="54"/><g class="label" style="" transform="translate(-24.0859375, -12)"><rect/><foreignObject width="48.171875" height="24"><div xmlns="http://www.w3.org/1999/xhtml" style="display: table-cell; white-space: nowrap; line-height: 1.5; max-width: 200px; text-align: center;"><span class="nodeLabel"><p>Pixel</p></span></div></foreignObject></g></g><g class="node default" id="my-svg-flowchart-ID-3" data-look="classic" transform="translate(322.359375, 268)"><rect class="basic label-container" style="" x="-121.515625" y="-27" width="243.03125" height="54"/><g class="label" style="" transform="translate(-91.515625, -12)"><rect/><foreignObject width="183.03125" height="24"><div xmlns="http://www.w3.org/1999/xhtml" style="display: table-cell; white-space: nowrap; line-height: 1.5; max-width: 200px; text-align: center;"><span class="nodeLabel"><p>Identity resolution</p></span></div></foreignObject></g></g><g class="node default" id="my-svg-flowchart-PH-4" data-look="classic" transform="translate(317.9140625, 162)"><rect class="basic label-container" style="" x="-111.8828125" y="-27" width="223.765625" height="54"/><g class="label" style="" transform="translate(-81.8828125, -12)"><rect/><foreignObject width="163.765625" height="24"><div xmlns="http://www.w3.org/1999/xhtml" style="display: table-cell; white-space: nowrap; line-height: 1.5; max-width: 200px; text-align: center;"><span class="nodeLabel"><p>Product analytics</p></span></div></foreignObject></g></g><g class="node default" id="my-svg-flowchart-WH-6" data-look="classic" transform="translate(547.59375, 162)"><rect class="basic label-container" style="" x="-87.796875" y="-39" width="175.59375" height="78"/><g class="label" style="" transform="translate(-57.796875, -24)"><rect/><foreignObject width="115.59375" height="48"><div xmlns="http://www.w3.org/1999/xhtml" style="display: table-cell; white-space: nowrap; line-height: 1.5; max-width: 200px; text-align: center;"><span class="nodeLabel"><p>Your systems<br />webhook</p></span></div></foreignObject></g></g><g class="node default" id="my-svg-flowchart-CO-9" data-look="classic" transform="translate(322.359375, 374)"><rect class="basic label-container" style="" x="-107.0625" y="-39" width="214.125" height="78"/><g class="label" style="" transform="translate(-77.0625, -24)"><rect/><foreignObject width="154.125" height="48"><div xmlns="http://www.w3.org/1999/xhtml" style="display: table-cell; white-space: nowrap; line-height: 1.5; max-width: 200px; text-align: center;"><span class="nodeLabel"><p>Company + person<br />(when known)</p></span></div></foreignObject></g></g><g class="node default" id="my-svg-flowchart-S-11" data-look="classic" transform="translate(322.359375, 480)"><rect class="basic label-container" style="" x="-63.71875" y="-27" width="127.4375" height="54"/><g class="label" style="" transform="translate(-33.71875, -12)"><rect/><foreignObject width="67.4375" height="24"><div xmlns="http://www.w3.org/1999/xhtml" style="display: table-cell; white-space: nowrap; line-height: 1.5; max-width: 200px; text-align: center;"><span class="nodeLabel"><p>Signals</p></span></div></foreignObject></g></g><g class="node default" id="my-svg-flowchart-SC-13" data-look="classic" transform="translate(322.359375, 586)"><rect class="basic label-container" style="" x="-137.515625" y="-39" width="275.03125" height="78"/><g class="label" style="" transform="translate(-107.515625, -24)"><rect/><foreignObject width="215.03125" height="48"><div xmlns="http://www.w3.org/1999/xhtml" style="display: table; white-space: break-spaces; line-height: 1.5; max-width: 200px; text-align: center; width: 200px;"><span class="nodeLabel"><p>Score<br />Fit ⬩ Intent ⬩ Timing</p></span></div></foreignObject></g></g><g class="node default accent" id="my-svg-flowchart-PL-14" data-look="classic" transform="translate(322.359375, 732)"><rect class="basic label-container" style="fill:#7C3AED !important;stroke:#7C3AED !important" x="-54.0859375" y="-27" width="108.171875" height="54"/><g class="label" style="color:#FFFFFF !important" transform="translate(-24.0859375, -12)"><rect/><foreignObject width="48.171875" height="24"><div style="color: rgb(255, 255, 255) !important; display: table-cell; white-space: nowrap; line-height: 1.5; max-width: 200px; text-align: center;" xmlns="http://www.w3.org/1999/xhtml"><span style="color:#FFFFFF !important" class="nodeLabel"><p>Plays</p></span></div></foreignObject></g></g><g class="node default" id="my-svg-flowchart-O1-15" data-look="classic" transform="translate(131.2109375, 838)"><rect class="basic label-container" style="" x="-82.984375" y="-27" width="165.96875" height="54"/><g class="label" style="" transform="translate(-52.984375, -12)"><rect/><foreignObject width="105.96875" height="24"><div xmlns="http://www.w3.org/1999/xhtml" style="display: table-cell; white-space: nowrap; line-height: 1.5; max-width: 200px; text-align: center;"><span class="nodeLabel"><p>Slack alert</p></span></div></foreignObject></g></g><g class="node default" id="my-svg-flowchart-O2-17" data-look="classic" transform="translate(322.359375, 838)"><rect class="basic label-container" style="" x="-78.1640625" y="-27" width="156.328125" height="54"/><g class="label" style="" transform="translate(-48.1640625, -12)"><rect/><foreignObject width="96.328125" height="24"><div xmlns="http://www.w3.org/1999/xhtml" style="display: table-cell; white-space: nowrap; line-height: 1.5; max-width: 200px; text-align: center;"><span class="nodeLabel"><p>CRM update</p></span></div></foreignObject></g></g><g class="node default" id="my-svg-flowchart-O3-19" data-look="classic" transform="translate(532.7734375, 838)"><rect class="basic label-container" style="" x="-102.25" y="-39" width="204.5" height="78"/><g class="label" style="" transform="translate(-72.25, -24)"><rect/><foreignObject width="144.5" height="48"><div xmlns="http://www.w3.org/1999/xhtml" style="display: table-cell; white-space: nowrap; line-height: 1.5; max-width: 200px; text-align: center;"><span class="nodeLabel"><p>On-page<br />personalization</p></span></div></foreignObject></g></g></g></g></g><defs><filter id="my-svg-drop-shadow" height="130%" width="130%"><feDropShadow dx="4" dy="4" stdDeviation="0" flood-opacity="0.06" flood-color="#000000"/></filter></defs><defs><filter id="my-svg-drop-shadow-small" height="150%" width="150%"><feDropShadow dx="2" dy="2" stdDeviation="0" flood-opacity="0.06" flood-color="#000000"/></filter></defs><linearGradient id="my-svg-gradient" gradientUnits="objectBoundingBox" x1="0%" y1="0%" x2="100%" y2="0%"><stop offset="0%" stop-color="#2A3548" stop-opacity="1"/><stop offset="100%" stop-color="hsl(215.2941176471, 0%, 1.9607843137%)" stop-opacity="1"/></linearGradient></svg>